<?xml version="1.0" encoding="UTF-8" standalone="no"?>
<!-- Created with Inkscape (http://www.inkscape.org/) -->

<svg
   xmlns:dc="http://purl.org/dc/elements/1.1/"
   xmlns:cc="http://creativecommons.org/ns#"
   xmlns:rdf="http://www.w3.org/1999/02/22-rdf-syntax-ns#"
   xmlns:svg="http://www.w3.org/2000/svg"
   xmlns="http://www.w3.org/2000/svg"
   xmlns:sodipodi="http://sodipodi.sourceforge.net/DTD/sodipodi-0.dtd"
   xmlns:inkscape="http://www.inkscape.org/namespaces/inkscape"
   width="297mm"
   height="210mm"
   viewBox="0 0 1052.3622 744.09448"
   id="svg2"
   version="1.1"
   inkscape:version="0.91 r13725"
   sodipodi:docname="drawing.svg">
  <defs
     id="defs4" />
  <sodipodi:namedview
     id="base"
     pagecolor="#ffffff"
     bordercolor="#666666"
     borderopacity="1.0"
     inkscape:pageopacity="0.0"
     inkscape:pageshadow="2"
     inkscape:zoom="0.7"
     inkscape:cx="272.05247"
     inkscape:cy="370.34299"
     inkscape:document-units="px"
     inkscape:current-layer="layer1"
     showgrid="false"
     inkscape:window-width="1871"
     inkscape:window-height="1056"
     inkscape:window-x="49"
     inkscape:window-y="24"
     inkscape:window-maximized="1" />
  <metadata
     id="metadata7">
    <rdf:RDF>
      <cc:Work
         rdf:about="">
        <dc:format>image/svg+xml</dc:format>
        <dc:type
           rdf:resource="http://purl.org/dc/dcmitype/StillImage" />
        <dc:title></dc:title>
      </cc:Work>
    </rdf:RDF>
  </metadata>
  <g
     inkscape:label="Layer 1"
     inkscape:groupmode="layer"
     id="layer1"
     transform="translate(0,-308.26772)">
    <path
       style="fill:#000000"
       d="M 259.60441,808.3415 C 258.17198,805.77862 257,803.5598 257,803.4108 c 0,-0.14901 4.5812,-3.32074 10.18044,-7.04831 24.7143,-16.45298 39.65829,-36.65571 42.39947,-57.31972 l 0.67775,-5.10915 -24.12883,0 -24.12883,0 0,-5 0,-5 24.5,0 24.5,0 0,-15 0,-15 5.5,0 5.5,0 0,15 0,15 25.5,0 25.5,0 0,5 0,5 -24.5,0 c -13.475,0 -24.5,0.19818 -24.5,0.4404 0,0.24222 1.18153,3.72972 2.62563,7.75 9.47392,26.37485 25.02512,45.35578 46.12437,56.29682 2.8875,1.49731 5.25,3.14019 5.25,3.65083 0,0.51064 -1.14755,3.19302 -2.55011,5.96085 l -2.55012,5.03241 -4.69988,-2.70815 c -19.85841,-11.4427 -35.14794,-28.52123 -44.88134,-50.13282 -2.05358,-4.55968 -3.97786,-8.28479 -4.27617,-8.27802 -0.29831,0.007 -1.83143,3.19615 -3.40692,7.08748 -7.60207,18.77639 -26.14934,38.2799 -48.78105,51.29606 l -4.6456,2.67181 -2.6044,-4.65979 z M 410,787.20578 l 0,-25.72785 -3.09456,3.75424 c -1.70201,2.06484 -5.15595,5.32823 -7.67543,7.25199 l -4.58085,3.49775 -2.9511,-4.53671 -2.95109,-4.53671 4.7671,-4.19617 c 11.45663,-10.08453 19.17447,-19.98549 26.50389,-34.00092 l 5.11331,-9.77778 -16.56563,0 -16.56564,0 0,-5 0,-5 8.5,0 c 4.675,0 8.5,-0.28272 8.5,-0.62827 0,-0.34555 -1.3983,-3.07225 -3.10734,-6.05933 -1.70903,-2.98709 -2.94653,-5.54093 -2.75,-5.67522 2.07056,-1.41475 8.90177,-3.72775 9.6478,-3.26668 0.53031,0.32775 2.45073,3.97846 4.26759,8.1127 l 3.30339,7.5168 7.31928,0 7.31928,0 0,5.42581 c 0,4.67442 -0.86553,7.13253 -6.25,17.75 -3.4375,6.77831 -6.37689,12.59237 -6.53198,12.92014 -0.15509,0.32777 1.49836,1.77412 3.67433,3.21411 2.17597,1.43999 5.5528,4.0199 7.50406,5.73313 l 3.54775,3.11497 -3.22208,4.34165 -3.22208,4.34165 -5.25,-5.13657 -5.25,-5.13657 0,28.71584 0,28.71584 -5,0 -5,0 0,-25.72784 z m 59,7.72784 0,-18 -9,0 -9,0 0,4.5 0,4.5 -5,0 -5,0 0,-35 0,-35 14,0 14,0 0,-11.5 0,-11.5 5,0 5,0 0,11.5 0,11.5 13.5,0 13.5,0 0,35 0,35 -5,0 -5,0 0,-4.5 0,-4.5 -8.5,0 -8.5,0 0,18 0,18 -5,0 -5,0 0,-18 z m -0.20794,-35.75 -0.29206,-7.75 -8.75,-0.28893 -8.75,-0.28894 0,8.03894 0,8.03893 9.04206,0 9.04207,0 -0.29207,-7.75 z m 27.20794,-0.25 0,-8 -8.5,0 -8.5,0 0,8 0,8 8.5,0 8.5,0 0,-8 z m -27,-25 0,-8 -9,0 -9,0 0,8 0,8 9,0 9,0 0,-8 z m 27,0 0,-8 -8.5,0 -8.5,0 0,8 0,8 8.5,0 8.5,0 0,-8 z m 71.66849,76.22741 c -1.97758,-1.50008 -3.612,-2.99308 -3.63205,-3.3178 -0.02,-0.32471 2.17193,-4.26476 4.87104,-8.75567 5.45657,-9.07888 10.22056,-21.30953 13.30339,-34.15394 1.75834,-7.32596 2.10504,-12.81631 2.51014,-39.75 l 0.47002,-31.25 5.0176,0 5.0176,0 -0.51858,31.25 c -0.54991,33.13858 -1.55394,41.628 -6.8228,57.68931 -3.28899,10.02597 -12.94668,28.7448 -15.71228,30.45404 -0.49967,0.30881 -2.5265,-0.66587 -4.50408,-2.16594 z M 598,802.93362 l 0,-5 9.5,0 9.5,0 0,-19.45794 0,-19.45793 -7.75,-0.29207 -7.75,-0.29206 -0.30479,-4.75 -0.30479,-4.75 8.05479,0 8.05479,0 0,-19.5 0,-19.5 -8.5,0 -8.5,0 0,-5 0,-5 21,0 21,0 0,5 0,5 -8,0 -8,0 0,19.5 0,19.5 7.5,0 7.5,0 0,5 0,5 -7.5,0 -7.5,0 0,19.5 0,19.5 9,0 9,0 0,5 0,5 -23,0 -23,0 0,-5 z m -72.35796,-5.75 c -0.271,-0.9625 -0.77467,-3.15601 -1.11927,-4.87448 l -0.62654,-3.12447 7.80188,-2.40621 7.80189,-2.40621 0.27361,-17.21932 0.27362,-17.21931 -7.52362,0 -7.52361,0 0,-5 0,-5 7.5,0 7.5,0 0,-15 0,-15 -8,0 -8,0 0,-5 0,-5 20,0 20,0 0,5 0,5 -7.5,0 -7.5,0 0,15 0,15 7,0 7,0 0,5 0,5 -7,0 -7,0 0,15 c 0,11.33375 0.30552,14.99981 1.25,14.99921 0.6875,-4.3e-4 4.12639,-1.36154 7.64198,-3.02468 3.51559,-1.66315 6.59093,-2.82495 6.83408,-2.5818 0.24315,0.24315 0.68894,2.28242 0.99063,4.5317 l 0.54853,4.08961 -10.38261,4.88654 c -9.41332,4.43034 -26.77479,11.09942 -28.8949,11.09942 -0.46911,0 -1.07466,-0.7875 -1.34567,-1.75 z M 567.25,764.68687 c -1.7875,-0.57341 -3.25,-1.43224 -3.25,-1.9085 0,-0.47626 0.86517,-4.79866 1.92261,-9.60534 1.05743,-4.80667 2.64607,-13.68941 3.5303,-19.73941 2.87622,-19.67943 2.12022,-17.66541 6.34907,-16.91427 2.03391,0.36127 4.05744,0.98419 4.49674,1.38428 0.91909,0.83705 -1.57807,22.46206 -3.83898,33.24499 -3.33093,15.88615 -3.07293,15.50689 -9.20974,13.53825 z M 672.50643,618.50678 C 670.5779,616.15325 669,613.98656 669,613.69192 c 0,-0.29465 1.6875,-0.83212 3.75,-1.19439 7.61601,-1.33771 21.86336,-5.81221 27.71882,-8.70533 7.06133,-3.48892 12.85175,-8.74808 15.80905,-14.35858 1.6516,-3.13339 2.22904,-6.4915 2.66526,-15.5 l 0.55687,-11.5 5,0 5,0 -0.0509,13 c -0.0627,16.01786 -1.6964,20.56995 -10.34146,28.81594 -8.02001,7.6498 -15.43823,11.17254 -33.85119,16.07517 l -9.24356,2.46119 -3.50644,-4.27914 z M 764,615.23456 c -5.775,-4.12612 -14.72529,-9.995 -19.88953,-13.04194 l -9.38953,-5.5399 2.38953,-1.81448 c 6.0686,-4.60817 6.01093,-4.61308 16.66259,1.41794 8.07398,4.57153 27.42979,16.72816 29.16196,18.3155 0.50757,0.46513 -7.07598,8.40965 -7.88797,8.26343 -0.30088,-0.0542 -5.27205,-3.47443 -11.04705,-7.60055 z m -626.3896,3.18078 -3.88959,-3.43502 3.88959,-4.5949 c 2.13928,-2.52719 5.60767,-7.02405 7.70753,-9.99301 l 3.81793,-5.39812 4.18207,2.60422 c 2.30014,1.43231 4.33226,2.73135 4.51583,2.88675 0.96634,0.81806 -14.1069,21.49266 -15.60701,21.40673 -0.39971,-0.0229 -2.47707,-1.58738 -4.61635,-3.47665 z m 105.28102,1.26828 c -0.64842,-1.2375 -4.05345,-5.9494 -7.56672,-10.47088 l -6.38778,-8.22088 4.21884,-3.05611 c 4.84731,-3.51137 3.68103,-4.16269 13.26202,7.40632 l 6.54946,7.90844 -3.73362,4.24736 c -2.05349,2.33605 -4.05529,4.28975 -4.44844,4.34156 -0.39315,0.0518 -1.24534,-0.91831 -1.89376,-2.15581 z m 177.87636,-22 -0.26778,-24.25 -4.75299,9.05978 c -2.61415,4.98287 -5.8006,10.47972 -7.08101,12.21522 l -2.32802,3.15545 -3.77575,-3.86672 -3.77576,-3.86673 4.04242,-5.35414 c 5.09987,-6.75473 11.36375,-19.30029 14.07909,-28.1982 3.09083,-10.12834 3.43727,-9.64466 -6.90798,-9.64466 l -9,0 0,-4.46379 0,-4.46379 9.75,-0.28621 9.75,-0.28621 0,-9.5 0,-9.5 -2.5,0.19889 c -1.375,0.10939 -4.99981,0.50183 -8.05513,0.87209 l -5.55514,0.6732 -1.27701,-4.2623 c -1.40943,-4.70424 -0.67179,-5.93681 3.57071,-5.96657 1.83606,-0.0129 20.84388,-3.33566 31.99026,-5.59227 2.94191,-0.59559 3.32479,-0.34635 5.24256,3.4128 1.13788,2.23043 1.73472,4.24547 1.32631,4.47787 -0.40841,0.2324 -3.21756,0.97118 -6.24256,1.64173 -3.025,0.67056 -6.2875,1.43522 -7.25,1.69926 -1.53068,0.41991 -1.75,1.85023 -1.75,11.41269 l 0,10.93261 9.5,0 9.5,0 0,4.5 0,4.5 -9.5,0 c -8.86832,0 -9.5,0.13447 -9.5,2.02234 0,1.11229 1.71373,3.92479 3.80829,6.25 2.09455,2.32521 5.45246,6.27814 7.46201,8.78429 l 3.65372,4.55663 -3.35364,4.71697 -3.35364,4.71697 -3.85837,-6.59719 -3.85837,-6.59718 -0.26534,28.57358 -0.26533,28.57359 -4.46689,0 -4.46688,0 -0.26778,-24.25 z m 115.09218,20.89702 -4.64004,-3.18576 1.77926,-3.48063 c 3.32375,-6.50199 8.03019,-21.20773 9.51817,-29.74044 C 543.60836,575.91746 544,565.64978 544,543.30263 l 0,-30.36901 23.5,0 c 15.7412,0 23.5,-0.34656 23.5,-1.04966 0,-0.57731 -0.68947,-2.38295 -1.53216,-4.01252 -1.49682,-2.89455 -1.468,-2.98757 1.25,-4.03422 6.13196,-2.3613 7.59234,-1.81185 10.22323,3.8464 l 2.44106,5.25 22.80894,0 22.80893,0 0,4.5 0,4.5 -47,0 -47,0 -0.0227,19.25 c -0.0403,34.15371 -2.39438,52.52367 -8.8892,69.36531 -4.54598,11.7881 -4.64441,11.8654 -10.22815,8.03171 z m 47.16088,2.47134 c -3.24945,-0.57753 -3.55596,-0.96498 -4.64245,-5.86836 -0.63981,-2.8875 -0.96039,-5.25 -0.7124,-5.25 0.248,0 3.5957,0.48793 7.43934,1.08429 5.97626,0.92725 7.34373,0.85149 9.44155,-0.52305 L 597,608.88751 l 0,-17.97694 0,-17.97695 -18,0 -18,0 0,-4.5 0,-4.5 18.55902,0 c 13.22671,0 18.36397,-0.3156 17.88015,-1.09843 -0.37338,-0.60413 -4.01605,-3.27696 -8.09483,-5.93961 l -7.41596,-4.84119 3.63533,-2.47027 3.63532,-2.47027 5.56721,3.35365 c 5.40769,3.25755 5.66987,3.31105 9.15048,1.86735 1.9708,-0.81746 6.90282,-3.37965 10.96003,-5.69376 l 7.37674,-4.20747 -28.12674,-0.26557 L 566,541.90247 l 0,-4.98442 0,-4.98443 37,0 37,0 0,4.48538 c 0,4.26393 -0.28387,4.71099 -5.75,9.05538 -3.1625,2.51351 -9.91858,7.07916 -15.0135,10.14589 -12.89575,7.7622 -12.16583,8.31335 11.00977,8.31335 l 18.00139,0 -0.44952,5.42066 c -0.31101,3.75036 -1.89348,8.40737 -5.13564,15.11354 -4.22561,8.74037 -4.90605,9.63023 -6.9243,9.05527 -1.23101,-0.35069 -3.4757,-0.90803 -4.9882,-1.23854 -1.5125,-0.33051 -2.75,-0.93131 -2.75,-1.3351 0,-0.40379 1.575,-4.14305 3.5,-8.30946 1.925,-4.16641 3.5,-8.05478 3.5,-8.64083 0,-0.70331 -4.75925,-1.06554 -14,-1.06554 l -14,0 0,19.85078 c 0,22.63958 -0.61202,25.67134 -5.60321,27.75679 -3.36787,1.40719 -11.98477,1.64671 -18.37595,0.51079 z m -409.64093,-8.87472 c -1.71605,-4.809 -3.42596,-9.46407 -3.79979,-10.3446 -0.51707,-1.21788 0.46879,-2.10642 4.12008,-3.71336 l 4.7998,-2.1124 3.67192,7.71336 c 5.85605,12.30144 5.8555,12.52509 -0.0374,15.06012 -2.75293,1.18428 -5.14691,2.15038 -5.31995,2.14688 -0.17304,-0.003 -1.71866,-3.94099 -3.43471,-8.75 z m 31.59888,-1.04257 c -2.46333,-5.22386 -4.59784,-9.78829 -4.74334,-10.14316 -0.14551,-0.35488 1.83587,-1.6657 4.40305,-2.91294 3.72454,-1.80951 4.84192,-2.00274 5.53033,-0.95633 2.06254,3.13516 8.83117,17.15642 8.83117,18.29383 0,0.68798 -2.14704,2.14315 -4.77121,3.2337 l -4.7712,1.98283 -4.4788,-9.49793 z m 141.8182,9.11865 c -1.73634,-0.45704 -2.14851,-1.33958 -3.30179,-7.06972 l -0.65411,-3.25 9.12491,0 c 8.22979,0 9.35412,-0.22922 11.46156,-2.33665 3.06993,-3.06993 4.51761,-10.18732 5.27076,-25.91335 l 0.61062,-12.75 -38.15447,0 c -29.86137,0 -38.15265,-0.27169 -38.1461,-1.25 0.005,-0.6875 0.90084,-10.7 1.99163,-22.25 1.09079,-11.55 1.98641,-21.45 1.99026,-22 0.004,-0.58643 2.28135,-0.85838 5.50625,-0.65757 l 5.49924,0.34242 -0.52053,5.15758 C 306.05181,542.37982 305,554.39005 305,556.53957 l 0,2.39405 21.83977,0 21.83976,0 1.71519,-19.25 c 0.94335,-10.5875 1.95121,-20.4875 2.23969,-22 l 0.5245,-2.75 -35.63425,0 -35.63424,0 0.30479,-4.75 0.30479,-4.75 40.75,-0.26122 40.75,-0.26121 0,2.95251 c 0,1.62389 -1.12483,13.44143 -2.49961,26.26122 -1.37479,12.81978 -2.49979,23.6462 -2.5,24.0587 -2.2e-4,0.4125 5.18514,0.75 11.52301,0.75 l 11.5234,0 -0.58467,8.25 c -1.14396,16.14187 -3.53524,35.63319 -4.96042,40.43228 -1.69093,5.69399 -6.57434,10.90457 -11.55995,12.33442 -3.39745,0.97438 -14.86661,1.16591 -18.14477,0.30302 z M 448,613.45967 l 0,-4.47396 15.25,-0.27604 15.25,-0.27605 0,-8 0,-8 -12.25,-0.28078 -12.25,-0.28078 0,-4.46922 0,-4.46922 12.54206,0 12.54207,0 -0.29207,-7.75 -0.29206,-7.75 -13.25,-0.27903 -13.25,-0.27902 0,-4.47098 0,-4.47097 32,0 32,0 0,4.5 0,4.5 -13.5,0 -13.5,0 0,8 0,8 11.5,0 11.5,0 0,4.5 0,4.5 -11.5,0 -11.5,0 0,8.5 0,8.5 15,0 15,0 0,4.5 0,4.5 -35.5,0 -35.5,0 0,-4.47395 z m -174,-21.52605 0,-5 40,0 40,0 0,5 0,5 -40,0 -40,0 0,-5 z m 406,-21 0,-25 46,0 46,0 0,25 0,25 -5,0 -5,0 0,-20 0,-20 -36,0 -36,0 0,20 0,20 -5,0 -5,0 0,-25 z m -544,17.5 0,-4.5 26.5,0 26.5,0 0,-5.5 0,-5.5 -21.5,0 -21.5,0 0,-4.48011 0,-4.48011 21.25,-0.26989 21.25,-0.26989 0.30226,-5.25 0.30226,-5.25 -21.05226,0 -21.05226,0 0,-23.5 0,-23.5 46.5,0 46.5,0 0,23.5 0,23.5 -21,0 -21,0 0,5.5 0,5.5 21.5,0 21.5,0 0,4.5 0,4.5 -21.5,0 -21.5,0 0,5.5 0,5.5 26.5,0 26.5,0 0,4.5 0,4.5 -57.5,0 -57.5,0 0,-4.5 z m 53,-59 0,-14.5 -16,0 -16,0 0,14.5 0,14.5 16,0 16,0 0,-14.5 z m -18.17643,6.42373 c -0.58982,-1.69194 -2.13953,-5.17944 -3.4438,-7.75 -1.30427,-2.57055 -2.37328,-4.94 -2.37558,-5.26544 -0.002,-0.32544 1.87488,-1.1547 4.17152,-1.84279 3.89561,-1.16715 4.28777,-1.1025 5.84633,0.96371 0.91884,1.21814 2.48635,4.52239 3.48336,7.34279 0.99701,2.8204 1.98483,5.61368 2.19515,6.20728 0.3155,0.89045 -5.68975,3.42072 -8.11859,3.42072 -0.3773,0 -1.16858,-1.38432 -1.75839,-3.07627 z M 230,529.43362 l 0,-14.5 -16,0 -16,0 0,14.5 0,14.5 16,0 16,0 0,-14.5 z m -20.51772,8.26537 c -2.19026,-1.10901 -4.12077,-2.1359 -4.29004,-2.28198 -0.16928,-0.14607 1.07178,-2.50764 2.75789,-5.24792 1.68612,-2.74029 3.56574,-6.41686 4.17695,-8.17016 0.82444,-2.365 1.53222,-3.01655 2.7421,-2.52428 0.89695,0.36494 2.86832,1.11153 4.38082,1.65908 3.46393,1.25399 3.44086,2.28345 -0.2065,9.2172 -5.20536,9.89554 -4.93716,9.68942 -9.56122,7.34806 z M 455,526.43362 l 0,-19.5 28.5,0 28.5,0 0,19.5 0,19.5 -28.5,0 -28.5,0 0,-19.5 z m 48,0 0,-10.5 -19.5,0 -19.5,0 0,10.5 0,10.5 19.5,0 19.5,0 0,-10.5 z m 184,-5 0,-16.5 39,0 39,0 0,16.5 0,16.5 -39,0 -39,0 0,-16.5 z m 68,0 0,-6.5 -29,0 -29,0 0,6.5 0,6.5 29,0 29,0 0,-6.5 z"
       id="path3347"
       inkscape:connector-curvature="0" />
  </g>
</svg>
