<?xml version="1.0" encoding="UTF-8" standalone="no"?>
<!-- Created with Inkscape (http://www.inkscape.org/) -->

<svg
   xmlns:dc="http://purl.org/dc/elements/1.1/"
   xmlns:cc="http://creativecommons.org/ns#"
   xmlns:rdf="http://www.w3.org/1999/02/22-rdf-syntax-ns#"
   xmlns:svg="http://www.w3.org/2000/svg"
   xmlns="http://www.w3.org/2000/svg"
   xmlns:sodipodi="http://sodipodi.sourceforge.net/DTD/sodipodi-0.dtd"
   xmlns:inkscape="http://www.inkscape.org/namespaces/inkscape"
   version="1.1"
   id="svg4362"
   width="1600"
   height="1600"
   viewBox="0 0 1600 1600"
   sodipodi:docname="girl2.svg"
   inkscape:version="0.92.4 (unknown)">
  <metadata
     id="metadata4368">
    <rdf:RDF>
      <cc:Work
         rdf:about="">
        <dc:format>image/svg+xml</dc:format>
        <dc:type
           rdf:resource="http://purl.org/dc/dcmitype/StillImage" />
        <dc:title></dc:title>
      </cc:Work>
    </rdf:RDF>
  </metadata>
  <defs
     id="defs4366" />
  <sodipodi:namedview
     pagecolor="#ffffff"
     bordercolor="#666666"
     borderopacity="1"
     objecttolerance="10"
     gridtolerance="10"
     guidetolerance="10"
     inkscape:pageopacity="0"
     inkscape:pageshadow="2"
     inkscape:window-width="1855"
     inkscape:window-height="1056"
     id="namedview4364"
     showgrid="false"
     inkscape:zoom="0.51430189"
     inkscape:cx="710.9289"
     inkscape:cy="800"
     inkscape:window-x="65"
     inkscape:window-y="24"
     inkscape:window-maximized="1"
     inkscape:current-layer="svg4362" />
  <path
     style="fill:#000000;stroke-width:1"
     d="m 734.15456,1571.8346 c 0.57656,-19.9589 1.20338,-21.4258 1.42466,-3.3344 0.10987,8.9834 -0.25022,16.3338 -0.80022,16.3344 -0.55,6e-4 -0.831,-5.8494 -0.62444,-13 z m 127.95777,10.17 c -2.75,-1.4125 -5,-2.8749 -5,-3.2498 0,-0.375 1.31496,0.021 2.92213,0.8821 1.60718,0.8601 4.43314,1.968 6.27992,2.462 1.84679,0.4939 2.78183,1.2525 2.07787,1.6859 -0.70396,0.4333 -3.52992,-0.3678 -6.27992,-1.7802 z m 13.00223,1.4992 c -0.45446,-0.7353 -0.27715,-1.3369 0.39401,-1.3369 2.28921,0 13.78311,-9.5867 14.94395,-12.4641 1.03522,-2.5663 1.16637,-2.6011 1.24196,-0.3295 0.14689,4.4143 -14.74235,17.1037 -16.57992,14.1305 z m 30.99777,-1.4992 c -2.75,-1.4125 -5,-2.8749 -5,-3.2498 0,-0.375 1.31496,0.021 2.92213,0.8821 1.60718,0.8601 4.43314,1.968 6.27992,2.462 1.84679,0.4939 2.78183,1.2525 2.07787,1.6859 -0.70396,0.4333 -3.52992,-0.3678 -6.27992,-1.7802 z m -284.66667,-0.4922 c -2.38333,-1.0359 -4.33333,-2.2335 -4.33333,-2.6614 0,-0.4278 1.25192,-0.108 2.78205,0.711 1.53012,0.8189 6.63138,1.29 11.33612,1.0469 9.02388,-0.4663 11.40694,0.6529 4.38183,2.058 -6.09341,1.2187 -9.30961,0.9565 -14.16667,-1.1545 z m 214.49251,-1.8266 c 3.30803,-2.0978 7.30648,-5.5478 8.88547,-7.6666 1.6283,-2.185 2.88916,-3.027 2.91312,-1.9455 0.062,2.7979 -11.8682,13.4265 -15.07059,13.4265 -2.0054,0 -1.12591,-1.0253 3.272,-3.8144 z m -172.15917,1.2283 c 0,-0.6891 2.25,-1.4391 5,-1.6667 l 5,-0.4138 0.72778,-17.3334 0.72778,-17.3333 0.27222,17.6197 c 0.25043,16.2096 0.0659,17.7303 -2.3068,19 -3.21986,1.7232 -9.42098,1.8071 -9.42098,0.128 z m 36,-0.08 c 0,-0.8148 6.22222,-1.3333 16,-1.3333 9.77777,0 16,0.5185 16,1.3333 0,0.8148 -6.22223,1.3333 -16,1.3333 -9.77778,0 -16,-0.5185 -16,-1.3333 z m 41.33333,0 c 0,-0.8316 7.77777,-1.3333 20.66667,-1.3333 12.88889,0 20.66666,0.5017 20.66666,1.3333 0,0.8316 -7.77777,1.3333 -20.66666,1.3333 -12.8889,0 -20.66667,-0.5017 -20.66667,-1.3333 z m 62,0 c -0.51963,-0.8408 2.65155,-1.3333 8.58416,-1.3333 9.32579,0 9.42527,-0.037 11.35673,-4.3334 l 1.94854,-4.3333 -0.7713,4 c -0.42422,2.2 -1.71402,4.75 -2.86622,5.6667 -2.48994,1.9809 -17.06908,2.2472 -18.25191,0.3333 z m -101.51933,-16 c 0,-6.9667 0.22472,-9.8167 0.49938,-6.3333 0.27467,3.4833 0.27467,9.1833 0,12.6666 -0.27466,3.4834 -0.49938,0.6334 -0.49938,-6.3333 z m 6.71001,9.8909 c 0.44513,-1.16 0.80932,-2.36 0.80932,-2.6666 0,-0.3067 3.3,-0.5576 7.33333,-0.5576 4.03334,0 7.33334,0.6 7.33334,1.3333 0,0.7333 -3,1.3333 -6.66667,1.3333 -3.66667,0 -6.66667,0.6 -6.66667,1.3334 0,0.7333 -0.66418,1.3333 -1.47598,1.3333 -0.81179,0 -1.11179,-0.9491 -0.66667,-2.1091 z m 17.82661,-7.5576 c 0.68342,-15.0901 1.26923,-16.1544 1.4678,-2.6666 0.0999,6.7833 -0.28804,12.3333 -0.86201,12.3333 -0.57397,0 -0.84657,-4.35 -0.60579,-9.6667 z m -102.78692,6.6667 c -1.96181,-1.4345 -1.52958,-1.6667 3.10296,-1.6667 4.63255,0 5.06478,0.2322 3.10296,1.6667 -1.25361,0.9167 -2.64994,1.6667 -3.10296,1.6667 -0.45301,0 -1.84934,-0.75 -3.10296,-1.6667 z m 11.76963,0.3328 c -0.46075,-0.7455 0.56788,-1.3333 2.33313,-1.3333 4.37999,0 7.90782,-2.8988 9.96038,-8.1843 l 1.7407,-4.4824 -0.68234,4.6667 c -1.05766,7.2334 -10.54914,13.8682 -13.35187,9.3333 z m 127.54672,-3.6667 -0.21339,-5.6666 h 8 c 4.44444,0 8,0.5925 8,1.3333 0,0.7333 -3.26198,1.3333 -7.24885,1.3333 -7.179,0 -7.25404,0.041 -7.78661,4.3334 -0.46616,3.7564 -0.56619,3.5788 -0.75115,-1.3334 z m 39.96819,1.3334 c -0.18036,-4.3043 -0.1391,-4.3335 6.15176,-4.348 3.48333,-0.013 8.58333,-0.3866 11.33333,-0.8411 2.75,-0.4547 4.9988,-0.298 4.99733,0.348 -10e-4,0.6459 -2.25148,1.3075 -5,1.4703 -12.59288,0.7454 -16.14722,1.7594 -16.73208,4.7733 -0.39517,2.0363 -0.62418,1.6081 -0.75034,-1.4025 z m -148.18158,-0.9618 c 1.1,-1.3174 3.62554,-5.765 5.61231,-9.8834 1.98677,-4.1186 3.61116,-6.5882 3.60976,-5.4882 -0.004,3.2432 -7.13024,16.4143 -9.26207,17.1191 -1.69716,0.5611 -1.6918,0.3267 0.04,-1.7475 z m 38.01344,0.6067 c 0.46062,-0.7453 1.39603,-1.0099 2.0787,-0.588 1.84938,1.1429 1.50454,1.9431 -0.8375,1.9431 -1.14328,0 -1.70181,-0.6098 -1.2412,-1.3551 z m 93.98656,-1.3116 c 0,-0.7396 3.11706,-1.2631 7,-1.1756 5.9834,0.1348 6.4191,0.3056 3,1.1756 -5.92489,1.5076 -10,1.5076 -10,0 z m -77.17866,-4.3333 c -0.1292,-3.0635 0.39369,-3.6667 3.17866,-3.6667 1.83334,0 3.33334,0.6 3.33334,1.3333 0,0.7334 -1.156,1.3334 -2.56891,1.3334 -1.41289,0 -2.84329,1.05 -3.17865,2.3333 -0.37516,1.4356 -0.66928,0.9225 -0.76444,-1.3333 z m 9.33333,0 c -0.11933,-2.8294 0.45431,-3.6667 2.512,-3.6667 1.46667,0 2.66667,0.6 2.66667,1.3333 0,0.7334 -0.856,1.3334 -1.90224,1.3334 -1.04623,0 -2.17663,1.05 -2.51199,2.3333 -0.37516,1.4356 -0.66928,0.9225 -0.76444,-1.3333 z m -104.88231,-3.5512 c 0.67783,-7.4928 4.24388,-12.2946 10.84843,-14.6079 4.48341,-1.5703 5.86532,-1.5484 9.87921,0.1564 l 4.66667,1.9819 -6.11239,-0.6382 c -6.2526,-0.6526 -12.41956,1.4802 -15.69664,5.4288 -0.88814,1.0702 -2.17794,4.5598 -2.86621,7.7547 l -1.25141,5.8088 z m 20.98758,1.8845 c 0.0272,-2.2 0.326,-2.9385 0.66405,-1.6413 0.33805,1.2973 0.31583,3.0973 -0.0495,4 -0.36524,0.9028 -0.64182,-0.1587 -0.61465,-2.3587 z m 111.74006,2 c 0,-0.7333 3,-1.3333 6.66667,-1.3333 3.66667,0 6.66667,0.6 6.66667,1.3333 0,0.7333 -3,1.3333 -6.66667,1.3333 -3.66667,0 -6.66667,-0.6 -6.66667,-1.3333 z m -123.31085,-4 c 0.70713,-4.8521 4.03852,-8.5317 6.40191,-7.0711 0.75241,0.4651 0.0904,1.315 -1.47528,1.8942 -1.5741,0.5824 -3.45679,3.0105 -4.22344,5.4472 l -1.3833,4.3964 z m 207.31085,2.6667 c 0,-0.7334 3.3,-1.3334 7.33334,-1.3334 4.03333,0 7.33333,0.6 7.33333,1.3334 0,0.7333 -3.3,1.3333 -7.33333,1.3333 -4.03334,0 -7.33334,-0.6 -7.33334,-1.3333 z m 20,0 c 0,-0.7619 4,-1.3334 9.33334,-1.3334 5.33333,0 9.33333,0.5715 9.33333,1.3334 0,0.7618 -4,1.3333 -9.33333,1.3333 -5.33334,0 -9.33334,-0.5715 -9.33334,-1.3333 z m 24,0 c 0,-0.7334 3.3,-1.3334 7.33334,-1.3334 4.03333,0 7.33333,0.6 7.33333,1.3334 0,0.7333 -3.3,1.3333 -7.33333,1.3333 -4.03334,0 -7.33334,-0.6 -7.33334,-1.3333 z m 20.66667,0 c -0.51964,-0.8408 2.65283,-1.3334 8.58797,-1.3334 5.3858,0 9.41203,0.5704 9.41203,1.3334 0,0.7509 -3.75155,1.3333 -8.58797,1.3333 -4.72339,0 -8.9588,-0.6 -9.41203,-1.3333 z m -92.21151,-3.3334 c 0.211,-3.9904 0.23239,-4.0005 8.87818,-4.1998 l 8.66666,-0.1998 -8.25448,1.3058 c -6.8474,1.0832 -8.3608,1.799 -8.87817,4.1998 -0.38455,1.7843 -0.54259,1.3603 -0.41219,-1.106 z m -58.13997,-4.6666 c 3.18263,-4.8611 4.00217,-5.3334 9.25499,-5.3334 3.16973,0 5.76316,0.6 5.76316,1.3334 0,0.7333 -2.28716,1.3333 -5.08259,1.3333 -4.10125,0 -5.65359,0.7723 -8.03992,4 -4.39041,5.9384 -5.94203,4.8471 -1.89564,-1.3333 z m 17.8982,0.3333 -0.21339,-5.6667 h 8.66667 c 4.88889,0 8.66667,0.5812 8.66667,1.3334 0,0.7392 -3.5274,1.3333 -7.91552,1.3333 h -7.91552 l -0.53776,4.3333 c -0.46616,3.7564 -0.56619,3.5788 -0.75115,-1.3333 z m 25.81189,2.3743 c -0.5373,-0.8695 1.46546,-1.3743 5.45159,-1.3743 7.22316,0 7.31697,0.5953 0.29377,1.864 -2.90006,0.5239 -5.24226,0.3243 -5.74536,-0.4897 z m 60.84116,-3.041 -0.19977,-5 h 8.66667 c 4.88889,0 8.66666,0.5812 8.66666,1.3334 0,0.739 -3.52604,1.3333 -7.91144,1.3333 -7.6071,0 -7.9328,0.1411 -8.46689,3.6667 -0.44679,2.9494 -0.59453,2.6885 -0.75523,-1.3334 z m 44,0 -0.19977,-5 h 8.66667 c 4.88889,0 8.66666,0.5812 8.66666,1.3334 0,0.739 -3.52604,1.3333 -7.91144,1.3333 -7.6071,0 -7.9328,0.1411 -8.46689,3.6667 -0.44679,2.9494 -0.59453,2.6885 -0.75523,-1.3334 z m -184.0451,0 c -0.1292,-3.0634 0.39369,-3.6666 3.17866,-3.6666 1.83334,0 3.33334,0.6 3.33334,1.3333 0,0.7333 -1.156,1.3333 -2.56891,1.3333 -1.41289,0 -2.84329,1.05 -3.17865,2.3334 -0.37516,1.4356 -0.66928,0.9225 -0.76444,-1.3334 z m 9.33333,0 c -0.11933,-2.8293 0.45431,-3.6666 2.512,-3.6666 1.46667,0 2.66667,0.6 2.66667,1.3333 0,0.7333 -0.856,1.3333 -1.90224,1.3333 -1.04623,0 -2.17663,1.05 -2.51199,2.3334 -0.37516,1.4356 -0.66928,0.9225 -0.76444,-1.3334 z m 68.40315,-2.7757 c 0.42653,-1.3433 0.77552,-2.9933 0.77552,-3.6667 0,-0.6754 7.17233,-1.2242 16,-1.2242 9.77777,0 16,0.5185 16,1.3333 0,0.8091 -5.8399,1.3333 -14.85302,1.3333 -12.52445,0 -15.1544,0.3659 -16.7755,2.3334 -1.81959,2.2084 -1.88099,2.2025 -1.147,-0.1094 z m 34.20257,0.7757 c 0.0515,-0.55 0.60936,-2.2 1.23961,-3.6666 1.01542,-2.3631 1.15658,-2.2491 1.23962,1 0.0516,2.0166 -0.50628,3.6666 -1.23962,3.6666 -0.73333,0 -1.29116,-0.45 -1.23961,-1 z m 11.90628,-1.6666 c 0,-0.7334 3,-1.3334 6.66667,-1.3334 3.66666,0 6.66666,0.6 6.66666,1.3334 0,0.7333 -3,1.3333 -6.66666,1.3333 -3.66667,0 -6.66667,-0.6 -6.66667,-1.3333 z m 44,0 c 0,-0.7334 3,-1.3334 6.66667,-1.3334 3.66666,0 6.66666,0.6 6.66666,1.3334 0,0.7333 -3,1.3333 -6.66666,1.3333 -3.66667,0 -6.66667,-0.6 -6.66667,-1.3333 z m -180,-5.3334 c 0,-0.8316 7.77777,-1.3333 20.66667,-1.3333 12.88889,0 20.66666,0.5017 20.66666,1.3333 0,0.8316 -7.77777,1.3334 -20.66666,1.3334 -12.8889,0 -20.66667,-0.5018 -20.66667,-1.3334 z m 65.54385,-1.3333 c 0,-1.8333 0.30264,-2.5833 0.67252,-1.6667 0.36988,0.9167 0.36988,2.4167 0,3.3334 -0.36988,0.9166 -0.67252,0.1666 -0.67252,-1.6667 z m 86.66667,0 c 0,-1.8333 0.30264,-2.5833 0.67252,-1.6667 0.36988,0.9167 0.36988,2.4167 0,3.3334 -0.36988,0.9166 -0.67252,0.1666 -0.67252,-1.6667 z m 44,0 c 0,-1.8333 0.30264,-2.5833 0.67252,-1.6667 0.36988,0.9167 0.36988,2.4167 0,3.3334 -0.36988,0.9166 -0.67252,0.1666 -0.67252,-1.6667 z m -167.71911,-20.6567 c -4.49638,-0.9778 -10.19638,-2.855 -12.66666,-4.1714 -2.47028,-1.3164 -4.9633,-2.4186 -5.54004,-2.4494 -6.34788,-0.3382 -3.91459,-26.7742 3.90045,-42.3757 l 4.50152,-8.9867 -0.75188,-15.0133 c -0.41352,-8.2575 -1.09121,-16.5135 -1.50597,-18.3468 -0.41475,-1.8333 -0.98084,-5.1333 -1.25799,-7.3333 -0.79952,-6.3466 -1.23439,-6.818 -8.04945,-8.7252 -6.12791,-1.715 -10.98014,-5.5424 -11.07703,-8.7375 -0.0244,-0.8045 -2.79185,-8.6045 -6.14991,-17.3333 -5.65562,-14.7012 -10.19446,-27.84 -16.53694,-47.8707 -4.18952,-13.2312 -11.75102,-49.9388 -12.63422,-61.3333 -1.0973,-14.1567 -3.37146,-22.0528 -6.72329,-23.3439 -10.08897,-3.8861 -22,-28.8851 -22,-46.1737 v -5.6239 l -7.42547,-0.9277 c -6.85657,-0.8567 -7.58297,-0.6853 -9.48148,2.2374 -3.13596,4.8276 -36.0442,36.4814 -45.09241,43.3735 -12.47208,9.5001 -24.65809,15.1249 -32.76736,15.1249 -6.08589,0 -7.36557,-0.5324 -11.69995,-4.8683 -4.73442,-4.736 -5.11374,-4.8603 -13.95957,-4.5742 -13.88589,0.4492 -18.47925,-4.0551 -14.0496,-13.7772 1.5002,-3.2925 10.38943,-10.1136 13.18013,-10.1136 3.53284,0 10.13062,-4.8717 18.3679,-13.5626 10.887,-11.4865 17.41194,-21.1199 23.02558,-33.995 l 4.26027,-9.771 -9.99719,-9.6691 c -10.54549,-10.1993 -18.32742,-21.9968 -18.34834,-27.8162 -0.007,-1.9144 1.57652,-5.8144 3.51865,-8.6667 5.24309,-7.7003 7.13473,-13.0353 7.14223,-20.1432 0.005,-5.3051 0.84553,-7.4774 5,-12.9314 2.7463,-3.6054 7.99328,-8.6107 11.65994,-11.1228 11.5618,-7.9214 14.72795,-11.2987 23.90832,-25.5025 4.92242,-7.6159 11.45676,-16.523 14.52076,-19.7935 15.38048,-16.4171 33.66408,-33.3474 38.88999,-36.0114 6.07248,-3.0956 13.48048,-11.30894 12.14667,-13.46709 -0.41958,-0.67888 -6.92102,-3.23921 -14.44763,-5.68963 -15.93879,-5.18912 -49.15831,-21.60208 -64.00863,-31.62512 -21.32072,-14.39014 -45.96545,-37.30076 -60.41957,-56.16816 -7.428,-9.69598 -9.98165,-13.6837 -18.17349,-28.37926 l -5.74975,-10.31463 -5.63808,-0.0187 c -5.33691,-0.0177 -5.57023,0.14154 -4.36771,2.98128 1.89771,4.4814 10.04167,46.61412 13.85267,71.66667 7.20373,47.35541 8.1614,59.69981 8.11989,104.66674 -0.0432,46.7403 -2.30168,64.2236 -12.22922,94.6667 -9.87016,30.2671 -27.16104,54.8144 -51.26079,72.7733 -16.35931,12.1907 -43.84328,22.7395 -59.65601,22.8968 -4.11356,0.041 -9.58104,0.9622 -12.14998,2.0474 -12.43062,5.2507 -33.16713,7.2968 -40.9173,4.0372 -2.06442,-0.8683 -5.25347,-1.6183 -7.0868,-1.6667 -2.70247,-0.071 -3.40847,-0.8451 -3.73031,-4.088 -1.30645,-13.1643 -13.15539,-39.0388 -26.25511,-57.3334 -18.46313,-25.7849 -31.6478,-50.3073 -39.36249,-73.2112 -9.6784,-28.7339 -10.00037,-31.2861 -9.85557,-78.1221 0.14064,-45.48467 1.13038,-57.07482 7.27169,-85.15242 12.46403,-56.98468 23.50688,-94.42675 40.36075,-136.84769 13.96794,-35.15712 43.72661,-89.30787 57.26288,-104.19914 9.32328,-10.25657 29.14466,-29.05761 36.52689,-34.64662 4.27969,-3.24011 11.68127,-7.70528 16.44793,-9.9226 12.30855,-5.7256 12.69288,-5.99554 12.42927,-8.72947 -5.19864,-53.91541 -3.11868,-129.06397 4.85708,-175.48585 9.8068,-57.07916 39.1868,-114.16808 80.15223,-155.7455 31.39684,-31.86588 58.6395,-52.5704 94.89098,-72.11744 25.30979,-13.64721 44.01619,-21.12093 69.48576,-27.76145 24.9117,-6.49507 37.3927,-8.22764 64.85135,-9.00245 28.88727,-0.81512 43.86796,0.57386 59.40569,5.50801 7.7748,2.46896 10.06271,2.75329 11.48494,1.42729 0.97682,-0.91072 7.27517,-2.69592 13.99633,-3.9671 9.8544,-1.86379 17.21137,-2.19408 38,-1.706 23.08409,0.54197 27.00971,0.97753 37.54284,4.16557 6.46973,1.95817 14.09583,4.75036 16.94689,6.20487 2.85106,1.45449 5.3943,2.64454 5.65164,2.64454 0.25735,0 0.43126,-12.15 0.38646,-27 -0.0508,-16.85146 0.58217,-30.75872 1.68412,-37 2.34689,-13.29249 8.57121,-35.48841 13.64742,-48.66666 4.78608,-12.42508 22.64438,-47.327797 27.49243,-53.731911 1.83139,-2.419215 3.01735,-5.212842 2.63544,-6.208059 -1.90608,-4.967166 10.49143,-9.001967 35.1258,-11.431778 76.38207,-7.53395 164.47947,19.121049 205.12897,62.064468 17.7542,18.75608 28.0548,43.2653 26.4018,62.82029 -1.526,18.05251 -8.7405,33.07097 -24.2729,50.52885 l -9.6589,10.85632 19.5338,1.60158 c 66.0429,5.41481 105.0247,26.84156 124.6297,68.50416 13.0968,27.83189 16.191,60.3001 11.0223,115.66274 -2.6737,28.63964 -7.4879,42.61258 -19.2936,56 -2.2633,2.56667 -4.1248,5.43799 -4.1365,6.38072 -0.041,3.31187 -16.8358,9.10056 -32.0214,11.03699 -10.3042,1.31396 -37.6446,-0.5196 -52.6666,-3.53204 -35.6553,-7.15011 -72.8186,-20.87525 -113.6712,-41.98101 l -20.3378,-10.50718 2.1751,4.96792 c 16.453,37.57782 26.1574,71.89634 32.6987,115.6346 1.661,11.10651 0.658,81.09256 -1.2885,89.90102 -1.2775,5.7812 -1.2052,5.98361 3.5598,9.96932 5.097,4.26333 24.1843,23.46894 41.0245,41.27878 42.3598,44.79883 68.4666,91.69366 90.2894,162.18422 9.606,31.02889 15.3767,60.4607 17.5156,89.33333 0.4617,6.23333 1.4467,17.25847 2.1889,24.50029 0.7421,7.24184 1.5883,16.28079 1.8804,20.08656 0.292,3.80578 1.1531,13.48064 1.9136,21.49983 2.7834,29.3524 0.7165,73.1319 -4.5184,95.7043 -5.3774,23.1869 -18.0126,54.931 -29.1438,73.2194 -6.1427,10.0923 -17.0763,42.9115 -17.4273,52.3112 -0.278,7.4431 -0.5124,7.9886 -3.3016,7.6843 -1.6513,-0.1801 -4.4729,0.636 -6.2701,1.8136 -5.4943,3.6 -23.317,3.9917 -36.6291,0.805 -6.2287,-1.4911 -15.9433,-2.7768 -21.5879,-2.8572 -16.7565,-0.2387 -43.7509,-9.2362 -59.1971,-19.731 -8.747,-5.9431 -22.2024,-17.6315 -26.5187,-23.0362 -1.4641,-1.8333 -3.9856,-4.6784 -5.6033,-6.3223 -8.245,-8.3787 -21.0306,-32.8385 -27.6452,-52.8877 -18.2142,-55.2075 -20.4913,-138.08235 -6.6277,-241.21403 1.165,-8.6665 1.867,-16.00853 1.5599,-16.31561 -0.3071,-0.30709 -2.6163,3.12495 -5.1316,7.62675 -15.9815,28.60317 -46.19427,59.78204 -79.02016,81.5469 -21.13223,14.01151 -38.82727,22.52463 -67.21978,32.33955 -3.85,1.33089 -7,2.77931 -7,3.21868 0,0.43941 4.9511,3.29821 11.00244,6.35306 9.47244,4.7817 13.56592,8.119 29.4369,23.9986 13.86618,13.8738 21.14153,22.47 29.35832,34.6885 8.94449,13.3006 12.48925,17.3679 19.56311,22.4469 16.2565,11.6721 21.1835,18.2047 21.1001,27.9762 -0.054,6.2829 1.7074,11.1244 7.1251,19.5886 3.2309,5.0479 3.9268,7.3333 3.3379,10.9624 -0.8436,5.1985 -5.9833,13.0556 -14.5981,22.316 -3.235,3.4773 -5.8005,7.3773 -5.7012,8.6666 0.2701,3.506 16.3378,37.1042 19.8777,41.565 2.35217,2.964 14.20437,10.0513 21.10227,12.6184 10.4349,3.8835 17.2401,14.2896 13.3479,20.4108 -1.9849,3.1216 -8.7505,4.5792 -17.1034,3.6847 -7.4001,-0.7925 -8.3303,-0.6193 -9.0623,1.6871 -1.0183,3.2083 -10.00337,8.3782 -14.56107,8.3782 -8.1922,0 -34.38236,-15.5816 -40.54627,-24.1226 -0.90965,-1.2605 -5.41802,-4.9778 -10.01858,-8.2607 -7.84726,-5.5997 -15.35927,-12.905 -21.7946,-21.1951 -2.53126,-3.2608 -3.24038,-3.4746 -7.9887,-2.4087 -2.86597,0.6433 -6.77701,1.494 -8.6912,1.8904 -3.21092,0.6649 -3.551,1.4102 -4.39289,9.6275 -1.75588,17.1384 -8.48257,31.4949 -17.01547,36.3155 -3.0407,1.7178 -3.66796,2.8285 -3.09874,5.4871 0.41054,1.9176 -0.32023,5.3582 -1.72058,8.1009 -1.74745,3.4225 -2.52682,8.3129 -2.7624,17.3334 -0.65909,25.2368 -10.02194,69.8351 -21.81225,103.899 -2.91897,8.4333 -6.01033,17.7333 -6.86967,20.6667 -2.24932,7.678 -3.61306,9.3445 -8.83598,10.7978 -4.38988,1.2215 -4.71515,1.7103 -5.71084,8.582 -0.58071,4.0078 -1.50294,15.0868 -2.0494,24.6202 l -0.99358,17.3333 4.5972,8.6667 c 3.79655,7.1573 4.87483,11.1049 6.19128,22.6666 0.87674,7.7 1.29948,14.7795 0.93942,15.7322 -1.12026,2.9641 -15.23336,9.1806 -24.4283,10.7602 -11.63053,1.998 -18.61654,1.9015 -32.06176,-0.4432 -9.81114,-1.7109 -12.66124,-1.7116 -23.17465,0 -14.45035,2.3455 -23.93105,2.3362 -34.82963,-0.035 z m 39.39419,-5.5204 c 4.0248,-0.805 4.20509,-1.1113 3.91803,-6.657 -0.4204,-8.1214 -1.02832,-8.7015 -7.19603,-6.867 -2.90085,0.863 -13.37427,1.5986 -23.27427,1.635 -14.19798,0.052 -19.20262,-0.4267 -23.69365,-2.2672 -7.25807,-2.9744 -6.97301,-3.0456 -6.97301,1.7416 0,3.5284 0.78009,4.4201 5.8154,6.6474 11.31044,5.0031 39.44244,8.1594 51.40353,5.7672 z m 44.1144,-0.5285 c 4.76667,-0.7436 12.71667,-2.5564 17.66667,-4.0283 8.93568,-2.657 9,-2.7102 9,-7.4472 0,-4.0241 -0.3652,-4.6192 -2.33334,-3.8013 -12.07704,5.0185 -30.50181,6.0755 -47.66666,2.7344 -5.13334,-0.9992 -9.44422,-1.7163 -9.57974,-1.5935 -0.13552,0.1227 -0.65605,3.3114 -1.15674,7.0858 -0.8601,6.4836 -0.73608,6.8956 2.2464,7.4609 6.07309,1.1511 23.23149,0.9296 31.82341,-0.4108 z m -48,-15.7265 6,-0.9012 0.3928,-6.7055 0.3928,-6.7053 -6.18361,-3.0043 c -4.7703,-2.3176 -6.64964,-4.1907 -8.22259,-8.1949 l -2.03896,-5.1907 -9.73348,-0.4331 -9.73348,-0.4329 -2.90555,7.0193 c -3.49728,8.4488 -6.75148,10.9807 -14.11328,10.9807 -5.15728,0 -5.59398,0.2861 -6.14277,4.0253 -0.32493,2.2139 0.0569,4.5471 0.84867,5.185 1.31538,1.0596 11.2171,3.406 19.43945,4.6065 5.78529,0.8447 25.75265,0.6893 32,-0.2489 z m 66.47125,-2.0932 c 3.92586,-1.0851 7.38003,-2.2148 7.67594,-2.5108 0.29589,-0.2959 0.15882,-2.4338 -0.3046,-4.751 -0.79008,-3.9504 -1.20254,-4.2129 -6.61908,-4.2129 -5.00004,0 -6.27542,-0.6253 -9.48828,-4.6519 -2.04148,-2.5585 -4.37059,-6.6085 -5.1758,-9 -0.8052,-2.3914 -1.86048,-4.1981 -2.34506,-4.0148 -0.48457,0.1834 -4.75289,0.3334 -9.48514,0.3334 -8.50076,0 -8.63036,0.056 -10.7895,4.6053 -2.47784,5.2217 -4.16344,6.8443 -10.28893,9.9044 -3.83383,1.9153 -4.36279,2.8616 -4.72209,8.4469 -0.43864,6.819 -0.5591,6.7171 9.73796,8.2352 7.62232,1.1236 34.69988,-0.4204 41.80458,-2.3838 z m -108.48704,-15.4687 c 6.77787,-2.5769 14.58718,-28.4567 10.12092,-33.5404 -0.86924,-0.9895 -2.59849,-3.8989 -3.84278,-6.4656 -1.2443,-2.5667 -2.79535,-4.6667 -3.4468,-4.6667 -0.65144,0 -1.40424,6.3 -1.67287,14 -0.45113,12.9311 -0.84568,14.6871 -5.16783,23 -4.26868,8.21 -4.4513,9 -2.0806,9 1.42935,0 4.16983,-0.5973 6.08996,-1.3273 z m 114.01579,0.4748 c 0,-0.4689 -1.90751,-3.9189 -4.23892,-7.6667 -4.00205,-6.4333 -4.272,-7.6896 -4.831,-22.4808 -0.32565,-8.6166 -0.87196,-15.6666 -1.21403,-15.6666 -1.43964,0 -5.63086,6.189 -5.67169,8.3752 -0.0244,1.3062 -1.01619,2.7481 -2.20397,3.2038 -1.78455,0.6848 -2.0112,2.1248 -1.30507,8.2915 1.2916,11.2796 4.50377,19.6448 8.9944,23.4235 3.60051,3.0296 10.47028,4.683 10.47028,2.5201 z m -65.98495,-18.1475 c -0.52197,-9.7166 -1.33889,-18.036 -1.81537,-18.4876 -0.47649,-0.4514 -3.45531,0.3383 -6.61959,1.755 -5.11094,2.2881 -5.67514,2.9752 -5.05377,6.1542 0.38471,1.9682 1.11148,7.1779 1.61504,11.5774 0.78889,6.892 1.57043,8.5986 5.64767,12.3333 2.60265,2.3839 5.28176,4.3344 5.95358,4.3344 0.72606,0 0.83656,-7.1655 0.27244,-17.6667 z m 15.81154,13.3334 c 4.18684,-3.6746 5.13169,-5.5498 6.21442,-12.3334 1.98376,-12.4289 1.70975,-16.6666 -1.07766,-16.6666 -1.30351,0 -3.74231,-0.9612 -5.41956,-2.136 -1.67727,-1.1748 -3.40802,-1.7776 -3.84612,-1.3395 -1.94332,1.9433 -3.76178,36.8088 -1.91982,36.8088 0.61115,0 3.33308,-1.95 6.04874,-4.3333 z m -32.49326,-14.588 c 0,-3.2971 -1.35305,-3.6883 -9.75733,-2.8208 -5.75181,0.5936 -7.576,1.2988 -7.576,2.9286 0,1.7534 1.58847,2.1468 8.66667,2.1468 7.24985,0 8.66666,-0.3685 8.66666,-2.2546 z m 60.51008,-0.3394 c -0.6591,-1.7174 -14.66149,-3.8818 -16.75274,-2.5893 -0.59987,0.3707 -1.09202,1.6887 -1.09367,2.9287 -0.003,1.9432 1.27539,2.194 9.25075,1.8152 6.86601,-0.3262 9.08393,-0.882 8.59566,-2.1546 z m -60.51273,-9.7393 c 0.003,-2.7781 -0.58915,-3 -7.99735,-3 -7.62142,0 -8,0.156 -8,3.2977 0,3.1747 0.29848,3.2867 7.99735,3 7.31553,-0.2724 7.99757,-0.5534 8,-3.2977 z m 59.77073,-0.067 c 0.41922,-2.9566 0.1332,-3.052 -8,-2.6666 -7.32046,0.3468 -8.48625,0.7594 -8.82461,3.1233 -0.35789,2.5004 0.29801,2.7189 8,2.6667 7.71952,-0.052 8.4246,-0.302 8.82461,-3.1234 z m -52.01008,-8.985 6.90867,-2.0517 v -6.547 -6.5469 l -4.9598,2.0723 c -3.85033,1.6088 -7.95137,1.9069 -18.33333,1.3328 -7.35544,-0.4068 -15.47354,-1.1262 -18.0402,-1.5984 l -4.66667,-0.8588 4.33292,3.1246 c 2.38312,1.7186 5.04308,5.0455 5.91103,7.3931 1.10561,2.9904 2.60273,4.4276 5.0004,4.8001 7.97172,1.239 17.39322,0.7964 23.84698,-1.1201 z m 49.87232,1.2017 c 3.50986,-0.5802 5.20224,-1.6498 5.7783,-3.652 0.44805,-1.5573 3.31377,-5.0321 6.36828,-7.7217 3.05449,-2.6897 5.2185,-5.2255 4.80889,-5.6351 -0.4096,-0.4096 -4.00897,0.5055 -7.99859,2.0334 -6.16112,2.3596 -9.16202,2.6704 -19.92053,2.0632 -6.96667,-0.3934 -14.05508,-1.1378 -15.75201,-1.6543 -2.93472,-0.8935 -3.06492,-0.6556 -2.66667,4.8699 0.3996,5.5442 0.69217,5.9108 6.41868,8.0408 6.39951,2.3802 14.88148,2.9918 22.96365,1.6558 z m -34.96365,-21.1497 c 0,-4.8889 -0.5812,-8.6667 -1.33333,-8.6667 -1.44255,0 -1.84782,11.7746 -0.52402,15.2243 1.43966,3.7517 1.85735,2.2771 1.85735,-6.5576 z m -12.27024,3.2277 c 2.9988,-1.0453 4.139,-2.3957 4.58419,-5.4289 l 0.59258,-4.0376 -6.11993,0.9444 c -16.3522,2.5232 -22.2886,2.7517 -31.27607,1.204 -5.23078,-0.9008 -9.9042,-1.3983 -10.38536,-1.1057 -1.93289,1.1756 0.78823,6.1493 4.04086,7.386 9.62658,3.66 29.50702,4.195 38.56373,1.0378 z m 57.12576,-0.6456 c 6.42517,-1.7862 8.47781,-3.6949 8.47781,-7.8828 0,-1.3725 -1.22028,-1.4698 -5.66666,-0.4517 -7.4203,1.6989 -23.54166,2.0243 -34,0.6861 l -8.33334,-1.0661 v 3.9764 c 0,4.4263 1.33342,5.1527 12.61855,6.8747 8.01579,1.2232 17.54005,0.4668 26.90364,-2.1366 z m -50.7398,-14.1264 c 1.63929,-1.6393 1.71584,-13.4217 0.54913,-84.5136 -0.74564,-45.4348 -1.93061,-91.9088 -2.63325,-103.2754 -0.70264,-11.3667 -1.2972,-23.8167 -1.32124,-27.6667 l -0.0437,-7 h -9.10176 c -11.53284,0 -35.71942,-2.3542 -46.53143,-4.5292 -4.56491,-0.9182 -8.76491,-1.3248 -9.33333,-0.9035 -0.56842,0.4213 -1.21231,3.9335 -1.43088,7.805 -0.72403,12.8244 -7.91643,25.071 -20.62295,35.115 -4.47679,3.5386 -7.88721,5.1802 -10.76605,5.1821 h -4.2136 l 0.20906,13.6639 c 0.11507,7.5151 0.84506,16.9639 1.62235,20.9972 0.77729,4.0334 2.40088,13.9334 3.60797,22 4.33602,28.9767 11.57847,58.6136 22.33358,91.3916 8.17486,24.9144 8.2053,24.9673 15.60941,27.1661 6.00549,1.7835 22.84183,5.3388 31.28429,6.6064 8.40576,1.262 28.83352,-0.093 30.78239,-2.0417 z m 47.49731,-0.4232 c 14.8366,-2.839 22.81836,-4.9 24.71106,-6.3805 0.91158,-0.7131 3.44051,-7.0765 5.61984,-14.1409 10.22098,-33.1319 20.59344,-86.4206 22.22431,-114.1778 0.47395,-8.0666 1.58787,-16.0951 2.47536,-17.841 1.14931,-2.2609 1.25571,-4.9466 0.36976,-9.3333 -0.68413,-3.3875 -1.20085,-8.2936 -1.14827,-10.9026 l 0.0956,-4.7436 h -6.34041 c -13.72835,0 -25.09968,-13.491 -30.50981,-36.197 -2.81568,-11.8172 -4.19188,-15.2955 -5.68628,-14.372 -2.07711,1.2838 -27.90608,4.5282 -43.94656,5.5203 l -15.18904,0.9394 0.9048,22.7982 c 0.49764,12.5391 1.7909,38.3983 2.87393,57.465 1.08301,19.0666 2.57465,58.6397 3.31475,87.9401 0.9951,39.3967 1.7718,53.5443 2.98176,54.3129 2.76236,1.755 26.38177,1.1923 37.24918,-0.8872 z m -274.2012,-155.9901 c 1.42349,-1.0767 3.32169,-1.9767 4.21822,-2 2.2067,-0.057 23.29902,-14.4069 32.36995,-22.0219 8.06745,-6.7726 31.99309,-30.2595 31.99733,-31.4106 0.001,-0.3979 -2.6475,-1.4323 -5.88661,-2.2986 -6.46571,-1.7293 -27.73288,-11.625 -36.0372,-16.7682 l -5.25983,-3.2576 -4.98702,10.1906 c -2.79755,5.7166 -8.53726,14.1698 -13.07351,19.2543 -4.44757,4.9851 -8.08649,9.5013 -8.08649,10.0362 0,3.8293 -16.46264,15.9258 -25.64582,18.8441 -4.70446,1.495 -10.35418,6.8189 -10.35418,9.7571 0,0.8506 4.17352,1.081 11.40685,0.6298 l 11.40685,-0.7117 3.21423,5.0917 c 2.82687,4.478 4.83379,5.6841 10.71723,6.4408 0.7765,0.1 2.5765,-0.6993 4,-1.776 z m 113.90109,-13.6223 c 0.0107,-3.0689 -0.66548,-7.2689 -1.5038,-9.3333 -0.83831,-2.0644 -2.50445,-9.4535 -3.70253,-16.4201 -1.19808,-6.9667 -2.61219,-12.5167 -3.14246,-12.3334 -0.53028,0.1834 -3.74674,0.3334 -7.1477,0.3334 h -6.18358 l 0.85536,7.2778 c 1.33003,11.3164 8.42876,29.4242 13.74484,35.0608 5.36438,5.6879 7.04626,4.5987 7.07987,-4.5852 z m 345.68705,2.6027 c 1.2833,-1.1565 2.3333,-2.8744 2.3333,-3.8174 0,-3.0782 3.1595,-3.8299 14.3334,-3.4101 8.7505,0.3288 11,0.031 11,-1.4586 0,-2.9287 -5.5104,-7.3804 -11.9464,-9.6511 -3.2288,-1.1392 -7.8217,-3.5595 -10.2064,-5.3784 -5.1617,-3.937 -5.4888,-3.9883 -6.20977,-0.9739 -0.5006,2.0932 -0.6722,2.0589 -1.6672,-0.3333 -0.61,-1.4667 -1.5422,-2.9667 -2.0715,-3.3333 -1.6723,-1.1583 -15.5535,-28.2808 -19.2778,-37.6667 -1.9642,-4.95 -3.8434,-9 -4.176,-9 -0.3327,0 -3.4112,2.1428 -6.8411,4.7617 -6.21722,4.7472 -30.34662,17.4119 -38.63682,20.2791 l -4.36631,1.5101 6.31602,5.7246 c 3.47381,3.1485 9.63865,8.8346 13.69965,12.6359 4.061,3.8012 9.18363,8.4704 11.38363,10.376 5.69525,4.9331 26.87133,19.3793 28.40733,19.3793 0.7083,0 3.0064,0.911 5.1069,2.0246 4.2298,2.2424 9.1968,1.5959 12.81907,-1.6685 z m -115.25892,-6.0228 c 5.59743,-8.6579 8.78124,-18.0291 10.19234,-30 0.78338,-6.6459 0.67102,-6.9991 -2.2208,-6.9818 -7.51082,0.045 -8.64704,1.1344 -9.48079,9.0906 -0.4356,4.1568 -2.01596,11.386 -3.51191,16.0649 -3.29026,10.291 -3.61056,20.1596 -0.65428,20.1596 0.15831,0 2.71226,-3.75 5.67544,-8.3333 z m -12.51458,-15.5965 c 2.90608,-12.7771 2.78861,-20.9448 -0.32519,-22.6113 -2.73013,-1.4611 -5.05203,-8.2194 -6.20111,-18.0495 -0.42372,-3.6249 -1.03356,-6.8539 -1.35521,-7.1755 -0.45831,-0.4583 -16.975,3.5689 -29.82404,7.272 -3.63037,1.0462 2.85607,24.4061 9.60673,34.5972 4.84975,7.3213 8.89103,10.6076 16.28278,13.2408 9.04649,3.2226 9.4909,2.9491 11.81604,-7.2737 z m -199.32874,2.2455 c 11.92332,-9.2297 20.38479,-23.6991 20.61772,-35.2572 l 0.15122,-7.5034 -6.00312,-1.5552 c -3.30171,-0.8553 -9.43934,-1.959 -13.63915,-2.4526 -8.49729,-0.9987 -7.74923,-1.7976 -9.72479,10.3866 -0.8889,5.4823 -3.64293,8.6179 -7.63294,8.6904 -2.85428,0.052 -3.08394,2.5047 -0.33334,3.5602 2.48214,0.9525 2.60252,3.9899 0.21467,5.4159 -1.47595,0.8815 -1.49637,2.751 -0.11787,10.7876 2.18855,12.7597 3.35059,14.1573 9.59992,11.5462 2.62102,-1.0952 5.71151,-2.7235 6.86775,-3.6185 z m -335.41788,1.0569 c 31.45899,-5.6069 62.53311,-33.5615 81.95858,-73.7309 3.59553,-7.4351 5.64524,-10.358 6.59653,-9.4067 3.11544,3.1154 -16.63769,37.8215 -31.18437,54.7907 -3.62682,4.2308 -11.02099,10.9808 -16.4315,15 -5.41052,4.0192 -9.07981,7.3077 -8.15398,7.3077 5.04268,0 19.86349,-5.087 33.00854,-11.3295 18.11719,-8.6038 32.92936,-18.6324 41.71014,-28.24 7.76298,-8.4939 20.01621,-25.5897 20.01621,-27.9267 0,-0.9057 0.8366,-2.4833 1.85911,-3.5058 4.81728,-4.8173 12.46018,-28.3254 16.14689,-49.6647 3.47205,-20.0969 4.69205,-48.5793 3.28819,-76.7672 -0.70775,-14.2107 -1.56708,-27.65155 -1.90964,-29.86855 -0.34256,-2.217 -0.96064,-7.33097 -1.37352,-11.3643 -2.15323,-21.03464 -7.51007,-58.31643 -11.97376,-83.33333 -1.04676,-5.86667 -2.24638,-13.06667 -2.66579,-16 -0.41941,-2.93334 -1.64957,-10.04962 -2.73369,-15.81396 -1.08412,-5.76435 -1.97112,-10.67176 -1.97112,-10.90539 0,-0.23361 -3.16178,-1.34392 -7.02616,-2.46732 -13.79238,-4.00956 -28.1946,-15.88893 -39.05883,-32.21685 -9.64424,-14.49439 -15.65015,-29.49726 -19.45401,-48.59648 -2.67584,-13.43542 -3.05198,-19.29422 -3.03884,-47.33334 0.012,-26.21765 0.46348,-34.04792 2.49692,-43.33333 3.38568,-15.46015 4.27868,-32 1.72769,-32 -11.39005,0 -36.09655,16.04221 -53.67016,34.84865 -16.30744,17.45146 -26.45963,35.2685 -55.73684,97.81802 -19.5206,41.70494 -42.00936,121.97969 -49.67944,177.33333 -2.36135,17.04139 -5.05445,80.70055 -4.00488,94.66675 0.91901,12.2288 4.86448,32.0317 8.89925,44.6666 6.37624,19.9674 29.43584,62.6724 38.30308,70.9352 4.82991,4.5006 21.05676,36.6576 23.245,46.0648 0.89556,3.85 2.16302,7 2.81658,7 3.076,0 32.74732,-26.9429 41.11384,-37.3333 3.79964,-4.7188 5.1849,-5.6573 6.48717,-4.3952 1.31703,1.2764 1.20556,2.7838 -0.54472,7.3669 -3.15051,8.2495 -24.94159,29.308 -37.01221,35.7681 -3.01451,1.6133 -3.0341,1.7193 -0.50038,2.7092 3.77655,1.4755 6.65147,1.3597 18.45012,-0.7431 z m 876.54292,-3.6376 c -0.293,-0.879 -4.693,-4.029 -9.7778,-7 -11.1106,-6.4917 -30.6897,-25.1548 -31.9962,-30.4993 -1.7195,-7.0341 1.5082,-7.2658 7.434,-0.5338 7.9484,9.0299 40.0751,34.2981 43.6074,34.2981 0.6287,0 1.2366,-2.3427 1.3507,-5.206 0.3393,-8.5081 15.956,-50.6948 19.2193,-51.9186 1.713,-0.6425 6.8675,-11.1234 13.8261,-28.1132 6.0018,-14.6538 12.7308,-39.6256 15.2955,-56.7622 2.4183,-16.1585 3.1939,-59.7886 1.4816,-83.34715 -2.4786,-34.10216 -5.3491,-56.05329 -11.5929,-88.65287 -11.5518,-60.31217 -17.666,-81.95225 -32.6757,-115.64877 -17.6454,-39.61355 -35.5868,-67.13851 -69.3407,-106.37963 -17.3674,-20.19084 -38.1004,-41.30493 -40.5594,-41.30493 -0.9338,0 -1.9904,2.80849 -2.499,6.64263 -0.7031,5.30038 -0.3134,7.79252 1.9285,12.33333 3.6389,7.37028 9.8789,25.14425 11.8881,33.8622 2.5248,10.95461 3.6816,32.22988 2.4195,44.49517 -3.5955,34.94192 -15.9031,62.63552 -37.2742,83.87178 -15.7892,15.6895 -33.8974,25.46156 -47.182,25.46156 -4.197,0 -4.3,0.14952 -5.7408,8.33333 -2.7983,15.89488 -8.3124,79.00557 -10.9796,125.66667 -2.6766,46.82428 0.7345,96.92298 8.6726,127.37708 4.8876,18.7512 11.1983,35.2818 16.443,43.0718 2.5493,3.7865 5.436,8.3845 6.4149,10.2178 3.1134,5.831 16.7129,20.4228 25.8162,27.6999 9.9167,7.9275 26.762,16.9914 41.0864,22.1073 10.8359,3.87 31.1868,9.1622 32.0218,8.3271 0.3014,-0.3013 -3.8156,-3.3707 -9.1489,-6.8208 -17.6809,-11.4377 -31.5188,-26.7206 -46.3592,-51.2003 -6.2354,-10.2855 -8.3447,-16.1376 -5.802,-16.0973 0.55,0.01 3.0427,3.7587 5.5394,8.3333 17.6005,32.2489 43.0689,55.1424 73.1595,65.7628 6.9453,2.4513 11.7743,3.1715 21.4122,3.1932 9.0892,0.021 12.3008,-0.4028 11.9117,-1.5702 z m -565.07413,-24.0683 c -0.0283,-0.9167 -1.96671,-2.8715 -4.30768,-4.3441 -4.44524,-2.7962 -12.23008,-14.5946 -16.06975,-24.3546 -1.23305,-3.1343 -3.74468,-13.2512 -5.58138,-22.482 -2.93943,-14.7728 -3.34124,-20.2396 -3.35426,-45.6347 -0.0233,-45.4305 3.76295,-73.751 12.75306,-95.391 2.44365,-5.8822 -7.963,2.9822 -23.57464,20.0808 -15.59778,17.0834 -18.71738,21.113 -30.28983,39.1256 -7.56884,11.781 -8.98209,13.3011 -18.19083,19.5663 -11.34469,7.7184 -12.59817,9.5192 -16.27681,23.385 -3.18133,11.9912 -7.78751,22.382 -9.9218,22.382 -0.57249,0 -1.64839,1.1351 -2.39088,2.5225 -1.92324,3.5936 1.2422,9.273 10.95575,19.6569 19.35376,20.6892 57.18113,41.1696 84.51341,45.7571 10.58609,1.7768 21.79443,1.6377 21.73564,-0.2698 z m 250.20832,-1.6549 c 18.19063,-3.4804 41.63792,-13.7271 60.43213,-26.4093 11.64711,-7.8594 29.06501,-24.8211 32.71371,-31.8569 l 2.552,-4.9211 -3.7179,-3.7179 c -5.1143,-5.1143 -6.9978,-9.1486 -10.6604,-22.8347 -3.9485,-14.7544 -4.9293,-16.2928 -14.1189,-22.1473 -10.1066,-6.4386 -14.32983,-11.1339 -24.09771,-26.7912 -8.69262,-13.9338 -10.12585,-15.7226 -29.8184,-37.2147 -14.6804,-16.022 -32.57468,-28.52575 -25.60868,-17.8943 3.69787,5.6437 11.59171,29.3784 14.31383,43.038 8.889,44.605 10.05145,91.8981 2.96771,120.7376 -2.49926,10.1751 -8.64071,22.9809 -13.21488,27.5551 -5.17512,5.1751 -5.47858,5.0848 8.25749,2.4567 z m -15.60616,-7.7856 c 3.50475,-2.8781 9.16772,-17.4851 11.98461,-30.9131 10.18874,-48.569 -3.6325,-138.1329 -24.7404,-160.322 l -5.17809,-5.44335 -8.63213,1.9942 c -4.74768,1.09695 -8.88362,2.24575 -9.19096,2.55315 -0.30736,0.3074 0.76118,5.5117 2.37454,11.5652 8.93147,33.5118 16.53964,93.2783 18.71368,147.0064 0.793,19.5976 1.56784,26.6386 3.42231,31.0983 2.15948,5.1933 2.74183,5.6785 5.87229,4.8928 1.91131,-0.4797 4.32967,-1.5739 5.37415,-2.4316 z m -224.50179,-4.1378 c 2.34138,-5.6037 2.3281,-5.2007 2.07831,-63.0933 -0.1116,-25.8527 0.14791,-50.7527 0.57655,-55.3333 2.65029,-28.3221 4.97448,-48.3253 6.67814,-57.4757 1.07323,-5.7644 1.95132,-11.2976 1.95132,-12.2961 0,-2.72985 -13.82388,-6.43485 -17.22257,-4.61595 -6.37275,3.41065 -15.01145,22.84935 -19.28399,43.39265 -5.5364,26.6202 -6.38776,86.1884 -1.57214,110 4.04905,20.0212 8.50053,31.2579 15.57509,39.3153 5.29716,6.0332 8.72933,6.0657 11.21929,0.1064 z m 102.79783,-13.0884 c -0.46464,-5.3166 -1.23476,-32.279 -1.71139,-59.9164 l -0.86657,-50.2497 -5.46777,-0.8754 c -10.42558,-1.6693 -23.7615,-9.2553 -34.41138,-19.5747 -11.80406,-11.4378 -14.36448,-14.9634 -22.51332,-30.9997 l -6.1236,-12.0507 h -5.20973 c -5.10275,0 -5.21855,0.1078 -5.63847,5.2498 -0.23578,2.8874 0.21576,7.8092 1.00346,10.9374 2.93548,11.6579 4.16146,31.1876 2.70064,43.0208 -1.75008,14.1763 -4.19642,22.7988 -9.55818,33.6895 -2.6889,5.4616 -4.32118,11.0213 -4.62976,15.7691 -1.24157,19.1036 -2.80904,66.0385 -2.2364,66.965 0.35427,0.5732 1.70412,0.475 2.99967,-0.2184 1.56724,-0.8388 8.34497,-0.3756 20.25243,1.3839 25.70464,3.7983 48.20936,6.1385 61.07602,6.3513 l 11.17915,0.1849 z m 47.81983,8.2784 c 6.6,-0.7515 14.7,-1.6764 18,-2.0554 11.47298,-1.3174 32.67593,-6.0546 34.1684,-7.6339 1.67082,-1.768 1.2114,-7.3082 -4.19338,-50.5668 -3.01981,-24.1699 -3.66944,-27.0609 -7.98266,-35.5244 -8.19791,-16.0861 -10.45188,-27.0935 -10.68168,-52.1645 -0.19855,-21.6598 -1.30295,-33.3334 -3.1536,-33.3334 -0.51802,0 -3.61528,5.5177 -6.8828,12.2616 -13.50576,27.8745 -35.07982,46.7355 -57.33118,50.1214 -4.00204,0.6089 -7.16325,1.7114 -7.02493,2.45 0.13833,0.7385 0.62433,26.2032 1.07999,56.5882 0.45566,30.385 1.1039,56.5955 1.44056,58.2455 0.59117,2.8975 1.12365,2.9996 15.58668,2.9891 8.23602,-0.01 20.3746,-0.6259 26.9746,-1.3774 z M 676.65996,1055.5002 c 0.45276,-9.1666 0.40704,-16.2839 -0.1016,-15.8161 -1.08344,0.9963 -4.80751,32.9926 -4.63423,39.8161 l 0.11853,4.6667 1.89706,-6 c 1.04337,-3.3 2.26749,-13.5 2.72025,-22.6667 z m 171.72488,4.2431 c -1.28878,-7.1003 -2.61586,-12.1191 -2.94907,-11.1528 -0.3332,0.9663 0.44861,7.5663 1.73739,14.6667 1.28877,7.1003 2.61585,12.1191 2.94906,11.1528 0.3332,-0.9663 -0.44861,-7.5663 -1.73738,-14.6667 z m -64.6044,-8.1377 c 10.31912,-5.1186 21.10278,-13.2099 27.56109,-20.6801 4.40071,-5.0902 16.43747,-24.3142 16.43747,-26.2524 0,-0.4855 -3.75,1.1496 -8.33334,3.6336 -11.7625,6.375 -22.78938,9.5404 -39.57826,11.3613 -23.00579,2.4952 -52.63483,-1.4481 -71.43634,-9.5074 -3.49956,-1.5 -6.64001,-2.4502 -6.97878,-2.1114 -0.33879,0.3388 2.5127,5.1417 6.33665,10.6733 17.36579,25.1205 38.52481,38.697 58.65817,37.6374 6.44748,-0.3393 10.888,-1.5572 17.33334,-4.7543 z m 9.72678,-42.7432 c 1.2956,-1.3841 0.73738,-1.5522 -2.89489,-0.8718 -2.475,0.4636 -14.475,0.8522 -26.66667,0.8634 -15.80069,0.014 -21.59229,0.4204 -20.16666,1.4131 2.99481,2.0855 47.64174,0.8243 49.72822,-1.4047 z m 6.27178,-9.37175 c 28.08492,-1.7086 39.05392,-3.2238 58.7248,-8.11231 19.33304,-4.80453 35.16286,-10.73629 54.97917,-20.60186 18.99163,-9.455 24.76867,-13.12947 43.62936,-27.75035 18.7554,-14.53923 41.7412,-37.44809 53.70587,-53.52595 13.935,-18.7256 27.5815,-45.30054 36.2881,-70.66666 2.167,-6.31358 1.7619,-5.83558 -8.8762,10.47357 -13.2071,20.24771 -36.709,40.73392 -57.59377,50.20355 -17.6594,8.00714 -26.01956,9.62568 -53.27305,10.31368 -22.2789,0.56241 -26.4517,0.31589 -37.33334,-2.20559 -24.22717,-5.61391 -44.28212,-16.89971 -62.88713,-35.38939 -13.25096,-13.16881 -20.15272,-22.38578 -27.07285,-36.1545 -6.90351,-13.73566 -10.62382,-26.01411 -12.4946,-41.23703 l -1.51143,-12.29881 -27.01493,0.14725 -27.01494,0.14727 -0.92268,9.82377 c -1.36548,14.53816 -5.21285,27.08879 -13.33781,43.50956 -18.54136,37.47265 -56.60609,66.4456 -95.48815,72.68072 -16.09181,2.58048 -53.90798,1.0742 -66.50642,-2.64907 -29.80655,-8.80884 -57.48736,-29.53238 -76.62342,-57.36498 -2.94865,-4.2887 -4.63198,-5.94942 -4.05448,-4 2.06314,6.96434 20.51096,43.90434 26.01904,52.10064 27.36722,40.72382 62.28846,69.5402 110.65886,91.31368 14.9499,6.72956 54.53406,20.45976 66.66666,23.12408 4.03334,0.88572 10.93334,2.44244 15.33334,3.45933 7.54301,1.7434 24.11812,4.092 36,5.1011 12.24596,1.03995 49.51064,0.80485 70,-0.4417 z M 748.21732,884.22317 c -4.30368,-1.87207 -7.10499,-5.5396 -7.10499,-9.302 0,-1.14821 0.6,-2.08765 1.33333,-2.08765 0.73334,0 1.33334,1.10701 1.33334,2.46001 0,7.20108 13.64652,10.09897 21.21428,4.50493 3.72812,-2.7558 4.38252,-2.85564 7.11246,-1.08506 2.97478,1.92933 9.0024,2.82366 15.90403,2.35972 1.96271,-0.132 5.40743,-2.08294 7.66667,-4.34216 3.05148,-3.05148 4.10256,-3.53762 4.10256,-1.89744 0,1.21282 -1.75384,3.95897 -3.89744,6.10256 -3.4899,3.4899 -4.78336,3.89744 -12.36999,3.89744 -5.41904,0 -9.51432,-0.72968 -11.36315,-2.02464 -2.62862,-1.84118 -3.28988,-1.7812 -7.29666,0.66168 -5.10036,3.10961 -10.6398,3.36024 -16.63444,0.75261 z M 621.97073,866.35001 c 41.47383,-10.82563 70.62513,-38.60237 83.55604,-79.61615 7.08956,-22.48636 7.32937,-41.49838 0.79052,-62.66874 -10.18301,-32.96874 -29.99545,-57.47279 -57.85417,-71.55408 -35.22127,-17.80274 -67.89667,-18.40007 -102.54127,-1.87455 -32.49012,15.49784 -53.68804,41.78251 -63.05587,78.18705 -11.67397,45.36654 9.70498,96.9332 50.91302,122.80375 26.74762,16.79225 59.38782,22.24121 88.19173,14.72272 z m -68.6216,-61.14648 c -1.70309,-1.18624 -5.78333,-5.64849 -9.06721,-9.91615 -21.78527,-28.31158 -19.46698,-68.00937 5.39917,-92.45386 4.47589,-4.4 10.97897,-9.49898 14.45128,-11.33104 7.50353,-3.95906 8.44847,-6.28483 1.31329,-3.23244 -2.75,1.17644 -5.9,2.48638 -7,2.91101 -9.46906,3.65523 -23.75588,15.43385 -31.59533,26.04847 -2.59808,3.5178 -5.01639,6.1034 -5.374,5.74577 -1.34444,-1.34444 7.84095,-15.29911 14.364,-21.82215 17.18069,-17.1807 52.91483,-27.1512 77.22913,-21.54838 20.53074,4.73096 42.64619,21.47533 51.35455,38.88232 4.56656,9.12801 6.75741,17.69478 2.53059,9.89522 -2.84092,-5.24222 -3.43278,-3.86722 -1.16663,2.71032 2.9464,8.55198 3.77648,21.48396 2.08061,32.41408 -1.6478,10.62034 -8.61897,26.97931 -13.30348,31.21872 -2.65124,2.39934 -2.96393,2.38532 -12.06452,-0.5409 -8.55688,-2.75142 -11.11104,-2.94616 -30.36549,-2.31538 -23.76533,0.77856 -32.96163,2.95487 -46.21813,10.93752 -8.88591,5.35082 -8.44699,5.2671 -12.56783,2.39687 z m 50.13319,-43.77895 c 3.65973,-2.56337 3.79402,-6.09268 0.3504,-9.2091 -1.77791,-1.60899 -3.69536,-2.09302 -6,-1.51459 -2.80394,0.70375 -3.38706,1.63773 -3.38706,5.42511 0,2.95053 0.82851,5.05757 2.33334,5.93405 3.08173,1.79495 3.25716,1.77832 6.70332,-0.63547 z m 28.58861,-12.64974 c 5.90483,-1.63994 12.38812,-6.81046 15.08929,-12.03394 3.06726,-5.93142 2.52462,-17.33014 -1.07962,-22.67848 -8.84648,-13.1273 -25.10019,-15.17809 -36.04563,-4.54801 -10.76928,10.459 -8.88387,29.80039 3.53079,36.22025 8.46216,4.37595 11.75038,4.91616 18.50517,3.04018 z m -96.44368,-57.62152 c 4.42785,-4.93351 21.62523,-13.61031 33.49477,-16.89954 13.32372,-3.69218 36.79994,-3.81358 50.33423,-0.26026 9.20521,2.41674 22.58735,9.01984 21.16421,10.44297 -0.38565,0.38567 -2.68276,-0.50859 -5.10466,-1.98723 -9.4259,-5.75474 -21.57479,-8.28241 -39.80842,-8.28241 -14.67876,0 -18.70468,0.49261 -28.19289,3.44973 -9.93461,3.09624 -21.21564,8.4112 -31.45435,14.81943 l -3.61448,2.26223 z m 412.81841,175.71016 c 46.38837,-12.55474 76.26264,-43.14387 87.52644,-89.62066 6.9005,-28.47286 -0.012,-61.47001 -18.62,-88.88749 -17.0326,-25.09593 -45.01997,-42.39408 -78.03106,-48.22856 -14.343,-2.53503 -25.98922,-2.10405 -40.15106,1.48579 -51.97874,13.17598 -83.69533,48.95957 -91.37225,103.08885 -3.38433,23.86271 7.01565,57.29539 25.45624,81.83375 14.63957,19.48045 41.98893,35.65797 70.52503,41.71652 10.8408,2.30162 33.65274,1.59265 44.66666,-1.3882 z m 3.33334,-61.56532 c -5.90278,-4.30642 -21.38575,-11.47426 -29.71412,-13.75616 -4.29963,-1.17807 -11.04142,-1.52739 -20.67004,-1.071 -12.1336,0.5751 -15.84091,1.32324 -24.57499,4.95925 -5.65716,2.35508 -10.86139,3.92621 -11.56493,3.49139 -0.70355,-0.43482 -3.71434,-4.43726 -6.69064,-8.89431 -7.75858,-11.61855 -10.9701,-23.49769 -10.69475,-39.55884 0.12227,-7.13256 0.66895,-13.86831 1.21479,-14.96831 0.54585,-1.1 1.41502,-3.8 1.93149,-6 0.89337,-3.80552 0.83957,-3.87034 -1.10649,-1.33333 -1.69538,2.2102 -2.05278,2.29513 -2.08792,0.49616 -0.126,-6.44969 11.9199,-24.34237 21.8859,-32.50877 6.33416,-5.19036 15.23571,-10.1868 25.35474,-14.23162 9.90285,-3.9584 32.13164,-4.82365 44.95373,-1.74982 21.15626,5.07178 37.72226,15.49481 48.12026,30.27636 7.2809,10.35052 9.3638,15.65089 3.5568,9.05102 -15.2862,-17.37318 -25.7925,-25.51812 -39.56141,-30.66972 -8.08841,-3.02626 -11.49536,-2.54617 -4.22381,0.5952 11.09621,4.79366 24.34722,17.27227 30.21252,28.45146 6.7383,12.84301 8.8599,21.09208 8.8188,34.28973 -0.041,13.30457 -2.3201,22.13427 -8.7744,34 -4.034,7.41621 -17.81079,22.72172 -20.3438,22.60128 -0.75628,-0.036 -3.47507,-1.59745 -6.04173,-3.46997 z m -32.29668,-50.54024 c 2.92309,-2.04742 3.85248,-6.53704 1.94293,-9.38578 -1.77248,-2.64422 -7.66373,-3.2444 -10.73448,-1.09357 -3.63067,2.54301 -3.72644,6.40695 -0.24511,9.88828 3.20923,3.20923 5.12024,3.33423 9.03666,0.59107 z m -21.71118,-11.25394 c 10.36306,-5.01666 16.00026,-17.42925 12.78672,-28.15509 -3.26252,-10.88935 -15.42845,-18.63089 -25.89044,-16.47489 -14.43201,2.97416 -21.91114,16.20848 -17.51872,30.99938 4.05768,13.66371 17.86152,19.80806 30.62244,13.6306 z m 81.71409,-51.34213 c -18.2836,-12.42399 -36.58991,-18.00132 -59.01277,-17.97917 -16.61662,0.0164 -24.57677,1.44858 -35.90638,6.46021 -3.59288,1.58929 -6.79946,2.62269 -7.12571,2.29644 -1.17276,-1.17275 13.12664,-7.49884 21.31308,-9.42896 10.97613,-2.58784 35.22865,-2.551 46.35888,0.0704 10.9324,2.57484 31.6968,12.73196 36.6964,17.95044 4.6398,4.84291 4.0936,4.99115 -2.3235,0.63061 z M 461.69102,848.69117 c 1.25746,2.03461 10.02256,1.86424 10.81864,-0.21029 0.35583,-0.92728 -1.4641,-6.92135 -4.0443,-13.32012 -6.02068,-14.93104 -11.78696,-36.20588 -16.00899,-59.06555 -1.83923,-9.95824 -3.34404,-18.36595 -3.34404,-18.68379 0,-0.31785 -1.35,-0.59786 -3,-0.62226 -4.97045,-0.0735 -9.0724,-4.45378 -20.97791,-22.40132 -2.10842,-3.17847 -5.4739,-10.37847 -7.47885,-16 -2.00495,-5.62155 -4.66864,-11.42099 -5.91931,-12.88766 -1.25068,-1.46666 -2.68594,-4.46666 -3.18949,-6.66666 -0.50353,-2.2 -1.59095,-6.4 -2.41648,-9.33334 l -1.50096,-5.33333 -0.993,6 c -1.53756,9.29035 -1.36077,58.58404 0.25168,70.17711 4.20957,30.26569 15.96704,58.26506 31.46615,74.93385 7.41582,7.97548 10.43981,10.23059 16.40681,12.23519 4.81292,1.61689 7.60653,1.98633 8.16667,1.08002 0.57449,-0.92956 1.14794,-0.89764 1.76338,0.0981 z m 600.47058,-4.52799 c 13.1165,-6.00492 29.7316,-21.93836 41.203,-39.5126 21.4072,-32.79565 27.5635,-79.85176 15.6632,-119.72229 -1.1883,-3.98121 -2.3913,-8.43717 -2.6735,-9.90212 -0.6939,-3.60317 -3.242,-6.12095 -3.242,-3.20343 0,4.76058 -9.7287,33.89574 -16.2594,48.69308 -8.5022,19.2645 -14.2114,28.5296 -22.3792,36.3177 l -6.2925,6 -2.9715,17.77286 c -4.3053,25.74978 -10.461,48.20406 -18.1225,66.10523 -0.984,2.29903 -0.6571,2.45836 3.3845,1.65003 2.4605,-0.4921 7.7209,-2.3814 11.6899,-4.19846 z M 458.03144,751.83352 c -0.33538,-1.28334 -0.60978,-0.23334 -0.60978,2.33333 0,2.56667 0.2744,3.61667 0.60978,2.33333 0.33536,-1.28333 0.33536,-3.38333 0,-4.66666 z m 618.62876,-4.66402 c 14.5717,-15.80842 26.572,-48.90117 34.6922,-95.66932 3.346,-19.27109 3.5941,-23.4128 3.6741,-61.33333 0.047,-22.36667 -0.3419,-44.41908 -0.8646,-49.00536 -2.9111,-25.54216 -13.0875,-67.52923 -23.544,-97.14095 -9.3689,-26.53205 -9.6248,-26.94998 -20.6342,-33.71194 -21.0442,-12.9253 -27.6282,-17.26742 -45.5381,-30.0322 -19.0173,-13.55411 -27.36167,-20.01978 -40.99997,-31.76878 -4.2166,-3.63254 -7.6666,-6.2021 -7.6666,-5.71012 0,2.65602 13.7584,23.98123 28.41077,44.03602 29.0581,39.77194 45.0966,66.38673 57.0335,94.64314 6.116,14.4775 15.9933,45.14167 17.6732,54.8662 5.5983,32.4079 6.4171,39.59067 7.1241,62.49066 1.3793,44.67773 -4.8092,91.0824 -18.447,138.32485 -3.3364,11.55772 -3.8177,14.70741 -2.4916,16.30531 2.1392,2.57762 4.6673,1.20332 11.5782,-6.29418 z m -629.56482,-1.33598 c -0.39689,-2.38334 -1.30545,-7.59354 -2.01901,-11.57822 -2.69809,-15.06685 -0.93535,-76.70445 3.45343,-120.75512 1.57957,-15.85434 7.51666,-45.749 13.30669,-67.00224 27.32955,-100.31765 92.82748,-171.48317 190.95436,-207.47781 43.55976,-15.97848 89.60112,-23.71704 167.65481,-28.17916 59.5839,-3.40625 76.72708,-4.54901 90,-5.99935 17.3551,-1.89641 29.33334,-4.07401 29.33334,-5.3327 0,-0.57798 -1.18683,-3.66638 -2.63739,-6.86314 -1.48885,-3.28114 -2.65013,-8.74449 -2.66667,-12.5456 -0.0331,-7.58813 -1.63028,-9.93333 -6.76544,-9.93333 -1.94488,0 -5.57488,-1.47387 -8.06666,-3.27527 -9.47784,-6.85188 -21.00778,-10.63962 -52.53051,-17.25701 -34.64093,-7.27197 -49.92171,-8.99323 -86.66667,-9.76227 -25.92849,-0.54266 -38.21934,-0.19308 -55.32804,1.5737 -93.09606,9.61377 -177.47577,48.37705 -236.97045,108.8621 -17.05139,17.33523 -23.55739,25.74872 -35.29765,45.64659 -17.28672,29.29817 -27.94516,54.69356 -35.79275,85.28168 -5.02221,19.57551 -5.90836,24.18221 -9.92517,51.59715 -4.83332,32.98754 -5.60058,78.80952 -1.93624,115.6365 1.75973,17.68546 12.38554,58.71124 18.19828,70.26271 4.99653,9.92945 13.57696,23.37777 18.14181,28.43412 4.04373,4.47913 6.43251,3.90628 5.55993,-1.33333 z m 16.74831,-32.22139 c 6.74763,-22.31084 15.17299,-36.06889 33.81975,-55.22536 12.99958,-13.35492 21.70638,-19.96061 35.44889,-26.8944 21.6,-10.89828 37.40259,-13.91103 68.19107,-13.00055 18.52904,0.54795 23.56989,1.17455 33.51805,4.16646 45.71127,13.74761 81.62284,51.01206 93.14204,96.65092 l 3.14884,12.47568 6.66667,-0.79743 c 3.66666,-0.43857 16.369,-0.80264 28.22738,-0.80901 l 21.56074,-0.012 0.86841,-4.33334 c 3.45057,-17.21825 13.11071,-38.86369 23.51649,-52.69341 6.12162,-8.13587 24.62047,-26.317 32.72208,-32.16007 7.64976,-5.51717 24.6786,-13.87132 35.1049,-17.22204 15.62626,-5.02182 23.94448,-5.93037 48.23157,-5.26804 20.01735,0.5459 24.66625,1.10164 34.81956,4.16243 24.026,7.24283 40.30157,17.56839 59.93587,38.02448 19.6753,20.49891 30.8551,42.15783 35.1059,68.01181 1.0118,6.15367 2.0863,11.43523 2.3879,11.7368 1.7293,1.72924 6.3945,-10.25434 8.9026,-22.86808 2.5115,-12.63101 2.7076,-15.85854 1.4575,-23.99241 -0.7944,-5.16897 -2.11,-17.49813 -2.9235,-27.39813 -1.9508,-23.74143 -3.7799,-32.87804 -11.2108,-56 -19.0735,-59.34818 -36.7749,-96.44682 -61.37327,-128.62591 -12.5536,-16.42228 -38.63007,-39.49116 -55.0572,-48.70701 -4.57505,-2.56667 -11.21428,-6.51994 -14.75384,-8.78503 l -6.43555,-4.11836 -9.8767,1.85727 c -16.44863,3.09309 -64.20066,3.75894 -84.19692,1.17405 -36.68976,-4.74284 -79.53823,-19.48637 -103.38227,-35.57231 l -5.70247,-3.84706 -8.29753,2.5819 c -4.56363,1.42006 -16.50967,4.9809 -26.54673,7.91299 -26.98924,7.88428 -57.77823,21.42361 -77.8078,34.21567 -46.92771,29.97078 -86.84076,75.64185 -113.86828,130.29534 -15.1754,30.6868 -30.35832,77.60892 -35.35767,109.27118 -3.41392,21.62134 -2.32567,58.62529 2.22571,75.68102 l 1.60112,6 1.66544,-13.22138 c 0.916,-7.27176 2.95092,-17.47176 4.52205,-22.66667 z m 58.85353,-84.89864 c 1.4365,-4.38413 20.19975,-16.02869 33.74844,-20.94444 14.77294,-5.35993 51.37847,-6.76884 66.95624,-2.57708 9.63482,2.5926 25.66722,10.35627 28.45384,13.77873 1.73408,2.12976 1.6722,2.26782 -0.62908,1.4036 -22.87496,-8.59042 -30.99521,-10.42146 -49.5023,-11.16224 -28.32439,-1.13373 -43.98511,2.29131 -67.12758,14.681 -7.10005,3.80112 -12.249,5.88692 -11.89956,4.82043 z m 449.30151,-12.56135 c -18.92948,-9.82144 -31.48509,-12.65196 -56.12157,-12.65196 -20.7281,0 -30.48686,1.6518 -48.41555,8.19496 -11.65092,4.25206 -12.27097,2.74739 -1.47503,-3.57945 12.81963,-7.51281 23.6484,-10.20525 43.97366,-10.93355 28.56482,-1.02352 44.20246,2.49206 63.87489,14.36002 11.0937,6.69254 17.3297,12.04477 13.8172,11.85889 -1.0303,-0.0545 -8.0744,-3.31653 -15.6536,-7.24891 z m 107.12027,-8.47076 c -1.6267,-49.50144 -13.8739,-98.87533 -34.9268,-140.80502 -9.7762,-19.47064 -18.9134,-34.42023 -36.0177,-58.92888 -23.61567,-33.83902 -32.73547,-48.08904 -39.82147,-62.22271 -3.9824,-7.94315 -7.2407,-15.27312 -7.2407,-16.28883 0,-1.0157 -2.5798,-4.75145 -5.73288,-8.30165 -3.15308,-3.55021 -7.10201,-8.67024 -8.77541,-11.37784 -1.67339,-2.70761 -3.66822,-4.92293 -4.43294,-4.92293 -0.76472,0 -8.66577,1.46448 -17.55792,3.25438 -16.43418,3.30807 -50.4103,7.36639 -84.16752,10.0535 -16.31258,1.29849 -42.21121,3.70585 -66,6.1349 -31.24004,3.1899 -81.49392,12.18447 -84.41897,15.10952 -1.40311,1.40311 2.65693,8.8223 8.65773,15.82084 20.55118,23.96822 58.02842,43.2167 108.08091,55.51087 29.26544,7.18833 73.42944,9.59641 97.68033,5.32611 6.6,-1.16219 13.70919,-2.30423 15.7982,-2.53788 11.0384,-1.2346 46.44597,-11.59971 57.70677,-16.89291 3.262,-1.53333 6.3024,-2.41636 6.7565,-1.96229 1.9676,1.96761 -26.97137,13.42458 -58.15109,23.02206 -2.95759,0.91038 -0.46652,2.52403 12.64449,8.19079 13.37985,5.78296 27.7307,15.01148 39.9118,25.66581 31.85587,27.86323 60.13027,76.43967 79.91937,137.3043 2.7419,8.43333 5.8213,17.20202 6.8431,19.48598 2.5353,5.66696 8.1559,29.24147 9.2383,38.74772 0.4864,4.27147 1.2681,8.9663 1.7373,10.43296 1.5951,4.98663 3.0324,-26.57701 2.2686,-49.8188 z m -618.12039,-6.65526 c 9.32571,-27.6141 22.77025,-57.15144 34.07379,-74.85927 13.09077,-20.50767 17.06768,-26.19096 26.12416,-37.33333 10.49968,-12.91799 37.88708,-40.45295 49.91577,-50.18474 33.48532,-27.0912 78.99859,-47.74902 122.83133,-55.75142 16.97711,-3.09944 16.58344,-2.61066 8.15375,-10.12391 -7.6596,-6.82691 -19.11561,-21.049 -21.05899,-26.14375 -1.70725,-4.47574 -2.87082,-4.5862 -13.39642,-1.27178 -34.89434,10.98793 -75.09451,32.89705 -103.863,56.60541 -56.35091,46.43925 -91.47838,112.60868 -108.01151,203.46071 -4.17888,22.96354 -3.942,22.76441 5.23112,-4.39792 z M 422.24144,441.16068 c 1.38069,-2.7466 2.89861,-7.13695 3.37314,-9.75631 0.82794,-4.57001 12.00511,-25.08684 22.8286,-41.90419 18.06516,-28.0693 49.26047,-61.53182 75.67483,-81.17473 56.42093,-41.95715 121.11148,-67.52759 192.99432,-76.28553 37.99831,-4.62958 84.75232,-3.79639 121.16359,2.15922 16.38529,2.68007 58.643,12.38414 64.00872,14.69898 1.74476,0.75272 3.47522,1.06565 3.84546,0.6954 0.37024,-0.37024 -0.60406,-4.14271 -2.16513,-8.38326 -1.56107,-4.24054 -3.31676,-10.11008 -3.90153,-13.04341 -1.30447,-6.54343 -2.87411,-7.38781 -23.91464,-12.86497 -19.33926,-5.0343 -44.82839,-6.4032 -72.3698,-3.88664 -16.09334,1.47049 -18.8474,1.40518 -26,-0.61662 -12.05408,-3.40726 -57.02194,-4.2086 -81.33334,-1.44936 -50.7195,5.75644 -95.07944,22.17243 -141.93985,52.52674 -8.40025,5.44134 -18.00025,12.07953 -21.33333,14.75152 -47.63007,38.18297 -79.8675,76.37749 -99.15231,117.4745 -11.11157,23.67936 -25.43795,68.0859 -26.90883,83.4075 -0.71006,7.39668 -0.26953,6.52826 5.92632,-11.68218 3.68139,-10.82005 7.82308,-21.92005 9.20378,-24.66666 z m 857.75356,27.10973 c 13.0128,-2.52229 17.3534,-4.52821 24.4646,-11.30561 6.0851,-5.79942 13.0303,-18.62471 17.0388,-31.46462 3.1886,-10.21369 5.4795,-44.5527 4.5214,-67.77304 -2.0838,-50.49724 -20.7276,-87.92777 -53.3069,-107.02198 -23.7206,-13.90223 -56.1959,-21.43627 -95.6006,-22.17862 -59.7585,-1.1258 -119.2479,7.13528 -204.66667,28.42134 -28.87539,7.19564 -27.56714,6.52636 -30.45373,15.57973 -2.41085,7.56133 -2.40613,7.71807 0.46187,15.36923 1.59364,4.2515 4.04377,8.44582 5.44472,9.32073 1.40095,0.87491 2.56625,2.49641 2.58957,3.60335 0.062,2.94033 3.55631,7.08466 5.14544,6.10252 0.7509,-0.46408 2.37974,1.12584 3.61967,3.53314 3.86156,7.4972 8.32876,12.55079 21.59766,24.43235 22.95897,20.55859 76.34497,59.03165 92.26147,66.48896 2.5667,1.20256 8.8667,4.86189 14,8.13185 12.124,7.72307 50.6339,26.85991 69.3333,34.454 35.0512,14.23476 65.1326,22.17862 93.4182,24.66975 19.3487,1.70405 19.4744,1.70253 30.1312,-0.36308 z M 943.33202,256.04289 c 2.07918,-0.49417 10.98031,-2.95131 19.78031,-5.46031 27.7652,-7.91624 49.93147,-13.3909 74.00407,-18.27769 37.5129,-7.6152 92.8015,-14.13804 119.8359,-14.13804 h 9.9736 l 5.9009,-6.33333 c 23.6445,-25.37759 30.8461,-46.78802 24.3298,-72.33334 -6.5304,-25.60109 -24.1371,-46.143901 -54.9948,-64.165782 -9.5284,-5.564875 -35.1571,-17.10812 -38.0676,-17.14576 -0.9266,-0.012 -2.7266,-0.604736 -4,-1.317228 -7.5562,-4.227923 -46.424,-12.744673 -67.5985,-14.812248 -16.191,-1.580973 -79.57114,-1.102115 -83.38337,0.629988 -3.19016,1.449465 -9.9018,12.312957 -17.38804,28.144368 -20.51537,43.384512 -27.92208,74.180222 -27.93743,116.158682 -0.009,24.0073 2.03955,38.82653 7.6983,55.69534 3.48324,10.38356 3.89173,10.9565 10.29384,14.43786 3.66666,1.99388 7.71666,3.30344 9,2.91016 1.59257,-0.48807 2.33333,0.0107 2.33333,1.56948 0,1.82876 0.64236,1.59142 3.21969,-1.18956 1.77083,-1.91076 4.92083,-3.87843 7,-4.37259 z"
     id="path4372"
     inkscape:connector-curvature="0" />
</svg>
