<?xml version="1.0" encoding="UTF-8" standalone="no"?>
<!-- Created with Inkscape (http://www.inkscape.org/) -->

<svg
   xmlns:dc="http://purl.org/dc/elements/1.1/"
   xmlns:cc="http://creativecommons.org/ns#"
   xmlns:rdf="http://www.w3.org/1999/02/22-rdf-syntax-ns#"
   xmlns:svg="http://www.w3.org/2000/svg"
   xmlns="http://www.w3.org/2000/svg"
   xmlns:sodipodi="http://sodipodi.sourceforge.net/DTD/sodipodi-0.dtd"
   xmlns:inkscape="http://www.inkscape.org/namespaces/inkscape"
   version="1.1"
   id="svg4362"
   width="1920"
   height="1080"
   viewBox="0 0 1920 1080"
   sodipodi:docname="girl3.svg"
   inkscape:version="0.92.4 (unknown)">
  <metadata
     id="metadata4368">
    <rdf:RDF>
      <cc:Work
         rdf:about="">
        <dc:format>image/svg+xml</dc:format>
        <dc:type
           rdf:resource="http://purl.org/dc/dcmitype/StillImage" />
        <dc:title></dc:title>
      </cc:Work>
    </rdf:RDF>
  </metadata>
  <defs
     id="defs4366" />
  <sodipodi:namedview
     pagecolor="#ffffff"
     bordercolor="#666666"
     borderopacity="1"
     objecttolerance="10"
     gridtolerance="10"
     guidetolerance="10"
     inkscape:pageopacity="0"
     inkscape:pageshadow="2"
     inkscape:window-width="1855"
     inkscape:window-height="1056"
     id="namedview4364"
     showgrid="false"
     inkscape:zoom="0.51430189"
     inkscape:cx="710.9289"
     inkscape:cy="800"
     inkscape:window-x="65"
     inkscape:window-y="24"
     inkscape:window-maximized="1"
     inkscape:current-layer="svg4362" />
  <path
     style="fill:#000000;stroke-width:1"
     d="m 932.39754,994.88409 c 0.40575,-11.8683 0.84685,-12.74062 1.00256,-1.98277 0.0773,5.34186 -0.17606,9.71268 -0.56311,9.71308 -0.38706,3e-4 -0.5848,-3.47827 -0.43945,-7.73031 z m 90.04586,6.04741 c -1.9352,-0.8398 -3.5186,-1.70951 -3.5186,-1.93241 0,-0.22298 0.9254,0.0128 2.0564,0.52454 1.1309,0.51147 3.1196,1.17017 4.4192,1.46397 1.2997,0.2937 1.9576,0.7448 1.4623,1.0025 -0.4954,0.2577 -2.4841,-0.2187 -4.4193,-1.0586 z m 9.1499,0.8915 c -0.3199,-0.4372 -0.1951,-0.7949 0.2772,-0.7949 1.611,0 9.6994,-5.7007 10.5163,-7.4117 0.7285,-1.52603 0.8208,-1.54666 0.874,-0.19593 0.1034,2.62492 -10.3744,10.17053 -11.6675,8.40253 z m 21.8136,-0.8915 c -1.9352,-0.8398 -3.5186,-1.70951 -3.5186,-1.93241 0,-0.22298 0.9254,0.0128 2.0563,0.52454 1.131,0.51147 3.1197,1.17017 4.4193,1.46397 1.2996,0.2937 1.9576,0.7448 1.4622,1.0025 -0.4953,0.2577 -2.484,-0.2187 -4.4192,-1.0586 z m -200.32433,-0.2926 c -1.67718,-0.616 -3.04943,-1.32815 -3.04943,-1.58263 0,-0.2544 0.88099,-0.0642 1.95777,0.42285 1.07677,0.48688 4.6666,0.76708 7.9774,0.62248 6.35025,-0.27727 8.02724,0.3883 3.08357,1.2238 -4.28803,0.7246 -6.55132,0.5688 -9.96931,-0.6865 z m 150.94163,-1.08617 c 2.328,-1.24749 5.1417,-3.299 6.2529,-4.5589 1.1458,-1.29928 2.0331,-1.79994 2.05,-1.15685 0.044,1.66375 -8.3518,7.98392 -10.6054,7.98392 -1.4113,0 -0.7923,-0.6097 2.3025,-2.26817 z m -121.15101,0.73037 c 0,-0.40981 1.58336,-0.85577 3.51858,-0.9911 l 3.51856,-0.24609 0.51218,-10.30709 0.51214,-10.30702 0.19154,10.47735 c 0.17626,9.63884 0.0464,10.54309 -1.6233,11.29815 -2.26587,1.0247 -6.6297,1.0746 -6.6297,0.076 z m 25.33375,-0.048 c 0,-0.48457 4.3787,-0.79289 11.25943,-0.79289 6.88078,0 11.25948,0.30832 11.25948,0.79289 0,0.4845 -4.3787,0.7928 -11.25948,0.7928 -6.88073,0 -11.25943,-0.3083 -11.25943,-0.7928 z m 29.0869,0 c 0,-0.4945 5.47333,-0.79289 14.54348,-0.79289 9.0701,0 14.54343,0.29839 14.54343,0.79289 0,0.4945 -5.47333,0.7928 -14.54343,0.7928 -9.07015,0 -14.54348,-0.2983 -14.54348,-0.7928 z m 43.63033,0 c -0.36565,-0.49997 1.86595,-0.79289 6.04081,-0.79289 6.56273,0 6.63272,-0.0222 7.99191,-2.57673 l 1.37124,-2.57682 -0.5428,2.37858 c -0.29851,1.30818 -1.20616,2.82453 -2.017,3.36966 -1.75219,1.1779 -12.01175,1.3363 -12.84416,0.1982 z m -71.44069,-9.51421 c 0,-4.14265 0.15813,-5.83739 0.35142,-3.76602 0.19328,2.07128 0.19328,5.46076 0,7.53204 -0.19329,2.07136 -0.35142,0.37662 -0.35142,-3.76602 z m 4.72195,5.88147 c 0.31323,-0.68975 0.56954,-1.40328 0.56954,-1.58561 0,-0.1824 2.32226,-0.3316 5.16058,-0.3316 2.83832,0 5.16058,0.35677 5.16058,0.7928 0,0.43603 -2.11117,0.79289 -4.69144,0.79289 -2.58031,0 -4.69145,0.35677 -4.69145,0.79288 0,0.43604 -0.4674,0.79281 -1.03868,0.79281 -0.57128,0 -0.78236,-0.56435 -0.46913,-1.25417 z m 12.54484,-4.49403 c 0.48095,-8.97315 0.8932,-9.60597 1.03293,-1.58568 0.0703,4.03368 -0.20271,7.33388 -0.6066,7.33388 -0.40392,0 -0.59575,-2.58667 -0.42633,-5.7482 z m -72.33272,3.96426 c -1.38056,-0.85297 -1.07639,-0.99104 2.1836,-0.99104 3.26,0 3.56416,0.13807 2.1836,0.99104 -0.88219,0.54509 -1.8648,0.99113 -2.1836,0.99113 -0.31879,0 -1.30141,-0.44604 -2.1836,-0.99113 z m 8.28247,0.19791 c -0.32424,-0.44331 0.39962,-0.79281 1.64185,-0.79281 3.08227,0 5.56486,-1.72375 7.00928,-4.86671 l 1.22496,-2.66541 -0.48018,2.77498 c -0.74429,4.30125 -7.42359,8.2466 -9.39591,5.54995 z m 89.7566,-2.18034 -0.15017,-3.36961 h 5.62972 c 3.12761,0 5.62972,0.35231 5.62972,0.79288 0,0.43603 -2.29552,0.7928 -5.10112,0.7928 -5.052,0 -5.10479,0.024 -5.47955,2.57682 -0.32808,2.23366 -0.39847,2.12812 -0.5286,-0.79289 z m 28.12621,0.79289 c -0.12694,-2.55953 -0.0979,-2.5769 4.32907,-2.58546 2.4513,-0.009 6.04023,-0.22992 7.97544,-0.50015 1.93524,-0.2704 3.51773,-0.17727 3.51672,0.20689 0,0.38408 -1.58443,0.77748 -3.51858,0.87429 -8.86182,0.44322 -11.36304,1.04626 -11.77461,2.8384 -0.27812,1.21086 -0.43929,0.95621 -0.52804,-0.83397 z m -104.27765,-0.57196 c 0.77408,-0.78338 2.55135,-3.42808 3.94947,-5.87702 1.39812,-2.4491 2.54123,-3.91761 2.54024,-3.26347 -0.003,1.9285 -5.01766,9.76056 -6.51786,10.17964 -1.19432,0.33366 -1.19055,0.19431 0.0282,-1.03915 z m 26.75064,0.36079 c 0.32415,-0.44313 0.98241,-0.60055 1.46283,-0.34966 1.30142,0.67964 1.05874,1.15547 -0.58936,1.15547 -0.80458,0 -1.19762,-0.36259 -0.87347,-0.80581 z m 66.13979,-0.77996 c 0,-0.43971 2.19354,-0.75103 4.92599,-0.69899 4.21062,0.0805 4.51722,0.18173 2.11118,0.69899 -4.16944,0.89655 -7.03717,0.89655 -7.03717,0 z m -54.31182,-2.57673 c -0.0909,-1.82168 0.27706,-2.18033 2.23686,-2.18033 1.29018,0 2.34572,0.35677 2.34572,0.7928 0,0.43612 -0.81347,0.79289 -1.80777,0.79289 -0.99426,0 -2.00086,0.62443 -2.23686,1.38753 -0.264,0.85366 -0.47096,0.5485 -0.53795,-0.79289 z m 6.56803,0 c -0.084,-1.68241 0.3197,-2.18033 1.76773,-2.18033 1.03212,0 1.87658,0.35677 1.87658,0.7928 0,0.43612 -0.60239,0.79289 -1.33864,0.79289 -0.73625,0 -1.53176,0.62443 -1.76772,1.38753 -0.26404,0.85366 -0.471,0.5485 -0.53795,-0.79289 z m -73.80731,-2.11168 c 0.477,-4.45551 2.98649,-7.31077 7.63421,-8.6864 3.15504,-0.9337 4.12752,-0.92069 6.95215,0.093 l 3.28401,1.1785 -4.30139,-0.37953 c -4.40004,-0.38802 -8.73983,0.88019 -11.04596,3.22821 -0.625,0.63633 -1.53265,2.71137 -2.017,4.6112 l -0.88063,3.45419 z m 14.76929,1.12064 c 0.0191,-1.30819 0.22941,-1.74738 0.4673,-0.97598 0.23789,0.7714 0.22225,1.84179 -0.0348,2.37857 -0.25702,0.53678 -0.45166,-0.0944 -0.43253,-1.40259 z m 78.63318,1.18928 c 0,-0.43603 2.11117,-0.79288 4.69144,-0.79288 2.58031,0 4.69145,0.35685 4.69145,0.79288 0,0.43603 -2.11114,0.7928 -4.69145,0.7928 -2.58027,0 -4.69144,-0.35677 -4.69144,-0.7928 z m -86.77573,-2.37857 c 0.49762,-2.88522 2.84197,-5.07326 4.50513,-4.20471 0.52948,0.27657 0.0636,0.78193 -1.03818,1.12629 -1.10772,0.34633 -2.4326,1.79018 -2.9721,3.23917 l -0.97345,2.61422 z m 145.88785,1.58569 c 0,-0.43612 2.3223,-0.79289 5.1606,-0.79289 2.8383,0 5.1605,0.35677 5.1605,0.79289 0,0.43611 -2.3222,0.79288 -5.1605,0.79288 -2.8383,0 -5.1606,-0.35677 -5.1606,-0.79288 z m 14.0743,0 c 0,-0.45298 2.8149,-0.79289 6.568,-0.79289 3.7532,0 6.568,0.33991 6.568,0.79289 0,0.45306 -2.8148,0.79288 -6.568,0.79288 -3.7531,0 -6.568,-0.33982 -6.568,-0.79288 z m 16.8891,0 c 0,-0.43612 2.3223,-0.79289 5.1606,-0.79289 2.8384,0 5.1606,0.35677 5.1606,0.79289 0,0.43611 -2.3222,0.79288 -5.1606,0.79288 -2.8383,0 -5.1606,-0.35677 -5.1606,-0.79288 z m 14.5435,0 c -0.3657,-0.49998 1.8669,-0.79289 6.0435,-0.79289 3.7901,0 6.6234,0.33922 6.6234,0.79289 0,0.44656 -2.6401,0.79288 -6.0435,0.79288 -3.3239,0 -6.3044,-0.35677 -6.6234,-0.79288 z m -64.89065,-1.98218 c 0.14846,-2.37284 0.16355,-2.37883 6.24772,-2.49729 l 6.09886,-0.11881 -5.80881,0.77645 c -4.81863,0.64412 -5.88364,1.06979 -6.24772,2.49738 -0.27059,1.06098 -0.3818,0.80889 -0.29005,-0.65773 z m -40.91398,-2.77489 c 2.23966,-2.89061 2.8164,-3.17146 6.51286,-3.17146 2.23059,0 4.05564,0.35677 4.05564,0.79289 0,0.43603 -1.60952,0.79289 -3.57672,0.79289 -2.8861,0 -3.9785,0.45923 -5.65779,2.37848 -3.08962,3.53123 -4.18149,2.88232 -1.33399,-0.7928 z m 12.59525,0.19816 -0.15017,-3.36962 h 6.09886 c 3.44039,0 6.09885,0.34564 6.09885,0.79289 0,0.43954 -2.48229,0.79289 -5.57025,0.79289 h -5.57029 l -0.3784,2.57673 c -0.32808,2.23366 -0.39847,2.12803 -0.5286,-0.79289 z m 18.1642,1.41184 c -0.37812,-0.51701 1.03127,-0.8172 3.83638,-0.8172 5.08303,0 5.14905,0.35403 0.20672,1.1084 -2.04083,0.31158 -3.68906,0.19285 -4.0431,-0.2912 z m 42.81488,-1.80824 -0.1406,-2.97322 h 6.0989 c 3.4404,0 6.0988,0.34564 6.0988,0.79289 0,0.43946 -2.4813,0.79289 -5.5674,0.79289 -5.3532,0 -5.5824,0.0839 -5.9583,2.18033 -0.3144,1.7538 -0.4183,1.5987 -0.5314,-0.79289 z m 30.9634,0 -0.1405,-2.97322 h 6.0988 c 3.4404,0 6.0989,0.34564 6.0989,0.79289 0,0.43946 -2.4813,0.79289 -5.5674,0.79289 -5.3532,0 -5.5824,0.0839 -5.9583,2.18033 -0.3144,1.7538 -0.4183,1.5987 -0.5315,-0.79289 z m -129.51531,0 c -0.0909,-1.82159 0.27706,-2.18033 2.23686,-2.18033 1.29018,0 2.34572,0.35677 2.34572,0.79289 0,0.43603 -0.81347,0.7928 -1.80777,0.7928 -0.99426,0 -2.00086,0.62434 -2.23686,1.38753 -0.264,0.85366 -0.47096,0.5485 -0.53795,-0.79289 z m 6.56803,0 c -0.084,-1.68241 0.3197,-2.18033 1.76773,-2.18033 1.03212,0 1.87658,0.35677 1.87658,0.79289 0,0.43603 -0.60239,0.7928 -1.33864,0.7928 -0.73625,0 -1.53176,0.62434 -1.76772,1.38753 -0.26404,0.85366 -0.471,0.5485 -0.53795,-0.79289 z m 48.13635,-1.65057 c 0.30012,-0.79879 0.54571,-1.77991 0.54571,-2.18033 0,-0.40162 5.04732,-0.728 11.25947,-0.728 6.88074,0 11.25944,0.30832 11.25944,0.79288 0,0.48114 -4.10965,0.7928 -10.45231,0.7928 -8.81363,0 -10.66437,0.21759 -11.80515,1.38753 -1.28051,1.31324 -1.32371,1.30973 -0.80716,-0.0651 z m 24.06883,0.46128 c 0.0364,-0.32706 0.42885,-1.30818 0.87234,-2.18033 0.71456,-1.40516 0.81391,-1.33737 0.87237,0.59465 0.0364,1.19913 -0.35631,2.18033 -0.87237,2.18033 -0.51603,0 -0.90859,-0.26758 -0.87234,-0.59465 z m 8.3786,-0.99104 c 0,-0.43612 2.1112,-0.79289 4.6915,-0.79289 2.5803,0 4.6914,0.35677 4.6914,0.79289 0,0.43603 -2.1111,0.79289 -4.6914,0.79289 -2.5803,0 -4.6915,-0.35686 -4.6915,-0.79289 z m 30.9635,0 c 0,-0.43612 2.1112,-0.79289 4.6915,-0.79289 2.5802,0 4.6914,0.35677 4.6914,0.79289 0,0.43603 -2.1112,0.79289 -4.6914,0.79289 -2.5803,0 -4.6915,-0.35686 -4.6915,-0.79289 z m -126.66875,-3.17146 c 0,-0.4945 5.47337,-0.7928 14.54347,-0.7928 9.07011,0 14.54344,0.2983 14.54344,0.7928 0,0.49449 -5.47333,0.79289 -14.54344,0.79289 -9.0701,0 -14.54347,-0.2984 -14.54347,-0.79289 z m 46.12424,-0.7928 c 0,-1.09017 0.21295,-1.53613 0.47327,-0.99105 0.26027,0.54509 0.26027,1.43701 0,1.98218 -0.26032,0.54499 -0.47327,0.099 -0.47327,-0.99113 z m 60.98871,0 c 0,-1.09017 0.2129,-1.53613 0.4732,-0.99105 0.2603,0.54509 0.2603,1.43701 0,1.98218 -0.2603,0.54499 -0.4732,0.099 -0.4732,-0.99113 z m 30.9634,0 c 0,-1.09017 0.213,-1.53613 0.4733,-0.99105 0.2603,0.54509 0.2603,1.43701 0,1.98218 -0.2603,0.54499 -0.4733,0.099 -0.4733,-0.99113 z M 926.3802,967.33747 c -3.16417,-0.58138 -7.17536,-1.69765 -8.91371,-2.48044 -1.73836,-0.78278 -3.49274,-1.4382 -3.89861,-1.45652 -4.46709,-0.20106 -2.75474,-15.9209 2.7448,-25.19818 l 3.16781,-5.34385 -0.52913,-8.92745 c -0.29098,-4.91029 -0.76788,-9.81963 -1.05975,-10.90971 -0.29187,-1.09016 -0.69025,-3.05248 -0.88528,-4.36066 -0.56262,-3.77398 -0.86865,-4.05422 -5.66455,-5.18838 -4.31228,-1.01981 -7.72686,-3.29567 -7.79506,-5.19558 -0.017,-0.4784 -1.96465,-5.11657 -4.32777,-10.3071 -3.97995,-8.74187 -7.17402,-16.55466 -11.63731,-28.46568 -2.94823,-7.86775 -8.26937,-29.69554 -8.8909,-36.47115 -0.77218,-8.41806 -2.37254,-13.1134 -4.73128,-13.88113 -7.09976,-2.31078 -15.48173,-17.17618 -15.48173,-27.45666 v -3.34411 l -5.22542,-0.55167 c -4.82508,-0.50947 -5.33626,-0.40753 -6.67227,1.33044 -2.20682,2.87067 -25.36485,21.69323 -31.73222,25.79154 -8.77679,5.64907 -17.35227,8.99378 -23.05889,8.99378 -4.28274,0 -5.18327,-0.31654 -8.23344,-2.89481 -3.33168,-2.81624 -3.59861,-2.89019 -9.82356,-2.72003 -9.77171,0.26715 -13.00413,-2.41135 -9.88692,-8.19242 1.05572,-1.95786 7.3112,-6.01397 9.27506,-6.01397 2.48611,0 7.12907,-2.89686 12.92577,-8.06479 7.66135,-6.83031 12.25305,-12.55873 16.20346,-20.21471 l 2.99802,-5.81025 -7.03518,-5.74956 c -7.42102,-6.06491 -12.89729,-13.08019 -12.91201,-16.54063 -0.005,-1.13836 1.10942,-3.45744 2.47613,-5.15355 3.68964,-4.57885 5.02082,-7.75125 5.0261,-11.97787 0.004,-3.1546 0.59501,-4.44634 3.51857,-7.68953 1.93262,-2.14387 5.625,-5.12017 8.20528,-6.61401 8.13622,-4.71033 10.36429,-6.71861 16.82465,-15.16474 3.46399,-4.52869 8.0623,-9.82518 10.21848,-11.76995 10.82348,-9.76227 23.68994,-19.82961 27.36749,-21.41376 4.2733,-1.84076 9.48642,-6.72468 8.5478,-8.00804 -0.29527,-0.40368 -4.87043,-1.92611 -10.16702,-3.38323 -11.21637,-3.08569 -34.59346,-12.84539 -45.04386,-18.80552 -15.00372,-8.5569 -32.34659,-22.18046 -42.51818,-33.39968 -5.2272,-5.76565 -7.02424,-8.13686 -12.78896,-16.87539 l -4.04619,-6.13347 -3.9676,-0.0111 c -3.75567,-0.0103 -3.91986,0.0839 -3.07363,1.77281 1.33545,2.66481 7.06648,27.7185 9.74834,42.61566 5.06937,28.15933 5.7433,35.4998 5.71409,62.23881 -0.0304,27.79357 -1.61972,38.18978 -8.60589,56.29238 -6.94578,17.998 -19.11364,32.59472 -36.073,43.27373 -11.5123,7.24906 -30.85319,13.52179 -41.98085,13.61535 -2.89478,0.024 -6.74233,0.57213 -8.55013,1.21744 -8.74762,3.12225 -23.34022,4.33892 -28.79414,2.40066 -1.45276,-0.51632 -3.69694,-0.96228 -4.98709,-0.99104 -1.90176,-0.0419 -2.39859,-0.50254 -2.62507,-2.43088 -0.91937,-7.82803 -9.25765,-23.21395 -18.47612,-34.09266 -12.9928,-15.33268 -22.27105,-29.91459 -27.7,-43.53412 -6.81083,-17.08622 -7.03741,-18.60386 -6.93551,-46.45436 0.099,-27.0469 0.79547,-33.93884 5.1172,-50.63483 8.77113,-33.88526 16.54215,-56.14969 28.40248,-81.37483 9.82945,-20.90574 30.77109,-53.10579 40.29677,-61.9607 6.56093,-6.09894 20.50954,-17.27874 25.70453,-20.60218 3.01169,-1.92669 8.22029,-4.58186 11.57466,-5.90036 8.66172,-3.40465 8.93218,-3.56517 8.74667,-5.19087 -3.65836,-32.06014 -2.19466,-76.74631 3.418,-104.3505 6.9012,-33.94143 27.57635,-67.88865 56.40436,-92.61216 22.09443,-18.94865 41.26551,-31.26034 66.77624,-42.88374 17.81089,-8.11515 30.97487,-12.55931 48.8982,-16.50801 17.53074,-3.86222 26.31383,-4.89247 45.6369,-5.3532 20.32841,-0.4847 30.87053,0.34124 41.80468,3.27527 5.47127,1.46814 7.0813,1.63721 8.08212,0.84872 0.68742,-0.54154 5.11964,-1.60309 9.84944,-2.35899 6.93469,-1.10827 12.1119,-1.30468 26.74113,-1.01444 16.2447,0.32227 19.0072,0.58127 26.4195,2.477 4.5529,1.1644 9.9195,2.82474 11.9258,3.68965 2.0063,0.8649 3.7961,1.57255 3.9771,1.57255 0.1812,0 0.3035,-7.22486 0.272,-16.05522 -0.036,-10.02052 0.4097,-18.2903 1.1851,-22.0016 1.6516,-7.90421 6.0317,-21.10274 9.604,-28.93903 3.368,-7.38842 15.9351,-28.142892 19.3468,-31.951024 1.2888,-1.438555 2.1234,-3.099748 1.8546,-3.691541 -1.3414,-2.953667 7.383,-5.352913 24.7186,-6.797768 53.7512,-4.479967 115.7467,11.370095 144.3524,36.905873 12.4939,11.15308 19.7426,25.72718 18.5793,37.35532 -1.0738,10.73469 -6.1508,19.66523 -17.0812,30.04636 l -6.7971,6.45557 13.7462,0.95236 c 46.4754,3.21985 73.9075,15.961 87.7039,40.73516 9.2164,16.54989 11.3938,35.85671 7.7565,68.77742 -1.8815,17.03022 -5.2693,25.33905 -13.5772,33.29971 -1.5927,1.52624 -2.9027,3.23364 -2.9109,3.79423 -0.029,1.96936 -11.8476,5.41153 -22.534,6.56301 -7.2512,0.78133 -26.491,-0.30898 -37.0622,-2.10029 -25.0912,-4.25173 -51.2436,-12.41321 -79.9922,-24.96349 l -14.312,-6.24797 1.5306,2.95411 c 11.5783,22.34519 18.4074,42.75229 23.0106,68.7607 1.1688,6.60435 0.463,48.2207 -0.9067,53.45854 -0.899,3.43772 -0.8482,3.55808 2.505,5.92813 3.5869,2.53514 17.0189,13.95552 28.8696,24.54593 29.8093,26.63907 48.181,54.52448 63.5381,96.44082 6.7598,18.45098 10.8208,35.95226 12.326,53.121 0.3248,3.70653 1.018,10.2625 1.5403,14.56881 0.5222,4.30622 1.1177,9.68112 1.3233,11.94423 0.2055,2.26302 0.8114,8.01609 1.3466,12.78462 1.9587,17.45403 0.5042,43.48695 -3.1797,56.90936 -3.7841,13.78782 -12.6757,32.66405 -20.5089,43.539 -4.3227,6.0013 -12.0169,25.51677 -12.2639,31.10627 -0.1956,4.42588 -0.3606,4.7503 -2.3234,4.56935 -1.162,-0.10709 -3.1476,0.37816 -4.4123,1.07843 -3.8665,2.1407 -16.4085,2.37361 -25.7765,0.47866 -4.3832,-0.8867 -11.2195,-1.65117 -15.1917,-1.69901 -11.7918,-0.14192 -30.7882,-5.49218 -41.6579,-11.73281 -6.1554,-3.53396 -15.6242,-10.48428 -18.6616,-13.6982 -1.0303,-1.09008 -2.8047,-2.78191 -3.9432,-3.75943 -5.8021,-4.98226 -14.7995,-19.52702 -19.4543,-31.44899 -12.8176,-32.82849 -14.4201,-82.109 -4.664,-143.43501 0.8198,-5.15346 1.3138,-9.51926 1.0977,-9.70184 -0.2161,-0.18266 -1.8411,1.85815 -3.6112,4.53511 -11.2464,17.0085 -32.5076,35.54868 -55.6077,48.49088 -14.871,8.33178 -27.3233,13.39399 -47.3036,19.23035 -2.7093,0.79134 -4.926,1.65262 -4.926,1.91395 0,0.26124 3.4842,1.9612 7.7426,3.77775 6.6659,2.84336 9.5465,4.82785 20.7152,14.27041 9.7578,8.24995 14.8776,13.36155 20.6599,20.62712 6.2944,7.90901 8.7889,10.32764 13.7669,13.34777 11.4399,6.94073 14.9071,10.82522 14.8484,16.63572 -0.038,3.73606 1.2016,6.61495 5.0141,11.64815 2.2736,3.00164 2.7633,4.36066 2.3489,6.51865 -0.5937,3.09117 -4.2105,7.76332 -10.2729,13.26988 -2.2765,2.06777 -4.0819,4.38685 -4.012,5.15354 0.19,2.08481 11.4971,22.06353 13.9882,24.7161 1.6553,1.76253 9.9958,5.97691 14.85,7.50336 7.3432,2.30933 12.1321,8.49715 9.3931,12.13708 -1.3968,1.85618 -6.1579,2.72293 -12.0359,2.19103 -5.2076,-0.47121 -5.8622,-0.36824 -6.3773,1.0032 -0.7166,1.90779 -7.0395,4.98201 -10.2468,4.98201 -5.765,0 -24.1954,-9.26538 -28.5331,-14.3442 -0.6401,-0.74957 -3.8127,-2.96003 -7.0502,-4.91216 -5.5222,-3.32973 -10.8086,-7.67379 -15.3372,-12.60342 -1.7813,-1.93894 -2.2803,-2.06605 -5.6218,-1.43229 -2.0168,0.38253 -4.7691,0.88841 -6.1161,1.12414 -2.2596,0.39538 -2.4989,0.83851 -3.0913,5.72483 -1.2357,10.1912 -5.9693,18.72806 -11.9741,21.59462 -2.1398,1.02143 -2.5812,1.6819 -2.1806,3.2628 0.2889,1.14032 -0.2254,3.18618 -1.2108,4.81715 -1.2297,2.03516 -1.7782,4.94315 -1.9439,10.30709 -0.4639,15.00673 -7.0526,41.52653 -15.3497,61.78224 -2.0541,5.01471 -4.2295,10.54489 -4.8343,12.28919 -1.5829,4.56567 -2.5425,5.55662 -6.218,6.42081 -3.0892,0.72629 -3.3181,1.01698 -4.0188,5.10313 -0.4086,2.3832 -1.05763,8.97119 -1.44218,14.64012 l -0.69919,10.30702 3.23517,5.15357 c 2.6717,4.25606 3.4304,6.60339 4.3569,13.47847 0.6169,4.57868 0.9144,8.78843 0.661,9.35492 -0.7883,1.76261 -10.71991,5.45913 -17.19053,6.39847 -8.18459,1.18809 -13.10074,1.13065 -22.56236,-0.26355 -6.90423,-1.01741 -8.90991,-1.01784 -16.30836,0 -10.16894,1.39472 -16.84066,1.38915 -24.51015,-0.0206 z m 27.7223,-3.28257 c 2.83233,-0.47874 2.95919,-0.66089 2.75717,-3.95852 -0.29583,-4.82931 -0.72363,-5.17427 -5.06394,-4.08342 -2.04139,0.51316 -9.41169,0.95065 -16.37847,0.97222 -9.99131,0.0308 -13.51317,-0.25371 -16.67358,-1.34816 -5.10759,-1.76869 -4.90702,-1.81098 -4.90702,1.03564 0,2.09816 0.54899,2.62835 4.09241,3.95279 7.9593,2.97502 27.75624,4.85191 36.17343,3.42945 z m 31.04398,-0.31431 c 3.35439,-0.44219 8.94891,-1.52012 12.4323,-2.39535 6.28822,-1.57995 6.33342,-1.61162 6.33342,-4.42837 0,-2.39295 -0.257,-2.74681 -1.642,-2.26045 -8.4988,2.98417 -21.46455,3.61271 -33.54373,1.626 -3.61243,-0.59413 -6.64606,-1.02057 -6.74141,-0.94756 -0.0954,0.0728 -0.4617,1.96908 -0.814,4.21352 -0.6053,3.85539 -0.51801,4.10036 1.58079,4.4365 4.27372,0.68444 16.34838,0.55279 22.39463,-0.24429 z m -33.77834,-9.35158 4.22231,-0.53583 0.27642,-3.98738 0.27641,-3.9872 -4.35151,-1.7865 c -3.35694,-1.37811 -4.67943,-2.49199 -5.78636,-4.87296 l -1.43483,-3.08663 -6.84959,-0.25756 -6.84963,-0.25739 -2.04467,4.17397 c -2.46109,5.02395 -4.75111,6.52952 -9.93172,6.52952 -3.62926,0 -3.93659,0.17009 -4.32275,2.39356 -0.22869,1.31648 0.04,2.70393 0.59721,3.08321 0.92565,0.63008 7.89364,2.02531 13.67984,2.73919 4.07117,0.50229 18.12253,0.40993 22.51887,-0.148 z m 46.77683,-1.24466 c 2.76273,-0.64524 5.19343,-1.317 5.40173,-1.49308 0.2082,-0.1759 0.1117,-1.44719 -0.2144,-2.82504 -0.556,-2.34913 -0.8463,-2.50518 -4.65792,-2.50518 -3.51863,0 -4.41612,-0.37183 -6.67706,-2.76624 -1.43661,-1.52132 -3.07566,-3.92959 -3.64229,-5.35171 -0.56662,-1.42202 -1.30927,-2.49635 -1.65025,-2.3873 -0.34102,0.10905 -3.34471,0.19824 -6.67486,0.19824 -5.9821,0 -6.07329,0.0334 -7.59271,2.73843 -1.7437,3.10503 -2.92987,4.06988 -7.24049,5.8896 -2.69791,1.13887 -3.07016,1.70158 -3.32299,5.02284 -0.3087,4.05482 -0.39345,3.99422 6.85274,4.89693 5.36394,0.66817 24.41884,-0.25003 29.4185,-1.41749 z m -76.34396,-9.19828 c 4.76968,-1.53236 10.26522,-16.92148 7.12224,-19.94443 -0.61169,-0.58839 -1.8286,-2.3184 -2.70422,-3.84468 -0.87565,-1.52628 -1.96716,-2.77497 -2.42557,-2.77497 -0.45842,0 -0.9882,3.74616 -1.17723,8.32492 -0.31748,7.68929 -0.59511,8.73351 -3.63667,13.67666 -3.00394,4.88195 -3.13246,5.35171 -1.46417,5.35171 1.00587,0 2.93436,-0.35514 4.28562,-0.78921 z m 80.23459,0.2823 c 0,-0.27879 -1.3423,-2.33029 -2.98294,-4.5589 -2.81632,-3.82551 -3.00629,-4.57252 -3.39965,-13.36792 -0.22917,-5.12376 -0.6136,-9.31596 -0.85434,-9.31596 -1.01311,0 -3.96252,3.68016 -3.99124,4.98021 -0.0174,0.77671 -0.71513,1.63414 -1.55098,1.90505 -1.25583,0.40727 -1.41529,1.2635 -0.91841,4.93048 0.90895,6.70726 3.1694,11.68157 6.32952,13.92849 2.53371,1.80157 7.36804,2.78474 7.36804,1.49855 z M 955.60105,933.4372 c -0.36732,-5.7779 -0.9422,-10.72491 -1.27752,-10.99342 -0.33531,-0.26844 -2.43156,0.20115 -4.65831,1.0436 -3.59666,1.36056 -3.99367,1.76912 -3.55641,3.65945 0.27071,1.17037 0.78216,4.26831 1.13654,6.88444 0.55514,4.09822 1.10514,5.11306 3.97433,7.33379 1.83152,1.41758 3.71688,2.57742 4.18962,2.57742 0.51096,0 0.58872,-4.26086 0.19175,-10.50528 z m 11.12679,7.92855 c 2.94637,-2.18504 3.61126,-3.30012 4.3732,-7.33388 1.396,-7.39075 1.20316,-9.91065 -0.75838,-9.91065 -0.91728,0 -2.63351,-0.57153 -3.81381,-1.27017 -1.18031,-0.69856 -2.39827,-1.05704 -2.70657,-0.79649 -1.36756,1.15557 -2.64722,21.88792 -1.35101,21.88792 0.43005,0 2.34556,-1.1595 4.25657,-2.57673 z m -22.86601,-8.67462 c 0,-1.9606 -0.95214,-2.19317 -6.86637,-1.67736 -4.04763,0.353 -5.33134,0.77235 -5.33134,1.74148 0,1.04266 1.11785,1.27662 6.09886,1.27662 5.10184,0 6.09885,-0.21913 6.09885,-1.34074 z m 42.58187,-0.20183 c -0.4638,-1.02118 -10.31748,-2.30822 -11.78913,-1.53964 -0.42213,0.22041 -0.76849,1.00414 -0.76962,1.74147 -0.004,1.15551 0.8975,1.3047 6.50985,1.07938 4.83174,-0.19396 6.39251,-0.52445 6.0489,-1.28121 z m -42.58373,-5.79135 c 0.004,-1.65194 -0.41456,-1.78393 -5.62785,-1.78393 -5.3633,0 -5.62972,0.0928 -5.62972,1.96095 0,1.88784 0.21007,1.95444 5.62786,1.78393 5.14804,-0.16195 5.62801,-0.32904 5.62971,-1.96095 z m 42.0616,-0.0402 c 0.29498,-1.75816 0.0937,-1.81483 -5.62972,-1.58568 -5.15151,0.2062 -5.9719,0.45152 -6.21001,1.8572 -0.25186,1.48682 0.20971,1.61676 5.62971,1.58577 5.43235,-0.0308 5.9285,-0.17958 6.21002,-1.85729 z m -36.60028,-5.34289 4.86171,-1.22001 v -3.89305 -3.89304 l -3.49027,1.23225 c -2.70956,0.95664 -5.59549,1.13391 -12.90143,0.79255 -5.17616,-0.2419 -10.88897,-0.66971 -12.69517,-0.95047 l -3.28403,-0.51067 3.04916,1.85797 c 1.67703,1.02194 3.54888,3.00026 4.15969,4.39627 0.77804,1.77819 1.83156,2.6328 3.51883,2.85432 5.60985,0.73674 12.2399,0.47352 16.78151,-0.66612 z m 35.0959,0.71465 c 2.46996,-0.34504 3.6609,-0.98102 4.06628,-2.17168 0.3153,-0.92599 2.33193,-2.99222 4.48146,-4.5916 2.14948,-1.59939 3.67234,-3.10727 3.38407,-3.35079 -0.28823,-0.24361 -2.82117,0.30053 -5.6287,1.20914 -4.3357,1.40303 -6.44749,1.58792 -14.01839,1.22678 -4.90257,-0.23393 -9.89078,-0.67656 -11.08492,-0.98368 -2.06522,-0.5313 -2.15684,-0.38981 -1.87658,2.89584 0.28119,3.29677 0.48709,3.51479 4.51693,4.78137 4.50342,1.41535 10.47229,1.77905 16.15985,0.98462 z m -24.60447,-12.57644 c 0,-2.90714 -0.40898,-5.15355 -0.93828,-5.15355 -1.01513,0 -1.30032,7.00159 -0.36877,9.05292 1.01311,2.23092 1.30705,1.35407 1.30705,-3.89937 z m -8.63475,1.91934 c 2.11032,-0.62161 2.91267,-1.42459 3.22598,-3.2283 l 0.417,-2.40083 -4.3067,0.56152 c -11.50729,1.50043 -15.68482,1.63628 -22.00944,0.71594 -3.68097,-0.53559 -6.96974,-0.83149 -7.30833,-0.65748 -1.3602,0.69908 0.55469,3.65663 2.84362,4.392 6.77434,2.17639 20.76454,2.49455 27.13787,0.61715 z m 40.20026,-0.3839 c 4.5215,-1.06218 5.96596,-2.19711 5.96596,-4.68747 0,-0.81609 -0.8587,-0.87395 -3.98768,-0.26852 -5.22178,1.01021 -16.56665,1.20366 -23.92631,0.40795 l -5.86431,-0.63393 v 2.36445 c 0,2.63211 0.93835,3.06404 8.87986,4.08804 5.64084,0.72732 12.34321,0.2775 18.93248,-1.27052 z m -35.70635,-8.40008 c 1.15361,-0.97487 1.20745,-7.98108 0.38641,-50.25504 -0.52472,-27.0172 -1.35858,-54.65242 -1.85304,-61.41143 -0.49446,-6.75909 -0.91287,-14.16231 -0.92978,-16.45169 l -0.0307,-4.16242 h -6.40505 c -8.11585,0 -25.13632,-1.39994 -32.74489,-2.69323 -3.2124,-0.54602 -6.16799,-0.78775 -6.56799,-0.53729 -0.40001,0.25054 -0.85312,2.33903 -1.00697,4.64116 -0.50951,7.62585 -5.5709,14.9082 -14.51265,20.88075 -3.15041,2.10415 -5.55036,3.0803 -7.57625,3.08141 h -2.96517 l 0.14711,8.12514 c 0.081,4.46868 0.59469,10.08737 1.14167,12.48572 0.547,2.39834 1.68954,8.28529 2.53899,13.08198 3.05132,17.23063 8.14797,34.85388 15.71649,54.34487 5.75278,14.81507 5.77418,14.84657 10.98456,16.15399 4.22619,1.06054 16.07418,3.17471 22.01527,3.92848 5.91524,0.75043 20.29058,-0.0556 21.66203,-1.21411 z m 33.42458,-0.25166 c 10.44075,-1.68823 16.05764,-2.91372 17.38954,-3.79409 0.6415,-0.42405 2.4212,-4.20796 3.9548,-8.40872 7.1926,-19.70148 14.4919,-51.38895 15.6396,-67.89448 0.3335,-4.79669 1.1174,-9.5707 1.7419,-10.60891 0.8088,-1.34439 0.8837,-2.94138 0.2602,-5.54995 -0.4814,-2.01427 -0.845,-4.93168 -0.808,-6.48304 l 0.067,-2.82077 h -4.4618 c -9.6609,0 -17.663,-8.02226 -21.4702,-21.5241 -1.98147,-7.02692 -2.94993,-9.09529 -4.00155,-8.5461 -1.4617,0.76335 -19.63795,2.69263 -30.92586,3.28256 l -10.68877,0.55861 0.63674,13.55671 c 0.3502,7.4562 1.26028,22.83304 2.02242,34.17082 0.76214,11.33768 1.81182,34.86937 2.33266,52.2925 0.70024,23.42675 1.24681,31.8395 2.09831,32.2965 1.9439,1.0436 18.56524,0.709 26.21281,-0.52754 z M 796.13687,809.57989 c 1.00173,-0.64027 2.33752,-1.17542 2.96842,-1.18929 1.5529,-0.0342 16.39588,-8.56691 22.77924,-13.09508 5.67719,-4.02718 22.51402,-17.99338 22.51701,-18.6779 8.1e-4,-0.23659 -1.86309,-0.8517 -4.1425,-1.36682 -4.55002,-1.02828 -19.51605,-6.91265 -25.35993,-9.97104 l -3.70142,-1.93707 -3.50945,6.05968 c -1.96868,3.39933 -6.0078,8.42593 -9.20002,11.4494 -3.12983,2.96431 -5.69059,5.64984 -5.69059,5.96792 0,2.27697 -11.58502,9.47004 -18.04736,11.20535 -3.3106,0.88901 -7.2864,4.05482 -7.2864,5.80195 0,0.50579 2.93697,0.64283 8.02718,0.37448 l 8.02718,-0.42319 2.2619,3.02775 c 1.98931,2.66275 3.40161,3.37997 7.54188,3.82996 0.54643,0.0591 1.81312,-0.41584 2.81486,-1.0561 z m 80.15395,-8.10032 c 0.008,-1.82493 -0.46831,-4.3224 -1.05825,-5.54995 -0.58993,-1.22755 -1.76242,-5.62142 -2.60553,-9.76398 -0.8431,-4.14273 -1.83824,-7.44293 -2.2114,-7.33397 -0.37316,0.10905 -2.63663,0.19825 -5.02994,0.19825 h -4.35148 l 0.60193,4.3277 c 0.93596,6.72914 5.93144,17.49675 9.67245,20.84848 3.775,3.3822 4.95856,2.73457 4.98222,-2.72653 z m 243.26528,1.54768 c 0.9031,-0.68777 1.642,-1.70929 1.642,-2.27003 0,-1.83041 2.2234,-2.2774 10.0866,-2.02772 6.1579,0.19551 7.7409,0.0188 7.7409,-0.86735 0,-1.74156 -3.8778,-4.38865 -8.4069,-5.73895 -2.2722,-0.67741 -5.5043,-2.11656 -7.1824,-3.19817 -3.6324,-2.34108 -3.8625,-2.37164 -4.3699,-0.57915 -0.3523,1.24476 -0.473,1.2243 -1.1732,-0.19815 -0.4293,-0.87215 -1.0853,-1.76416 -1.4578,-1.98209 -1.1768,-0.6888 -10.9452,-16.81685 -13.5661,-22.39804 -1.3822,-2.94352 -2.7046,-5.35179 -2.9387,-5.35179 -0.2341,0 -2.4005,1.2742 -4.8141,2.83147 -4.3752,2.8229 -21.3554,10.35383 -27.1894,12.05875 l -3.0726,0.898 4.4446,3.40403 c 2.4446,1.87218 6.7829,5.25336 9.6407,7.51381 2.8578,2.26028 6.4627,5.03679 8.0108,6.16993 4.0079,2.93341 18.9098,11.52369 19.9907,11.52369 0.4985,0 2.1157,0.54165 3.5938,1.20392 2.9766,1.33335 6.4719,0.94893 9.021,-0.99216 z m -81.1095,-3.58138 c 3.939,-5.14833 6.1795,-10.72079 7.1725,-17.83914 0.5513,-3.95193 0.4722,-4.16199 -1.5628,-4.15163 -5.2855,0.0265 -6.0851,0.67451 -6.6718,5.40555 -0.3065,2.47179 -1.4186,6.77056 -2.4714,9.55281 -2.3153,6.11943 -2.5407,11.98763 -0.4604,11.98763 0.1114,0 1.9087,-2.22989 3.9939,-4.95522 z m -8.8067,-9.27428 c 2.0451,-7.59778 1.9624,-12.45456 -0.2288,-13.44552 -1.9213,-0.8689 -3.5552,-4.8876 -4.3638,-10.73294 -0.2982,-2.15551 -0.7274,-4.07563 -0.9537,-4.26685 -0.3225,-0.27254 -11.9456,2.12221 -20.9876,4.3242 -2.5548,0.62212 2.0098,14.51282 6.7603,20.57285 3.4129,4.35347 6.2568,6.30765 11.4585,7.87348 6.3661,1.91626 6.6789,1.75363 8.3151,-4.32522 z m -140.27067,1.33523 c 8.39061,-5.48832 14.34509,-14.09238 14.50901,-20.96523 l 0.10643,-4.46184 -4.2245,-0.92479 c -2.32347,-0.50854 -6.64262,-1.16489 -9.5981,-1.45841 -5.97966,-0.59387 -5.45324,-1.06893 -6.84347,6.17627 -0.62553,3.25996 -2.56358,5.12453 -5.37142,5.16767 -2.0086,0.0308 -2.17021,1.48939 -0.23457,2.11699 1.74672,0.56639 1.83143,2.37258 0.15107,3.22051 -1.03865,0.52419 -1.05302,1.63584 -0.083,6.41473 1.54011,7.58742 2.35786,8.41848 6.75561,6.86584 1.84445,-0.65131 4.01928,-1.6195 4.83293,-2.15174 z m -236.03871,0.62845 c 22.13817,-3.33401 44.00551,-19.95689 57.67551,-43.84313 2.53023,-4.42117 3.97264,-6.15931 4.64208,-5.5936 2.19238,1.85258 -11.7082,22.49006 -21.94492,32.58059 -2.55225,2.51579 -7.75564,6.52961 -11.5631,8.91957 -3.80747,2.38996 -6.3896,4.34543 -5.73808,4.34543 3.54861,0 13.97824,-3.02492 23.22862,-6.73693 12.74934,-5.11614 23.17289,-11.07952 29.35206,-16.79254 5.46293,-5.05083 14.08572,-15.2166 14.08572,-16.60627 0,-0.53858 0.58873,-1.47664 1.30828,-2.08472 3.39,-2.86451 8.76842,-16.8433 11.36282,-29.53248 2.44333,-11.95039 3.30186,-28.88708 2.31394,-45.64871 -0.49805,-8.45016 -1.10277,-16.44262 -1.34384,-17.7609 -0.24106,-1.31837 -0.67602,-4.35929 -0.96656,-6.75764 -1.51527,-12.50806 -5.28496,-34.67721 -8.42612,-49.55314 -0.73662,-3.4886 -1.58082,-7.77 -1.87596,-9.51421 -0.29515,-1.7443 -1.16083,-5.97588 -1.92374,-9.40362 -0.76291,-3.42766 -1.38711,-6.34583 -1.38711,-6.48476 0,-0.13892 -2.22499,-0.79913 -4.94441,-1.46713 -9.70591,-2.38423 -19.84098,-9.44813 -27.4863,-19.15734 -6.7868,-8.61895 -11.01325,-17.54022 -13.69009,-28.89734 -1.88303,-7.98921 -2.14773,-11.47302 -2.13848,-28.14617 0.008,-15.59001 0.32616,-20.24618 1.75712,-25.76764 2.38256,-9.19319 3.01097,-19.02841 1.2158,-19.02841 -8.01535,0 -25.40169,9.53931 -37.76851,20.72232 -11.4758,10.3773 -18.62005,20.97198 -39.22287,58.16625 -13.73695,24.79938 -29.56263,72.53375 -34.96019,105.44912 -1.66172,10.1335 -3.55689,47.98757 -2.81829,56.29246 0.64672,7.27165 3.42321,19.04725 6.26254,26.56037 4.48706,11.87344 20.71445,37.26738 26.95446,42.18083 3.39888,2.6762 14.81797,21.79792 16.35786,27.39187 0.63023,2.28929 1.52216,4.16241 1.98208,4.16241 2.16463,0 23.04479,-16.02122 28.93244,-22.19979 2.67386,-2.80596 3.64869,-3.36406 4.56512,-2.61354 0.92681,0.75899 0.84837,1.65536 -0.38333,4.38061 -2.21706,4.90548 -17.55178,17.42766 -26.04606,21.26909 -2.12136,0.95929 -2.13514,1.02238 -0.35213,1.61103 2.65762,0.87737 4.68075,0.80846 12.98364,-0.44194 z m 616.83668,-2.16304 c -0.2062,-0.52266 -3.3025,-2.39578 -6.8808,-4.16242 -7.8187,-3.86026 -21.5968,-14.95802 -22.5162,-18.13607 -1.21,-4.18271 1.0614,-4.32052 5.2315,-0.31739 5.5933,5.36951 28.2014,20.39489 30.6872,20.39489 0.4424,0 0.8701,-1.39301 0.9504,-3.09562 0.2388,-5.05931 11.2285,-30.1451 13.5249,-30.87276 1.2055,-0.38211 4.8328,-6.61444 9.7297,-16.71721 4.2236,-8.71371 8.9589,-23.56285 10.7637,-33.75293 1.7018,-9.60846 2.2476,-35.55253 1.0426,-49.56136 -1.7442,-20.2784 -3.7642,-33.33137 -8.1581,-52.71639 -8.1292,-35.86384 -12.4318,-48.73183 -22.9944,-68.7691 -12.4173,-23.55566 -25.043,-39.92307 -48.7961,-63.25732 -12.2217,-12.00624 -26.8119,-24.56147 -28.5423,-24.56147 -0.6571,0 -1.4006,1.67004 -1.7586,3.94996 -0.4948,3.1518 -0.2205,4.63373 1.3572,7.33387 2.5607,4.38264 6.9519,14.95172 8.3658,20.13574 1.7767,6.51402 2.5908,19.1651 1.7026,26.45853 -2.5302,20.77777 -11.1912,37.24538 -26.2304,49.87327 -11.1111,9.32958 -23.8541,15.14043 -33.2027,15.14043 -2.9535,0 -3.026,0.0889 -4.0399,4.9553 -1.9692,9.45173 -5.8496,46.97967 -7.7265,74.72616 -1.8836,27.84347 0.5169,57.63403 6.103,75.74322 3.4395,11.15014 7.8805,20.97987 11.5712,25.61213 1.794,2.25155 3.8254,4.98569 4.5143,6.07586 2.1909,3.46737 11.7611,12.14418 18.1673,16.47137 6.9785,4.71401 18.8328,10.10381 28.9131,13.14584 7.6254,2.30128 21.9466,5.44826 22.5342,4.95163 0.2121,-0.17916 -2.6851,-2.00434 -6.4382,-4.05585 -12.4423,-6.8013 -22.1803,-15.88915 -32.6237,-30.44563 -4.3879,-6.11617 -5.8723,-9.59604 -4.0829,-9.57207 0.387,0.009 2.1412,2.23502 3.8981,4.9553 12.3858,19.17634 30.3082,32.78971 51.4835,39.10498 4.8875,1.45764 8.2857,1.88588 15.0681,1.8988 6.3962,0.0128 8.6563,-0.2395 8.3824,-0.93369 z M 872.51589,775.6603 c -0.0199,-0.54508 -1.384,-1.70749 -3.03138,-2.58315 -3.12818,-1.66273 -8.60649,-8.67853 -11.30853,-14.48219 -0.86772,-1.86371 -2.63519,-7.87965 -3.9277,-13.36865 -2.06852,-8.78441 -2.35129,-12.03522 -2.36045,-27.1361 -0.0164,-27.01464 2.64805,-43.85511 8.97453,-56.7231 1.71963,-3.49776 -5.60369,1.7734 -16.58984,11.9408 -10.9764,10.1585 -13.17171,12.55463 -21.31542,23.26557 -5.32631,7.00544 -6.32083,7.90935 -12.80116,11.63488 -7.98344,4.58964 -8.86553,5.66046 -11.45425,13.9056 -2.23875,7.13042 -5.48019,13.30916 -6.98212,13.30916 -0.40287,0 -1.16,0.67502 -1.6825,1.50001 -1.35341,2.13685 0.87416,5.51408 7.70973,11.68872 13.61954,12.30262 40.23924,24.48105 59.47339,27.20894 7.44959,1.05653 15.33707,0.97384 15.2957,-0.16049 z m 176.07541,-0.98403 c 12.801,-2.06957 29.3012,-8.16263 42.527,-15.704 8.1963,-4.67352 20.4535,-14.75952 23.0212,-18.94333 l 1.7959,-2.92623 -2.6164,-2.2108 c -3.599,-3.04118 -4.9245,-5.44013 -7.5019,-13.57837 -2.7786,-8.77353 -3.4688,-9.68831 -9.9357,-13.16963 -7.1121,-3.82868 -10.0841,-6.6206 -16.9579,-15.93109 -6.1171,-8.28555 -7.1257,-9.34918 -20.9836,-22.12927 -10.3309,-9.52722 -22.9234,-16.96244 -18.0213,-10.64058 2.6023,3.35592 8.1573,17.46953 10.0729,25.59201 6.2553,26.52383 7.0734,54.64609 2.0884,71.79514 -1.7588,6.05052 -6.0806,13.66533 -9.2995,16.38527 -3.6418,3.0773 -3.8553,3.02363 5.8109,1.46088 z m -10.9823,-4.62961 c 2.4664,-1.71143 6.4515,-10.39731 8.4338,-18.38207 7.1699,-28.881 -2.5563,-82.13904 -17.4102,-95.33359 l -3.6439,-3.23677 -6.0746,1.18578 c -3.341,0.65233 -6.2515,1.33548 -6.4678,1.51823 -0.2163,0.18284 0.5357,3.27743 1.671,6.87714 6.2852,19.92736 11.6392,55.46679 13.1691,87.4155 0.5581,11.65346 1.1033,15.84036 2.4083,18.49224 1.5197,3.08809 1.9295,3.37664 4.1325,2.90945 1.345,-0.28521 3.0468,-0.93592 3.7818,-1.44591 z m -157.98533,-2.46049 c 1.64767,-3.33221 1.63832,-3.09254 1.46254,-37.51766 -0.0785,-15.373 0.10409,-30.17951 0.40573,-32.9033 1.86505,-16.84141 3.50062,-28.73599 4.69951,-34.17723 0.75525,-3.42766 1.37317,-6.71793 1.37317,-7.31171 0,-1.62327 -9.72807,-3.82637 -12.11978,-2.74476 -4.48461,2.02805 -10.56379,13.58701 -13.57044,25.80284 -3.89605,15.82939 -4.49517,51.25087 -1.10634,65.41018 2.84938,11.90537 5.98195,18.58709 10.96043,23.37839 3.72769,3.58755 6.14296,3.60689 7.89518,0.0633 z m 72.34043,-7.78283 c -0.32699,-3.16153 -0.86894,-19.19431 -1.20434,-35.62863 l -0.60983,-29.88034 -3.84775,-0.52052 c -7.33665,-0.99267 -16.72132,-5.50355 -24.21581,-11.63984 -8.30671,-6.80138 -10.1085,-8.89783 -15.84295,-18.43361 l -4.30929,-7.16585 h -3.66616 c -3.59091,0 -3.67238,0.0642 -3.96789,3.12173 -0.1659,1.71699 0.15182,4.64364 0.70615,6.50384 2.06574,6.93217 2.92849,18.54531 1.90049,25.58174 -1.23156,8.42978 -2.95309,13.55705 -6.72624,20.03308 -1.89222,3.24764 -3.04089,6.55366 -3.25804,9.37691 -0.87371,11.35969 -1.97676,39.26899 -1.57379,39.81989 0.24931,0.34085 1.19922,0.28247 2.11092,-0.12985 1.10289,-0.49878 5.8725,-0.22333 14.25195,0.82293 18.08875,2.25857 33.92564,3.6502 42.98013,3.77672 l 7.86695,0.1099 z m 33.65152,4.9226 c 4.64452,-0.4469 10.34463,-0.99686 12.66689,-1.22224 8.07369,-0.78338 22.99459,-3.6003 24.04479,-4.53939 1.1758,-1.0513 0.8525,-4.34568 -2.9509,-30.06891 -2.1251,-14.37236 -2.5822,-16.09141 -5.6175,-21.12418 -5.769,-9.5654 -7.3552,-16.11076 -7.5169,-31.01896 -0.1397,-12.87972 -0.9169,-19.82131 -2.2192,-19.82131 -0.3646,0 -2.5442,3.28102 -4.84356,7.29125 -9.50422,16.57521 -24.6862,27.79066 -40.34484,29.80408 -2.81628,0.36208 -5.04088,1.01766 -4.94355,1.45686 0.0974,0.43912 0.43936,15.58143 0.76003,33.64945 0.32063,18.06811 0.77683,33.65381 1.01372,34.63501 0.41602,1.7229 0.79074,1.78367 10.96858,1.77742 5.79582,-0.009 14.33792,-0.37217 18.98244,-0.81908 z m -93.67789,-76.87378 c 0.31861,-5.45083 0.28645,-9.68301 -0.0715,-9.40491 -0.76243,0.59251 -3.3831,19.6187 -3.26116,23.67618 l 0.0834,2.77497 1.335,-3.56777 c 0.73422,-1.96232 1.59568,-8.02765 1.91429,-13.47847 z m 120.84537,2.52306 c -0.9069,-4.22208 -1.8408,-7.20643 -2.0753,-6.63181 -0.2344,0.57452 0.3157,4.49915 1.2227,8.72132 0.9069,4.22208 1.8408,7.20651 2.0753,6.6319 0.2345,-0.57462 -0.3157,-4.49925 -1.2227,-8.72141 z m -45.46307,-4.83898 c 7.26173,-3.04366 14.85035,-7.85508 19.39519,-12.29715 3.09682,-3.0268 11.56729,-14.45813 11.56729,-15.61069 0,-0.28864 -2.63893,0.68366 -5.86431,2.16072 -8.27746,3.79076 -16.03724,5.67304 -27.85182,6.75585 -16.18952,1.48374 -37.03994,-0.86111 -50.27086,-5.65344 -2.46268,-0.89201 -4.67268,-1.45703 -4.91107,-1.25554 -0.23839,0.20141 1.76825,3.05745 4.4592,6.34677 12.22057,14.93757 27.11053,23.01066 41.27867,22.38058 4.5372,-0.20175 7.66205,-0.92599 12.19771,-2.8271 z m 6.8449,-25.41671 c 0.91173,-0.82302 0.51889,-0.92299 -2.03719,-0.51838 -1.74167,0.27563 -10.18625,0.50674 -18.76574,0.51342 -11.11919,0.009 -15.19481,0.24994 -14.19157,0.84022 2.10749,1.24013 33.52621,0.49021 34.9945,-0.83526 z m 4.41357,-5.5728 c 19.76376,-1.01596 27.4828,-1.91695 41.3255,-4.82383 13.605,-2.85698 24.7447,-6.38427 38.6897,-12.25067 13.3647,-5.62228 17.4301,-7.80732 30.7027,-16.50142 13.1984,-8.64557 29.3739,-22.26802 37.7936,-31.82854 9.8063,-11.13499 19.4095,-26.93742 25.5365,-42.0211 1.5249,-3.75429 1.2399,-3.47002 -6.2463,6.22805 -9.2941,12.04001 -25.8327,24.22186 -40.5296,29.85287 -12.4272,4.76134 -18.3104,5.72379 -37.4891,6.13295 -15.678,0.33443 -18.6145,0.1878 -26.2721,-1.31152 -17.049,-3.33829 -31.162,-10.04928 -44.25459,-21.04389 -9.32492,-7.83069 -14.18178,-13.31148 -19.05158,-21.49884 -4.85811,-8.16777 -7.47612,-15.46895 -8.79263,-24.52111 l -1.06364,-7.31334 -19.01081,0.0876 -19.01081,0.0876 -0.64931,5.84158 c -0.96093,8.64497 -3.66839,16.10802 -9.38601,25.87243 -13.04788,22.28266 -39.83459,39.51105 -67.1965,43.2187 -11.32405,1.5345 -37.93587,0.63881 -46.80158,-1.57525 -20.97533,-5.23803 -40.45474,-17.56103 -53.92108,-34.11133 -2.07501,-2.55028 -3.2596,-3.53781 -2.8532,-2.37857 1.45186,4.14128 14.43387,26.10714 18.31,30.98104 19.25873,24.21587 43.83334,41.35122 77.87233,54.29848 10.52048,4.00166 38.37646,12.16618 46.91438,13.7505 2.83832,0.52668 7.69392,1.45232 10.7903,2.05707 5.30811,1.03666 16.97229,2.43318 25.33373,3.0333 8.61768,0.61836 34.84138,0.47858 49.2601,-0.26269 z m -36.28476,-68.54236 c -3.02857,-1.11319 -4.9999,-3.29404 -4.9999,-5.53138 0,-0.68272 0.42225,-1.24133 0.93828,-1.24133 0.51606,0 0.93831,0.65824 0.93831,1.46277 0,4.28209 9.60324,6.00524 14.92879,2.67885 2.62356,-1.63876 3.08408,-1.69808 5.00516,-0.64523 2.09342,1.14726 6.33514,1.67907 11.19192,1.40319 1.3812,-0.0788 3.80528,-1.23859 5.39513,-2.58203 2.14738,-1.81458 2.88707,-2.10364 2.88707,-1.12826 0,0.72116 -1.23423,2.35409 -2.74269,3.62881 -2.45592,2.07521 -3.36616,2.31754 -8.70498,2.31754 -3.81344,0 -6.69537,-0.43389 -7.99639,-1.20393 -1.84981,-1.09487 -2.31514,-1.05917 -5.13478,0.39341 -3.58921,1.84916 -7.48741,1.99818 -11.70592,0.44759 z m -88.84167,-10.62809 c 29.18577,-6.43733 49.69999,-22.95442 58.79967,-47.34277 4.98902,-13.37121 5.15779,-24.67646 0.55631,-37.26518 -7.16593,-19.60445 -21.10827,-34.17549 -40.71288,-42.54876 -24.78574,-10.58617 -47.77993,-10.94137 -72.15986,-1.11468 -22.8638,9.21561 -37.7811,24.84546 -44.37339,46.49298 -8.21515,26.97662 6.82955,57.64009 35.82828,73.0237 18.82271,9.98534 41.79212,13.22554 62.06187,8.75471 z M 805.162,539.01632 c -1.19849,-0.70541 -4.06982,-3.35884 -6.38074,-5.89654 -15.33063,-16.83516 -13.69921,-40.44094 3.79948,-54.97656 3.14975,-2.6164 7.72607,-5.64845 10.16959,-6.73786 5.28035,-2.35421 5.94532,-3.7372 0.92418,-1.92213 -1.93522,0.69955 -4.15192,1.47849 -4.92601,1.731 -6.66352,2.17353 -16.71737,9.17754 -22.23411,15.48939 -1.82831,2.09182 -3.53012,3.62932 -3.78177,3.41666 -0.9461,-0.79945 5.5178,-9.09743 10.10817,-12.97628 12.09031,-10.21629 37.23697,-16.14513 54.34732,-12.81347 14.4478,2.8132 30.01078,12.77003 36.13899,23.12089 3.21355,5.42786 4.75529,10.52198 1.78081,5.88407 -1.9992,-3.11722 -2.4157,-2.2996 -0.82098,1.61166 2.07343,5.08533 2.65757,12.77518 1.46416,19.27466 -1.15958,6.31519 -6.0653,16.04288 -9.36186,18.5638 -1.86572,1.42674 -2.08576,1.41843 -8.48999,-0.32167 -6.0216,-1.63611 -7.81901,-1.75183 -21.36866,-1.37675 -16.72403,0.46291 -23.19561,1.75706 -32.52441,6.50385 -6.25315,3.18182 -5.94427,3.132 -8.84417,1.42528 z m 35.27949,-26.03267 c 2.57541,-1.52423 2.66991,-3.6229 0.24659,-5.47608 -1.25115,-0.95672 -2.60049,-1.24458 -4.2223,-0.90057 -1.97317,0.4184 -2.38352,0.97384 -2.38352,3.2259 0,1.75457 0.58303,3.00746 1.642,3.52866 2.16867,1.06731 2.29212,1.05747 4.71723,-0.37791 z m 20.11825,-7.52202 c 4.15532,-0.97513 8.71771,-4.04972 10.61856,-7.1558 2.15848,-3.52705 1.77662,-10.30516 -0.75974,-13.48548 -6.22541,-7.80599 -17.66339,-9.02547 -25.36586,-2.70442 -7.57851,6.21931 -6.25172,17.72044 2.48466,21.53788 5.95496,2.60216 8.26893,2.92341 13.02238,1.80782 z m -67.8689,-34.2639 c 3.11594,-2.93364 15.21801,-8.0932 23.57078,-10.0491 9.37611,-2.19551 25.89668,-2.2677 35.42097,-0.15476 6.47785,1.43709 15.89507,5.36354 14.89358,6.20979 -0.27139,0.22933 -1.8879,-0.30244 -3.59223,-1.18169 -6.63315,-3.42199 -15.18251,-4.92503 -28.01379,-4.92503 -10.32967,0 -13.16277,0.29292 -19.83977,2.05134 -6.99114,1.84114 -14.92977,5.00161 -22.13491,8.81219 l -2.54357,1.3452 z m 290.50666,104.48388 c 32.6442,-7.46553 53.6672,-25.65493 61.5937,-53.29177 4.856,-16.93104 -0.01,-36.55242 -13.1032,-52.85589 -11.9861,-14.923 -31.6812,-25.20912 -54.9116,-28.67853 -10.0935,-1.50742 -18.2891,-1.25115 -28.255,0.88351 -36.5782,7.83494 -58.89767,29.1132 -64.30004,61.30055 -2.38161,14.18962 4.93704,34.06999 17.91394,48.66139 10.3021,11.58378 29.5483,21.20362 49.6296,24.80623 7.6288,1.36862 23.6819,0.94705 31.4326,-0.82549 z m 2.3457,-36.60906 c -4.1539,-2.56072 -15.0495,-6.82303 -20.9103,-8.17992 -3.0257,-0.70053 -7.77,-0.90827 -14.5458,-0.63684 -8.5386,0.34196 -11.1475,0.78681 -17.2938,2.94891 -3.981,1.40045 -7.6433,2.33474 -8.1384,2.07616 -0.4951,-0.25859 -2.6139,-2.63854 -4.7083,-5.28888 -5.4599,-6.90889 -7.7199,-13.97263 -7.5261,-23.52322 0.086,-4.24125 0.4708,-8.24661 0.8549,-8.90071 0.3841,-0.6541 0.9958,-2.25962 1.3592,-3.56782 0.6287,-2.26291 0.5908,-2.30145 -0.7786,-0.79286 -1.1931,1.31427 -1.4446,1.36477 -1.4693,0.29504 -0.089,-3.83523 8.3881,-14.47489 15.4014,-19.33094 4.4574,-3.08638 10.7216,-6.05745 17.8425,-8.46266 6.9688,-2.35382 22.6115,-2.86832 31.6346,-1.04051 14.888,3.01587 26.5458,9.2138 33.863,18.00347 5.1237,6.15481 6.5894,9.30661 2.503,5.38207 -10.7571,-10.33075 -18.1506,-15.17403 -27.84,-18.23736 -5.6919,-1.79954 -8.0894,-1.51406 -2.9723,0.35392 7.8085,2.85049 17.1335,10.27075 21.261,16.91832 4.7418,7.63693 6.2348,12.54214 6.2059,20.38992 -0.029,7.9114 -1.6327,13.16193 -6.1747,20.21771 -2.8388,4.40996 -12.5337,13.51117 -14.3162,13.43961 -0.5322,-0.0214 -2.4455,-0.94996 -4.2517,-2.06341 z m -22.7277,-30.05316 c 2.0571,-1.21745 2.7111,-3.88714 1.3673,-5.58111 -1.2473,-1.57234 -5.3931,-1.92923 -7.554,-0.65028 -2.555,1.51216 -2.6224,3.80984 -0.1725,5.87993 2.2584,1.90838 3.6032,1.98268 6.3592,0.35146 z m -15.2784,-6.69199 c 7.2926,-2.98309 11.2596,-10.36408 8.9981,-16.74207 -2.2958,-6.47522 -10.8572,-11.07863 -18.2195,-9.79659 -10.156,1.76855 -15.4192,9.63818 -12.3281,18.43341 2.8554,8.12494 12.5694,11.77865 21.5495,8.10525 z m 57.5034,-30.52996 c -12.8665,-7.38777 -25.7489,-10.70426 -41.5282,-10.69109 -11.6933,0.01 -17.295,0.86138 -25.2679,3.84149 -2.5283,0.94505 -4.7848,1.55954 -5.0144,1.36555 -0.8253,-0.69736 9.2374,-4.45909 14.9983,-5.60682 7.7241,-1.53883 24.791,-1.51692 32.6235,0.0419 7.6933,1.5311 22.3055,7.57091 25.8238,10.67401 3.2651,2.87978 2.8807,2.96793 -1.6351,0.37499 z m -364.37972,93.07821 c 0.88489,1.20991 7.05303,1.10857 7.61324,-0.12497 0.2504,-0.55142 -1.03031,-4.11577 -2.84603,-7.92065 -4.23685,-8.87857 -8.29467,-21.5294 -11.26578,-35.12266 -1.29429,-5.92153 -2.35325,-10.92109 -2.35325,-11.11008 0,-0.189 -0.95001,-0.35549 -2.11114,-0.37004 -3.49779,-0.0437 -6.38439,-2.64838 -14.76248,-13.32064 -1.48373,-1.89004 -3.85207,-6.17143 -5.26299,-9.5142 -1.41091,-3.34279 -3.28539,-6.79136 -4.1655,-7.66349 -0.88013,-0.87213 -1.89014,-2.65605 -2.2445,-3.96425 -0.35434,-1.3082 -1.11957,-3.80568 -1.70051,-5.54995 l -1.05625,-3.1714 -0.69879,3.56782 c -1.082,5.52439 -0.95759,34.83628 0.17711,41.72993 2.96234,17.99715 11.23625,34.64665 22.14322,44.55855 5.21862,4.74251 7.34665,6.08347 11.54572,7.2755 3.38693,0.96143 5.35283,1.18116 5.74701,0.64224 0.40428,-0.55279 0.80782,-0.53379 1.24092,0.0582 z m 422.56032,-2.69246 c 9.2303,-3.57077 20.9226,-13.04544 28.9952,-23.49574 15.0646,-19.50152 19.3969,-47.48284 11.0225,-71.19135 -0.8363,-2.36738 -1.6828,-5.01706 -1.8814,-5.88818 -0.4883,-2.14258 -2.2815,-3.63974 -2.2815,-1.90488 0,2.83082 -6.8462,20.15569 -11.4419,28.95474 -5.9832,11.4554 -10.0008,16.96477 -15.7487,21.59592 l -4.4281,3.56777 -2.0911,10.56843 c -3.0297,15.31179 -7.3615,28.66392 -12.7531,39.3087 -0.6924,1.36707 -0.4623,1.46183 2.3818,0.98112 1.7315,-0.29258 5.4333,-1.41604 8.2263,-2.49653 z M 738.08548,507.28048 c -0.23602,-0.7631 -0.42912,-0.13875 -0.42912,1.38745 0,1.52628 0.1931,2.15062 0.42912,1.38753 0.23599,-0.7631 0.23599,-2.01188 0,-2.77498 z m 435.33852,-2.77343 c 10.2544,-9.40027 18.6991,-29.07846 24.4135,-56.88857 2.3546,-11.45932 2.5292,-13.92213 2.5855,-36.47111 0.033,-13.30007 -0.2406,-26.41326 -0.6084,-29.14044 -2.0486,-15.18833 -9.2099,-40.15543 -16.5683,-57.76367 -6.5931,-15.77696 -6.7732,-16.02548 -14.5206,-20.04639 -14.8091,-7.68587 -19.4424,-10.26786 -32.0459,-17.85828 -13.3828,-8.05979 -19.2548,-11.90452 -28.8523,-18.89092 -2.9673,-2.16004 -5.3951,-3.688 -5.3951,-3.39545 0,1.57937 9.682,14.26015 19.9931,26.18548 20.4486,23.64989 31.7352,39.47605 40.1354,56.27839 4.3039,8.60886 11.2547,26.84293 12.4368,32.6255 3.9397,19.27096 4.5159,23.54211 5.0134,37.15931 0.9706,26.56706 -3.3843,54.16103 -12.9815,82.25317 -2.3478,6.87263 -2.6865,8.74559 -1.7533,9.69571 1.5054,1.53279 3.2844,0.7156 8.1477,-3.74273 z m -443.0344,-0.79443 c -0.27929,-1.41723 -0.91866,-4.51538 -1.42081,-6.88482 -1.89868,-8.95932 -0.65822,-45.61137 2.43024,-71.80555 1.11156,-9.42759 5.28958,-27.20408 9.36412,-39.84206 19.23222,-59.65266 65.32412,-101.97037 134.37751,-123.37413 30.65368,-9.50141 63.05367,-14.10305 117.98127,-16.75639 41.93007,-2.02549 53.99397,-2.70502 63.33437,-3.56745 12.2131,-1.12767 20.6423,-2.42256 20.6423,-3.17102 0,-0.34369 -0.8351,-2.18017 -1.8559,-4.08108 -1.0478,-1.95109 -1.865,-5.19981 -1.8766,-7.46009 -0.024,-4.51219 -1.1473,-5.90673 -4.761,-5.90673 -1.3686,0 -3.9231,-0.87643 -5.6766,-1.94761 -6.6697,-4.07438 -14.7835,-6.32671 -36.9665,-10.26166 -24.3774,-4.32419 -35.1307,-5.34771 -60.9887,-5.80502 -18.24628,-0.32268 -26.89551,-0.11481 -38.93517,0.93578 -65.51313,5.71671 -124.89243,28.76682 -166.75975,64.73352 -11.99933,10.30818 -16.5777,15.31116 -24.8395,27.14318 -12.16493,17.4218 -19.66544,32.52286 -25.18791,50.71171 -3.5342,11.64033 -4.1578,14.37965 -6.98449,30.68161 -3.40129,19.61563 -3.94122,46.86311 -1.36256,68.76182 1.23834,10.51644 8.71589,34.91192 12.8064,41.78086 3.51614,5.90442 9.55432,13.90131 12.76667,16.90802 2.84564,2.66344 4.52666,2.32276 3.91261,-0.79289 z m 11.78604,-19.16003 c 4.74842,-13.26686 10.67747,-21.44792 23.79948,-32.83908 9.14801,-7.94134 15.27512,-11.86934 24.94593,-15.99243 15.20025,-6.48053 26.32078,-8.27202 47.9871,-7.73062 13.03917,0.32584 16.5865,0.69843 23.58717,2.47754 32.16774,8.17484 57.43926,30.33369 65.54549,57.47228 l 2.21586,7.41851 4.69145,-0.47418 c 2.58031,-0.26079 11.51911,-0.47728 19.86405,-0.48107 l 15.17264,-0.007 0.61109,-2.57677 c 2.42825,-10.23862 9.22621,-23.10981 16.54893,-31.33349 4.30787,-4.8379 17.32577,-15.64908 23.02697,-19.12359 5.3833,-3.28072 17.3667,-8.24841 24.7039,-10.24087 10.9964,-2.98617 16.8501,-3.52643 33.9413,-3.13258 14.0865,0.32461 17.358,0.65508 24.503,2.47514 16.9075,4.30686 28.3609,10.44683 42.1779,22.61079 13.8457,12.18942 21.7132,25.06864 24.7045,40.44239 0.712,3.6592 1.4682,6.79982 1.6804,6.97914 1.2169,1.02827 4.4999,-6.09761 6.2649,-13.59822 1.7674,-7.51088 1.9054,-9.43009 1.0257,-14.2668 -0.5591,-3.07366 -1.4848,-10.40504 -2.0573,-16.29195 -1.3729,-14.11755 -2.66,-19.55053 -7.8892,-33.29972 -13.4223,-35.29066 -25.8791,-57.35092 -43.1894,-76.48581 -8.8341,-9.76531 -27.1845,-23.48295 -38.7446,-28.96303 -3.2195,-1.52624 -7.8916,-3.877 -10.3824,-5.22391 l -4.5289,-2.44893 -6.9503,1.1044 c -11.5752,1.83927 -45.179,2.2352 -59.2507,0.69814 -25.81917,-2.82028 -55.97226,-11.58734 -72.75171,-21.15265 l -4.01288,-2.2876 -5.83911,1.53529 c -3.2115,0.84442 -11.61813,2.96183 -18.68135,4.70537 -18.99274,4.68828 -40.65943,12.73928 -54.75454,20.34592 -33.02375,17.82176 -61.11118,44.9795 -80.13086,77.47853 -10.67916,18.24752 -21.36362,46.14919 -24.88173,64.97676 -2.40243,12.85687 -1.63661,34.86081 1.56626,45.00278 l 1.12673,3.56778 1.172,-7.86187 c 0.6446,-4.32406 2.07661,-10.38937 3.18223,-13.47846 z m 41.41614,-50.48393 c 1.01089,-2.60697 14.21487,-9.53127 23.74929,-12.45436 10.39595,-3.18721 36.15582,-4.025 47.11814,-1.53243 6.78017,1.54166 18.06242,6.15824 20.0234,8.19335 1.2203,1.26644 1.17676,1.34853 -0.44269,0.83464 -16.09746,-5.10819 -21.81181,-6.19699 -34.83553,-6.63749 -19.93231,-0.67416 -30.953,1.3625 -47.23871,8.72988 -4.99641,2.26029 -8.61981,3.50058 -8.3739,2.86641 z m 316.18032,-7.46946 c -13.3209,-5.8402 -22.1565,-7.52333 -39.4936,-7.52333 -14.5867,0 -21.4541,0.98222 -34.0707,4.87303 -8.1989,2.52844 -8.6353,1.63371 -1.038,-2.12848 9.0213,-4.4674 16.6417,-6.06842 30.9449,-6.50149 20.1015,-0.60863 31.106,1.48187 44.9498,8.53901 7.8067,3.97963 12.1951,7.16227 9.7233,7.05174 -0.725,-0.0324 -5.6821,-1.97213 -11.0157,-4.31048 z m 75.3822,-5.03703 c -1.1447,-29.43542 -9.7633,-58.795 -24.5785,-83.72797 -6.8797,-11.57799 -13.3096,-20.46757 -25.3462,-35.04134 -16.6187,-20.12196 -23.0365,-28.59556 -28.023,-36.99997 -2.8024,-4.7233 -5.0954,-9.08198 -5.0954,-9.68595 0,-0.60398 -1.8154,-2.82539 -4.0343,-4.93648 -2.2189,-2.11109 -4.9978,-5.15565 -6.1754,-6.76569 -1.1776,-1.61005 -2.5814,-2.92737 -3.1195,-2.92737 -0.5382,0 -6.0983,0.87084 -12.3558,1.93519 -11.565,1.9671 -35.4745,4.38033 -59.23,5.97819 -11.4794,0.77213 -29.70464,2.20364 -46.44517,3.64804 -21.98412,1.89683 -57.34853,7.24534 -59.40695,8.98469 -0.98738,0.83434 1.86975,5.24607 6.09259,9.40766 14.4622,14.25241 40.8355,25.69829 76.05819,33.00887 20.59454,4.27444 51.67344,5.70638 68.73914,3.1671 4.6445,-0.69109 9.6474,-1.37018 11.1175,-1.50912 7.7678,-0.73414 32.6847,-6.89763 40.6091,-10.04516 2.2955,-0.91178 4.4351,-1.43686 4.7546,-1.16685 1.3847,1.17001 -18.9801,7.98276 -40.9218,13.68978 -2.0813,0.54135 -0.3283,1.50089 8.8981,4.87056 9.4156,3.43876 19.5146,8.92639 28.0866,15.26185 22.4175,16.56853 42.3146,45.45391 56.2405,81.64632 1.9295,5.01478 4.0965,10.22897 4.8156,11.5871 1.7841,3.36979 5.7394,17.38808 6.5011,23.04086 0.3423,2.53997 0.8924,5.33169 1.2226,6.20382 1.1225,2.96524 2.1339,-15.80369 1.5964,-29.62413 z M 740.17352,417.6047 c 6.56264,-16.42038 16.02377,-33.9844 23.97825,-44.51414 9.21217,-12.19464 12.01079,-15.57413 18.38397,-22.19981 7.38879,-7.68152 26.66172,-24.05485 35.12649,-29.84174 23.56414,-16.10945 55.59253,-28.39337 86.4383,-33.1519 11.94706,-1.84305 11.67003,-1.55239 5.73793,-6.02006 -5.3902,-4.05954 -13.45197,-12.51653 -14.81953,-15.54605 -1.20142,-2.66145 -2.02028,-2.72714 -9.42728,-0.75626 -24.55569,6.53384 -52.84516,19.56183 -73.08999,33.65971 -39.655,27.61454 -64.37474,66.96137 -76.00936,120.98542 -2.94074,13.65499 -2.77405,13.53657 3.68122,-2.61517 z M 712.8995,322.54268 c 0.97162,-1.63324 2.0398,-4.2439 2.37373,-5.80147 0.58264,-2.7175 8.44818,-14.91758 16.06484,-24.91781 12.71273,-16.69106 34.66535,-36.58914 53.25354,-48.26956 39.70427,-24.94931 85.22801,-40.15445 135.81308,-45.36225 26.73997,-2.75293 59.64149,-2.25748 85.26471,1.28395 11.5305,1.59367 41.2679,7.36408 45.0439,8.74057 1.2278,0.4476 2.4455,0.63367 2.7061,0.41351 0.2605,-0.22016 -0.4251,-2.46341 -1.5237,-4.98501 -1.0985,-2.52158 -2.334,-6.01183 -2.7455,-7.75609 -0.918,-3.89098 -2.0226,-4.39308 -16.8291,-7.65 -13.6094,-2.99359 -31.5465,-3.80759 -50.92775,-2.31114 -11.32512,0.87441 -13.2632,0.83556 -18.2966,-0.36668 -8.48264,-2.02608 -40.1272,-2.50258 -57.23554,-0.86184 -35.69208,3.423 -66.90885,13.18457 -99.88524,31.23438 -5.91138,3.23563 -12.66705,7.18295 -15.01259,8.77182 -33.51801,22.70503 -56.20399,45.41693 -69.775,69.85477 -7.81939,14.08064 -17.90108,40.48644 -18.93616,49.59724 -0.49968,4.39834 -0.18967,3.88195 4.17044,-6.94666 2.59065,-6.43402 5.50522,-13.03449 6.47684,-14.66773 z m 603.6143,16.12046 c 9.1574,-1.49984 12.2119,-2.69263 17.2162,-6.72274 4.2822,-3.44854 9.1696,-11.07495 11.9904,-18.71005 2.2439,-6.07344 3.8561,-26.49271 3.1818,-40.3004 -1.4664,-30.02757 -14.5863,-52.28517 -37.5129,-63.63931 -16.6925,-8.26679 -39.5459,-12.74681 -67.2756,-13.18824 -42.053,-0.66945 -83.9166,4.2429 -144.0271,16.9004 -20.32,4.2788 -19.3994,3.88082 -21.4307,9.2643 -1.6966,4.49625 -1.6933,4.58945 0.325,9.13912 1.1215,2.5281 2.8456,5.0222 3.8315,5.54245 0.9859,0.52026 1.8059,1.48446 1.8224,2.1427 0.044,1.74842 2.5026,4.2128 3.6209,3.62879 0.5284,-0.27597 1.6746,0.66946 2.5472,2.10093 2.7174,4.45812 5.8611,7.46317 15.1986,14.5284 16.1566,12.22491 53.7251,35.10244 64.9258,39.53684 1.8063,0.71509 6.2397,2.89106 9.852,4.8355 8.5319,4.59244 35.6319,15.97192 48.7909,20.48765 24.6661,8.46453 45.8348,13.18825 65.7399,14.66957 13.6159,1.01329 13.7044,1.01239 21.2037,-0.21591 z M 1079.5989,212.46466 c 1.4632,-0.29385 7.7271,-1.75496 13.9197,-3.24691 19.5388,-4.7073 35.1376,-7.96274 52.0779,-10.86861 26.3983,-4.52827 65.3058,-8.40701 84.3303,-8.40701 h 7.0186 l 4.1526,-3.76603 c 16.6389,-15.09048 21.7068,-27.82192 17.1212,-43.01213 -4.5955,-15.22337 -16.9856,-27.43891 -38.7007,-38.15539 -6.7053,-3.30908 -24.7406,-10.173139 -26.7887,-10.195523 -0.6521,-0.0068 -1.9188,-0.359593 -2.8149,-0.783274 -5.3174,-2.514082 -32.6693,-7.578456 -47.5701,-8.807914 -11.3939,-0.940114 -55.9955,-0.655366 -58.6782,0.374607 -2.245,0.861913 -6.968,7.321751 -12.2362,16.735714 -14.437,25.79806 -19.6492,44.11035 -19.66,69.07233 -0.01,14.27564 1.4353,23.08771 5.4174,33.11854 2.4512,6.17446 2.7387,6.51515 7.244,8.5853 2.5802,1.18564 5.4303,1.96435 6.3334,1.73049 1.1207,-0.29023 1.642,0.006 1.642,0.93327 0,1.08745 0.452,0.94632 2.2658,-0.70736 1.2461,-1.1362 3.4628,-2.30626 4.9259,-2.6001 z"
     id="path4372"
     inkscape:connector-curvature="0" />
</svg>
