<?xml version="1.0" encoding="UTF-8" standalone="no"?>
<!-- Created with Inkscape (http://www.inkscape.org/) -->

<svg
   xmlns:dc="http://purl.org/dc/elements/1.1/"
   xmlns:cc="http://creativecommons.org/ns#"
   xmlns:rdf="http://www.w3.org/1999/02/22-rdf-syntax-ns#"
   xmlns:svg="http://www.w3.org/2000/svg"
   xmlns="http://www.w3.org/2000/svg"
   xmlns:sodipodi="http://sodipodi.sourceforge.net/DTD/sodipodi-0.dtd"
   xmlns:inkscape="http://www.inkscape.org/namespaces/inkscape"
   width="210mm"
   height="297mm"
   viewBox="0 0 210 297"
   version="1.1"
   id="svg8"
   inkscape:version="0.92.4 (unknown)"
   sodipodi:docname="gril66.svg">
  <defs
     id="defs2" />
  <sodipodi:namedview
     id="base"
     pagecolor="#ffffff"
     bordercolor="#666666"
     borderopacity="1.0"
     inkscape:pageopacity="0.0"
     inkscape:pageshadow="2"
     inkscape:zoom="1"
     inkscape:cx="489.62465"
     inkscape:cy="803.9058"
     inkscape:document-units="mm"
     inkscape:current-layer="layer1"
     showgrid="false"
     inkscape:window-width="1855"
     inkscape:window-height="1056"
     inkscape:window-x="65"
     inkscape:window-y="24"
     inkscape:window-maximized="1" />
  <metadata
     id="metadata5">
    <rdf:RDF>
      <cc:Work
         rdf:about="">
        <dc:format>image/svg+xml</dc:format>
        <dc:type
           rdf:resource="http://purl.org/dc/dcmitype/StillImage" />
        <dc:title></dc:title>
      </cc:Work>
    </rdf:RDF>
  </metadata>
  <g
     inkscape:label="Layer 1"
     inkscape:groupmode="layer"
     id="layer1">
    <path
       style="fill:#000000;stroke-width:1"
       d="m 128.13548,175.69149 c -0.52041,-4.03103 -1.53238,-8.98698 -2.30318,-11.27945 -0.27901,-0.82981 -0.81437,-2.61999 -1.1897,-3.97819 -1.106,-4.00231 -8.3414,-14.238 -11.97539,-16.94122 -1.61858,-1.20401 -7.5444,-4.23852 -12.60761,-6.45615 -3.890747,-1.70409 -7.509217,-2.53179 -11.068267,-2.53179 -2.4982,0 -3.18633,-0.11098 -3.35114,-0.54046 -0.13862,-0.36123 0.0905,-0.65371 0.69078,-0.88195 1.12055,-0.42603 6.18313,-0.44847 7.27384,-0.0322 0.44569,0.17008 1.60409,0.49712 2.57423,0.72676 1.7198,0.40708 4.357827,1.50137 10.353357,4.29469 1.61976,0.75465 3.01599,1.37209 3.10274,1.37209 0.0867,0 1.32013,0.78439 2.74086,1.74308 2.89348,1.95251 5.36684,4.5637 8.03945,8.48747 0.99119,1.45521 2.39135,3.43958 3.11148,4.40972 0.72013,0.97014 1.5647,2.47827 1.87684,3.35139 1.01235,2.83184 2.9521,9.99049 3.39347,12.52361 0.23664,1.3582 0.57467,3.13506 0.75117,3.94858 0.1765,0.81353 0.32091,2.36134 0.32091,3.43959 0,1.65094 -0.10001,1.96045 -0.6335,1.96045 -0.53793,0 -0.70394,-0.54558 -1.10034,-3.61598 z m -53.810667,0.7349 c -0.0873,-0.25867 -0.24485,-2.61344 -0.35006,-5.23281 -0.28293,-7.04401 -1.16384,-19.51358 -1.81312,-25.66547 -0.16196,-1.53453 -0.10043,-2.36523 0.20218,-2.72985 0.35527,-0.42808 0.31457,-0.56596 -0.22212,-0.75249 -1.54089,-0.53553 -9.021223,-3.88178 -11.945342,-5.34361 -3.05599,-1.52777 -3.288351,-1.58587 -6.231488,-1.5581 -1.757631,0.0166 -3.932259,0.28491 -5.11592,0.63124 -1.132336,0.33132 -2.37629,0.64666 -2.764346,0.70075 -7.828407,1.09121 -16.237127,5.32637 -21.982562,11.07181 -2.257256,2.25725 -2.563856,2.41307 -3.211832,1.63231 -0.328038,-0.39526 -0.02345,-0.91143 1.524372,-2.58326 4.284519,-4.62779 12.181361,-9.17304 18.754208,-10.79452 1.927589,-0.47552 4.615953,-1.13881 5.974147,-1.47398 3.406194,-0.84055 6.620589,-1.16651 9.436807,-0.95693 l 2.38125,0.1772 v -1.94864 c 0,-2.15385 -0.08944,-2.23474 -3.405964,-3.08062 -2.881182,-0.73485 -9.092784,-3.74471 -12.469778,-6.04228 -3.082382,-2.09714 -6.834985,-6.19628 -7.559118,-8.25718 -0.340875,-0.97014 -0.915815,-2.47826 -1.277641,-3.35139 -0.934421,-2.25483 -1.53899,-7.56232 -1.255942,-11.02581 0.130746,-1.5999 0.335939,-4.32924 0.455976,-6.0652 0.239208,-3.45932 1.075781,-5.48677 2.263979,-5.48677 0.802228,0 0.83813,0.40589 0.166914,1.88696 -0.97378,2.1487 -1.462688,12.15544 -0.795461,16.2811 1.043986,6.45526 3.729126,10.85513 8.712571,14.27641 2.487559,1.70778 8.626359,4.65296 11.813075,5.66749 1.358194,0.43239 2.850314,0.96378 3.315818,1.18086 1.273496,0.59387 24.772977,0.51974 28.434187,-0.0897 1.55222,-0.25837 2.97303,-0.61228 3.15736,-0.78645 0.18433,-0.17417 0.55669,-0.31667 0.82749,-0.31667 1.1622,0 2.47259,-1.29577 7.02381,-6.94545 5.144937,-6.38669 6.939717,-11.71894 6.924057,-20.57122 -0.009,-5.22959 -0.29545,-7.62989 -1.21244,-10.16834 -0.67927,-1.88038 -0.64106,-2.54134 0.14568,-2.52058 0.90547,0.0239 1.88434,2.20554 2.60676,5.80975 0.48339,2.41169 0.34129,14.2686 -0.19236,16.05139 -1.53694,5.13448 -3.73635,9.09215 -8.114807,14.60197 -3.76462,4.73738 -6.08172,6.2754 -10.15311,6.73932 -3.44032,0.39201 -3.3055,0.27042 -3.3055,2.98096 0,1.69667 -0.15423,2.53047 -0.52499,2.83818 -0.68258,0.56648 -0.83746,0.14253 -0.96532,-2.64237 l -0.0972,-2.11667 -11.37732,-0.17639 -11.377338,-0.17639 2.47e-4,1.82323 c 1.34e-4,1.00278 -0.0894,2.05686 -0.198977,2.34239 -0.208873,0.54432 1.684761,1.71138 5.496871,3.38778 1.063867,0.46784 3.237617,1.45258 4.830557,2.1883 l 2.89626,1.3377 3.10096,-1.60009 c 3.31532,-1.71069 9.20575,-4.36403 9.68819,-4.36403 0.16057,0 0.29194,0.3056 0.29194,0.6791 0,0.52081 -1.03504,1.17865 -4.44047,2.82222 -2.44225,1.17872 -4.54569,2.14306 -4.6743,2.14298 -0.12861,-8e-5 -0.18758,7.65961 -0.13105,17.02153 0.0565,9.36192 0.0138,17.37886 -0.0949,17.81542 -0.22775,0.91435 -1.06594,1.0574 -1.38125,0.23573 -0.11777,-0.30691 -0.21413,-8.07187 -0.21413,-17.25546 V 141.9743 l -1.09184,0.41032 -1.09185,0.41033 0.22852,2.64584 c 1.54128,17.84537 1.95486,30.98872 0.98522,31.3099 -0.24243,0.0803 -0.51224,-0.0657 -0.59956,-0.32431 z m -64.266835,-2.92534 c -0.3499207,-0.91188 0.173829,-3.90804 1.067497,-6.1067 0.451937,-1.11188 1.179269,-2.97411 1.616296,-4.13827 1.156272,-3.08013 4.522642,-9.98971 5.714822,-11.72987 0.737827,-1.07696 1.27084,-1.4993 1.892172,-1.4993 1.117913,0 1.140721,0.91629 0.04428,1.77876 -1.569232,1.23436 -8.351502,16.31317 -8.351502,18.56764 0,0.37353 -0.146534,0.82997 -0.325632,1.01429 -0.179098,0.18433 -0.377536,0.79915 -0.440972,1.36627 -0.129737,1.15984 -0.88149,1.62139 -1.216957,0.74718 z m 57.029725,-8.11285 c -0.23621,-0.28462 -0.30194,-0.715 -0.1474,-0.96506 0.15342,-0.24824 0.23362,-0.97751 0.17821,-1.62061 -0.13045,-1.51419 0.46337,-2.19229 1.91983,-2.19229 2.1135,0 2.99787,2.50713 1.53871,4.36215 -0.8312,1.0567 -2.7661,1.28727 -3.48935,0.41581 z m 2.31551,-2.52018 c -0.12555,-0.32718 -0.30765,-0.5155 -0.40467,-0.41849 -0.097,0.097 -0.0737,0.44409 0.0519,0.77127 0.12555,0.32718 0.30765,0.5155 0.40467,0.41849 0.097,-0.097 0.0737,-0.44409 -0.0519,-0.77127 z m -1.77905,-11.40777 c -0.78353,-0.86578 -0.42046,-1.48032 0.80014,-1.35434 0.8376,0.0864 0.95643,-0.0365 1.05752,-1.094 0.14824,-1.55071 -0.406,-2.13111 -1.27986,-1.34028 -0.91771,0.83052 -1.47986,0.73556 -1.47986,-0.24998 0,-0.87591 1.28111,-1.98085 2.29668,-1.98085 0.30668,0 0.94727,0.38966 1.42352,0.86591 0.65759,0.65759 0.86591,1.24023 0.86591,2.42187 0,2.77783 -2.17965,4.39401 -3.68405,2.73167 z M 30.298835,130.44611 c -2.440503,-1.66961 -3.387859,-4.98508 -2.221834,-7.77577 0.550877,-1.31843 1.256701,-1.77975 2.180615,-1.42521 0.511031,0.1961 0.517691,0.29141 0.0581,0.83149 -1.125202,1.32229 -1.473422,2.84353 -0.987749,4.31513 0.744703,2.25648 2.043236,3.22606 4.464156,3.33329 1.756466,0.0778 2.061919,0.19035 2.061919,0.75979 0,0.57088 -0.309012,0.68286 -2.116667,0.76704 -1.78877,0.0833 -2.32144,-0.0415 -3.43854,-0.80576 z m 79.109375,-2.99698 c 0,-0.51741 0.23519,-0.70556 0.88195,-0.70556 2.42836,0 3.06994,-3.22295 1.22171,-6.13729 -0.67919,-1.07098 -1.25082,-1.62045 -1.5617,-1.50115 -0.65099,0.24981 -1.31653,-0.59067 -1.03947,-1.31267 0.40262,-1.04922 1.75564,-0.64236 3.24802,0.97668 2.12998,2.31075 2.7331,5.1324 1.60512,7.50945 -0.61916,1.30477 -1.63028,1.8761 -3.32026,1.8761 -0.80018,0 -1.03537,-0.16027 -1.03537,-0.70556 z m -98.673872,-1.23562 c -2.8360187,-1.43393 -4.7801377,-4.05652 -6.3332567,-8.54345 -0.893632,-2.5817 -0.893748,-13.61519 -1.74e-4,-16.43963 0.6464,-2.04316 3.179244,-8.30829 4.446785,-10.99936 2.7830877,-5.90869 7.9453867,-16.102293 8.3062937,-16.401819 0.481686,-0.399764 1.590332,-0.124277 1.590332,0.395182 0,0.177126 -0.368989,0.914202 -0.819976,1.63795 -1.036307,1.66308 -6.14675,12.045517 -7.767131,15.779797 -3.7025697,8.53283 -3.7943867,8.78247 -4.5413097,12.34723 -0.684776,3.26814 -0.296226,10.69183 0.729583,13.93956 0.754461,2.38863 2.651127,5.07645 4.4152407,6.25697 1.398241,0.93567 2.058995,1.14652 3.592919,1.14652 3.08903,0 3.074628,1.20101 -0.01905,1.58858 -1.477374,0.18508 -2.062177,0.0701 -3.600256,-0.70753 z m 108.397222,-1.08588 c -0.83814,-0.83813 -0.41769,-1.1115 1.73929,-1.13089 6.3623,-0.0572 10.80188,-6.92477 10.31119,-15.95039 -0.55668,-10.23939 -3.1405,-18.03673 -9.67304,-29.1909 -0.81159,-1.385762 -0.83046,-1.515792 -0.25221,-1.737689 0.82113,-0.315098 1.86597,1.03524 4.41681,5.708279 3.46559,6.34879 5.90766,13.34639 6.76043,19.37158 0.53467,3.77769 0.5254,10.49154 -0.0178,12.87848 -1.01881,4.47702 -3.67911,8.02958 -7.30943,9.761 -2.11168,1.00712 -5.11276,1.15304 -5.97527,0.29053 z m -56.162442,-8.791 c -0.377374,-0.98342 0.15604,-1.48212 1.830832,-1.71168 4.333813,-0.59401 9.155923,0.21167 8.896783,1.48649 -0.0789,0.38818 -0.40347,0.54091 -0.98842,0.46512 -2.99763,-0.3884 -7.509615,-0.44514 -7.855958,-0.0988 -0.558818,0.55882 -1.645906,0.47735 -1.883237,-0.14113 z M 47.028034,99.82153 c -0.656085,-0.69837 -0.767048,-1.22631 -0.767048,-3.64949 0,-2.38498 0.11158,-2.93398 0.705556,-3.47153 0.388055,-0.35118 0.705555,-0.90374 0.705555,-1.2279 0,-0.64082 1.402038,-2.12348 2.008015,-2.12348 0.777004,0 2.204586,2.71585 2.220006,4.22338 0.01228,1.20067 -1.539593,5.27673 -2.336013,6.13563 -1.059071,1.14216 -1.549009,1.16407 -2.536071,0.11339 z m 40.017849,-1.84069 c -1.71684,-1.71683 -0.70203,-8.10366 1.44287,-9.08095 0.6956,-0.31693 0.96566,-0.25858 1.56168,0.33744 0.56408,0.56408 0.76332,1.34327 0.91707,3.58639 0.18361,2.67875 0.13528,2.95814 -0.7406,4.28169 -1.01736,1.53732 -2.19503,1.86142 -3.18102,0.87543 z M 35.772002,82.5153 c -5.25738,-1.67763 -5.274546,-9.925844 -0.04345,-20.876674 0.742005,-1.553316 4.003534,-5.566823 5.034905,-6.195748 0.598294,-0.364836 1.683117,-0.663935 2.410721,-0.664658 1.088172,-0.0011 1.322917,0.123878 1.322917,0.704236 0,0.388055 -0.119063,0.718785 -0.264583,0.734952 -0.145521,0.01616 -0.607547,0.06797 -1.026725,0.115105 -1.27925,0.143859 -2.418969,1.114774 -4.140451,3.527213 -3.968468,5.561309 -6.533706,15.085619 -5.023876,18.652812 0.755833,1.785762 1.772383,2.470302 3.934714,2.649612 1.557821,0.12919 1.93481,0.28249 1.93481,0.7868 0,0.48809 -0.349067,0.65411 -1.581345,0.75212 -0.869738,0.0692 -2.020675,-0.0144 -2.557639,-0.18577 z m 27.951485,-3.30245 c -1.393518,-0.34892 -2.61923,-1.556958 -3.594192,-3.542378 -0.94923,-1.933024 -0.997049,-2.2776 -1.111091,-8.006218 -0.135887,-6.825848 0.295144,-9.25527 1.811824,-10.211965 0.444775,-0.280557 0.738481,-0.21803 1.211146,0.257839 0.597052,0.601101 0.585947,0.657045 -0.257372,1.296338 -0.863223,0.654382 -0.883973,0.781936 -1.008864,6.201453 -0.149877,6.503896 0.260664,9.037564 1.758922,10.855209 1.395081,1.692476 2.631366,1.897772 5.445563,0.904279 1.82667,-0.644871 2.36495,-0.716467 2.71536,-0.36116 0.5674,0.575335 -0.24176,1.1953 -2.81829,2.159303 -1.860515,0.69611 -2.768632,0.79391 -4.153006,0.4473 z m 30.632486,-2.195687 c -2.34341,-0.206407 -2.77961,-0.414676 -2.48368,-1.185852 0.1412,-0.367962 0.6468,-0.451584 1.96473,-0.324947 0.97603,0.09379 2.16784,0.07182 2.64848,-0.04881 2.19161,-0.550058 4.506397,-3.819677 4.607357,-6.507858 0.0979,-2.606545 -1.537337,-5.923506 -3.997057,-8.107691 -1.72154,-1.528703 -5.67619,-3.421275 -8.1449,-3.897906 -0.76377,-0.147457 -1.27566,-0.469914 -1.34879,-0.849644 -0.0991,-0.514547 0.16142,-0.611995 1.63604,-0.611995 2.39009,0 7.39563,2.493345 9.71094,4.837187 3.658837,3.703927 4.816537,8.630716 2.907297,12.372457 -1.71048,3.352179 -3.941267,4.638555 -7.500417,4.325063 z m 23.871687,-6.744032 c 0,-2.857123 -1.8442,-8.283579 -4.84228,-14.248202 -2.31743,-4.610477 -5.16845,-8.152525 -8.03411,-9.981396 -0.77611,-0.495314 -2.52236,-1.880528 -3.88056,-3.078251 -3.387967,-2.987679 -3.988157,-3.353947 -5.123757,-3.126825 -1.22981,0.24596 -1.66189,-0.418133 -0.85334,-1.311564 1.30437,-1.441318 2.58087,-0.875885 7.211817,3.194526 1.45521,1.279067 3.31618,2.774009 4.13549,3.322091 3.31167,2.215381 6.12456,6.013669 8.92139,12.046688 0.98428,2.123172 2.02101,4.309742 2.30386,4.859042 0.28285,0.549299 0.51426,1.226143 0.51426,1.504093 0,0.27795 0.13927,0.781021 0.30947,1.117938 1.46746,2.904702 1.46696,7.844519 -7.9e-4,7.844519 -0.57415,0 -0.66145,-0.282801 -0.66145,-2.142659 z M 16.280087,69.858151 c 0.01143,-0.966816 1.127105,-5.200061 2.16166,-8.202084 2.40645,-6.982919 5.779217,-11.443907 11.59146,-15.331441 3.457283,-2.312409 9.554461,-5.73018 14.640279,-8.206599 1.940278,-0.944773 3.786047,-1.858414 4.101709,-2.030315 1.059501,-0.576974 3.036002,-0.798688 3.300783,-0.370265 0.320936,0.519283 -0.797906,1.773341 -1.582135,1.773341 -0.328175,0 -1.057631,0.222249 -1.621017,0.493886 -0.563386,0.271638 -1.97684,0.934518 -3.141007,1.473072 -2.760239,1.276904 -11.666979,6.291408 -14.816667,8.341798 -4.988783,3.247606 -8.371742,7.652502 -10.523331,13.702261 -1.697332,4.772491 -2.000281,5.762844 -2.000281,6.539008 0,0.379613 -0.247127,1.043033 -0.549171,1.474258 -0.592692,0.846187 -1.57077,1.060976 -1.562282,0.34308 z M 59.675623,36.098835 c -0.820953,-0.630823 -0.837907,-0.709334 -0.285083,-1.320197 0.323278,-0.357218 1.351065,-0.873998 2.283975,-1.148398 1.919989,-0.564736 5.651898,-3.608588 11.428448,-9.32138 3.84407,-3.801652 5.36742,-5.787212 6.15703,-8.025219 0.68979,-1.955059 0.64932,-2.899109 -0.19521,-4.554527 -0.83511,-1.636963 -1.69516,-2.262462 -3.92786,-2.85669 -4.04038,-1.075337 -13.273256,2.216065 -17.618921,6.280925 -1.748864,1.635858 -2.437571,1.890866 -2.437571,0.90256 0,-1.716189 6.110782,-6.098624 10.392174,-7.452897 2.832058,-0.895824 6.852178,-1.805961 7.971968,-1.804815 0.4959,4.94e-4 1.88238,0.332124 3.08107,0.736926 2.56394,0.865856 3.67298,2.011341 4.50483,4.652882 0.5382,1.709034 0.53834,1.987627 0.002,3.831095 -0.31818,1.093419 -1.08847,2.758952 -1.71176,3.701183 -1.36319,2.060976 -7.1886,8.155351 -9.90471,10.362171 -1.07462,0.873125 -1.96157,1.693787 -1.97099,1.823692 -0.009,0.129905 2.48319,0.20928 5.53912,0.176389 3.15856,-0.034 6.62189,0.129435 8.0257,0.378724 1.35819,0.24119 3.35369,0.596101 4.43445,0.788691 3.37972,0.602267 8.61833,2.34997 8.61833,2.875245 0,0.687252 -1.90065,0.573201 -5.29167,-0.317532 -1.55222,-0.407729 -3.69535,-0.897939 -4.7625,-1.089355 -1.06715,-0.191416 -2.90234,-0.51904 -4.07818,-0.728052 -2.81758,-0.500839 -11.33962,-0.486948 -13.46746,0.02195 -2.044992,0.489089 -3.826333,1.327548 -4.579789,2.155663 -0.710022,0.780375 -1.118355,0.767604 -2.207161,-0.06904 z m 4.929809,-6.131276 c 0,-0.257219 0.395284,-0.839022 0.878409,-1.292894 1.397962,-1.313313 3.721202,-5.104793 3.934892,-6.421672 0.44973,-2.771289 -3.58464,-5.097207 -8.252885,-4.75801 -2.337368,0.169834 -2.557639,0.128487 -2.557639,-0.4801 0,-2.324983 7.19726,-1.577843 10.608324,1.101241 0.75412,0.592291 1.44766,1.558868 1.72799,2.408267 0.42047,1.274029 0.39401,1.597574 -0.25919,3.169351 -0.83295,2.004296 -3.21838,5.368526 -4.38695,6.187022 -0.96691,0.677254 -1.692951,0.714477 -1.692951,0.0868 z"
       id="path21"
       inkscape:connector-curvature="0" />
  </g>
</svg>
