<?xml version="1.0" encoding="UTF-8" standalone="no"?>
<!-- Created with Inkscape (http://www.inkscape.org/) -->

<svg
   xmlns:dc="http://purl.org/dc/elements/1.1/"
   xmlns:cc="http://creativecommons.org/ns#"
   xmlns:rdf="http://www.w3.org/1999/02/22-rdf-syntax-ns#"
   xmlns:svg="http://www.w3.org/2000/svg"
   xmlns="http://www.w3.org/2000/svg"
   xmlns:sodipodi="http://sodipodi.sourceforge.net/DTD/sodipodi-0.dtd"
   xmlns:inkscape="http://www.inkscape.org/namespaces/inkscape"
   width="800"
   height="600"
   viewBox="0 0 211.66665 158.75"
   version="1.1"
   id="svg8"
   inkscape:version="0.92.4 (unknown)"
   sodipodi:docname="heimazs.svg">
  <defs
     id="defs2" />
  <sodipodi:namedview
     id="base"
     pagecolor="#ffffff"
     bordercolor="#666666"
     borderopacity="1.0"
     inkscape:pageopacity="0.0"
     inkscape:pageshadow="2"
     inkscape:zoom="1"
     inkscape:cx="258.38974"
     inkscape:cy="380.12307"
     inkscape:document-units="px"
     inkscape:current-layer="layer1"
     showgrid="false"
     units="px"
     inkscape:window-width="1855"
     inkscape:window-height="1056"
     inkscape:window-x="65"
     inkscape:window-y="24"
     inkscape:window-maximized="1"
     inkscape:snap-text-baseline="true" />
  <metadata
     id="metadata5">
    <rdf:RDF>
      <cc:Work
         rdf:about="">
        <dc:format>image/svg+xml</dc:format>
        <dc:type
           rdf:resource="http://purl.org/dc/dcmitype/StillImage" />
        <dc:title></dc:title>
      </cc:Work>
    </rdf:RDF>
  </metadata>
  <g
     inkscape:label="Layer 1"
     inkscape:groupmode="layer"
     id="layer1"
     transform="translate(0,-138.24999)">
    <flowRoot
       xml:space="preserve"
       id="flowRoot4106"
       style="fill:black;stroke:none;stroke-opacity:1;stroke-width:1px;stroke-linejoin:miter;stroke-linecap:butt;fill-opacity:1;font-family:sans-serif;font-style:normal;font-weight:normal;font-size:40px;line-height:125%;letter-spacing:0px;word-spacing:0px;-inkscape-font-specification:sans-serif;font-stretch:normal;font-variant:normal;"><flowRegion
         id="flowRegion4108"
         style="-inkscape-font-specification:sans-serif;font-family:sans-serif;font-weight:normal;font-style:normal;font-stretch:normal;font-variant:normal;"><rect
           id="rect4110"
           width="861"
           height="240"
           x="25"
           y="33"
           style="-inkscape-font-specification:sans-serif;font-family:sans-serif;font-weight:normal;font-style:normal;font-stretch:normal;font-variant:normal;" /></flowRegion><flowPara
         id="flowPara4112"></flowPara></flowRoot>    <flowRoot
       xml:space="preserve"
       id="flowRoot4114"
       style="fill:black;stroke:none;stroke-opacity:1;stroke-width:1px;stroke-linejoin:miter;stroke-linecap:butt;fill-opacity:1;font-family:sans-serif;font-style:normal;font-weight:normal;font-size:192px;line-height:125%;letter-spacing:0px;word-spacing:0px;-inkscape-font-specification:sans-serif;font-stretch:normal;font-variant:normal;"><flowRegion
         id="flowRegion4116"
         style="font-size:192px;-inkscape-font-specification:sans-serif;font-family:sans-serif;font-weight:normal;font-style:normal;font-stretch:normal;font-variant:normal;"><rect
           id="rect4118"
           width="767"
           height="266"
           x="21"
           y="24"
           style="font-size:192px;-inkscape-font-specification:sans-serif;font-family:sans-serif;font-weight:normal;font-style:normal;font-stretch:normal;font-variant:normal;" /></flowRegion><flowPara
         id="flowPara4120"></flowPara></flowRoot>    <flowRoot
       xml:space="preserve"
       id="flowRoot4122"
       style="fill:black;stroke:none;stroke-opacity:1;stroke-width:1px;stroke-linejoin:miter;stroke-linecap:butt;fill-opacity:1;font-family:sans-serif;font-style:normal;font-weight:normal;font-size:40px;line-height:125%;letter-spacing:0px;word-spacing:0px;-inkscape-font-specification:sans-serif;font-stretch:normal;font-variant:normal;"><flowRegion
         id="flowRegion4124"
         style="-inkscape-font-specification:sans-serif;font-family:sans-serif;font-weight:normal;font-style:normal;font-stretch:normal;font-variant:normal;"><rect
           id="rect4126"
           width="666"
           height="346"
           x="39"
           y="36"
           style="-inkscape-font-specification:sans-serif;font-family:sans-serif;font-weight:normal;font-style:normal;font-stretch:normal;font-variant:normal;" /></flowRegion><flowPara
         id="flowPara4128"></flowPara></flowRoot>    <g
       aria-label="黑马程序员"
       transform="matrix(0.26458332,0,0,0.26458332,-5.2916665,144.07082)"
       style="font-style:normal;font-weight:normal;font-size:40px;line-height:125%;font-family:Sans;letter-spacing:0px;word-spacing:0px;fill:#000000;fill-opacity:1;stroke:none;stroke-width:1px;stroke-linecap:butt;stroke-linejoin:miter;stroke-opacity:1"
       id="flowRoot4138">
      <path
         d="M 35.791666,-16.14721 H 129.02083 V 31.248622 H 87.354164 V 41.665288 H 130.0625 v 9.375 H 87.354164 v 10.937499 h 52.604166 v 9.375 H 25.375 v -9.375 H 77.458331 V 51.040288 H 34.749999 v -9.375 H 77.458331 V 31.248622 H 35.791666 Z M 46.208332,22.394455 H 77.458331 V -7.2930434 H 46.208332 Z M 62.874998,-2.6055436 q 4.6875,7.8124997 7.291667,17.1874996 l -9.375,3.125 Q 58.187498,7.8111227 52.979165,0.5194563 Z M 87.354164,-7.2930434 V 22.394455 H 118.60416 V -7.2930434 Z m 15.104166,4.1666665 9.375,3.6458332 q -4.16667,10.4166667 -9.375,17.7083327 l -8.854166,-4.6875 Q 99.33333,5.2069561 102.45833,-3.1263769 Z m -64.583331,76.0416639 9.375,5.729166 q -7.8125,13.541666 -16.145833,21.874997 L 22.25,92.706953 q 9.895833,-9.375 15.624999,-19.791666 z m 88.541661,0 q 7.8125,8.333333 15.625,18.749999 l -8.33333,8.854164 Q 126.9375,89.581953 117.5625,79.165287 Z m -58.854162,1.041666 q 5.208333,9.375 8.854166,20.833333 l -10.937499,4.6875 q -3.125,-11.979166 -7.8125,-20.833333 z m 30.729166,0 q 6.249996,9.375 10.416666,20.3125 l -10.416666,4.6875 Q 94.124997,87.49862 88.395831,78.644453 Z"
         style="font-size:133.33332825px"
         id="path4224"
         inkscape:connector-curvature="0" />
      <path
         d="m 171.72916,-16.668043 h 82.29166 l -5.72916,54.166665 h 22.91666 q -2.08333,43.229165 -6.77083,52.083331 -4.6875,9.375 -16.14583,9.375 -5.72917,0 -14.0625,-0.520834 L 232.14583,87.49862 q 10.41666,0.520833 16.14583,0.520833 4.6875,0 6.77083,-6.25 2.60417,-6.770833 3.64583,-34.374998 h -76.56249 l 4.16666,-46.8749987 10.9375,1.0416666 -3.125,35.9374991 h 43.75 l 4.16667,-44.2708321 h -70.3125 z m -8.33333,81.249997 h 80.20833 v 9.895833 h -80.20833 z"
         style="font-size:133.33332825px"
         id="path4226"
         inkscape:connector-curvature="0" />
      <path
         d="m 331.62499,-18.751376 4.6875,8.854166 q -7.8125,2.0833333 -16.66667,3.6458332 V 15.623622 h 19.27083 v 9.375 h -19.27083 v 3.645833 q 8.85417,9.375 15.10417,18.229166 l -6.77084,9.375 q -4.16666,-7.8125 -8.33333,-14.0625 v 57.812498 h -9.375 V 50.519454 q -6.25,15.625 -14.0625,25.520833 l -7.8125,-7.8125 q 15.625,-18.229166 20.83334,-43.229165 h -18.22917 v -9.375 h 19.27083 V -4.1680435 q -7.8125,1.5624999 -15.625,2.6041665 l -3.64583,-9.895833 q 21.875,-2.604166 40.625,-7.291666 z m 13.02083,3.125 h 57.8125 v 40.104165 h -57.8125 z m 9.89583,30.729165 h 38.02084 V -6.2513768 h -38.02084 z m -10.41666,45.833332 h 24.47916 v -15.625 h -27.08333 v -9.374999 h 64.58333 v 9.374999 h -27.08333 v 15.625 h 23.4375 v 9.374999 h -23.4375 v 16.145833 h 29.6875 v 9.375 h -70.83333 v -9.375 h 30.72916 V 70.31112 h -24.47916 z"
         style="font-size:133.33332825px"
         id="path4228"
         inkscape:connector-curvature="0" />
      <path
         d="m 487.875,-20.313876 q 3.125,4.6875 5.20833,10.9374993 h 46.35417 v 9.37499969 H 444.64583 V 40.623621 q 0,33.333332 -13.54166,59.374998 l -9.89584,-6.25 q 7.29167,-15.104166 9.89584,-27.083332 3.125,-12.499999 3.125,-29.687499 V -9.3763767 H 481.625 q -1.5625,-4.1666663 -4.16667,-7.8124993 z M 456.10417,9.8944559 h 73.43749 v 9.3750001 q -13.02083,11.458332 -29.6875,19.791665 1.5625,1.041667 2.60417,2.604167 H 537.875 v 8.854166 q -4.16667,11.458333 -9.89584,21.875 l -10.9375,-3.125 q 5.20834,-9.375 8.33334,-18.229166 H 497.25 V 85.93612 q 0,7.812499 -3.125,10.937499 -2.60417,3.125 -10.41667,3.125 -7.8125,0 -14.58333,-1.5625 L 467.04166,87.49862 q 7.29167,2.083333 15.10417,2.083333 4.6875,0 4.6875,-6.25 V 51.040288 H 450.375 v -9.375 h 38.54166 q -7.8125,-5.729166 -17.1875,-11.458333 l 7.29167,-5.208333 q 5.72917,3.645833 11.45833,6.770833 11.97917,-5.208333 22.39584,-11.979166 h -56.77083 z"
         style="font-size:133.33332825px"
         id="path4230"
         inkscape:connector-curvature="0" />
      <path
         d="m 575.89581,-16.668043 h 78.64583 v 32.291665 h -78.64583 z m 10.41667,22.3958324 h 57.8125 V -6.7722101 h -57.8125 z m 75,18.7499996 V 73.956953 H 650.89581 V 34.373622 H 579.54165 V 74.477787 H 569.12498 V 24.477789 Z m -52.60417,16.145832 h 10.41667 v 19.791666 q 0,13.541666 -11.97917,23.958333 -11.97917,10.416666 -42.1875,16.66667 l -7.29166,-9.375004 q 29.16666,-5.729166 39.58333,-14.062499 10.9375,-8.333333 10.9375,-20.833333 0.52083,-0.520833 0.52083,-16.145833 z m 23.95833,28.124999 q 20.3125,10.416667 40.10417,24.479166 l -8.33333,8.333334 q -17.1875,-13.541667 -40.625,-26.5625 z"
         style="font-size:133.33332825px"
         id="path4232"
         inkscape:connector-curvature="0" />
    </g>
    <flowRoot
       xml:space="preserve"
       id="flowRoot4146"
       style="fill:black;stroke:none;stroke-opacity:1;stroke-width:1px;stroke-linejoin:miter;stroke-linecap:butt;fill-opacity:1;font-family:Sans;font-style:normal;font-weight:normal;font-size:40px;line-height:125%;letter-spacing:0px;word-spacing:0px"><flowRegion
         id="flowRegion4148"><rect
           id="rect4150"
           width="519"
           height="158"
           x="200"
           y="317" /></flowRegion><flowPara
         id="flowPara4152"></flowPara></flowRoot>    <flowRoot
       xml:space="preserve"
       id="flowRoot4154"
       style="fill:black;stroke:none;stroke-opacity:1;stroke-width:1px;stroke-linejoin:miter;stroke-linecap:butt;fill-opacity:1;font-family:Sans;font-style:normal;font-weight:normal;font-size:40px;line-height:125%;letter-spacing:0px;word-spacing:0px"><flowRegion
         id="flowRegion4156"><rect
           id="rect4158"
           width="584"
           height="263"
           x="163"
           y="256" /></flowRegion><flowPara
         id="flowPara4160"></flowPara></flowRoot>    <flowRoot
       xml:space="preserve"
       id="flowRoot4162"
       style="fill:black;stroke:none;stroke-opacity:1;stroke-width:1px;stroke-linejoin:miter;stroke-linecap:butt;fill-opacity:1;font-family:Sans;font-style:normal;font-weight:normal;font-size:40px;line-height:125%;letter-spacing:0px;word-spacing:0px"><flowRegion
         id="flowRegion4164"><rect
           id="rect4166"
           width="567"
           height="85"
           x="114"
           y="251" /></flowRegion><flowPara
         id="flowPara4168"></flowPara></flowRoot>    <g
       aria-label="智能机器人"
       transform="matrix(0.34143045,0,0,0.46720439,-57.093796,91.720761)"
       style="font-style:normal;font-weight:normal;font-size:40px;line-height:125%;font-family:Sans;letter-spacing:0px;word-spacing:0px;fill:#000000;fill-opacity:1;stroke:none;stroke-width:0.66245729px;stroke-linecap:butt;stroke-linejoin:miter;stroke-opacity:1"
       id="flowRoot4170">
      <path
         d="m 285.5625,232.76167 v 33.4375 h -6.25 v -3.75 h -40.625 v 3.75 h -6.25 v -33.4375 z m -46.875,12.1875 h 40.625 v -6.5625 h -40.625 z m 0,11.875 h 40.625 v -6.5625 h -40.625 z m -4.0625,-63.75 5.9375,1.25 q -0.9375,2.1875 -2.1875,4.375 h 20 v 5.625 h -12.1875 q 0,3.75 -0.3125,6.875 h 14.0625 v 5.3125 H 245.25 l -0.625,1.875 q 7.8125,3.4375 14.375,8.125 l -4.375,5 q -5.625,-4.6875 -12.1875,-8.4375 -4.375,6.875 -16.5625,11.25 l -2.8125,-5 q 12.8125,-4.375 15.625,-12.8125 H 224 v -5.3125 h 15.9375 q 0.3125,-3.125 0.3125,-6.875 h -5.9375 q -3.125,3.4375 -6.875,6.25 l -3.75,-4.375 q 7.1875,-5 10.9375,-13.125 z m 28.4375,6.25 h 28.125 v 25.9375 h -28.125 z m 6.25,20.625 h 15.625 v -15 h -15.625 z"
         style="font-style:normal;font-variant:normal;font-weight:normal;font-stretch:normal;font-size:80px;font-family:Sans;-inkscape-font-specification:'Sans, Normal';font-variant-ligatures:normal;font-variant-caps:normal;font-variant-numeric:normal;font-feature-settings:normal;text-align:start;writing-mode:lr-tb;text-anchor:start;stroke-width:0.66245729px"
         id="path4213"
         inkscape:connector-curvature="0" />
      <path
         d="m 331.8125,199.32417 q 6.25,7.5 10.3125,15.9375 l -5.3125,3.125 q -0.9375,-2.1875 -2.1875,-4.375 -13.4375,2.1875 -28.75,3.125 l -1.5625,-5.3125 q 9.0625,-5.9375 15.3125,-17.8125 l 6.25,1.875 q -5.9375,10.9375 -10.9375,15 8.125,-0.625 16.5625,-2.1875 -2.1875,-3.125 -4.6875,-6.25 z m 5.3125,21.5625 v 37.5 q 0,3.4375 -2.1875,5.3125 -1.875,1.875 -5.625,1.875 -3.4375,0 -8.125,-0.625 l -1.25,-5.625 q 5.9375,0.625 9.0625,0.625 1.875,0 1.875,-2.8125 v -6.875 h -16.25 v 15.9375 h -6.25 v -45.3125 z m -22.5,12.5 h 16.25 v -6.875 h -16.25 z m 0,11.875 h 16.25 v -6.875 h -16.25 z M 344,196.19917 h 5.9375 v 10.625 q 10.3125,-3.125 19.375,-6.5625 l 3.4375,5 q -10.3125,4.375 -22.8125,7.1875 v 8.4375 q 0,1.25 1.5625,1.875 1.5625,0.625 9.6875,0.625 4.0625,0 5.3125,-1.5625 1.5625,-1.5625 2.1875,-7.1875 l 5.625,2.5 q -1.25,7.8125 -3.75,9.6875 -2.1875,1.875 -9.375,1.875 -11.25,0 -14.375,-1.5625 -2.8125,-1.5625 -2.8125,-5 z m 0,35.625 h 5.9375 v 10.9375 q 10.9375,-2.8125 20.3125,-6.875 l 3.75,5.3125 q -10.9375,4.375 -24.0625,7.1875 v 9.375 q 0,1.25 1.5625,1.5625 1.875,0.625 10.3125,0.625 4.6875,0 5.9375,-1.25 1.25,-1.5625 1.875,-7.8125 l 5.9375,2.5 q -1.25,8.125 -3.75,10 -2.1875,2.1875 -10,2.1875 -11.5625,0 -14.6875,-1.5625 -3.125,-1.5625 -3.125,-5.3125 z"
         style="font-style:normal;font-variant:normal;font-weight:normal;font-stretch:normal;font-size:80px;font-family:Sans;-inkscape-font-specification:'Sans, Normal';font-variant-ligatures:normal;font-variant-caps:normal;font-variant-numeric:normal;font-feature-settings:normal;text-align:start;writing-mode:lr-tb;text-anchor:start;stroke-width:0.66245729px"
         id="path4215"
         inkscape:connector-curvature="0" />
      <path
         d="m 384,208.69917 h 11.5625 v -14.375 h 6.25 v 14.375 H 412.75 v 5.9375 h -10.9375 v 3.125 q 6.875,7.5 11.875,14.6875 l -4.0625,5.9375 q -4.0625,-6.875 -7.8125,-12.1875 v 40 h -6.25 v -35.3125 q -3.75,10.625 -10.3125,18.4375 l -4.375,-4.375 q 10.3125,-12.8125 14.0625,-30.3125 H 384 Z m 59.6875,-10.3125 v 56.5625 q 0,3.125 2.5,3.125 1.5625,0 1.875,-0.9375 0.625,-1.25 0.9375,-7.1875 l 6.5625,1.875 q -0.3125,7.8125 -2.1875,10 -1.875,2.5 -7.8125,2.5 -5.625,0 -6.875,-1.5625 -1.25,-1.25 -1.25,-5.9375 v -52.1875 h -14.375 v 22.1875 q 0,14.0625 -3.4375,23.125 -3.4375,8.75 -11.25,15.9375 L 404,260.57417 q 12.8125,-11.25 12.8125,-36.875 v -25.3125 z"
         style="font-style:normal;font-variant:normal;font-weight:normal;font-stretch:normal;font-size:80px;font-family:Sans;-inkscape-font-specification:'Sans, Normal';font-variant-ligatures:normal;font-variant-caps:normal;font-variant-numeric:normal;font-feature-settings:normal;text-align:start;writing-mode:lr-tb;text-anchor:start;stroke-width:0.66245729px"
         id="path4217"
         inkscape:connector-curvature="0" />
      <path
         d="M 503.0625,196.51167 H 529 v 19.375 h -25.9375 z m 5.9375,13.75 h 13.75 v -8.125 H 509 Z m -40,-13.75 h 25.3125 v 19.375 H 469 Z m 5.625,13.75 h 14.0625 v -8.125 H 474.625 Z m -7.1875,12.1875 h 25.9375 q 1.25,-2.8125 1.5625,-5.9375 l 5.9375,0.625 q 0,2.8125 -0.9375,5.3125 h 14.375 q -0.9375,-1.25 -2.1875,-2.1875 l 4.6875,-3.4375 q 2.8125,2.5 5.3125,5.625 h 10.3125 v 5.625 h -23.75 q 7.5,6.25 26.25,8.125 l -2.1875,5.625 q -22.1875,-2.1875 -31.25,-13.75 h -4.0625 q -2.8125,4.0625 -10.625,8.125 -7.8125,3.75 -20.3125,5.3125 l -4.0625,-5.625 q 18.4375,-2.1875 26.25,-7.8125 h -21.25 z m 28.125,19.6875 v 24.0625 h -6.25 v -2.8125 H 476.5 v 2.8125 h -5.9375 v -24.0625 z m -19.0625,15.625 h 12.8125 v -10 H 476.5 Z m 52.1875,-15.625 v 24.0625 h -6.25 v -2.8125 h -13.75 v 2.8125 h -6.25 v -24.0625 z m -20,15.625 h 13.75 v -10 h -13.75 z"
         style="font-style:normal;font-variant:normal;font-weight:normal;font-stretch:normal;font-size:80px;font-family:Sans;-inkscape-font-specification:'Sans, Normal';font-variant-ligatures:normal;font-variant-caps:normal;font-variant-numeric:normal;font-feature-settings:normal;text-align:start;writing-mode:lr-tb;text-anchor:start;stroke-width:0.66245729px"
         id="path4219"
         inkscape:connector-curvature="0" />
      <path
         d="m 575.25,195.88667 h 6.5625 v 17.1875 q 0,7.8125 7.1875,22.1875 7.1875,14.375 26.5625,24.375 l -3.4375,6.5625 q -24.0625,-12.5 -32.8125,-37.8125 -7.1875,23.125 -33.4375,37.8125 l -3.4375,-5.9375 q 32.8125,-19.375 32.8125,-47.1875 z"
         style="font-style:normal;font-variant:normal;font-weight:normal;font-stretch:normal;font-size:80px;font-family:Sans;-inkscape-font-specification:'Sans, Normal';font-variant-ligatures:normal;font-variant-caps:normal;font-variant-numeric:normal;font-feature-settings:normal;text-align:start;writing-mode:lr-tb;text-anchor:start;stroke-width:0.66245729px"
         id="path4221"
         inkscape:connector-curvature="0" />
    </g>
    <flowRoot
       xml:space="preserve"
       id="flowRoot4178"
       style="fill:black;stroke:none;stroke-opacity:1;stroke-width:1px;stroke-linejoin:miter;stroke-linecap:butt;fill-opacity:1;font-family:Sans;font-style:normal;font-weight:normal;font-size:40px;line-height:125%;letter-spacing:0px;word-spacing:0px"><flowRegion
         id="flowRegion4180"><rect
           id="rect4182"
           width="5"
           height="41.988331"
           x="296"
           y="259.01166" /></flowRegion><flowPara
         id="flowPara4184"></flowPara></flowRoot>    <g
       aria-label="火热招生中"
       transform="matrix(0.50834138,0,0,0.50834138,-50.744607,35.005289)"
       style="font-style:normal;font-weight:normal;font-size:40px;line-height:125%;font-family:Sans;letter-spacing:0px;word-spacing:0px;fill:#000000;fill-opacity:1;stroke:none;stroke-width:0.52048355px;stroke-linecap:butt;stroke-linejoin:miter;stroke-opacity:1"
       id="flowRoot4186">
      <path
         d="m 160.375,399.88278 h 4.16667 q 0,15 -0.20834,15.41667 v 1.875 q 6.04167,18.95833 22.5,26.45833 l -2.70833,4.16667 q -15.41667,-8.75 -20.83333,-22.5 -3.95834,15.625 -22.08334,22.5 l -2.5,-3.95834 q 10,-3.95833 14.58334,-9.375 4.79166,-5.41666 6.25,-12.29166 0.83333,-4.375 0.83333,-22.29167 z m -11.875,7.5 4.16667,1.45834 q -2.29167,9.79166 -6.25,16.66666 l -3.95834,-2.5 q 3.95834,-6.875 6.04167,-15.625 z m 30.83333,0.625 4.16667,1.45834 q -3.125,9.79166 -8.33333,16.87499 l -3.95834,-2.5 q 5.20834,-6.87499 8.125,-15.83333 z"
         style="font-style:normal;font-variant:normal;font-weight:normal;font-stretch:normal;font-size:53.33333206px;font-family:Sans;-inkscape-font-specification:'Sans, Normal';font-variant-ligatures:normal;font-variant-caps:normal;font-variant-numeric:normal;font-feature-settings:normal;text-align:start;writing-mode:lr-tb;text-anchor:start;stroke-width:0.52048355px"
         id="path4202"
         inkscape:connector-curvature="0" />
      <path
         d="m 198.08333,436.96611 3.75,2.29167 q -3.125,5.41667 -6.25,8.75 l -3.54166,-3.125 q 3.75,-3.75 6.04166,-7.91667 z m 23.95833,0.20834 q 2.70834,4.16666 4.58334,8.75 l -4.16667,1.875 q -1.66667,-5 -3.95833,-8.75 z m 12.08334,0.20833 q 3.95833,3.95833 6.25,8.33333 l -3.95834,2.29167 q -2.29166,-4.375 -5.83333,-8.33333 z m -23.33334,0.41667 q 2.70834,4.375 3.54167,8.75 l -4.58333,1.25 q -0.625,-4.79167 -3.125,-8.75 z m 2.08334,-31.66667 h 6.25 v -6.25 h 3.95833 v 6.25 h 9.58333 v 16.04167 q 0,4.79166 0.41667,7.29166 0.41667,2.29167 1.25,2.29167 1.66667,0 2.5,-7.29167 l 3.54167,0.83334 q -0.625,6.66666 -2.08334,8.75 -1.45833,2.08333 -3.95833,2.08333 -2.70833,0 -4.16667,-2.70833 -1.25,-2.70834 -1.25,-11.25 v -12.08333 h -5.83333 q 0,5.41666 -0.625,9.79166 2.70833,2.5 5.20833,5 l -2.70833,3.33333 q -1.66667,-2.08333 -3.54167,-3.75 -2.08333,7.5 -7.70833,12.08334 l -2.91667,-2.91667 q 5.20834,-4.375 7.08334,-12.29166 -2.91667,-2.5 -6.25,-4.58334 l 2.70833,-2.91666 q 2.29167,1.45833 4.375,3.125 0.41667,-3.125 0.41667,-6.875 h -6.25 z m -20.20833,2.08334 h 7.70833 v -8.54167 h 4.375 v 8.54167 h 5.41666 v 3.75 H 204.75 v 6.875 l 5.20833,-1.66667 0.625,3.33333 q -2.91667,1.25 -5.83333,2.08333 v 7.08334 q 0,3.125 -1.25,4.375 -1.25,1.25 -5,1.25 -1.45833,0 -2.91667,-0.20834 L 194.75,430.92445 q 1.45833,0.20833 3.125,0.20833 1.66667,0 2.08333,-0.41667 0.41667,-0.625 0.41667,-2.08333 v -4.79167 q -3.33333,1.04167 -7.29167,1.875 l -1.25,-3.74999 q 4.58334,-0.83334 8.54167,-2.08334 v -7.91666 h -7.70833 z"
         style="font-style:normal;font-variant:normal;font-weight:normal;font-stretch:normal;font-size:53.33333206px;font-family:Sans;-inkscape-font-specification:'Sans, Normal';font-variant-ligatures:normal;font-variant-caps:normal;font-variant-numeric:normal;font-feature-settings:normal;text-align:start;writing-mode:lr-tb;text-anchor:start;stroke-width:0.52048355px"
         id="path4204"
         inkscape:connector-curvature="0" />
      <path
         d="m 246,408.63278 h 6.875 v -8.75 h 4.16666 v 8.75 h 5.83334 v 3.95834 h -5.83334 v 10.41666 q 2.70834,-1.04166 5.41667,-2.29166 l 0.625,3.74999 q -2.91667,1.66667 -6.04167,3.125 v 14.58334 q 0,3.125 -1.04166,4.375 -1.04167,1.25 -3.54167,1.25 -2.91667,0 -5.41667,-0.625 l -0.83333,-4.375 q 2.70833,0.83333 5.625,0.83333 1.04167,0 1.04167,-2.5 v -11.66667 l -6.45834,2.5 -1.45833,-4.375 7.91667,-2.70833 V 412.59112 H 246 Z m 18.33333,-6.45833 h 27.08333 q 0,15.83333 -1.66666,18.95833 -1.45834,2.91667 -5.625,2.91667 -2.70834,0 -6.45834,-0.625 l -0.83333,-4.16667 q 3.95833,0.625 6.66667,0.625 1.875,0 2.5,-1.66666 0.83333,-1.875 1.04166,-12.08334 H 277.25 q -1.25,12.91667 -11.04167,17.91667 l -2.70833,-3.75 q 8.54166,-4.375 9.58333,-14.16667 h -8.75 z m 26.04167,23.75 v 21.875 h -4.16667 v -3.125 h -16.875 v 3.125 h -4.16667 v -21.875 z m -21.04167,14.79166 h 16.875 v -10.83333 h -16.875 z"
         style="font-style:normal;font-variant:normal;font-weight:normal;font-stretch:normal;font-size:53.33333206px;font-family:Sans;-inkscape-font-specification:'Sans, Normal';font-variant-ligatures:normal;font-variant-caps:normal;font-variant-numeric:normal;font-feature-settings:normal;text-align:start;writing-mode:lr-tb;text-anchor:start;stroke-width:0.52048355px"
         id="path4206"
         inkscape:connector-curvature="0" />
      <path
         d="m 309.125,401.54945 3.95833,1.25 q -1.25,4.375 -3.125,8.33333 h 11.875 v -11.25 H 326 v 11.25 h 18.125 v 3.95834 H 326 v 11.45833 h 16.04167 v 3.95833 H 326 v 11.45833 h 20.625 v 3.95834 H 299.75 v -3.95834 h 22.08333 v -11.45833 h -16.04166 v -3.95833 h 16.04166 V 415.09112 H 307.875 q -2.29167,4.58333 -5.20833,8.12499 l -3.33334,-2.70833 Q 306,412.38278 309.125,401.54945 Z"
         style="font-style:normal;font-variant:normal;font-weight:normal;font-stretch:normal;font-size:53.33333206px;font-family:Sans;-inkscape-font-specification:'Sans, Normal';font-variant-ligatures:normal;font-variant-caps:normal;font-variant-numeric:normal;font-feature-settings:normal;text-align:start;writing-mode:lr-tb;text-anchor:start;stroke-width:0.52048355px"
         id="path4208"
         inkscape:connector-curvature="0" />
      <path
         d="m 397.04166,407.79945 v 25.625 h -4.16667 v -3.33334 h -15 v 18.125 h -4.16666 v -18.125 h -14.375 v 3.75 h -4.16667 v -26.04166 h 18.54167 v -8.125 h 4.16666 v 8.125 z m -37.70833,18.33333 h 14.375 v -14.375 h -14.375 z m 18.54166,-14.375 v 14.375 h 15 v -14.375 z"
         style="font-style:normal;font-variant:normal;font-weight:normal;font-stretch:normal;font-size:53.33333206px;font-family:Sans;-inkscape-font-specification:'Sans, Normal';font-variant-ligatures:normal;font-variant-caps:normal;font-variant-numeric:normal;font-feature-settings:normal;text-align:start;writing-mode:lr-tb;text-anchor:start;stroke-width:0.52048355px"
         id="path4210"
         inkscape:connector-curvature="0" />
    </g>
  </g>
</svg>
