<?xml version="1.0" encoding="UTF-8" standalone="no"?>
<!-- Created with Inkscape (http://www.inkscape.org/) -->

<svg
   xmlns:dc="http://purl.org/dc/elements/1.1/"
   xmlns:cc="http://creativecommons.org/ns#"
   xmlns:rdf="http://www.w3.org/1999/02/22-rdf-syntax-ns#"
   xmlns:svg="http://www.w3.org/2000/svg"
   xmlns="http://www.w3.org/2000/svg"
   xmlns:sodipodi="http://sodipodi.sourceforge.net/DTD/sodipodi-0.dtd"
   xmlns:inkscape="http://www.inkscape.org/namespaces/inkscape"
   width="210mm"
   height="297mm"
   viewBox="0 0 210 297"
   version="1.1"
   id="svg72"
   inkscape:version="0.92.4 (unknown)"
   sodipodi:docname="woaibeijingtianmen.svg">
  <defs
     id="defs66" />
  <sodipodi:namedview
     id="base"
     pagecolor="#ffffff"
     bordercolor="#666666"
     borderopacity="1.0"
     inkscape:pageopacity="0.0"
     inkscape:pageshadow="2"
     inkscape:zoom="1.2632812"
     inkscape:cx="412.01923"
     inkscape:cy="813.3086"
     inkscape:document-units="mm"
     inkscape:current-layer="layer1"
     showgrid="false"
     inkscape:window-width="1855"
     inkscape:window-height="1056"
     inkscape:window-x="65"
     inkscape:window-y="24"
     inkscape:window-maximized="1" />
  <metadata
     id="metadata69">
    <rdf:RDF>
      <cc:Work
         rdf:about="">
        <dc:format>image/svg+xml</dc:format>
        <dc:type
           rdf:resource="http://purl.org/dc/dcmitype/StillImage" />
        <dc:title></dc:title>
      </cc:Work>
    </rdf:RDF>
  </metadata>
  <g
     inkscape:label="Layer 1"
     inkscape:groupmode="layer"
     id="layer1">
    <g
       aria-label="我爱北京门"
       transform="scale(0.26458333)"
       style="font-style:normal;font-variant:normal;font-weight:normal;font-stretch:normal;font-size:80px;line-height:125%;font-family:sans-serif;-inkscape-font-specification:'sans-serif, Normal';font-variant-ligatures:normal;font-variant-caps:normal;font-variant-numeric:normal;font-feature-settings:normal;text-align:start;letter-spacing:0px;word-spacing:0px;writing-mode:lr-tb;text-anchor:start;fill:#000000;fill-opacity:1;stroke:none;stroke-width:1px;stroke-linecap:butt;stroke-linejoin:miter;stroke-opacity:1"
       id="flowRoot74">
      <path
         d="m 73.289062,42.283158 2.8125,5.625 q -5.625,1.25 -12.1875,2.5 v 11.25 h 19.6875 q -0.9375,-9.6875 -0.9375,-21.5625 h 6.875 q 0,12.1875 0.625,21.5625 h 22.187498 v 6.25 H 90.476562 q 1.25,10 3.75,19.375 4.375,-6.25 8.124998,-14.375 l 5.9375,3.125 q -5.3125,11.5625 -11.562498,19.0625 4.374998,10.312502 6.874998,10.312502 0.9375,0 2.1875,-1.5625 1.25,-1.875 1.875,-5.000002 l 5.3125,2.187502 q -2.8125,11.25 -9.6875,11.25 -5.624998,0 -11.249998,-12.1875 -7.8125,6.875 -17.5,11.5625 l -3.125,-5.625 q 11.25,-5.625 17.8125,-12.500002 -3.75,-10.9375 -5,-25.625 h -20.3125 v 12.5 q 6.875,-1.5625 12.5,-3.4375 l 1.25,6.25 q -6.5625,2.1875 -13.75,4.0625 v 15.937502 q 0,5.3125 -1.5625,7.1875 -1.5625,1.875 -6.25,1.875 -5.625,0 -10.625,-1.25 l -1.5625,-6.875 q 5.625,1.5625 11.25,1.5625 2.1875,0 2.1875,-4.0625 V 88.845658 q -7.5,1.875 -15.625,3.4375 l -1.25,-6.875 q 9.0625,-1.5625 16.875,-3.125 v -14.375 h -16.875 v -6.25 h 16.875 v -10.3125 l -11.5625,1.875 -2.5,-6.25 q 16.25,-1.5625 30,-4.6875 z m 25.3125,-0.625 q 6.249998,6.25 9.999998,13.4375 l -5.625,3.125 q -3.437498,-6.875 -9.999998,-12.8125 z"
         style=""
         id="path82" />
      <path
         d="m 182.97656,40.095658 3.125,5.9375 q -23.75,3.4375 -58.4375,4.0625 l -1.875,-5.9375 q 28.75,0 57.1875,-4.0625 z m -44.375,10.625 q 2.8125,3.75 5.3125,8.4375 h 9.6875 l -3.125,-5 5.3125,-3.75 q 2.8125,3.75 5.3125,8.75 h 9.375 q 3.4375,-5.625 5.3125,-11.25 l 6.25,2.1875 q -1.875,5 -4.0625,9.0625 h 10 v 12.5 h -6.25 v -6.875 h -51.25 v 7.1875 h -6.25 v -12.8125 h 11.875 l -2.8125,-4.6875 z m -15,24.6875 h 17.5 q 1.875,-4.0625 3.125,-8.4375 l 6.5625,1.5625 q -1.25,3.4375 -2.8125,6.875 h 41.5625 v 5.625 h -44.0625 l -2.8125,5.3125 h 39.6875 v 5 q -5.625,7.1875 -14.375,11.562502 10,2.8125 23.125,3.125 l -1.875,6.25 q -18.125,-0.625 -30.625,-5.625 -11.5625,3.75 -26.875,5.625 l -2.8125,-6.25 q 12.1875,-1.25 21.5625,-3.4375 l -5.625,-3.437502 q -1.5625,-1.25 -3.4375,-2.8125 -1.5625,-1.5625 -3.4375,-3.75 -5.625,7.1875 -12.8125,12.187502 l -4.6875,-4.375 q 10.3125,-7.187502 17.5,-19.375002 h -14.375 z m 21.25,15.9375 q 5.9375,5.3125 14.375,8.750002 10.3125,-3.437502 15.3125,-8.750002 z"
         style=""
         id="path84" />
      <path
         d="m 222.66406,41.033158 h 6.25 v 70.312502 h -6.25 V 94.158158 q -8.75,6.250002 -19.375,10.937502 l -2.5,-6.875002 q 11.875,-5.3125 21.875,-11.5625 v -21.25 h -20.9375 v -6.25 h 20.9375 z m 18.4375,0 h 6.25 v 23.4375 q 10.625,-5.3125 20,-12.1875 l 4.0625,5.625 q -10.9375,7.8125 -24.0625,13.4375 v 30.312502 q 0,1.25 1.25,1.875 1.5625,0.625 7.5,0.625 5.9375,0 7.1875,-0.625 1.25,-0.9375 1.875,-3.125 0.625,-2.187502 0.9375,-10.937502 l 6.5625,1.875 q -0.3125,10.000002 -1.5625,13.125002 -1.25,3.125 -3.75,4.375 -2.1875,1.25 -11.25,1.25 -9.6875,0 -12.5,-1.5625 -2.5,-1.25 -2.5,-4.6875 z"
         style=""
         id="path86" />
      <path
         d="m 317.35156,40.095658 q 2.5,3.75 3.75,8.125 h 30.9375 v 5.9375 h -71.25 v -5.9375 h 32.5 q -0.9375,-3.4375 -2.5,-5.9375 z m -27.1875,20 h 50.9375 v 24.0625 h -21.5625 v 20.000002 q 0,4.6875 -1.5625,6.25 -1.5625,1.875 -5.625,1.875 -5.625,0 -10.3125,-0.9375 l -1.25,-6.25 q 5.3125,1.25 10.625,1.25 1.875,0 1.875,-3.75 V 84.158158 h -23.125 z m 6.25,18.125 h 38.4375 v -12.1875 h -38.4375 z m 3.125,8.75 5.625,3.125 q -7.1875,11.250002 -20.9375,19.062502 l -3.75,-5 q 12.5,-7.812502 19.0625,-17.187502 z m 32.1875,0 q 9.375,7.1875 18.75,16.875002 l -5,5.3125 q -8.125,-9.375002 -19.0625,-18.750002 z"
         style=""
         id="path88" />
      <path
         d="m 376.41406,39.470658 q 4.6875,5 7.1875,10.9375 l -5.625,3.4375 q -2.5,-5.9375 -6.875,-10.9375 z m 13.4375,3.75 h 38.4375 v 60.625002 q 0,8.75 -7.1875,8.75 -2.5,0 -5.9375,-0.3125 l -1.25,-6.5625 q 3.75,0.625 5.9375,0.625 2.1875,0 2.1875,-4.375 V 48.845658 h -32.1875 z m -25.3125,11.25 h 6.25 v 57.812502 h -6.25 z"
         style=""
         id="path90" />
    </g>
  </g>
</svg>
