<?xml version="1.0" encoding="UTF-8" standalone="no"?>
<!-- Created with Inkscape (http://www.inkscape.org/) -->

<svg
   xmlns:dc="http://purl.org/dc/elements/1.1/"
   xmlns:cc="http://creativecommons.org/ns#"
   xmlns:rdf="http://www.w3.org/1999/02/22-rdf-syntax-ns#"
   xmlns:svg="http://www.w3.org/2000/svg"
   xmlns="http://www.w3.org/2000/svg"
   xmlns:sodipodi="http://sodipodi.sourceforge.net/DTD/sodipodi-0.dtd"
   xmlns:inkscape="http://www.inkscape.org/namespaces/inkscape"
   version="1.1"
   id="svg4362"
   width="900"
   height="1000"
   viewBox="0 0 900 1000"
   sodipodi:docname="girl4.svg"
   inkscape:version="0.92.4 (unknown)">
  <metadata
     id="metadata4368">
    <rdf:RDF>
      <cc:Work
         rdf:about="">
        <dc:format>image/svg+xml</dc:format>
        <dc:type
           rdf:resource="http://purl.org/dc/dcmitype/StillImage" />
        <dc:title></dc:title>
      </cc:Work>
    </rdf:RDF>
  </metadata>
  <defs
     id="defs4366" />
  <sodipodi:namedview
     pagecolor="#ffffff"
     bordercolor="#666666"
     borderopacity="1"
     objecttolerance="10"
     gridtolerance="10"
     guidetolerance="10"
     inkscape:pageopacity="0"
     inkscape:pageshadow="2"
     inkscape:window-width="1855"
     inkscape:window-height="1056"
     id="namedview4364"
     showgrid="false"
     inkscape:zoom="0.51430189"
     inkscape:cx="708.98452"
     inkscape:cy="800"
     inkscape:window-x="65"
     inkscape:window-y="24"
     inkscape:window-maximized="1"
     inkscape:current-layer="svg4362" />
  <path
     style="fill:#000000;stroke-width:1"
     d="m 411.87796,898.4038 c 0.4628,-11.62142 0.96595,-12.47555 1.14357,-1.94151 0.0882,5.23071 -0.20086,9.51061 -0.64234,9.51101 -0.44148,3e-4 -0.66704,-3.4059 -0.50123,-7.5695 z m 102.71084,5.9217 c -2.2074,-0.8225 -4.0135,-1.674 -4.0135,-1.8923 0,-0.2183 1.0555,0.012 2.3456,0.5136 1.2901,0.5009 3.5584,1.1459 5.0409,1.4336 1.4824,0.2876 2.2329,0.7293 1.6678,0.9816 -0.565,0.2523 -2.8334,-0.2141 -5.0408,-1.0365 z m 10.4368,0.8729 c -0.3648,-0.4281 -0.2225,-0.7784 0.3163,-0.7784 1.8375,0 11.0636,-5.582 11.9954,-7.2575 0.8309,-1.49425 0.9362,-1.51451 0.9969,-0.1918 0.1179,2.5703 -11.8336,9.9589 -13.3086,8.2277 z m 24.8817,-0.8729 c -2.2074,-0.8225 -4.0135,-1.674 -4.0135,-1.8923 0,-0.2183 1.0555,0.012 2.3456,0.5136 1.2901,0.5009 3.5584,1.1459 5.0409,1.4336 1.4824,0.2876 2.2329,0.7293 1.6678,0.9816 -0.565,0.2523 -2.8334,-0.2141 -5.0408,-1.0365 z m -228.5,-0.2866 c -1.91309,-0.6032 -3.47834,-1.3005 -3.47834,-1.5497 0,-0.2491 1.00491,-0.063 2.23314,0.414 1.22822,0.4769 5.32296,0.7512 9.09943,0.6096 7.2434,-0.2715 9.15626,0.3802 3.51725,1.1983 -4.89113,0.7096 -7.47276,0.557 -11.37148,-0.6722 z m 172.1717,-1.0636 c 2.6553,-1.2215 5.8648,-3.2303 7.1323,-4.464 1.307,-1.2723 2.3191,-1.7625 2.3383,-1.1328 0.05,1.6291 -9.5265,7.8178 -12.097,7.8178 -1.6098,0 -0.9038,-0.597 2.6264,-2.221 z m -138.19102,0.7152 c 0,-0.4012 1.80606,-0.8379 4.01346,-0.9705 l 4.01347,-0.2409 0.58419,-10.09268 0.58418,-10.09263 0.21851,10.25939 c 0.20101,9.43832 0.0529,10.32382 -1.85165,11.06312 -2.58457,1.0033 -7.56216,1.0522 -7.56216,0.075 z m 28.89695,-0.047 c 0,-0.4744 4.99454,-0.7763 12.84309,-0.7763 7.84855,0 12.84309,0.3019 12.84309,0.7763 0,0.4744 -4.99454,0.7764 -12.84309,0.7764 -7.84855,0 -12.84309,-0.302 -12.84309,-0.7764 z m 33.17798,0 c 0,-0.4842 6.24317,-0.7763 16.589,-0.7763 10.34582,0 16.58899,0.2921 16.58899,0.7763 0,0.4842 -6.24317,0.7764 -16.58899,0.7764 -10.34583,0 -16.589,-0.2922 -16.589,-0.7764 z m 49.76698,0 c -0.4171,-0.4896 2.12838,-0.7763 6.89044,-0.7763 7.48577,0 7.56557,-0.021 9.11597,-2.5232 l 1.5641,-2.5232 -0.6191,2.3291 c -0.3405,1.281 -1.3759,2.7658 -2.3007,3.2995 -1.9987,1.1535 -13.70126,1.3085 -14.65071,0.1941 z m -81.48887,-9.31628 c 0,-4.05649 0.18038,-5.71595 0.40085,-3.68768 0.22047,2.02822 0.22047,5.34714 0,7.37536 -0.22047,2.0283 -0.40085,0.3688 -0.40085,-3.68768 z m 5.38608,5.75918 c 0.35731,-0.6755 0.64963,-1.3742 0.64963,-1.5527 0,-0.1786 2.64889,-0.3247 5.88642,-0.3247 3.23753,0 5.88642,0.3494 5.88642,0.7764 0,0.4269 -2.40808,0.7763 -5.35129,0.7763 -2.94321,0 -5.35129,0.3494 -5.35129,0.7764 0,0.427 -0.53314,0.7763 -1.18476,0.7763 -0.65162,0 -0.89243,-0.5526 -0.53513,-1.228 z m 14.3093,-4.40057 c 0.54857,-8.78649 1.0188,-9.4062 1.17819,-1.55268 0.0802,3.94975 -0.2312,7.18125 -0.69193,7.18125 -0.46072,0 -0.67954,-2.5328 -0.48626,-5.62857 z m -82.50636,3.88177 c -1.57474,-0.8352 -1.22779,-0.9704 2.49073,-0.9704 3.71851,0 4.06545,0.1352 2.49072,0.9704 -1.00627,0.5338 -2.12709,0.9705 -2.49072,0.9705 -0.36364,0 -1.48446,-0.4367 -2.49073,-0.9705 z m 9.4474,0.1938 c -0.36984,-0.4341 0.45583,-0.7763 1.87279,-0.7763 3.51578,0 6.34755,-1.6879 7.99512,-4.76548 l 1.39726,-2.60996 -0.54772,2.71727 c -0.84897,4.21177 -8.46771,8.07497 -10.71745,5.43447 z m 102.38088,-2.135 -0.17128,-3.29947 h 6.42154 c 3.56753,0 6.42155,0.34499 6.42155,0.77634 0,0.42697 -2.61838,0.77633 -5.81861,0.77633 -5.76254,0 -5.82277,0.0239 -6.25026,2.5232 -0.37418,2.1872 -0.45448,2.0838 -0.60294,-0.7764 z m 32.08219,0.7764 c -0.14477,-2.50625 -0.11165,-2.52325 4.93798,-2.5317 2.79604,-0.008 6.88981,-0.2251 9.09721,-0.48974 2.2074,-0.26476 4.0125,-0.17352 4.0113,0.20263 -8e-4,0.37608 -1.8072,0.76131 -4.0135,0.85611 -10.10818,0.434 -12.96123,1.0244 -13.43069,2.7793 -0.31721,1.1857 -0.50103,0.9364 -0.6023,-0.8166 z m -118.94433,-0.56 c 0.88296,-0.7671 2.91019,-3.3568 4.50495,-5.75481 1.59478,-2.39813 2.89866,-3.8361 2.89753,-3.1956 -0.003,1.88841 -5.72339,9.55751 -7.43459,9.96791 -1.3623,0.3267 -1.358,0.1902 0.0321,-1.0175 z m 30.51313,0.3532 c 0.36972,-0.4339 1.12057,-0.588 1.66855,-0.3423 1.48449,0.6654 1.20769,1.1314 -0.67225,1.1314 -0.9177,0 -1.36604,-0.3551 -0.9963,-0.7891 z m 75.44236,-0.7637 c 0,-0.4306 2.50204,-0.7354 5.61886,-0.6845 4.80283,0.079 5.15256,0.178 2.40808,0.6845 -4.75588,0.8779 -8.02694,0.8779 -8.02694,0 z m -61.95079,-2.5231 c -0.1037,-1.78378 0.31602,-2.13501 2.5515,-2.13501 1.4716,0 2.67564,0.34937 2.67564,0.77634 0,0.42704 -0.92791,0.7764 -2.06205,0.7764 -1.13411,0 -2.28228,0.61138 -2.55148,1.3586 -0.30113,0.83591 -0.53722,0.53715 -0.61361,-0.77633 z m 7.4918,0 c -0.0958,-1.64747 0.36468,-2.13501 2.01637,-2.13501 1.17728,0 2.14052,0.34937 2.14052,0.77634 0,0.42704 -0.68711,0.7764 -1.52692,0.7764 -0.8398,0 -1.74716,0.61138 -2.01636,1.3586 -0.30113,0.83591 -0.53722,0.53715 -0.61361,-0.77633 z m -84.1883,-2.06775 c 0.54408,-4.36282 3.40653,-7.15876 8.70795,-8.50572 3.59881,-0.91433 4.70805,-0.90158 7.92998,0.0911 l 3.7459,1.154 -4.90637,-0.37161 c -5.01891,-0.37999 -9.96909,0.86188 -12.59958,3.16102 -0.71291,0.62314 -1.74823,2.65503 -2.3007,4.51531 l -1.00449,3.38228 z m 16.84658,1.09728 c 0.0218,-1.28099 0.26168,-1.71099 0.53303,-0.95568 0.27135,0.75538 0.25351,1.80346 -0.0397,2.32908 -0.29317,0.52567 -0.51519,-0.0924 -0.49338,-1.3734 z m 89.69299,1.16454 c 0,-0.42698 2.40808,-0.77634 5.35128,-0.77634 2.94321,0 5.35129,0.34936 5.35129,0.77634 0,0.42697 -2.40808,0.77633 -5.35129,0.77633 -2.9432,0 -5.35128,-0.34936 -5.35128,-0.77633 z m -98.98079,-2.32906 c 0.56762,-2.82522 3.2417,-4.96773 5.13877,-4.11727 0.60396,0.27081 0.0726,0.76568 -1.18419,1.10293 -1.26352,0.33911 -2.77475,1.75292 -3.39013,3.17173 l -1.11036,2.55988 z m 166.40704,1.55274 c 0,-0.42704 2.6489,-0.7764 5.8864,-0.7764 3.2375,0 5.8864,0.34936 5.8864,0.7764 0,0.42698 -2.6489,0.77634 -5.8864,0.77634 -3.2375,0 -5.8864,-0.34936 -5.8864,-0.77634 z m 16.0538,0 c 0,-0.44363 3.2108,-0.7764 7.4918,-0.7764 4.2811,0 7.4918,0.33277 7.4918,0.7764 0,0.44357 -3.2107,0.77634 -7.4918,0.77634 -4.281,0 -7.4918,-0.33277 -7.4918,-0.77634 z m 19.2647,0 c 0,-0.42704 2.6489,-0.7764 5.8864,-0.7764 3.2375,0 5.8864,0.34936 5.8864,0.7764 0,0.42698 -2.6489,0.77634 -5.8864,0.77634 -3.2375,0 -5.8864,-0.34936 -5.8864,-0.77634 z m 16.589,0 c -0.4171,-0.48957 2.1294,-0.7764 6.8935,-0.7764 4.3231,0 7.5549,0.33213 7.5549,0.7764 0,0.43722 -3.0113,0.77634 -6.8935,0.77634 -3.7914,0 -7.1911,-0.34936 -7.5549,-0.77634 z m -74.01758,-1.94093 c 0.16937,-2.32349 0.18653,-2.32937 7.12644,-2.44541 l 6.95664,-0.11634 -6.62577,0.76033 c -5.49636,0.63071 -6.71116,1.0475 -7.12646,2.4454 -0.30867,1.03895 -0.43552,0.79206 -0.33085,-0.64398 z m -46.66857,-2.71722 c 2.55468,-2.83046 3.21253,-3.10546 7.42892,-3.10546 2.54432,0 4.62605,0.34936 4.62605,0.77639 0,0.42698 -1.83589,0.77634 -4.07976,0.77634 -3.29205,0 -4.53809,0.44969 -6.45359,2.32907 -3.52415,3.45774 -4.76962,2.82231 -1.52162,-0.77634 z m 14.36677,0.19407 -0.17128,-3.29953 h 6.95667 c 3.92428,0 6.95667,0.33841 6.95667,0.77639 0,0.43041 -2.83142,0.77634 -6.35373,0.77634 h -6.35373 l -0.43166,2.52314 c -0.37418,2.18723 -0.45448,2.08382 -0.60294,-0.77634 z m 20.71903,1.38248 c -0.43129,-0.50628 1.17631,-0.80021 4.37595,-0.80021 5.79798,0 5.87329,0.34663 0.23581,1.08535 -2.32786,0.30505 -4.20793,0.18883 -4.61176,-0.28514 z m 48.83675,-1.77067 -0.1603,-2.91134 h 6.9567 c 3.9242,0 6.9566,0.33841 6.9566,0.77639 0,0.4303 -2.8303,0.77634 -6.3504,0.77634 -6.1062,0 -6.3676,0.0822 -6.7963,2.135 -0.3587,1.71734 -0.4773,1.56543 -0.6063,-0.77639 z m 35.3185,0 -0.1603,-2.91134 h 6.9567 c 3.9242,0 6.9566,0.33841 6.9566,0.77639 0,0.4303 -2.8303,0.77634 -6.3504,0.77634 -6.1062,0 -6.3676,0.0822 -6.7964,2.135 -0.3586,1.71734 -0.4772,1.56543 -0.6062,-0.77639 z m -147.73172,0 c -0.1037,-1.78372 0.31602,-2.13495 2.5515,-2.13495 1.4716,0 2.67564,0.34936 2.67564,0.77634 0,0.42698 -0.92791,0.77634 -2.06205,0.77634 -1.13411,0 -2.28228,0.61138 -2.55148,1.35866 -0.30113,0.83591 -0.53722,0.53714 -0.61361,-0.77639 z m 7.4918,0 c -0.0958,-1.64742 0.36468,-2.13495 2.01637,-2.13495 1.17728,0 2.14052,0.34936 2.14052,0.77634 0,0.42698 -0.68711,0.77634 -1.52692,0.77634 -0.8398,0 -1.74716,0.61138 -2.01636,1.35866 -0.30113,0.83591 -0.53722,0.53714 -0.61361,-0.77639 z m 54.90674,-1.61621 c 0.34238,-0.78216 0.62251,-1.7429 0.62251,-2.135 0,-0.39326 5.75718,-0.71281 12.84309,-0.71281 7.84855,0 12.84308,0.30191 12.84308,0.77634 0,0.47111 -4.68763,0.77634 -11.9224,0.77634 -10.0533,0 -12.16433,0.21305 -13.46559,1.35866 -1.46057,1.28588 -1.50985,1.28245 -0.92069,-0.0637 z m 27.45418,0.45167 c 0.041,-0.32025 0.4891,-1.28099 0.995,-2.13494 0.8151,-1.37596 0.9284,-1.30958 0.9951,0.58226 0.041,1.17421 -0.4064,2.13495 -0.9951,2.13495 -0.5886,0 -1.0364,-0.26202 -0.995,-0.58227 z m 9.5571,-0.97041 c 0,-0.42703 2.4081,-0.77639 5.3513,-0.77639 2.9432,0 5.3513,0.34936 5.3513,0.77639 0,0.42698 -2.4081,0.77634 -5.3513,0.77634 -2.9432,0 -5.3513,-0.34936 -5.3513,-0.77634 z m 35.3185,0 c 0,-0.42703 2.4081,-0.77639 5.3513,-0.77639 2.9432,0 5.3513,0.34936 5.3513,0.77639 0,0.42698 -2.4081,0.77634 -5.3513,0.77634 -2.9432,0 -5.3513,-0.34936 -5.3513,-0.77634 z m -144.48479,-3.10547 c 0,-0.48421 6.24317,-0.77633 16.589,-0.77633 10.34582,0 16.58899,0.29212 16.58899,0.77633 0,0.48422 -6.24317,0.7764 -16.58899,0.7764 -10.34583,0 -16.589,-0.29218 -16.589,-0.7764 z m 52.61161,-0.77633 c 0,-1.06748 0.24293,-1.50418 0.53983,-0.97047 0.2969,0.53376 0.2969,1.40717 0,1.94093 -0.2969,0.53371 -0.53983,0.097 -0.53983,-0.97046 z m 69.56678,0 c 0,-1.06748 0.2429,-1.50418 0.5398,-0.97047 0.2969,0.53376 0.2969,1.40717 0,1.94093 -0.2969,0.53371 -0.5398,0.097 -0.5398,-0.97046 z m 35.3185,0 c 0,-1.06748 0.2429,-1.50418 0.5398,-0.97047 0.2969,0.53376 0.2969,1.40717 0,1.94093 -0.2969,0.53371 -0.5398,0.097 -0.5398,-0.97046 z M 405.01428,871.43059 c -3.60922,-0.56934 -8.18457,-1.66238 -10.16745,-2.42887 -1.98288,-0.7665 -3.984,-1.40828 -4.44695,-1.42621 -5.0954,-0.19693 -3.14222,-15.58979 3.13086,-24.67402 l 3.61334,-5.23266 -0.60353,-8.74178 c -0.33193,-4.80806 -0.8759,-9.61526 -1.20883,-10.68275 -0.33291,-1.06749 -0.78731,-2.98898 -1.00978,-4.26997 -0.64177,-3.69539 -0.99083,-3.9699 -6.46124,-5.0804 -4.91883,-0.99856 -8.81367,-3.22717 -8.89145,-5.08755 -0.0196,-0.46846 -2.241,-5.01015 -4.93648,-10.09265 -4.53974,-8.56004 -8.18304,-16.21034 -13.2741,-27.87356 -3.3629,-7.70411 -9.43246,-29.07778 -10.1414,-35.71244 -0.8808,-8.24298 -2.70625,-12.84061 -5.39674,-13.59237 -8.09835,-2.2628 -17.65925,-16.81886 -17.65925,-26.88546 v -3.27464 l -5.96037,-0.5402 c -5.50373,-0.49881 -6.0868,-0.39901 -7.61072,1.30276 -2.51721,2.811 -28.93243,21.242 -36.19537,25.25503 -10.01126,5.53158 -19.79288,8.80677 -26.30214,8.80677 -4.8851,0 -5.91229,-0.31004 -9.39146,-2.83465 -3.8003,-2.75763 -4.10477,-2.83001 -11.20526,-2.66342 -11.14611,0.26152 -14.83317,-2.36119 -11.27752,-8.02202 1.2042,-1.91717 8.33953,-5.88885 10.57961,-5.88885 2.83579,0 8.13177,-2.83663 14.74378,-7.89704 8.73892,-6.68822 13.97645,-12.29748 18.48248,-19.79421 l 3.41968,-5.68938 -8.02466,-5.62996 c -8.4648,-5.93875 -14.71131,-12.80805 -14.7281,-16.19653 -0.006,-1.11466 1.26546,-3.38551 2.8244,-5.04633 4.2086,-4.48365 5.727,-7.59005 5.73302,-11.72876 0.004,-3.08896 0.6787,-4.35383 4.01346,-7.52954 2.20445,-2.09929 6.41615,-5.01369 9.35936,-6.47644 9.28058,-4.61237 11.82202,-6.57884 19.19105,-14.84927 3.95118,-4.43451 9.19626,-9.62082 11.65571,-11.52514 12.34581,-9.55914 27.02193,-19.4171 31.21673,-20.96829 4.87433,-1.80248 10.82068,-6.5848 9.75004,-7.84142 -0.33678,-0.39529 -5.55544,-1.88609 -11.59701,-3.31289 -12.79395,-3.02146 -39.45903,-12.5782 -51.37928,-18.4143 -17.114,-8.37892 -36.89616,-21.71904 -48.49838,-32.70493 -5.96241,-5.64566 -8.01221,-7.96758 -14.58774,-16.52433 l -4.61529,-6.00588 -4.52564,-0.0109 c -4.2839,-0.0103 -4.47118,0.0824 -3.50593,1.7359 1.52327,2.60938 8.06037,27.14192 11.11944,41.72922 5.78239,27.57354 6.5511,34.76129 6.51779,60.94406 -0.0347,27.21536 -1.84755,37.39533 -9.81632,55.12137 -7.92271,17.6236 -21.80198,31.9167 -41.14669,42.37357 -13.1315,7.09828 -35.1927,13.24048 -47.88547,13.33208 -3.30193,0.0238 -7.69063,0.56029 -9.7527,1.19212 -9.977987,3.05736 -26.623037,4.24869 -32.844047,2.35074 -1.65709,-0.50556 -4.21693,-0.94226 -5.68853,-0.97045 -2.16925,-0.0415 -2.73595,-0.49204 -2.99429,-2.38033 -1.04868,-7.66511 -10.55974,-22.73103 -21.07479,-33.38336 -14.82024,-15.01373 -25.40347,-29.29239 -31.59601,-42.62859 -7.7687908,-16.7308 -8.0272308,-18.21689 -7.9110008,-45.488 0.11289,-26.48421 0.90736,-33.23278 5.8369398,-49.58147 10.004791,-33.18036 18.868811,-54.98168 32.397291,-79.68204 11.21198,-20.47087 35.09906,-52.00112 45.96453,-60.67184 7.48373,-5.97207 23.394227,-16.91931 29.319887,-20.17362 3.43529,-1.88661 9.37648,-4.48653 13.20265,-5.77761 9.87998,-3.33383 10.18849,-3.49101 9.97688,-5.08289 -4.17291,-31.39322 -2.50334,-75.14983 3.89875,-102.17981 7.87185,-33.23537 31.45497,-66.47642 64.33764,-90.68563 25.20203,-18.55448 47.06954,-30.61006 76.16835,-41.99168 20.31599,-7.94633 35.33149,-12.29804 55.77575,-16.16461 19.99644,-3.78187 30.01485,-4.79069 52.05572,-5.24184 23.18762,-0.474608 35.21252,0.33415 47.68455,3.20714 6.24078,1.4376 8.07726,1.60316 9.21888,0.83107 0.78409,-0.53028 5.83973,-1.56975 11.23476,-2.30992 7.91006,-1.08522 13.81545,-1.27754 30.50231,-0.99335 18.5295,0.31558 21.6805,0.56919 30.1354,2.42548 5.1932,1.14018 11.3146,2.76598 13.6032,3.6129 2.2885,0.8469 4.3299,1.53983 4.5365,1.53983 0.2066,0 0.3462,-7.07456 0.3102,-15.72124 -0.041,-9.81206 0.4673,-17.90982 1.3518,-21.54392 1.8839,-7.73979 6.8801,-20.66377 10.9547,-28.33704 3.8418,-7.23473 18.1765,-27.55747 22.068,-31.28638 1.4701,-1.40863 2.422,-3.03527 2.1155,-3.61475 -1.53,-2.89223 8.4214,-5.24156 28.1952,-6.65636 61.3115,-4.38678 132.0266,11.13358 164.6557,36.13816 14.2511,10.92106 22.5194,25.192 21.1925,36.57825 -1.2249,10.5114 -7.0159,19.25617 -19.4837,29.42134 l -7.7531,6.32128 15.6796,0.93255 c 53.0123,3.15287 84.3026,15.62899 100.0395,39.88779 10.5127,16.20562 12.9963,35.11082 8.8475,67.34672 -2.1462,16.67595 -6.0104,24.81194 -15.4869,32.60701 -1.8167,1.49449 -3.3109,3.16637 -3.3203,3.71529 -0.033,1.92839 -13.514,5.29896 -25.7033,6.42648 -8.2711,0.76508 -30.2171,-0.30254 -42.2752,-2.05659 -28.6203,-4.16328 -58.4509,-12.15499 -91.2431,-24.4442 l -16.325,-6.11799 1.7459,2.89266 c 13.2067,21.88036 20.9965,41.86293 26.2471,67.33033 1.3332,6.46697 0.5281,47.21761 -1.0343,52.34649 -1.0254,3.36621 -0.9674,3.48407 2.8575,5.80482 4.0912,2.4824 19.4125,13.66521 32.93,24.03531 34.002,26.08493 54.9577,53.3903 72.4747,94.4347 7.7107,18.06713 12.3428,35.20433 14.0596,52.01594 0.3706,3.62947 1.1613,10.04906 1.7571,14.26574 0.5957,4.21669 1.275,9.47978 1.5093,11.69576 0.2344,2.21599 0.9257,7.84935 1.5361,12.5186 2.2342,17.09098 0.5751,42.5824 -3.6269,55.72556 -4.3164,13.50099 -14.4586,31.98458 -23.3935,42.63331 -4.9307,5.87647 -13.7071,24.986 -13.9888,30.45918 -0.2232,4.33389 -0.4112,4.65148 -2.6502,4.47433 -1.3255,-0.10488 -3.5904,0.37032 -5.033,1.05601 -4.4102,2.09616 -18.7163,2.32421 -29.4019,0.46867 -4.9997,-0.86819 -12.7975,-1.61683 -17.3284,-1.66365 -13.4504,-0.13898 -35.1185,-5.37794 -47.5171,-11.48871 -7.0212,-3.46047 -17.8218,-10.26628 -21.2864,-13.41324 -1.1753,-1.06749 -3.1992,-2.72406 -4.4977,-3.68126 -6.6183,-4.87865 -16.8812,-19.1208 -22.1907,-30.79481 -14.6204,-32.14558 -16.4482,-80.40092 -5.32,-140.45121 0.9352,-5.04622 1.4986,-9.32125 1.2521,-9.50006 -0.2465,-0.1788 -2.1,1.81956 -4.1191,4.44082 -12.8282,16.65471 -37.0798,34.80917 -63.4289,47.48215 -16.9627,8.15846 -31.1664,13.11538 -53.9569,18.83029 -3.0904,0.77494 -5.6189,1.6183 -5.6189,1.87414 0,0.25583 3.9743,1.92044 8.8316,3.69913 7.6035,2.78426 10.8893,4.72743 23.6288,13.97365 11.1303,8.07825 16.9702,13.08356 23.5657,20.198 7.1797,7.74452 10.0251,10.11277 15.7032,13.0701 13.049,6.7963 17.0039,10.6 16.9369,16.28961 -0.043,3.65837 1.3705,6.4774 5.7193,11.40585 2.5935,2.9392 3.1521,4.26996 2.6793,6.38304 -0.6772,3.02691 -4.8028,7.60184 -11.7178,12.99389 -2.5966,2.02475 -4.6559,4.2956 -4.5762,5.04632 0.2167,2.04141 13.1141,21.60456 15.9556,24.20192 1.8881,1.7259 11.4018,5.85256 16.9387,7.34733 8.376,2.26125 13.8385,8.32034 10.7142,11.88452 -1.5932,1.81765 -7.0239,2.66634 -13.7287,2.14549 -5.94,-0.46143 -6.6867,-0.36059 -7.2743,0.98234 -0.8174,1.86814 -8.0297,4.8784 -11.6881,4.8784 -6.5758,0 -27.5985,-9.07267 -32.5462,-14.04584 -0.7302,-0.73394 -4.349,-2.8984 -8.0419,-4.80993 -6.2989,-3.26051 -12.3287,-7.5142 -17.4943,-12.34122 -2.0318,-1.89865 -2.6011,-2.02315 -6.4125,-1.40254 -2.3005,0.37458 -5.4399,0.8699 -6.9764,1.10071 -2.5773,0.38716 -2.8503,0.82114 -3.5261,5.60584 -1.4094,9.97911 -6.8089,18.33845 -13.6582,21.1453 -2.4408,1.00022 -2.9443,1.64695 -2.4874,3.19497 0.3296,1.11655 -0.257,3.11995 -1.381,4.71693 -1.4027,1.99283 -2.0283,4.8403 -2.2174,10.09265 -0.5291,14.69458 -8.0446,40.66279 -17.5086,60.49709 -2.343,4.91046 -4.8244,10.32555 -5.5142,12.03354 -1.8055,4.47066 -2.9002,5.44102 -7.0926,6.28725 -3.5237,0.71122 -3.7848,0.99584 -4.584,4.99703 -0.4662,2.33358 -1.2064,8.78456 -1.6451,14.33552 l -0.7975,10.09264 3.6901,5.04633 c 3.0475,4.16748 3.913,6.46604 4.9697,13.19807 0.7038,4.48347 1.0431,8.60564 0.7541,9.16036 -0.8992,1.7259 -12.2277,5.34557 -19.6084,6.26532 -9.33578,1.16338 -14.9434,1.10719 -25.73578,-0.25806 -7.87534,-0.9962 -10.16309,-0.99661 -18.60214,0 -11.59919,1.36571 -19.20929,1.3603 -27.9575,-0.0204 z m 31.62144,-3.21435 c 3.23068,-0.46873 3.3754,-0.64708 3.14498,-3.87616 -0.33746,-4.72882 -0.82543,-5.06661 -5.77621,-3.99844 -2.32849,0.5025 -10.73543,0.93082 -18.68209,0.95201 -11.39663,0.0303 -15.41382,-0.24845 -19.01874,-1.32012 -5.82599,-1.73192 -5.59718,-1.77338 -5.59718,1.01408 0,2.05448 0.62617,2.57368 4.66798,3.87057 9.07881,2.91314 31.66017,4.75096 41.26126,3.35806 z m 35.41033,-0.30773 c 3.82617,-0.43298 10.20755,-1.48851 14.18095,-2.34555 7.1726,-1.54709 7.2242,-1.57807 7.2242,-4.33627 0,-2.34311 -0.2931,-2.6896 -1.8729,-2.21338 -9.6942,2.92212 -24.48365,3.53757 -38.26176,1.59216 -4.12049,-0.5818 -7.5808,-0.99934 -7.68958,-0.92783 -0.10878,0.0714 -0.52662,1.92811 -0.92852,4.12582 -0.69038,3.77519 -0.59084,4.01509 1.80317,4.34424 4.87483,0.67025 18.64776,0.54128 25.54444,-0.23919 z m -38.52927,-9.15706 4.81615,-0.52474 0.3153,-3.90439 0.3153,-3.9043 -4.96354,-1.74929 c -3.82908,-1.34946 -5.33762,-2.44009 -6.60022,-4.77164 l -1.63666,-3.02236 -7.813,-0.25217 -7.81299,-0.25208 -2.33226,4.08713 c -2.80724,4.91947 -5.41937,6.3937 -11.32863,6.3937 -4.13972,0 -4.49026,0.1666 -4.93077,2.34382 -0.26082,1.28906 0.0457,2.64761 0.68122,3.01902 1.05586,0.61697 9.0039,1.98321 15.60391,2.68224 4.64383,0.49182 20.67149,0.40137 25.68619,-0.14494 z m 53.35602,-1.21881 c 3.1513,-0.6318 5.9239,-1.28961 6.1614,-1.46196 0.2375,-0.17227 0.1275,-1.41709 -0.2445,-2.76632 -0.6342,-2.30019 -0.9652,-2.45305 -5.3131,-2.45305 -4.0135,0 -5.0372,-0.36411 -7.6161,-2.70864 -1.6387,-1.48975 -3.50829,-3.84793 -4.15463,-5.24041 -0.64633,-1.39247 -1.49339,-2.44444 -1.88236,-2.33769 -0.38896,0.10675 -3.81512,0.19409 -7.61366,0.19409 -6.8235,0 -6.92753,0.0326 -8.66065,2.68154 -1.98895,3.04045 -3.34196,3.9852 -8.25886,5.76702 -3.07738,1.11523 -3.50198,1.66621 -3.79039,4.91837 -0.35209,3.97045 -0.44878,3.91114 7.81659,4.7951 6.11839,0.65423 27.85336,-0.24479 33.55626,-1.38805 z m -87.0818,-9.00691 c 5.44054,-1.50047 11.70902,-16.56941 8.12399,-19.52951 -0.69773,-0.57613 -2.0858,-2.27022 -3.08458,-3.76471 -0.99878,-1.49449 -2.24381,-2.71725 -2.76672,-2.71725 -0.52291,0 -1.12718,3.66829 -1.34281,8.15175 -0.36211,7.52935 -0.67882,8.55181 -4.14817,13.39217 -3.42644,4.78042 -3.57304,5.24041 -1.67008,5.24041 1.14732,0 3.34708,-0.34781 4.88837,-0.77286 z m 91.5197,0.27646 c 0,-0.27304 -1.5311,-2.28187 -3.4026,-4.46406 -3.2124,-3.74592 -3.4291,-4.47741 -3.8778,-13.08985 -0.2614,-5.01721 -0.6999,-9.1222 -0.9745,-9.1222 -1.1555,0 -4.5198,3.6037 -4.5526,4.87662 -0.02,0.76059 -0.8157,1.60014 -1.76911,1.8655 -1.43245,0.39874 -1.61438,1.2372 -1.04757,4.82786 1.03676,6.56775 3.61518,11.43854 7.21978,13.63874 2.8901,1.76404 8.4044,2.72679 8.4044,1.46739 z M 438.34502,838.2355 c -0.41899,-5.6577 -1.07472,-10.50179 -1.45719,-10.76474 -0.38248,-0.26287 -2.77355,0.19696 -5.31349,1.02184 -4.10253,1.33231 -4.55541,1.73237 -4.05664,3.58343 0.30881,1.14599 0.89218,4.17945 1.29639,6.74112 0.63324,4.01299 1.26057,5.00672 4.53334,7.1813 2.08913,1.38805 4.23963,2.52379 4.77891,2.52379 0.58279,0 0.6715,-4.17223 0.21868,-10.28674 z m 12.69181,7.76358 c 3.36075,-2.13957 4.11917,-3.23144 4.98828,-7.18131 1.59235,-7.23697 1.3724,-9.70447 -0.86504,-9.70447 -1.04632,0 -3.00392,-0.55967 -4.35024,-1.24372 -1.34633,-0.68405 -2.73559,-1.03504 -3.08726,-0.77993 -1.55989,1.13154 -3.01954,21.43259 -1.54101,21.43259 0.49055,0 2.67544,-1.13543 4.85527,-2.52316 z m -26.08211,-8.49413 c 0,-1.91978 -1.08609,-2.14756 -7.83215,-1.64246 -4.61694,0.34563 -6.0812,0.75625 -6.0812,1.70526 0,1.02092 1.27505,1.25002 6.95667,1.25002 5.81941,0 6.95668,-0.21459 6.95668,-1.31282 z m 48.57103,-0.19759 c -0.52907,-1.00002 -11.76869,-2.26028 -13.44732,-1.50768 -0.48151,0.21583 -0.87655,0.98326 -0.87788,1.70527 -0.002,1.13146 1.02375,1.2775 7.42551,1.05693 5.5113,-0.1899 7.29161,-0.51356 6.89969,-1.25452 z m -48.57316,-5.6709 c 0.002,-1.61762 -0.4729,-1.7468 -6.41941,-1.7468 -6.11767,0 -6.42155,0.0908 -6.42155,1.92016 0,1.84851 0.23959,1.91372 6.41941,1.7468 5.87213,-0.15861 6.4196,-0.32226 6.42155,-1.92016 z m 47.97756,-0.0388 c 0.3365,-1.72156 0.10692,-1.77708 -6.42155,-1.55271 -5.87609,0.20193 -6.81186,0.44221 -7.08346,1.81862 -0.28727,1.4559 0.23922,1.58314 6.42155,1.55272 6.1964,-0.0303 6.76237,-0.17585 7.08346,-1.81863 z m -41.74814,-5.23187 5.54554,-1.19465 v -3.81208 -3.81207 l -3.9812,1.20662 c -3.09063,0.93675 -6.38251,1.11035 -14.71604,0.77605 -5.90416,-0.23687 -12.42049,-0.65572 -14.48074,-0.9307 l -3.74591,-0.50005 3.47801,1.81939 c 1.91291,1.00065 4.04804,2.93781 4.74474,4.30475 0.88747,1.74121 2.08919,2.57805 4.01379,2.79496 6.39884,0.72139 13.96142,0.46372 19.14181,-0.65222 z m 40.03217,0.69973 c 2.81734,-0.33786 4.17581,-0.96066 4.6382,-2.12644 0.35964,-0.90678 2.65992,-2.93005 5.11182,-4.49612 2.4518,-1.56614 4.1888,-3.04262 3.86,-3.28112 -0.3288,-0.2385 -3.218,0.29432 -6.4204,1.18395 -4.94548,1.37392 -7.35429,1.55489 -15.99007,1.20134 -5.59209,-0.22903 -11.28192,-0.66247 -12.64403,-0.96323 -2.35568,-0.52024 -2.46019,-0.38174 -2.14052,2.83557 0.32076,3.22824 0.55561,3.44167 5.15223,4.6819 5.13684,1.38595 11.94526,1.74206 18.43277,0.96415 z m -28.06509,-12.31481 c 0,-2.84667 -0.46652,-5.04633 -1.07025,-5.04633 -1.15793,0 -1.48323,6.85594 -0.42062,8.86461 1.1556,2.18451 1.49087,1.32587 1.49087,-3.81828 z m -9.84923,1.8794 c 2.40711,-0.60866 3.32234,-1.39495 3.67969,-3.16109 l 0.47567,-2.35096 -4.91243,0.54989 c -13.1258,1.46918 -17.89091,1.60224 -25.10508,0.70105 -4.19872,-0.52451 -7.95004,-0.81417 -8.33626,-0.64383 -1.55152,0.68451 0.6327,3.58056 3.24356,4.30063 7.7272,2.1311 23.68509,2.44265 30.95485,0.60431 z m 45.85444,-0.37591 c 5.1575,-1.04008 6.8051,-2.15144 6.8051,-4.5899 0,-0.79918 -0.9795,-0.85585 -4.5486,-0.26303 -5.95621,0.98923 -18.89672,1.17867 -27.29156,0.39951 l -6.68911,-0.62077 v 2.31533 c 0,2.57728 1.07032,3.00023 10.12881,4.0029 6.43422,0.71223 14.07929,0.2718 21.59536,-1.24404 z m -40.72848,-8.22535 c 1.31586,-0.95453 1.3773,-7.81504 0.44079,-49.20957 -0.59852,-26.45526 -1.54969,-53.51556 -2.1137,-60.134 -0.564,-6.61845 -1.04125,-13.86769 -1.06055,-16.10942 l -0.0351,-4.07588 h -7.30593 c -9.25733,0 -28.67172,-1.37078 -37.35046,-2.63718 -3.66421,-0.53469 -7.03552,-0.77144 -7.4918,-0.52612 -0.45625,0.24533 -0.97311,2.29039 -1.14855,4.54459 -0.58118,7.46728 -6.35447,14.59809 -16.5539,20.44634 -3.59349,2.06047 -6.33101,3.01632 -8.64184,3.01742 l -3.38223,0.002 0.16782,7.95605 c 0.0924,4.37583 0.67832,9.87754 1.30224,12.22602 0.62394,2.34848 1.92717,8.11293 2.8961,12.8099 3.48049,16.87215 9.29395,34.1288 17.92701,53.21438 6.56191,14.50686 6.58634,14.53768 12.52956,15.81797 4.82058,1.03846 18.33499,3.10862 25.1117,3.8467 6.74724,0.73482 23.14447,-0.0543 24.7088,-1.18883 z m 38.12577,-0.24642 c 11.90921,-1.65309 18.31611,-2.85311 19.83541,-3.71517 0.7317,-0.4152 2.7617,-4.12044 4.511,-8.23382 8.2043,-19.29163 16.5302,-50.31995 17.8393,-66.48205 0.3804,-4.69696 1.2746,-9.37168 1.987,-10.38826 0.9225,-1.31646 1.0079,-2.88027 0.2968,-5.4345 -0.5492,-1.9724 -0.964,-4.82909 -0.9217,-6.34821 l 0.077,-2.76204 h -5.0895 c -11.0196,0 -20.1473,-7.8554 -24.49,-21.07636 -2.2601,-6.88081 -3.3648,-8.90612 -4.5643,-8.36835 -1.6673,0.74747 -22.40003,2.6366 -35.27562,3.21424 l -12.19214,0.547 0.72628,13.2747 c 0.39945,7.30108 1.43755,22.35808 2.30688,33.46 0.86934,11.1019 2.06667,34.14404 2.66073,51.20473 0.79877,22.93942 1.42221,31.17712 2.39344,31.62468 2.21733,1.02185 21.17647,0.69422 29.89967,-0.51659 z M 256.45216,716.95434 c 1.14263,-0.62691 2.6663,-1.15095 3.38594,-1.16454 1.7713,-0.0334 18.70196,-8.3887 25.98313,-12.82267 6.4757,-3.94346 25.68065,-17.61913 25.68405,-18.28938 8e-4,-0.23169 -2.12514,-0.83397 -4.72515,-1.3384 -5.18997,-1.00693 -22.26099,-6.76884 -28.92681,-9.76356 l -4.22203,-1.8968 -4.00305,5.93364 c -2.24557,3.32859 -6.85279,8.25066 -10.49402,11.21117 -3.57003,2.90264 -6.49097,5.53233 -6.49097,5.84376 0,2.22968 -13.21445,9.27306 -20.58571,10.97233 -3.77625,0.87051 -8.31124,3.97044 -8.31124,5.68122 0,0.4953 3.35005,0.62947 9.1562,0.36671 l 9.15621,-0.41437 2.58003,2.96472 c 2.26911,2.60743 3.88005,3.3097 8.60265,3.7503 0.6233,0.0582 2.06814,-0.40721 3.21077,-1.03413 z m 91.42763,-7.93181 c 0.009,-1.78694 -0.53418,-4.23247 -1.20709,-5.4345 -0.6729,-1.20204 -2.01031,-5.50446 -2.972,-9.56092 -0.96169,-4.05647 -2.09679,-7.28806 -2.52242,-7.18131 -0.42565,0.10675 -3.00749,0.19409 -5.73742,0.19409 h -4.96351 l 0.68659,4.23762 c 1.0676,6.58922 6.76571,17.13277 11.03289,20.41484 4.30594,3.31188 5.65598,2.67763 5.68296,-2.66982 z m 277.48061,1.51545 c 1.0302,-0.67341 1.873,-1.67365 1.873,-2.22277 0,-1.79234 2.5361,-2.23 11.5053,-1.98556 7.024,0.19142 8.8296,0.0178 8.8296,-0.8493 0,-1.7053 -4.4231,-4.29735 -9.5893,-5.61956 -2.5917,-0.6633 -6.2784,-2.07255 -8.1926,-3.13167 -4.1433,-2.29237 -4.4058,-2.32224 -4.9846,-0.56703 -0.4018,1.21879 -0.5395,1.19881 -1.3381,-0.19409 -0.4897,-0.85399 -1.2379,-1.7274 -1.6629,-1.94089 -1.3423,-0.67443 -12.4847,-16.46698 -15.4742,-21.9321 -1.5765,-2.88223 -3.0849,-5.24041 -3.352,-5.24041 -0.2671,0 -2.7381,1.24766 -5.4913,2.77259 -4.9905,2.76413 -24.359,10.13837 -31.0135,11.80787 l -3.5048,0.87931 5.0698,3.3332 c 2.7884,1.83327 7.7369,5.14414 10.9966,7.35748 3.2598,2.21336 7.3717,4.93209 9.1376,6.04165 4.5715,2.87237 21.5695,11.28392 22.8024,11.28392 0.5685,0 2.4132,0.53049 4.0992,1.17888 3.3953,1.30566 7.3822,0.92923 10.2898,-0.97152 z m -92.5175,-3.50689 c 4.493,-5.04121 7.0486,-10.49776 8.1813,-17.46804 0.6288,-3.86966 0.5386,-4.07534 -1.7826,-4.06528 -6.0289,0.0261 -6.9409,0.6605 -7.6102,5.29317 -0.3496,2.42039 -1.6182,6.62972 -2.819,9.35407 -2.641,5.99212 -2.8981,11.73832 -0.5252,11.73832 0.1271,0 2.1772,-2.18351 4.5557,-4.85224 z m -10.0454,-9.08137 c 2.3327,-7.43967 2.2384,-12.19547 -0.261,-13.16579 -2.1915,-0.85076 -4.0552,-4.78593 -4.9776,-10.50968 -0.3401,-2.11065 -0.8296,-3.99077 -1.0878,-4.17806 -0.3679,-0.26686 -13.6257,2.07808 -23.9396,4.23425 -2.9141,0.6092 2.2926,14.21094 7.7113,20.14484 3.8928,4.26297 7.1367,6.17648 13.0701,7.7097 7.2615,1.87645 7.6182,1.71715 9.4846,-4.23526 z m -159.99981,1.30751 c 9.57077,-5.37413 16.36273,-13.79926 16.54971,-20.52916 l 0.12137,-4.36899 -4.81866,-0.9055 c -2.65026,-0.49803 -7.57689,-1.14066 -10.94805,-1.42807 -6.82072,-0.5815 -6.22025,-1.04673 -7.80602,6.04775 -0.71352,3.19219 -2.92416,5.01793 -6.12691,5.06016 -2.29112,0.0302 -2.47545,1.45842 -0.26757,2.073 1.99239,0.55461 2.08903,2.32315 0.17231,3.15352 -1.18473,0.51325 -1.20113,1.6018 -0.0946,6.28124 1.75673,7.42955 2.68949,8.24335 7.70579,6.72296 2.10387,-0.63766 4.58459,-1.58577 5.51269,-2.10691 z M 93.560053,699.8726 c 25.251907,-3.26467 50.194897,-19.54175 65.787587,-42.93111 2.88611,-4.32922 4.53139,-6.03114 5.29499,-5.47723 2.50074,1.81402 -13.35496,22.02228 -25.03148,31.90288 -2.91122,2.46346 -8.84647,6.39377 -13.18945,8.73402 -4.34298,2.34027 -7.28831,4.25502 -6.54515,4.25502 4.04773,0 15.94429,-2.96195 26.49574,-6.59678 14.54254,-5.00971 26.43217,-10.84906 33.48044,-16.44324 6.23129,-4.94575 16.06687,-14.90009 16.06687,-16.26087 0,-0.52733 0.67153,-1.44591 1.49229,-2.04128 3.8668,-2.80495 10.00171,-16.49297 12.961,-28.91818 2.787,-11.70179 3.76629,-28.28619 2.63941,-44.69911 -0.56811,-8.2744 -1.25788,-16.10057 -1.53285,-17.39146 -0.27497,-1.29091 -0.7711,-4.26858 -1.10252,-6.61706 -1.72838,-12.2478 -6.02828,-33.95579 -9.61125,-48.52234 -0.84023,-3.41597 -1.80315,-7.6083 -2.13982,-9.31629 -0.33665,-1.70799 -1.32409,-5.85157 -2.19431,-9.20796 -0.87022,-3.3564 -1.5822,-6.21383 -1.5822,-6.34986 0,-0.13602 -2.53794,-0.78252 -5.63986,-1.43664 -11.07104,-2.33464 -22.63161,-9.25162 -31.35225,-18.75885 -7.74137,-8.43962 -12.56226,-17.17531 -15.6156,-28.29617 -2.14788,-7.82302 -2.4498,-11.23441 -2.43926,-27.5607 0.01,-15.2657 0.37203,-19.82501 2.00426,-25.23161 2.71766,-9.00195 3.43447,-18.63258 1.38681,-18.63258 -9.14272,0 -28.97445,9.34087 -43.08068,20.29126 -13.089867,10.16143 -21.238957,20.53572 -44.739577,56.95631 -15.66906,24.28345 -33.72063,71.02488 -39.87735,103.25553 -1.895431,9.92266 -4.057171,46.98933 -3.214691,55.12138 0.73769,7.12045 3.904691,18.65106 7.143381,26.00797 5.11816,11.62633 23.62794,36.49213 30.74562,41.30328 3.87692,2.62059 16.90211,21.34454 18.6586,26.82209 0.71886,2.24173 1.73623,4.07587 2.26084,4.07587 2.46908,0 26.28605,-15.68803 33.001807,-21.738 3.04994,-2.74759 4.16189,-3.29408 5.20721,-2.55921 1.05717,0.74321 0.96769,1.62096 -0.43725,4.28952 -2.52888,4.80341 -20.020437,17.06515 -29.709457,20.82661 -2.41972,0.93938 -2.43544,1.00112 -0.40164,1.57751 3.0314,0.85912 5.33908,0.79169 14.80979,-0.43272 z m 703.595047,-2.118 c -0.2352,-0.51186 -3.767,-2.346 -7.8486,-4.07587 -8.9184,-3.77992 -24.6344,-14.64688 -25.6831,-17.75878 -1.3802,-4.09574 1.2106,-4.23069 5.9672,-0.31081 6.3801,5.25777 32.168,19.97068 35.0035,19.97068 0.5046,0 0.9925,-1.36408 1.0842,-3.03129 0.2723,-4.95403 12.8077,-29.51799 15.4271,-30.23059 1.375,-0.37407 5.5126,-6.47676 11.0981,-16.36937 4.8176,-8.53244 10.219,-23.07277 12.2776,-33.05082 1.9411,-9.40861 2.5637,-34.81302 1.1893,-48.53039 -1.9895,-19.85658 -4.2936,-32.63802 -9.3056,-51.61971 -9.2725,-35.11785 -14.1804,-47.71818 -26.2285,-67.33859 -14.1639,-23.06571 -28.5653,-39.09261 -55.6593,-61.94146 -13.9407,-11.75648 -30.583,-24.05054 -32.5568,-24.05054 -0.7496,0 -1.5977,1.63529 -2.0059,3.86779 -0.5644,3.08624 -0.2516,4.53733 1.548,7.1813 2.9209,4.29148 7.9297,14.6407 9.5425,19.71688 2.0266,6.37852 2.9552,18.76643 1.9421,25.90812 -2.8861,20.34556 -12.7653,36.47066 -29.9198,48.83586 -12.6739,9.13549 -27.2092,14.82545 -37.8726,14.82545 -3.3689,0 -3.4516,0.0871 -4.6081,4.85223 -2.2462,9.25508 -6.6723,46.00242 -8.8133,73.17169 -2.1484,27.26425 0.5896,56.43515 6.9614,74.16757 3.9234,10.91825 8.9888,20.54344 13.1988,25.07934 2.0462,2.20474 4.3634,4.88203 5.1491,5.94952 2.4991,3.39516 13.4154,11.89151 20.7225,16.12877 7.9601,4.6159 21.4817,9.89352 32.9798,12.87235 8.698,2.2534 25.0334,5.33485 25.7037,4.84863 0.2419,-0.17548 -3.0628,-1.96267 -7.3438,-3.97154 -14.1923,-6.65984 -25.2998,-15.55855 -37.2122,-29.8123 -5.0051,-5.98895 -6.6982,-9.39641 -4.6572,-9.37298 0.4414,0.005 2.4424,2.18856 4.4464,4.85223 14.1278,18.77753 34.5711,32.10766 58.7246,38.29157 5.575,1.42733 9.4512,1.84665 17.1875,1.85934 7.2958,0.0119 9.8737,-0.23455 9.5614,-0.91428 z M 343.57392,683.74037 c -0.0227,-0.53375 -1.57866,-1.67199 -3.45775,-2.52942 -3.56816,-1.62816 -9.817,-8.49798 -12.89907,-14.18091 -0.98977,-1.82498 -3.00583,-7.71574 -4.48014,-13.09057 -2.35946,-8.60171 -2.68199,-11.78486 -2.69244,-26.57159 -0.0187,-26.45274 3.02049,-42.94285 10.23679,-55.54318 1.9615,-3.42498 -6.39185,1.73646 -18.9232,11.69241 -12.52023,9.94713 -15.02431,12.29344 -24.31344,22.78161 -6.07546,6.85969 -7.20987,7.7448 -14.60165,11.39282 -9.10631,4.49417 -10.11247,5.54277 -13.06529,13.61634 -2.55363,6.98212 -6.25098,13.03235 -7.96416,13.03235 -0.45954,0 -1.32315,0.66094 -1.91915,1.46875 -1.54377,2.09244 0.99711,5.3994 8.79411,11.44556 15.53513,12.04668 45.8989,23.9718 67.83834,26.64294 8.49739,1.03457 17.49424,0.95355 17.44705,-0.15711 z m 200.84048,-0.96359 c 14.6015,-2.02655 33.4225,-7.99284 48.5085,-15.37729 9.349,-4.57626 23.3303,-14.45257 26.259,-18.54927 l 2.0485,-2.86539 -2.9843,-2.16479 c -4.1052,-2.97791 -5.617,-5.32699 -8.5571,-13.29596 -3.1694,-8.59098 -3.9567,-9.48677 -11.3331,-12.89563 -8.1125,-3.74901 -11.5024,-6.48293 -19.343,-15.5997 -6.9776,-8.1132 -8.128,-9.15472 -23.9351,-21.66891 -11.7838,-9.32908 -26.1474,-16.60963 -20.5559,-10.41927 2.9683,3.28612 9.3046,17.10611 11.4896,25.05966 7.1352,25.97206 8.0683,53.50933 2.3822,70.30165 -2.0061,5.9246 -6.9358,13.38105 -10.6075,16.04444 -4.154,3.01331 -4.3976,2.96074 6.6282,1.43046 z m -12.5269,-4.53332 c 2.8132,-1.6758 7.3588,-10.18101 9.6199,-17.99968 8.1785,-28.28022 -2.9157,-80.43043 -19.8589,-93.35038 l -4.1564,-3.16947 -6.929,1.16118 c -3.8109,0.63864 -7.1308,1.30759 -7.3775,1.48655 -0.2467,0.17897 0.611,3.2093 1.906,6.73406 7.1693,19.51287 13.2763,54.31295 15.0214,85.59712 0.6365,11.41108 1.2585,15.5108 2.747,18.10757 1.7334,3.02389 2.2009,3.30641 4.7137,2.84893 1.5342,-0.27932 3.4754,-0.91646 4.3138,-1.41588 z m -180.20608,-2.40931 c 1.8794,-3.26284 1.86874,-3.02817 1.66824,-36.73721 -0.0896,-15.05321 0.11872,-29.55168 0.46279,-32.21884 2.12737,-16.49104 3.99298,-28.13822 5.36051,-33.46625 0.86146,-3.35639 1.56631,-6.57821 1.56631,-7.15961 0,-1.58949 -11.09634,-3.74679 -13.82445,-2.6877 -5.11535,1.98588 -12.04959,13.30444 -15.47912,25.26614 -4.44403,15.50009 -5.12741,50.18475 -1.26195,64.04948 3.25014,11.65773 6.82331,18.20045 12.50202,22.89207 4.25199,3.51289 7.00698,3.53184 9.00565,0.062 z m 82.51511,-7.62093 c -0.37297,-3.09572 -0.99114,-18.79506 -1.37371,-34.88741 l -0.6956,-29.25881 -4.38894,-0.50974 c -8.36854,-0.97193 -19.07319,-5.38905 -27.62178,-11.39771 -9.47504,-6.65986 -11.53027,-8.71268 -18.07128,-18.05011 l -4.91538,-7.01677 h -4.18182 c -4.09593,0 -4.18888,0.0628 -4.52595,3.0568 -0.18927,1.68124 0.17319,4.54709 0.80546,6.36854 2.35629,6.788 3.34038,18.15953 2.16779,25.04963 -1.40478,8.25438 -3.36843,13.27499 -7.67228,19.6163 -2.15837,3.18013 -3.46859,6.41733 -3.71628,9.18186 -0.99661,11.12339 -2.2548,38.45207 -1.79514,38.99157 0.28436,0.33378 1.36788,0.27654 2.40781,-0.12718 1.25801,-0.48837 6.69845,-0.21871 16.25648,0.8058 20.63294,2.2116 38.69733,3.57427 49.02531,3.69817 l 8.97342,0.10765 z m 38.38465,4.82024 c 5.29782,-0.43759 11.79962,-0.97614 14.44852,-1.19679 9.2093,-0.76711 26.2287,-3.5254 27.4267,-4.44497 1.3412,-1.02946 0.9724,-4.25537 -3.366,-29.44347 -2.424,-14.07337 -2.9454,-15.75667 -6.4076,-20.68471 -6.5804,-9.3664 -8.3897,-15.77567 -8.5741,-30.37374 -0.1594,-12.6118 -1.0459,-19.40894 -2.5314,-19.40894 -0.4158,0 -2.902,3.21277 -5.5248,7.1395 -10.841,16.23045 -28.15831,27.21259 -46.01933,29.18409 -3.21241,0.35459 -5.7499,0.99655 -5.63887,1.42657 0.11105,0.43002 0.50116,15.25732 0.8669,32.94953 0.36577,17.69223 0.8861,32.95374 1.15633,33.91448 0.47453,1.68713 0.90195,1.74659 12.51132,1.74044 6.61101,-0.004 16.35455,-0.3644 21.65233,-0.80199 z M 365.72744,597.75878 c 0.36342,-5.33745 0.32672,-9.48161 -0.0816,-9.20925 -0.86967,0.58017 -3.85895,19.21059 -3.71986,23.18369 l 0.0951,2.71725 1.52275,-3.49361 c 0.8375,-1.92148 1.8201,-7.86062 2.18352,-13.19808 z m 137.84236,2.47061 c -1.0345,-4.13431 -2.0997,-7.05658 -2.3672,-6.49393 -0.2674,0.56265 0.3601,4.40562 1.3946,8.53993 1.0345,4.13431 2.0997,7.05659 2.3672,6.49394 0.2675,-0.56265 -0.3601,-4.40562 -1.3946,-8.53994 z m -51.85749,-4.73833 c 8.28309,-2.98037 16.93907,-7.69172 22.1231,-12.04136 3.53239,-2.96386 13.19429,-14.15736 13.19429,-15.28591 0,-0.28273 -3.0101,0.66935 -6.6891,2.11573 -9.44174,3.71196 -18.29294,5.55504 -31.76926,6.6153 -18.46659,1.45287 -42.24962,-0.84318 -57.34145,-5.53584 -2.80907,-0.87345 -5.3299,-1.42668 -5.60183,-1.22943 -0.27194,0.19727 2.01694,2.99389 5.08639,6.21471 13.9394,14.62687 30.92361,22.53203 47.08452,21.91511 5.17534,-0.19756 8.73972,-0.90676 13.91334,-2.76831 z m 7.80763,-24.88802 c 1.03997,-0.80592 0.59188,-0.9038 -2.32372,-0.50761 -1.98666,0.26997 -11.61898,0.49619 -21.40514,0.50273 -12.68312,0.008 -17.33199,0.24478 -16.18765,0.82283 2.40391,1.2143 38.24171,0.47993 39.91651,-0.81795 z m 5.03431,-5.4568 c 22.54355,-0.99486 31.34835,-1.87715 47.13795,-4.72356 15.5185,-2.79752 28.225,-6.25139 44.1315,-11.9958 15.2444,-5.50535 19.8816,-7.64487 35.0209,-16.15814 15.0549,-8.46573 33.5055,-21.80483 43.1094,-31.16646 11.1856,-10.90331 22.1396,-26.37705 29.1282,-41.14693 1.7395,-3.6762 1.4144,-3.39788 -7.1248,6.09842 -10.6013,11.7896 -29.4661,23.71806 -46.2302,29.23192 -14.1751,4.66231 -20.8857,5.60473 -42.7619,6.00533 -17.8831,0.32747 -21.2326,0.18393 -29.9672,-1.28424 -19.447,-3.2688 -35.545,-9.84016 -50.4791,-20.60612 -10.63646,-7.66777 -16.17646,-13.03452 -21.7312,-21.05161 -5.5414,-7.99783 -8.52766,-15.14718 -10.02933,-24.011 l -1.21322,-7.16121 -21.6847,0.0857 -21.6847,0.0858 -0.74062,5.72007 c -1.09607,8.46511 -4.18433,15.77294 -10.70618,25.33423 -14.88302,21.81913 -45.43732,38.68915 -76.64768,42.31966 -12.91679,1.50253 -43.27157,0.62547 -53.38425,-1.54247 -23.92552,-5.1291 -46.14471,-17.19576 -61.50509,-33.40179 -2.36687,-2.49718 -3.71807,-3.46416 -3.2545,-2.32908 1.65606,4.05512 16.464,25.5641 20.8853,30.33654 21.96747,23.71218 49.99851,40.49104 88.8251,53.16904 12.00019,3.91841 43.77413,11.91307 53.51288,13.46442 3.23753,0.51572 8.77611,1.42215 12.30796,2.01428 6.05472,1.01511 19.35945,2.38262 28.89696,2.97016 9.82974,0.60555 39.74185,0.46865 56.18852,-0.25715 z m -41.38821,-67.11659 c -3.45454,-1.09005 -5.70313,-3.22553 -5.70313,-5.41626 0,-0.66856 0.48162,-1.21557 1.07027,-1.21557 0.58863,0 1.07025,0.64458 1.07025,1.43239 0,4.19296 10.95397,5.8803 17.02856,2.62307 2.99253,-1.60461 3.51782,-1.66274 5.70913,-0.63179 2.38783,1.12338 7.22616,1.64412 12.76605,1.37399 1.57545,-0.0769 4.3405,-1.21283 6.15398,-2.5283 2.4494,-1.77678 3.2931,-2.05985 3.2931,-1.10482 0,0.70618 -1.4078,2.30518 -3.12845,3.55332 -2.80131,2.03206 -3.83957,2.26936 -9.92931,2.26936 -4.34982,0 -7.63708,-0.42487 -9.12111,-1.17889 -2.10999,-1.07206 -2.64077,-1.03713 -5.85699,0.38528 -4.09402,1.81063 -8.54049,1.95656 -13.35235,0.43822 z M 321.82876,487.62268 c 33.29076,-6.30342 56.69032,-22.47693 67.06987,-46.35794 5.69074,-13.09309 5.88324,-24.16318 0.63454,-36.49001 -8.17383,-19.19664 -24.07714,-33.46457 -46.43914,-41.66365 -28.27188,-10.36597 -54.5002,-10.71378 -82.30918,-1.09149 -26.0796,9.02389 -43.09502,24.32862 -50.61451,45.52582 -9.37062,26.41549 7.79011,56.44111 40.86753,71.5047 21.47014,9.77759 47.6702,12.95035 70.79089,8.57257 z m -55.08208,-35.60364 c -1.36706,-0.69071 -4.64224,-3.28894 -7.27819,-5.77386 -17.48689,-16.48493 -15.62601,-39.59968 4.33388,-53.83293 3.59277,-2.56198 8.81275,-5.53095 11.59994,-6.5977 6.02304,-2.30524 6.78153,-3.65946 1.05418,-1.88215 -2.20741,0.685 -4.73589,1.44774 -5.61886,1.69499 -7.60075,2.12832 -19.06868,8.98664 -25.36136,15.16719 -2.08546,2.0483 -4.02661,3.55382 -4.31367,3.34558 -1.07918,-0.78283 6.29387,-8.90818 11.52988,-12.70634 13.79083,-10.00378 42.47437,-15.80928 61.9913,-12.54694 16.47988,2.75469 34.2318,12.5044 41.22194,22.63994 3.66555,5.31495 5.42414,10.3031 2.03129,5.76167 -2.28039,-3.05238 -2.75546,-2.25176 -0.93645,1.57813 2.36506,4.97955 3.03136,12.50942 1.6701,18.87368 -1.32267,6.18389 -6.91839,15.7092 -10.67861,18.17767 -2.12813,1.39706 -2.37913,1.38889 -9.68411,-0.31495 -6.86855,-1.60206 -8.91875,-1.71546 -24.37418,-1.34817 -19.07626,0.45333 -26.45806,1.72052 -37.09897,6.36857 -7.13266,3.11561 -6.78034,3.06686 -10.08811,1.39562 z m 40.24156,-25.49109 c 2.93764,-1.49257 3.04545,-3.54757 0.28127,-5.36216 -1.42712,-0.93687 -2.96624,-1.2187 -4.81616,-0.8819 -2.2507,0.40977 -2.71876,0.9536 -2.71876,3.15887 0,1.718 0.66503,2.94486 1.87295,3.45521 2.47368,1.04514 2.6145,1.03546 5.3807,-0.37002 z m 22.94789,-7.36554 c 4.73976,-0.95488 9.94386,-3.96551 12.11207,-7.00698 2.46206,-3.45367 2.02649,-10.09078 -0.86661,-13.20495 -7.10101,-7.64361 -20.14775,-8.83772 -28.93358,-2.64816 -8.64443,6.08994 -7.13101,17.35181 2.83414,21.08989 6.79252,2.54798 9.43196,2.86253 14.85398,1.7702 z m -77.41469,-33.55117 c 3.55422,-2.87262 17.35843,-7.92485 26.88603,-9.84006 10.69486,-2.14984 29.53906,-2.22053 40.40294,-0.15154 7.38897,1.40719 18.13071,5.25196 16.98837,6.08061 -0.30956,0.22456 -2.15343,-0.29614 -4.09748,-1.1571 -7.5661,-3.35081 -17.31794,-4.82259 -31.95394,-4.82259 -11.78254,0 -15.01412,0.28683 -22.63025,2.00867 -7.97444,1.80284 -17.02965,4.89757 -25.24818,8.62888 l -2.90132,1.31723 z M 583.888,487.92166 c 37.2356,-7.31023 61.2155,-25.1213 70.2569,-52.18325 5.539,-16.57884 -0.01,-35.79203 -14.9462,-51.75635 -13.672,-14.61256 -36.1372,-24.68472 -62.635,-28.08195 -11.513,-1.47607 -20.8614,-1.22512 -32.229,0.86513 -41.723,7.67195 -67.1817,28.50759 -73.34387,60.02534 -2.71658,13.8945 5.63142,33.36128 20.43357,47.64918 11.7511,11.34285 33.7042,20.7625 56.6099,24.2902 8.7019,1.34016 27.0129,0.92735 35.8537,-0.8083 z m 2.6756,-35.84752 c -4.7381,-2.50749 -17.1662,-6.6811 -23.8513,-8.00978 -3.4513,-0.68595 -8.8629,-0.88935 -16.5917,-0.6236 -9.7396,0.33486 -12.7154,0.77048 -19.7262,2.88761 -4.5409,1.37129 -8.7183,2.28611 -9.2831,2.03292 -0.5647,-0.25318 -2.9814,-2.58367 -5.3705,-5.17887 -6.2278,-6.76511 -8.8056,-13.68195 -8.5846,-23.03385 0.098,-4.15306 0.537,-8.07507 0.9751,-8.71557 0.4381,-0.64049 1.1358,-2.21262 1.5504,-3.49361 0.7171,-2.21583 0.6739,-2.25357 -0.8882,-0.77635 -1.3608,1.28693 -1.6477,1.33638 -1.6759,0.2889 -0.1012,-3.75545 9.568,-14.17379 17.5676,-18.92882 5.0844,-3.02218 12.2296,-5.93145 20.3521,-8.28662 7.9489,-2.30485 25.7918,-2.80866 36.084,-1.01886 16.9821,2.95313 30.2795,9.02213 38.6258,17.62895 5.8444,6.02678 7.5164,9.11302 2.8551,5.27012 -12.2702,-10.11584 -20.7035,-14.85838 -31.7557,-17.858 -6.4925,-1.76209 -9.2272,-1.48255 -3.3904,0.34657 8.9068,2.7912 19.5433,10.05709 24.2514,16.56638 5.4087,7.47807 7.1117,12.28124 7.0787,19.96581 -0.033,7.74683 -1.8622,12.88808 -7.0431,19.79712 -3.2381,4.31822 -14.2966,13.23013 -16.3298,13.16 -0.6071,-0.021 -2.7894,-0.93014 -4.8497,-2.02045 z m -25.9243,-29.42797 c 2.3463,-1.19215 3.0923,-3.80631 1.5596,-5.46504 -1.4228,-1.53965 -6.1517,-1.88911 -8.6165,-0.63675 -2.9143,1.48071 -2.9912,3.73056 -0.1968,5.75763 2.576,1.86863 4.11,1.94141 7.2537,0.34416 z m -17.4274,-6.55281 c 8.3183,-2.92104 12.8433,-10.1485 10.2638,-16.39381 -2.6188,-6.34052 -12.3843,-10.84817 -20.7821,-9.5928 -11.5845,1.73176 -17.5879,9.43768 -14.0621,18.04995 3.257,7.95594 14.3373,11.5336 24.5804,7.93666 z m 65.5913,-29.89488 c -14.6761,-7.2341 -29.3705,-10.4816 -47.3691,-10.4687 -13.3381,0.01 -19.7276,0.84346 -28.8218,3.76157 -2.884,0.9254 -5.4579,1.52711 -5.7198,1.33715 -0.9414,-0.68286 10.5367,-4.36634 17.1079,-5.49018 8.8104,-1.50682 28.2778,-1.48537 37.2119,0.041 8.7754,1.49924 25.4428,7.41341 29.456,10.45196 3.7243,2.81988 3.2859,2.90619 -1.8651,0.36719 z M 193.17335,477.3405 c 1.00934,1.18469 8.04504,1.08549 8.68404,-0.12244 0.28562,-0.53993 -1.17523,-4.03008 -3.24634,-7.75588 -4.83275,-8.69387 -9.46131,-21.08153 -12.8503,-34.39199 -1.47633,-5.79836 -2.68424,-10.6939 -2.68424,-10.87897 0,-0.18508 -1.08364,-0.34812 -2.40808,-0.36232 -3.98975,-0.0428 -7.28235,-2.5933 -16.83882,-13.04358 -1.69242,-1.85072 -4.39387,-6.04305 -6.00323,-9.31629 -1.60935,-3.27325 -3.74748,-6.65007 -4.75138,-7.50407 -1.00391,-0.85399 -2.15599,-2.60079 -2.56019,-3.88178 -0.40418,-1.28099 -1.27703,-3.72652 -1.93969,-5.43451 l -1.20481,-3.10543 -0.79707,3.49361 c -1.23419,5.40948 -1.09229,34.11162 0.20202,40.86189 3.379,17.62275 12.81663,33.92589 25.25766,43.63159 5.95264,4.64387 8.37996,5.95695 13.16963,7.12416 3.8633,0.94146 6.10572,1.15658 6.55533,0.62886 0.46114,-0.54125 0.92146,-0.52267 1.41547,0.0571 z M 675.167,474.704 c 10.5285,-3.49648 23.8654,-12.77401 33.0735,-23.00693 17.1833,-19.09586 22.1249,-46.49513 12.5726,-69.71046 -0.9538,-2.31814 -1.9195,-4.9127 -2.1459,-5.76569 -0.557,-2.09801 -2.6024,-3.56404 -2.6024,-1.86526 0,2.77194 -7.8092,19.73641 -13.0513,28.35243 -6.8247,11.2171 -11.4074,16.61187 -17.9636,21.14663 l -5.0509,3.49361 -2.3853,10.34857 c -3.4558,14.99328 -8.397,28.06769 -14.5468,38.49097 -0.7898,1.33865 -0.5275,1.43142 2.7167,0.96076 1.975,-0.28654 6.1976,-1.38662 9.3834,-2.44463 z M 190.23582,420.94338 c -0.2692,-0.74724 -0.48946,-0.13586 -0.48946,1.35863 0,1.49449 0.22026,2.10587 0.48946,1.35862 0.26919,-0.74724 0.26919,-1.97 0,-2.71725 z M 686.805,418.22767 c 11.6966,-9.20473 21.3292,-28.47359 27.8472,-55.70519 2.6857,-11.22094 2.8849,-13.63252 2.9491,-35.71244 0.038,-13.02339 -0.2744,-25.86381 -0.694,-28.53425 -2.3367,-14.87239 -10.5052,-39.32011 -18.8985,-56.56207 -7.5205,-15.44877 -7.7258,-15.69212 -16.563,-19.62939 -16.8921,-7.52599 -22.177,-10.05427 -36.5531,-17.48679 -15.2651,-7.89213 -21.9631,-11.65688 -32.9104,-18.49795 -3.3848,-2.11511 -6.154,-3.61128 -6.154,-3.32482 0,1.54652 11.0437,13.96351 22.8051,25.64077 23.3248,23.15793 36.1988,38.65487 45.7804,55.10768 4.9093,8.42978 12.8378,26.28455 14.1862,31.94684 4.4937,18.87008 5.151,23.05238 5.7185,36.38631 1.1071,26.01442 -3.8603,53.03437 -14.8073,80.54214 -2.6781,6.72969 -3.0645,8.56366 -2,9.49406 1.7172,1.50087 3.7464,0.70066 9.2938,-3.6649 z m -505.34747,-0.77789 c -0.31859,-1.38775 -1.04789,-4.42148 -1.62066,-6.74163 -2.16574,-8.77295 -0.75079,-44.66255 2.77205,-70.31185 1.26791,-9.23148 6.03358,-26.63818 10.68119,-39.01327 21.93724,-58.41176 74.51198,-99.84917 153.27775,-120.8077 34.96513,-9.30376 71.92221,-13.80967 134.57534,-16.40782 47.8276,-1.98335 61.5883,-2.64875 72.2424,-3.49323 13.9308,-1.10422 23.5457,-2.37217 23.5457,-3.10507 0,-0.33653 -0.9527,-2.13481 -2.117,-3.99618 -1.1951,-1.91051 -2.1273,-5.09164 -2.1405,-7.3049 -0.027,-4.41833 -1.3086,-5.78387 -5.4306,-5.78387 -1.5611,0 -4.4749,-0.85818 -6.4751,-1.90708 -7.6078,-3.98963 -16.8628,-6.19511 -42.1658,-10.04821 -27.8061,-4.23423 -40.0719,-5.23647 -69.56678,-5.68425 -20.81263,-0.31598 -30.67842,-0.11243 -44.41144,0.91631 -74.72758,5.59779 -142.4586,28.16841 -190.21457,63.38693 -13.68703,10.09375 -18.90935,14.99265 -28.33318,26.57855 -13.87594,17.05939 -22.43139,31.84631 -28.7306,49.65679 -4.03129,11.3982 -4.7426,14.08053 -7.96687,30.04338 -3.87967,19.20759 -4.49553,45.88826 -1.5542,67.33144 1.41252,10.29768 9.94179,34.18568 14.60763,40.91173 4.01068,5.7816 10.89814,13.61213 14.56231,16.55628 3.24588,2.60806 5.16333,2.2745 4.46293,-0.77635 z m 13.44374,-18.76149 c 5.41628,-12.99089 12.17926,-21.00176 27.14688,-32.15596 10.43469,-7.77615 17.42357,-11.62243 28.45458,-15.65975 17.33818,-6.34573 30.02281,-8.09995 54.73651,-7.56981 14.87313,0.31905 18.91939,0.6839 26.90471,2.426 36.69212,8.00479 65.5181,29.70269 74.76448,56.27674 l 2.52755,7.26419 5.35129,-0.46432 c 2.94321,-0.25536 13.13929,-0.46735 22.65793,-0.47106 l 17.30665,-0.007 0.69707,-2.52317 c 2.76976,-10.02564 10.52388,-22.62909 18.87653,-30.68169 4.91375,-4.73726 19.76265,-15.32355 26.26575,-18.72578 6.1405,-3.21247 19.8094,-8.07683 28.1785,-10.02785 12.5431,-2.92404 19.2201,-3.45306 38.7152,-3.06741 16.0677,0.31786 19.7994,0.64145 27.9493,2.42365 19.2856,4.21727 32.3499,10.22952 48.1102,22.14044 15.7933,11.93586 24.7672,24.54716 28.1793,39.60111 0.8122,3.58308 1.6747,6.65837 1.9168,6.83396 1.388,1.00688 5.1328,-5.97077 7.146,-13.31535 2.0161,-7.35463 2.1734,-9.23392 1.1699,-13.97001 -0.6376,-3.00973 -1.6936,-10.18861 -2.3466,-15.95306 -1.5659,-13.82388 -3.0341,-19.14383 -8.9989,-32.60701 -15.3101,-34.55655 -29.5189,-56.1579 -49.2639,-74.89476 -10.0766,-9.56217 -31.0081,-22.99444 -44.1941,-28.36054 -3.6723,-1.49449 -9.0016,-3.79635 -11.8428,-5.11524 l -5.1657,-2.39799 -7.928,1.08143 c -13.2032,1.80101 -51.5334,2.18871 -67.5843,0.68361 -29.45061,-2.7616 -63.84479,-11.34629 -82.98423,-20.71262 l -4.57733,-2.24002 -6.66038,1.50336 c -3.66318,0.82685 -13.25219,2.90022 -21.30888,4.60748 -21.66407,4.59076 -46.37819,12.47429 -62.45579,19.92269 -37.66855,17.45103 -69.70648,44.04383 -91.40128,75.86682 -12.18119,17.86794 -24.36842,45.18919 -28.38136,63.62512 -2.74034,12.58941 -1.8668,34.13563 1.78656,44.06664 l 1.28521,3.49361 1.33683,-7.69839 c 0.73527,-4.23412 2.36869,-10.17325 3.62982,-13.19808 z m 47.24134,-49.43377 c 1.15306,-2.55274 16.21419,-9.33299 27.08964,-12.19528 11.85813,-3.12091 41.24114,-3.94128 53.74531,-1.50055 7.7338,1.50959 20.6029,6.03013 22.83971,8.02292 1.39193,1.24009 1.34226,1.32048 -0.50496,0.81727 -18.36158,-5.00193 -24.87965,-6.06809 -39.73517,-6.49942 -22.73579,-0.66013 -35.30654,1.33416 -53.88284,8.54828 -5.69917,2.21327 -9.83219,3.42777 -9.55169,2.80678 z m 360.65129,-7.31407 c -15.1946,-5.71871 -25.2729,-7.36683 -45.0484,-7.36683 -16.6383,0 -24.4716,0.96179 -38.8629,4.77166 -9.3521,2.47584 -9.8498,1.59972 -1.184,-2.0842 10.2903,-4.37447 18.9824,-5.94219 35.2974,-6.36625 22.9288,-0.59597 35.481,1.45104 51.2719,8.36138 8.9048,3.89685 13.9104,7.01328 11.091,6.90505 -0.827,-0.0317 -6.4813,-1.93111 -12.565,-4.22081 z m 85.9847,-4.93225 c -1.3057,-28.82311 -11.1365,-57.57195 -28.0355,-81.98627 -7.8472,-11.33713 -15.1817,-20.0418 -28.9112,-34.31241 -18.9562,-19.70337 -26.2766,-28.00071 -31.9644,-36.23029 -3.1967,-4.62504 -5.8121,-8.89305 -5.8121,-9.48447 0,-0.59141 -2.0708,-2.76661 -4.6017,-4.83378 -2.531,-2.06718 -5.7008,-5.04841 -7.044,-6.62496 -1.3432,-1.57655 -2.9444,-2.86646 -3.5583,-2.86646 -0.6138,0 -6.9559,0.85272 -14.0936,1.89492 -13.1916,1.92618 -40.464,4.28921 -67.5607,5.85383 -13.094,0.75607 -33.88265,2.1578 -52.97774,3.57216 -25.07617,1.85738 -65.41462,7.09463 -67.76254,8.79779 -1.12626,0.81699 2.13271,5.13694 6.94951,9.21197 16.49628,13.95593 46.579,25.16371 86.7558,32.32221 23.49117,4.18553 58.94127,5.58768 78.40737,3.10122 5.2977,-0.6767 11.0042,-1.34168 12.6811,-1.47773 8.8604,-0.71886 37.2818,-6.75414 46.3208,-9.8362 2.6184,-0.89281 5.059,-1.40697 5.4234,-1.14258 1.5794,1.14568 -21.6497,7.81671 -46.6775,13.40502 -2.374,0.53008 -0.3745,1.46966 10.1497,4.76923 10.7399,3.36723 22.2593,8.74071 32.0369,14.94438 25.5705,16.22387 48.2663,44.50838 64.1508,79.94791 2.2009,4.91046 4.6728,10.01619 5.4929,11.34606 2.035,3.29969 6.5467,17.02638 7.4155,22.56156 0.3904,2.48714 1.018,5.22079 1.3945,6.07478 1.2804,2.90356 2.4341,-15.47494 1.821,-29.00789 z m -496.16105,-3.87515 c 7.48568,-16.07881 18.27753,-33.27746 27.35079,-43.58816 10.50787,-11.94096 13.70011,-15.25016 20.96969,-21.73801 8.42802,-7.52173 30.4117,-23.55446 40.06704,-29.22097 26.87844,-15.77434 63.41163,-27.80273 98.59588,-32.46227 13.6274,-1.8047 13.31142,-1.5201 6.54495,-5.89483 -6.14831,-3.97509 -15.34397,-12.25616 -16.9039,-15.22267 -1.3704,-2.60608 -2.30439,-2.6704 -10.75322,-0.74052 -28.00944,6.39792 -60.27785,19.15491 -83.37012,32.95953 -45.23249,27.04009 -73.42906,65.56843 -86.7001,118.46867 -3.35436,13.37094 -3.16422,13.25499 4.19899,-2.56077 z m -31.11012,-93.08454 c 1.10827,-1.59926 2.32669,-4.15562 2.7076,-5.68079 0.66458,-2.66097 9.63642,-14.60726 18.32437,-24.39947 14.50078,-16.34385 39.54103,-35.82801 60.74366,-47.26545 45.2887,-24.43031 97.21535,-39.31916 154.91522,-44.41863 30.50098,-2.69566 68.0301,-2.21052 97.25722,1.25725 13.1523,1.56051 47.0723,7.21088 51.3793,8.55874 1.4005,0.43829 2.7896,0.6205 3.0868,0.40491 0.2971,-0.21558 -0.4849,-2.41217 -1.738,-4.8813 -1.253,-2.46913 -2.6623,-5.88678 -3.1317,-7.59476 -1.0471,-3.81003 -2.307,-4.30169 -19.1961,-7.49087 -15.5235,-2.93131 -35.9835,-3.72837 -58.09078,-2.26306 -12.91801,0.85622 -15.12868,0.81819 -20.87002,-0.35904 -9.67573,-1.98394 -45.77112,-2.45053 -65.28571,-0.84392 -40.7122,3.3518 -76.31962,12.9103 -113.93416,30.58465 -6.74282,3.16832 -14.44867,7.03352 -17.12411,8.58934 -38.23233,22.23272 -64.10909,44.47217 -79.58888,68.40165 -8.91919,13.78773 -20.41886,39.64424 -21.59953,48.56552 -0.56997,4.30685 -0.21636,3.8012 4.75702,-6.80216 2.95502,-6.30017 6.27953,-12.76334 7.3878,-14.36261 z m 688.51297,15.78513 c 10.4453,-1.46865 13.9295,-2.63663 19.6376,-6.5829 4.8844,-3.37681 10.4593,-10.84457 13.677,-18.32084 2.5594,-5.9471 4.3982,-25.94161 3.6292,-39.46207 -1.6726,-29.40293 -16.6379,-51.19754 -42.7891,-62.31549 -19.0404,-8.09482 -45.1081,-12.48165 -76.7379,-12.9139 -47.9677,-0.65552 -95.7194,4.15465 -164.2846,16.54884 -23.1781,4.18979 -22.128,3.80009 -24.445,9.07158 -1.9352,4.40272 -1.9314,4.49399 0.3707,8.94901 1.2792,2.47551 3.2459,4.91773 4.3705,5.42717 1.1245,0.50943 2.0599,1.45357 2.0786,2.09811 0.05,1.71206 2.8546,4.12517 4.1302,3.5533 0.6027,-0.27022 1.9102,0.65554 2.9055,2.05724 3.0996,4.36538 6.6854,7.30792 17.3363,14.22618 18.429,11.97061 61.2816,34.37224 74.0577,38.71439 2.0602,0.70022 7.1172,2.83093 11.2377,4.73492 9.7318,4.4969 40.6435,15.63967 55.6534,20.06147 28.1353,8.28844 52.2814,12.91389 74.9861,14.3644 15.5311,0.99222 15.632,0.99133 24.1861,-0.21141 z M 579.7833,132.26033 c 1.6689,-0.28774 8.8138,-1.71845 15.8775,-3.17936 22.2869,-4.60937 40.0797,-7.79709 59.4026,-10.64252 30.1114,-4.43408 74.4911,-8.23212 96.1915,-8.23212 h 8.0058 l 4.7365,-3.6877 c 18.9793,-14.77656 24.76,-27.24317 19.5295,-42.1174 -5.242,-14.90669 -19.3748,-26.86812 -44.1441,-37.36168 -7.6484,-3.24025 -28.2203,-9.96151 -30.5566,-9.98343 -0.7438,-0.007 -2.1886,-0.35212 -3.2107,-0.76698 C 699.5499,13.82736 668.351,8.86832 651.3544,7.66444 638.358,6.74389 587.4831,7.02271 584.4231,8.03126 581.8624,8.87524 576.475,15.2007 570.4658,24.41883 553.9983,49.68024 548.053,67.6116 548.0407,92.05432 c -0.01,13.97869 1.6371,22.60745 6.1793,32.42962 2.796,6.04602 3.1239,6.37962 8.2628,8.4067 2.9432,1.16098 6.1941,1.92349 7.2243,1.6945 1.2783,-0.28419 1.8729,0.006 1.8729,0.91386 0,1.06482 0.5156,0.92663 2.5844,-0.69265 1.4215,-1.11257 3.9499,-2.25828 5.6189,-2.54602 z"
     id="path4467"
     inkscape:connector-curvature="0" />
</svg>
