<?xml version="1.0" encoding="UTF-8" standalone="no"?>
<!-- Created with Inkscape (http://www.inkscape.org/) -->

<svg
   xmlns:dc="http://purl.org/dc/elements/1.1/"
   xmlns:cc="http://creativecommons.org/ns#"
   xmlns:rdf="http://www.w3.org/1999/02/22-rdf-syntax-ns#"
   xmlns:svg="http://www.w3.org/2000/svg"
   xmlns="http://www.w3.org/2000/svg"
   xmlns:sodipodi="http://sodipodi.sourceforge.net/DTD/sodipodi-0.dtd"
   xmlns:inkscape="http://www.inkscape.org/namespaces/inkscape"
   width="297mm"
   height="210mm"
   viewBox="0 0 296.99998 210"
   version="1.1"
   id="svg8"
   inkscape:version="0.92.4 (unknown)"
   sodipodi:docname="heimat1.svg">
  <defs
     id="defs2" />
  <sodipodi:namedview
     id="base"
     pagecolor="#ffffff"
     bordercolor="#666666"
     borderopacity="1.0"
     inkscape:pageopacity="0.0"
     inkscape:pageshadow="2"
     inkscape:zoom="1.151487"
     inkscape:cx="445.16539"
     inkscape:cy="706.51995"
     inkscape:document-units="px"
     inkscape:current-layer="layer1"
     showgrid="false"
     units="mm"
     inkscape:window-width="1855"
     inkscape:window-height="1056"
     inkscape:window-x="65"
     inkscape:window-y="24"
     inkscape:window-maximized="1" />
  <metadata
     id="metadata5">
    <rdf:RDF>
      <cc:Work
         rdf:about="">
        <dc:format>image/svg+xml</dc:format>
        <dc:type
           rdf:resource="http://purl.org/dc/dcmitype/StillImage" />
        <dc:title></dc:title>
      </cc:Work>
    </rdf:RDF>
  </metadata>
  <g
     inkscape:label="Layer 1"
     inkscape:groupmode="layer"
     id="layer1"
     transform="translate(0,-86.999992)">
    <g
       aria-label="黑马程序员"
       transform="matrix(0.86662602,0,0,1.2084298,-27.316249,41.566278)"
       style="font-style:normal;font-weight:normal;font-size:40px;line-height:125%;font-family:Sans;letter-spacing:0px;word-spacing:0px;fill:#000000;fill-opacity:1;stroke:none;stroke-width:0.25854483px;stroke-linecap:butt;stroke-linejoin:miter;stroke-opacity:1"
       id="flowRoot4090">
      <path
         d="m 43.9375,46.255837 h 27.96875 v 14.21875 h -12.5 v 3.125 h 12.8125 v 2.8125 h -12.8125 v 3.28125 H 75.1875 v 2.8125 h -34.375 v -2.8125 h 15.625 v -3.28125 H 43.625 v -2.8125 h 12.8125 v -3.125 h -12.5 z m 3.125,11.5625 h 9.375 v -8.90625 h -9.375 z m 5,-7.5 q 1.40625,2.34375 2.1875,5.15625 l -2.8125,0.9375 q -0.78125,-2.96875 -2.34375,-5.15625 z m 7.34375,-1.40625 v 8.90625 h 9.375 v -8.90625 z m 4.53125,1.25 2.8125,1.09375 q -1.25,3.125 -2.8125,5.3125 l -2.65625,-1.40625 q 1.71875,-2.5 2.65625,-5 z m -19.375,22.8125 2.8125,1.71875 q -2.34375,4.0625 -4.84375,6.5625 L 39.875,78.912087 q 2.96875,-2.8125 4.6875,-5.9375 z m 26.5625,0 q 2.34375,2.5 4.6875,5.625 l -2.5,2.65625 q -2.03125,-3.28125 -4.84375,-6.40625 z m -17.65625,0.3125 q 1.5625,2.8125 2.65625,6.25 l -3.28125,1.40625 q -0.9375,-3.59375 -2.34375,-6.25 z m 9.21875,0 q 1.875,2.8125 3.125,6.09375 l -3.125,1.40625 q -1.25,-3.4375 -2.96875,-6.09375 z"
         id="path5089"
         inkscape:connector-curvature="0"
         style="stroke-width:0.25854483px" />
      <path
         d="m 84.71875,46.099587 h 24.6875 l -1.71875,16.25 h 6.875 q -0.625,12.96875 -2.03125,15.625 -1.40625,2.8125 -4.84375,2.8125 -1.71875,0 -4.21875,-0.15625 l -0.625,-3.28125 q 3.125,0.15625 4.84375,0.15625 1.40625,0 2.03125,-1.875 0.78125,-2.03125 1.09375,-10.3125 H 87.84375 l 1.25,-14.0625 3.28125,0.3125 -0.9375,10.78125 h 13.125 l 1.25,-13.28125 H 84.71875 Z m -2.5,24.375 h 24.0625 v 2.96875 h -24.0625 z"
         id="path5091"
         inkscape:connector-curvature="0"
         style="stroke-width:0.25854483px" />
      <path
         d="m 132.6875,45.474587 1.40625,2.65625 q -2.34375,0.625 -5,1.09375 v 6.5625 h 5.78125 v 2.8125 h -5.78125 v 1.09375 q 2.65625,2.8125 4.53125,5.46875 l -2.03125,2.8125 q -1.25,-2.34375 -2.5,-4.21875 v 17.34375 h -2.8125 v -14.84375 q -1.875,4.6875 -4.21875,7.65625 l -2.34375,-2.34375 q 4.6875,-5.46875 6.25,-12.96875 H 120.5 v -2.8125 h 5.78125 v -5.9375 q -2.34375,0.46875 -4.6875,0.78125 L 120.5,47.662087 q 6.5625,-0.78125 12.1875,-2.1875 z m 3.90625,0.9375 h 17.34375 v 12.03125 h -17.34375 z m 2.96875,9.21875 h 11.40625 v -6.40625 H 139.5625 Z m -3.125,13.75 h 7.34375 v -4.6875 h -8.125 v -2.8125 h 19.375 v 2.8125 h -8.125 v 4.6875 h 7.03125 v 2.8125 h -7.03125 v 4.84375 h 8.90625 v 2.8125 h -21.25 v -2.8125 h 9.21875 v -4.84375 h -7.34375 z"
         id="path5093"
         inkscape:connector-curvature="0"
         style="stroke-width:0.25854483px" />
      <path
         d="m 179.5625,45.005837 q 0.9375,1.40625 1.5625,3.28125 h 13.90625 v 2.8125 h -28.4375 v 12.1875 q 0,10 -4.0625,17.8125 l -2.96875,-1.875 q 2.1875,-4.53125 2.96875,-8.125 0.9375,-3.75 0.9375,-8.90625 v -13.90625 h 14.21875 q -0.46875,-1.25 -1.25,-2.34375 z m -9.53125,9.0625 h 22.03125 v 2.8125 q -3.90625,3.4375 -8.90625,5.9375 0.46875,0.3125 0.78125,0.78125 h 10.625 v 2.65625 q -1.25,3.4375 -2.96875,6.5625 l -3.28125,-0.9375 q 1.5625,-2.8125 2.5,-5.46875 h -8.4375 v 10.46875 q 0,2.34375 -0.9375,3.28125 -0.78125,0.9375 -3.125,0.9375 -2.34375,0 -4.375,-0.46875 l -0.625,-3.28125 q 2.1875,0.625 4.53125,0.625 1.40625,0 1.40625,-1.875 v -9.6875 h -10.9375 v -2.8125 h 11.5625 q -2.34375,-1.71875 -5.15625,-3.4375 l 2.1875,-1.5625 q 1.71875,1.09375 3.4375,2.03125 3.59375,-1.5625 6.71875,-3.59375 h -17.03125 z"
         id="path5095"
         inkscape:connector-curvature="0"
         style="stroke-width:0.25854483px" />
      <path
         d="m 205.96875,46.099587 h 23.59375 v 9.6875 h -23.59375 z m 3.125,6.71875 h 17.34375 v -3.75 h -17.34375 z m 22.5,5.625 v 14.84375 h -3.125 v -11.875 H 207.0625 v 12.03125 h -3.125 v -15 z m -15.78125,4.84375 h 3.125 v 5.9375 q 0,4.0625 -3.59375,7.1875 -3.59375,3.125 -12.65625,5 l -2.1875,-2.8125 q 8.75,-1.71875 11.875,-4.21875 3.28125,-2.5 3.28125,-6.25 0.15625,-0.15625 0.15625,-4.84375 z m 7.1875,8.4375 q 6.09375,3.125 12.03125,7.34375 l -2.5,2.5 q -5.15625,-4.0625 -12.1875,-7.96875 z"
         id="path5097"
         inkscape:connector-curvature="0"
         style="stroke-width:0.25854483px" />
    </g>
  </g>
</svg>
