<?xml version="1.0" encoding="UTF-8" standalone="no"?>
<!-- Created with Inkscape (http://www.inkscape.org/) -->

<svg
   xmlns:dc="http://purl.org/dc/elements/1.1/"
   xmlns:cc="http://creativecommons.org/ns#"
   xmlns:rdf="http://www.w3.org/1999/02/22-rdf-syntax-ns#"
   xmlns:svg="http://www.w3.org/2000/svg"
   xmlns="http://www.w3.org/2000/svg"
   xmlns:sodipodi="http://sodipodi.sourceforge.net/DTD/sodipodi-0.dtd"
   xmlns:inkscape="http://www.inkscape.org/namespaces/inkscape"
   width="1920"
   height="1080"
   viewBox="0 0 1920 1080"
   version="1.1"
   id="svg6148"
   inkscape:version="0.92.4 (unknown)"
   sodipodi:docname="girl7.svg">
  <defs
     id="defs6142" />
  <sodipodi:namedview
     id="base"
     pagecolor="#ffffff"
     bordercolor="#666666"
     borderopacity="1.0"
     inkscape:pageopacity="0.0"
     inkscape:pageshadow="2"
     inkscape:zoom="1"
     inkscape:cx="157.35723"
     inkscape:cy="690.98519"
     inkscape:document-units="px"
     inkscape:current-layer="layer1"
     showgrid="false"
     width="1920mm"
     units="px"
     inkscape:window-width="1855"
     inkscape:window-height="1056"
     inkscape:window-x="65"
     inkscape:window-y="24"
     inkscape:window-maximized="1" />
  <metadata
     id="metadata6145">
    <rdf:RDF>
      <cc:Work
         rdf:about="">
        <dc:format>image/svg+xml</dc:format>
        <dc:type
           rdf:resource="http://purl.org/dc/dcmitype/StillImage" />
        <dc:title></dc:title>
      </cc:Work>
    </rdf:RDF>
  </metadata>
  <g
     inkscape:label="Layer 1"
     inkscape:groupmode="layer"
     id="layer1"
     transform="translate(0,-11.249951)">
    <path
       style="fill:#000000;stroke-width:1"
       d="m 413.88461,851.13893 c 0.37531,-10.02181 0.78331,-10.7584 0.92735,-1.67426 0.0714,4.51073 -0.16297,8.20155 -0.52087,8.20186 -0.35802,2.8e-4 -0.54092,-2.93713 -0.40648,-6.5276 z m 83.2901,5.10662 c -1.79001,-0.70928 -3.25459,-1.44359 -3.25459,-1.63185 0,-0.18822 0.85592,0.0113 1.90207,0.44294 1.04616,0.43191 2.88561,0.98818 4.08773,1.23623 1.20211,0.24805 1.81074,0.62894 1.35251,0.84651 -0.45822,0.21758 -2.29768,-0.18456 -4.08772,-0.89383 z m 8.4634,0.75276 c -0.29584,-0.36923 -0.18036,-0.67129 0.25642,-0.67129 1.49007,0 8.97167,-4.81369 9.72729,-6.25852 0.67385,-1.28861 0.75919,-1.30608 0.80839,-0.16537 0.0956,2.2165 -9.59607,8.58818 -10.79216,7.09527 z m 20.17702,-0.75276 c -1.79001,-0.70928 -3.25459,-1.44359 -3.25459,-1.63185 0,-0.18822 0.85592,0.0113 1.90207,0.44294 1.04615,0.43191 2.88561,0.98818 4.08772,1.23623 1.20212,0.24805 1.81075,0.62894 1.35252,0.84651 -0.45823,0.21758 -2.29769,-0.18456 -4.08772,-0.89383 z m -185.29487,-0.24721 c -1.55131,-0.52015 -2.82063,-1.12149 -2.82063,-1.33632 0,-0.21476 0.81488,-0.0542 1.81089,0.35698 0.99599,0.41119 4.31648,0.64773 7.37889,0.52568 5.87384,-0.23423 7.42497,0.32786 2.8522,1.03335 -3.96631,0.61192 -6.05979,0.4803 -9.22135,-0.57969 z m 139.6172,-0.91715 c 2.15327,-1.05339 4.75592,-2.78572 5.78373,-3.84961 1.0599,-1.09711 1.88059,-1.5199 1.8962,-0.97686 0.0404,1.40487 -7.72523,6.74176 -9.80974,6.74176 -1.30533,0 -0.73286,-0.51485 2.12981,-1.91529 z m -112.06161,0.61672 c 0,-0.34598 1.46458,-0.72257 3.25459,-0.83686 l 3.25462,-0.2077 0.47371,-8.70346 0.47372,-8.70347 0.17726,8.84728 c 0.16297,8.1392 0.0428,8.90278 -1.50153,9.54032 -2.09587,0.86528 -6.13231,0.90738 -6.13231,0.0643 z m 23.43309,-0.0401 c 0,-0.40913 4.05016,-0.66949 10.41468,-0.66949 6.36454,0 10.41471,0.26047 10.41471,0.66949 0,0.40913 -4.05017,0.66949 -10.41471,0.66949 -6.36452,0 -10.41468,-0.26047 -10.41468,-0.66949 z m 26.90461,0 c 0,-0.41757 5.06273,-0.66949 13.45234,-0.66949 8.38961,0 13.4523,0.252 13.4523,0.66949 0,0.41757 -5.06269,0.66949 -13.4523,0.66949 -8.38961,0 -13.45234,-0.25201 -13.45234,-0.66949 z m 40.35698,0 c -0.33825,-0.4222 1.72593,-0.66949 5.58757,-0.66949 6.07032,0 6.13508,-0.0197 7.39232,-2.17587 l 1.26833,-2.17586 -0.50206,2.00849 c -0.27628,1.10467 -1.11569,2.38506 -1.86566,2.84536 -1.62076,0.99466 -11.1106,1.12837 -11.8805,0.16734 z m -66.08083,-8.03398 c 0,-3.4981 0.14621,-4.92916 0.32505,-3.1801 0.17881,1.74907 0.17881,4.61116 0,6.36023 -0.17881,1.74907 -0.32505,0.31801 -0.32505,-3.18013 z m 4.36767,4.96648 c 0.28963,-0.58246 0.5268,-1.18501 0.5268,-1.33901 0,-0.15408 2.14802,-0.27994 4.7734,-0.27994 2.62538,0 4.7734,0.30128 4.7734,0.66949 0,0.36824 -1.95276,0.66949 -4.33945,0.66949 -2.38672,0 -4.33945,0.30127 -4.33945,0.66951 0,0.36822 -0.43234,0.66949 -0.96075,0.66949 -0.52842,0 -0.72368,-0.47655 -0.43395,-1.059 z m 11.60368,-3.79484 c 0.44485,-7.5771 0.82615,-8.1115 0.95542,-1.33901 0.0649,3.40608 -0.1875,6.19285 -0.56111,6.19285 -0.3736,0 -0.55104,-2.18421 -0.39431,-4.85384 z m -66.90595,3.34747 c -1.27699,-0.72032 -0.99562,-0.83686 2.01978,-0.83686 3.01544,0 3.29678,0.11654 2.01979,0.83686 -0.81603,0.46029 -1.72491,0.83689 -2.01979,0.83689 -0.29491,0 -1.20375,-0.3766 -2.01978,-0.83689 z m 7.66109,0.16706 c -0.29988,-0.37431 0.36966,-0.66949 1.51869,-0.66949 2.851,0 5.14735,-1.45555 6.48338,-4.10952 l 1.13307,-2.2507 -0.44416,2.34323 c -0.68845,3.6321 -6.86664,6.96357 -8.69098,4.68648 z m 83.02254,-1.84112 -0.13877,-2.84536 h 5.20733 c 2.89296,0 5.20735,0.29753 5.20735,0.66949 0,0.36824 -2.12328,0.66949 -4.71839,0.66949 -4.67295,0 -4.72181,0.0197 -5.06847,2.17587 -0.30329,1.88618 -0.36854,1.79701 -0.48893,-0.66949 z m 26.01603,0.66949 c -0.11734,-2.16125 -0.0907,-2.17593 4.00431,-2.18324 2.26736,-0.006 5.58704,-0.19415 7.37708,-0.42231 1.79001,-0.22829 3.25378,-0.14956 3.25285,0.17469 -8.7e-4,0.3243 -1.46555,0.6565 -3.25459,0.73826 -8.19696,0.3743 -10.51054,0.88348 -10.89122,2.39679 -0.25735,1.02247 -0.40632,0.80749 -0.48843,-0.70425 z m -96.45414,-0.4829 c 0.71601,-0.66153 2.35993,-2.89477 3.65315,-4.96272 1.29323,-2.06801 2.35059,-3.30805 2.34965,-2.7557 -0.003,1.62848 -4.64119,8.24198 -6.02884,8.59586 -1.1047,0.28163 -1.10123,0.16396 0.0248,-0.87744 z m 24.74364,0.30463 c 0.29988,-0.37425 0.90873,-0.50708 1.35308,-0.29526 1.20379,0.5739 0.97934,0.97567 -0.54515,0.97567 -0.74417,0 -1.10774,-0.30616 -0.80793,-0.68041 z m 61.17761,-0.65859 c 0,-0.37138 2.02895,-0.63422 4.55644,-0.59031 3.8947,0.0677 4.17831,0.15352 1.95274,0.59031 -3.85661,0.75699 -6.50918,0.75699 -6.50918,0 z m -50.23703,-2.17587 c -0.0841,-1.53824 0.2561,-1.84112 2.06905,-1.84112 1.19336,0 2.16973,0.30127 2.16973,0.66951 0,0.36822 -0.75246,0.66949 -1.67214,0.66949 -0.91968,0 -1.85076,0.52724 -2.06905,1.17161 -0.24431,0.72085 -0.43566,0.46323 -0.49759,-0.66949 z m 6.07526,0 c -0.0776,-1.42067 0.29584,-1.84112 1.6351,-1.84112 0.95467,0 1.73577,0.30127 1.73577,0.66951 0,0.36822 -0.55719,0.66949 -1.23821,0.66949 -0.681,0 -1.41681,0.52724 -1.63507,1.17161 -0.24431,0.72085 -0.43566,0.46323 -0.49759,-0.66949 z m -68.26987,-1.78313 c 0.44121,-3.7623 2.76243,-6.17338 7.06146,-7.33494 2.91833,-0.78846 3.81784,-0.77749 6.43055,0.0784 l 3.03763,0.99515 -3.97867,-0.32041 c -4.06994,-0.32772 -8.08412,0.7432 -10.21725,2.72593 -0.57811,0.53733 -1.41764,2.28953 -1.86565,3.89378 l -0.81458,2.91675 z m 13.66122,0.94627 c 0.0186,-1.10467 0.21203,-1.47551 0.43222,-0.82416 0.22009,0.65142 0.2055,1.55525 -0.0323,2.00849 -0.23779,0.45333 -0.41775,-0.0796 -0.40005,-1.18433 z m 72.73368,1.00423 c 0,-0.36821 1.95277,-0.66949 4.33945,-0.66949 2.38672,0 4.33945,0.30128 4.33945,0.66949 0,0.36824 -1.95273,0.66949 -4.33945,0.66949 -2.38668,0 -4.33945,-0.30125 -4.33945,-0.66949 z m -80.26532,-2.00849 c 0.46028,-2.43637 2.62873,-4.28398 4.1671,-3.55054 0.48977,0.23366 0.059,0.66026 -0.96029,0.95109 -1.02461,0.29244 -2.25006,1.51166 -2.74911,2.73516 l -0.90041,2.20753 z m 134.94248,1.339 c 0,-0.36824 2.14802,-0.66949 4.7734,-0.66949 2.62537,0 4.7734,0.30125 4.7734,0.66949 0,0.36822 -2.14803,0.66949 -4.7734,0.66949 -2.62538,0 -4.7734,-0.30127 -4.7734,-0.66949 z m 13.01838,0 c 0,-0.38255 2.60368,-0.66949 6.07523,-0.66949 3.47158,0 6.07525,0.28694 6.07525,0.66949 0,0.38255 -2.60367,0.66949 -6.07525,0.66949 -3.47155,0 -6.07523,-0.28694 -6.07523,-0.66949 z m 15.62203,0 c 0,-0.36824 2.14803,-0.66949 4.7734,-0.66949 2.62538,0 4.77341,0.30125 4.77341,0.66949 0,0.36822 -2.14803,0.66949 -4.77341,0.66949 -2.62537,0 -4.7734,-0.30127 -4.7734,-0.66949 z m 13.45234,0 c -0.33825,-0.42219 1.72677,-0.66949 5.59005,-0.66949 3.50573,0 6.12648,0.28641 6.12648,0.66949 0,0.37705 -2.44194,0.66949 -5.59008,0.66949 -3.07454,0 -5.83145,-0.30127 -6.12645,-0.66949 z m -60.02219,-1.67375 c 0.13721,-2.00366 0.15118,-2.00874 5.77895,-2.10884 l 5.64131,-0.10018 -5.373,0.65563 c -4.45711,0.54391 -5.4422,0.90335 -5.77895,2.10885 -0.25021,0.89592 -0.35321,0.68303 -0.26821,-0.55534 z m -37.84441,-2.34323 c 2.07163,-2.44085 2.60511,-2.67799 6.02425,-2.67799 2.06325,0 3.75134,0.30128 3.75134,0.66949 0,0.36821 -1.48873,0.66949 -3.30835,0.66949 -2.66958,0 -3.68,0.3878 -5.23331,2.00849 -2.85782,2.98183 -3.86778,2.43383 -1.23393,-0.66948 z m 11.65029,0.16734 -0.13877,-2.84535 h 5.64128 c 3.18229,0 5.6413,0.29182 5.6413,0.66948 0,0.37118 -2.29604,0.66949 -5.15237,0.66949 h -5.15235 l -0.35004,2.17587 c -0.30329,1.88619 -0.36854,1.79701 -0.48893,-0.66949 z m 16.80145,1.19218 c -0.34977,-0.43659 0.95389,-0.69006 3.54853,-0.69006 4.7017,0 4.76276,0.29893 0.19123,0.93596 -1.88773,0.26301 -3.41229,0.16283 -3.73976,-0.24579 z m 39.60263,-1.52692 -0.13007,-2.51061 h 5.6413 c 3.18226,0 5.64128,0.29182 5.64128,0.66948 0,0.3711 -2.29514,0.66949 -5.14968,0.66949 -4.95162,0 -5.16361,0.0708 -5.51126,1.84112 -0.29088,1.48101 -0.38699,1.34999 -0.4916,-0.66948 z m 28.64041,0 -0.13007,-2.51061 h 5.64131 c 3.18226,0 5.6413,0.29182 5.6413,0.66948 0,0.3711 -2.29517,0.66949 -5.1497,0.66949 -4.95162,0 -5.16362,0.0708 -5.51127,1.84112 -0.29087,1.48101 -0.38698,1.34999 -0.4916,-0.66948 z m -119.79838,0 c -0.0841,-1.53824 0.2561,-1.84113 2.06905,-1.84113 1.19336,0 2.16973,0.30128 2.16973,0.66949 0,0.36824 -0.75246,0.66952 -1.67214,0.66952 -0.91968,0 -1.85076,0.52723 -2.06905,1.1716 -0.24431,0.72085 -0.43566,0.46323 -0.49759,-0.66948 z m 6.07526,0 c -0.0776,-1.42068 0.29584,-1.84113 1.6351,-1.84113 0.95467,0 1.73577,0.30128 1.73577,0.66949 0,0.36824 -0.55719,0.66952 -1.23821,0.66952 -0.681,0 -1.41681,0.52723 -1.63507,1.1716 -0.24431,0.72085 -0.43566,0.46323 -0.49759,-0.66948 z m 44.52485,-1.39376 c 0.27753,-0.67454 0.50482,-1.50302 0.50482,-1.84112 0,-0.33917 4.6686,-0.61474 10.41468,-0.61474 6.36455,0 10.41471,0.26047 10.41471,0.66949 0,0.40625 -3.80129,0.66952 -9.66809,0.66952 -8.15241,0 -9.86429,0.18371 -10.9195,1.1716 -1.18439,1.1089 -1.22437,1.10597 -0.74662,-0.055 z m 22.26311,0.38949 c 0.0335,-0.27627 0.39664,-1.10466 0.80687,-1.84109 0.66097,-1.18656 0.75286,-1.12933 0.80691,0.50212 0.0335,1.01261 -0.32956,1.84112 -0.80691,1.84112 -0.47732,0 -0.84043,-0.22604 -0.80687,-0.50215 z m 7.75,-0.83686 c 0,-0.36821 1.95277,-0.66948 4.33948,-0.66948 2.38669,0 4.33945,0.30127 4.33945,0.66948 0,0.36822 -1.95276,0.66949 -4.33945,0.66949 -2.38671,0 -4.33948,-0.30127 -4.33948,-0.66949 z m 28.64045,0 c 0,-0.36821 1.95273,-0.66948 4.33945,-0.66948 2.38668,0 4.33945,0.30127 4.33945,0.66948 0,0.36822 -1.95277,0.66949 -4.33945,0.66949 -2.38672,0 -4.33945,-0.30127 -4.33945,-0.66949 z m -117.16537,-2.67798 c 0,-0.41757 5.06269,-0.66949 13.45233,-0.66949 8.38961,0 13.45231,0.25201 13.45231,0.66949 0,0.41757 -5.0627,0.66949 -13.45231,0.66949 -8.38964,0 -13.45233,-0.252 -13.45233,-0.66949 z m 42.66372,-0.66949 c 0,-0.92056 0.19713,-1.29715 0.43774,-0.83689 0.2409,0.4603 0.2409,1.21346 0,1.67375 -0.24089,0.46027 -0.43774,0.0838 -0.43774,-0.83686 z m 56.41293,0 c 0,-0.92056 0.19713,-1.29715 0.43777,-0.83689 0.2409,0.4603 0.2409,1.21346 0,1.67375 -0.24089,0.46027 -0.43777,0.0838 -0.43777,-0.83686 z m 28.64042,0 c 0,-0.92056 0.19712,-1.29715 0.43777,-0.83689 0.24089,0.4603 0.24089,1.21346 0,1.67375 -0.2409,0.46027 -0.43777,0.0838 -0.43777,-0.83686 z M 408.31874,827.87838 c -2.92677,-0.49102 -6.63701,-1.4336 -8.24498,-2.09459 -1.60794,-0.66099 -3.23069,-1.21441 -3.60612,-1.22988 -4.13193,-0.16988 -2.54808,-13.44395 2.53889,-21.27782 l 2.93013,-4.51241 -0.48943,-7.53852 c -0.26914,-4.14627 -0.7103,-8.29179 -0.98025,-9.21236 -0.27007,-0.92056 -0.63846,-2.57757 -0.81885,-3.68224 -0.52044,-3.18673 -0.80349,-3.42347 -5.23955,-4.38111 -3.98875,-0.86113 -7.14717,-2.78299 -7.21022,-4.38729 -0.0155,-0.40396 -1.81729,-4.32054 -4.0031,-8.70346 -3.68137,-7.38181 -6.63577,-13.97911 -10.76422,-24.03696 -2.72701,-6.6437 -7.64896,-25.07543 -8.22384,-30.79687 -0.71424,-7.10839 -2.19453,-11.0732 -4.3763,-11.72147 -6.56714,-1.95134 -14.32024,-14.50386 -14.32024,-23.18486 v -2.82391 l -4.83338,-0.46585 c -4.46307,-0.43016 -4.93591,-0.34408 -6.17168,1.12346 -2.04127,2.42406 -23.46184,18.31818 -29.35149,21.77884 -8.11832,4.7702 -16.05042,7.59456 -21.3289,7.59456 -3.9614,0 -4.79438,-0.26724 -7.6157,-2.44446 -3.08171,-2.37806 -3.32863,-2.44049 -9.08653,-2.29682 -9.0386,0.22548 -12.02852,-2.0362 -9.14517,-6.91785 0.97652,-1.65329 6.76267,-5.07828 8.57922,-5.07828 2.29958,0 6.5942,-2.44618 11.956,-6.81008 7.08655,-5.76763 11.33374,-10.6048 14.98776,-17.06967 l 2.77311,-4.90628 -6.50738,-4.85503 c -6.86425,-5.12132 -11.92964,-11.0451 -11.94327,-13.96718 -0.003,-0.96123 1.02619,-2.91952 2.29036,-4.35173 3.41281,-3.86652 4.64414,-6.54535 4.64901,-10.1144 0.003,-2.66376 0.55037,-3.75455 3.25459,-6.49314 1.78762,-1.81034 5.20298,-4.3236 7.58966,-5.585 7.52581,-3.97751 9.5867,-5.6733 15.5624,-12.80537 3.20408,-3.82413 7.45742,-8.29658 9.45181,-9.93878 10.01146,-8.2434 21.91258,-16.74447 25.31422,-18.08215 3.95271,-1.55438 8.7747,-5.67846 7.90648,-6.7621 -0.27317,-0.3409 -4.505,-1.62648 -9.40422,-2.8569 -10.37485,-2.60557 -31.99804,-10.8469 -41.66439,-15.87969 -13.87806,-7.22562 -29.91976,-18.72957 -39.32824,-28.20332 -4.83502,-4.86858 -6.49723,-6.87089 -11.82947,-14.24989 l -3.74261,-5.17919 -3.66992,-0.008 c -3.4739,-0.008 -3.62577,0.0711 -2.84302,1.49698 1.23524,2.25023 6.53631,23.40603 9.01697,35.98549 4.68902,23.77821 5.3124,29.97663 5.28536,52.55552 -0.0279,23.46935 -1.4982,32.24811 -7.96022,47.53428 -6.42468,15.19785 -17.67963,27.52359 -33.36657,36.54114 -10.64859,6.12126 -28.53841,11.41802 -38.83121,11.49703 -2.67759,0.0198 -6.2365,0.48315 -7.90867,1.02802 -8.09131,2.63653 -21.5891,3.6639 -26.63382,2.02718 -1.34376,-0.43597 -3.41958,-0.81256 -4.61294,-0.83686 -1.75909,-0.0358 -2.21862,-0.42434 -2.42813,-2.05272 -0.85039,-6.61005 -8.56307,-19.60226 -17.08993,-28.78837 -12.01799,-12.9472 -20.600139,-25.26049 -25.621778,-36.76105 -6.29985,-14.4279 -6.509428,-15.70947 -6.415175,-39.22688 0.09155,-22.83886 0.735789,-28.65853 4.733282,-42.75693 8.113065,-28.6133 15.301061,-47.41384 26.271561,-68.71435 9.092,-17.6532 28.46247,-44.84354 37.27349,-52.32076 6.06867,-5.15007 18.9708,-14.5905 23.77602,-17.39688 2.78572,-1.62693 7.60354,-3.869 10.70627,-4.98236 8.01185,-2.87496 8.26202,-3.0105 8.09045,-4.38326 -3.38392,-27.07218 -2.03003,-64.80597 3.16155,-88.11545 6.38342,-28.66076 25.50739,-57.32641 52.17257,-78.20339 20.43678,-16.00056 38.16952,-26.3968 61.76631,-36.21181 16.4746,-6.85258 28.65094,-10.60529 45.22959,-13.93967 16.21548,-3.26131 24.33962,-4.13127 42.21295,-4.52031 18.80327,-0.4093 28.55446,0.28815 38.66827,2.76569 5.06077,1.23972 6.55,1.38249 7.47576,0.71667 0.63583,-0.4573 4.73553,-1.35368 9.11047,-1.99199 6.41443,-0.93582 11.2032,-1.10167 24.73491,-0.85661 15.02585,0.27204 17.58113,0.49086 24.43734,2.09163 4.21128,0.98324 9.17522,2.38526 11.03104,3.11562 1.85582,0.73033 3.51125,1.32788 3.67876,1.32788 0.16763,0 0.28063,-6.1008 0.25145,-13.55731 -0.0329,-8.46151 0.37894,-15.44467 1.09622,-18.57856 1.52763,-6.67446 5.57916,-17.81954 8.88339,-24.43664 3.11533,-6.23892 14.73963,-23.764371 17.89531,-26.980023 1.19209,-1.214742 1.96407,-2.617488 1.71548,-3.117208 -1.2407,-2.49413 6.82904,-4.520094 22.86404,-5.740159 49.71855,-3.782968 107.06274,9.601116 133.52225,31.16399 11.55654,9.41786 18.26141,21.7245 17.18543,31.5435 -0.99329,9.06459 -5.68936,16.60571 -15.79966,25.3717 l -6.28719,5.45121 12.71494,0.80418 c 42.98859,2.7189 68.3625,13.47776 81.12381,34.3975 8.52493,13.97505 10.53898,30.27807 7.17459,58.07691 -1.74037,14.38063 -4.87398,21.39674 -12.55854,28.11889 -1.47328,1.28877 -2.68492,2.73053 -2.69256,3.20391 -0.0279,1.66295 -10.9587,4.56959 -20.84329,5.54191 -6.70717,0.65978 -24.50358,-0.26103 -34.28172,-1.77351 -23.20865,-3.59024 -47.39892,-10.48193 -73.99068,-21.07963 l -13.23826,-5.2759 1.41585,2.49452 c 10.70955,18.86866 17.02635,36.10077 21.28416,58.06275 1.08117,5.57684 0.4283,40.71844 -0.83869,45.14137 -0.83155,2.90287 -0.78452,3.00452 2.31715,5.00581 3.31773,2.14073 15.74201,11.78432 26.70361,20.72703 27.57281,22.49452 44.56617,46.0415 58.77102,81.4364 6.25276,15.58031 10.00901,30.35872 11.40123,44.85632 0.30049,3.1299 0.94172,8.66588 1.42481,12.30215 0.48306,3.6363 1.03389,8.17496 1.22397,10.08593 0.18998,1.91096 0.75062,6.76893 1.2456,10.79548 1.81177,14.73854 0.4664,36.72124 -2.94108,48.05533 -3.50026,11.64268 -11.72479,27.58212 -18.97025,36.76512 -3.99841,5.06761 -11.11528,21.54687 -11.34379,26.2667 -0.18098,3.73736 -0.33347,4.01123 -2.14905,3.85845 -1.07487,-0.0903 -2.91147,0.31936 -4.08133,0.91065 -3.57635,1.80766 -15.17743,2.00432 -23.84258,0.40417 -4.05436,-0.74867 -10.37774,-1.39429 -14.05197,-1.43464 -10.90708,-0.11994 -28.47821,-4.63771 -38.53245,-9.90738 -5.69361,-2.98417 -14.45199,-8.8532 -17.26151,-11.56699 -0.95302,-0.92056 -2.5943,-2.34911 -3.64728,-3.17457 -5.36689,-4.20713 -13.68923,-16.48896 -17.99484,-26.55613 -11.85592,-27.72095 -13.3381,-69.33427 -4.31403,-121.11906 0.75832,-4.35164 1.21521,-8.03823 1.01533,-8.19243 -0.19992,-0.15408 -1.703,1.56911 -3.34027,3.82956 -10.40263,14.36231 -30.06871,30.01794 -51.4357,40.94657 -13.75535,7.0355 -25.27339,11.31013 -43.75458,16.23842 -2.50605,0.66828 -4.55644,1.39556 -4.55644,1.61618 0,0.22068 3.22277,1.65612 7.1617,3.18998 6.16578,2.40103 8.8303,4.07673 19.161,12.05026 9.02578,6.96636 13.76144,11.2827 19.10988,17.4179 5.82216,6.67852 8.1295,8.72082 12.734,11.27108 10.58169,5.86084 13.78875,9.14098 13.73446,14.04746 -0.0348,3.15481 1.11137,5.58584 4.63783,9.8359 2.10311,2.53465 2.55609,3.68224 2.17274,5.50449 -0.54912,2.61025 -3.89467,6.55547 -9.5022,11.20535 -2.10568,1.74605 -3.77561,3.70434 -3.71098,4.35173 0.1757,1.76041 10.63456,18.63085 12.93873,20.87069 1.53107,1.48835 9.2459,5.04699 13.73588,6.33602 6.79226,1.95002 11.22189,7.1751 8.6884,10.24869 -1.29204,1.56748 -5.69587,2.29936 -11.13292,1.85019 -4.81683,-0.39791 -5.42235,-0.31096 -5.89884,0.84713 -0.66283,1.61099 -6.51138,4.20693 -9.47807,4.20693 -5.33243,0 -22.38011,-7.8239 -26.39231,-12.11253 -0.59211,-0.63292 -3.52671,-2.49947 -6.52128,-4.14788 -5.10792,-2.81174 -9.99765,-6.47993 -14.18651,-10.64253 -1.64764,-1.63732 -2.10922,-1.7447 -5.19999,-1.20951 -1.86554,0.32304 -4.41129,0.75017 -5.65727,0.94921 -2.09006,0.33387 -2.3114,0.70812 -2.85941,4.83423 -1.14294,8.60557 -5.52147,15.81431 -11.0757,18.23482 -1.97925,0.86254 -2.38753,1.42025 -2.01703,2.75519 0.26728,0.96286 -0.2083,2.69051 -1.11994,4.06767 -1.13745,1.71853 -1.64476,4.17409 -1.79811,8.70346 -0.42901,12.67197 -6.52346,35.06586 -14.19799,52.1701 -1.90002,4.23456 -3.91224,8.9043 -4.4716,10.37721 -1.46412,3.85529 -2.35183,4.69209 -5.75151,5.42183 -2.85745,0.61333 -3.06917,0.85879 -3.71729,4.30923 -0.37801,2.01236 -0.97829,7.57543 -1.33398,12.36235 l -0.64675,8.70346 2.9924,4.35173 c 2.47124,3.59386 3.17313,5.57602 4.03001,11.38145 0.5707,3.86635 0.84586,7.42109 0.61149,7.89945 -0.72917,1.48837 -9.91566,4.60983 -15.90083,5.40298 -7.57054,1.00324 -12.11786,0.95476 -20.86959,-0.22266 -6.38627,-0.8591 -8.24144,-0.85944 -15.08483,0 -9.40599,1.17773 -15.57714,1.17304 -22.67123,-0.0169 z m 25.6424,-2.77192 c 2.61982,-0.40425 2.73716,-0.55802 2.55032,-3.34268 -0.27349,-4.07788 -0.66936,-4.3692 -4.68403,-3.44804 -1.8882,0.43331 -8.70554,0.80266 -15.14965,0.82094 -9.24175,0.0254 -12.49935,-0.21419 -15.42264,-1.13842 -4.72442,-1.49351 -4.53888,-1.52926 -4.53888,0.87451 0,1.7717 0.50781,2.21944 3.78537,3.33785 7.36218,2.51216 25.67381,4.09699 33.45951,2.89584 z m 28.71489,-0.26527 c 3.10273,-0.37338 8.27751,-1.28364 11.49957,-2.02269 5.81639,-1.33418 5.85827,-1.3609 5.85827,-3.73941 0,-2.02061 -0.23779,-2.3194 -1.51882,-1.90874 -7.86116,2.51992 -19.8542,3.05062 -31.02713,1.37301 -3.34139,-0.50172 -6.1474,-0.86178 -6.23563,-0.80012 -0.0882,0.0615 -0.42703,1.66269 -0.75295,3.55791 -0.55983,3.25556 -0.47912,3.46244 1.46223,3.7463 3.95309,0.57797 15.12183,0.46678 20.71446,-0.20629 z m -31.24409,-7.89666 3.9055,-0.4525 0.25579,-3.36697 0.2558,-3.36692 -4.02502,-1.50849 c -3.10508,-1.16373 -4.3284,-2.10425 -5.35226,-4.11488 l -1.32719,-2.60636 -6.33571,-0.2173 -6.3357,-0.21729 -1.89127,3.52455 c -2.27646,4.24235 -4.39465,5.51366 -9.18658,5.51366 -3.35697,0 -3.64123,0.14364 -3.99845,2.02119 -0.2114,1.11164 0.0369,2.28319 0.55241,2.60348 0.8562,0.53206 7.30143,1.71024 12.65351,2.31304 3.76574,0.42415 16.76286,0.34615 20.82938,-0.12501 z m 43.26736,-1.05105 c 2.55543,-0.54484 4.80382,-1.11209 4.99641,-1.26072 0.19247,-0.14844 0.10338,-1.22203 -0.19836,-2.38557 -0.51426,-1.98357 -0.78275,-2.11539 -4.30847,-2.11539 -3.25462,0 -4.08478,-0.314 -6.17612,-2.33581 -1.32883,-1.28471 -2.84488,-3.3183 -3.36901,-4.51911 -0.52413,-1.20081 -1.21102,-2.10797 -1.52645,-2.01591 -0.3154,0.092 -3.09373,0.16734 -6.17404,0.16734 -5.5333,0 -5.61768,0.0282 -7.02309,2.31242 -1.61288,2.62197 -2.71006,3.43668 -6.69727,4.97325 -2.49549,0.96173 -2.83979,1.43687 -3.07367,4.24139 -0.2856,3.42395 -0.36395,3.37278 6.3386,4.13509 4.96152,0.56417 22.58679,-0.21109 27.21137,-1.197 z m -70.61623,-7.76715 c 4.41184,-1.29394 9.49509,-14.28875 6.5879,-16.84143 -0.56579,-0.49681 -1.69141,-1.95773 -2.50133,-3.2465 -0.80994,-1.2888 -1.81956,-2.34327 -2.24361,-2.34327 -0.42401,0 -0.91403,3.1634 -1.08889,7.02974 -0.29367,6.49298 -0.55046,7.37471 -3.36383,11.54882 -2.77858,4.12242 -2.89744,4.51911 -1.35429,4.51911 0.93039,0 2.71422,-0.29992 3.96405,-0.66647 z m 74.21499,0.23846 c 0,-0.23536 -1.24163,-1.96781 -2.75917,-3.84962 -2.60501,-3.23033 -2.78072,-3.86113 -3.1446,-11.28812 -0.21203,-4.32662 -0.56757,-7.86661 -0.79024,-7.86661 -0.93706,0 -3.66522,3.10769 -3.6918,4.20539 -0.0155,0.65591 -0.66146,1.37989 -1.43459,1.60873 -1.1616,0.34386 -1.30915,1.06691 -0.84949,4.16334 0.8407,5.66375 2.93158,9.86411 5.8546,11.76145 2.34366,1.52125 6.81529,2.35148 6.81529,1.26544 z m -42.95081,-9.1124 c -0.33977,-4.87897 -0.87151,-9.0563 -1.18166,-9.28305 -0.31012,-0.2266 -2.24913,0.16989 -4.30881,0.8812 -3.32683,1.14891 -3.69407,1.4939 -3.28961,3.09019 0.25052,0.98823 0.72349,3.60416 1.05128,5.81324 0.51348,3.46063 1.02222,4.31758 3.67615,6.19285 1.69412,1.19698 3.43799,2.1764 3.8753,2.1764 0.4726,0 0.54455,-3.59795 0.17725,-8.87083 z m 10.29202,6.69497 c 2.72527,-1.84507 3.3403,-2.78666 4.04507,-6.19286 1.29127,-6.24085 1.11293,-8.36871 -0.70145,-8.36871 -0.8485,0 -2.43595,-0.48265 -3.5277,-1.07253 -1.09176,-0.58991 -2.21834,-0.89257 -2.5035,-0.67259 -1.26495,0.97578 -2.44862,18.48255 -1.24964,18.48255 0.39778,0 2.16954,-0.97914 3.93722,-2.17586 z m -21.15046,-7.32498 c 0,-1.65552 -0.88073,-1.85196 -6.35123,-1.41639 -3.74395,0.29806 -4.93135,0.65217 -4.93135,1.47054 0,0.88041 1.03395,1.07797 5.64127,1.07797 4.71908,0 5.64131,-0.18512 5.64131,-1.13212 z m 39.38713,-0.17045 c -0.42902,-0.86237 -9.54342,-1.94917 -10.90466,-1.30015 -0.39046,0.18597 -0.71083,0.84793 -0.71191,1.47054 -0.002,0.97573 0.83018,1.10165 6.02149,0.91145 4.46921,-0.16368 5.9129,-0.44286 5.59508,-1.08184 z m -39.38887,-4.89034 c 0.002,-1.39496 -0.38348,-1.50637 -5.20562,-1.50637 -4.96093,0 -5.20735,0.0785 -5.20735,1.65588 0,1.59406 0.19433,1.6503 5.20562,1.50635 4.76182,-0.13686 5.20577,-0.27796 5.20735,-1.65586 z m 38.9059,-0.0336 c 0.27287,-1.48462 0.0866,-1.53248 -5.20735,-1.339 -4.76503,0.17411 -5.52387,0.38136 -5.74412,1.56829 -0.23283,1.25553 0.19401,1.36525 5.20735,1.339 5.02479,-0.0254 5.48373,-0.15154 5.74412,-1.56829 z m -33.85435,-4.51174 4.49699,-1.03022 v -3.28736 -3.28736 l -3.22842,1.04052 c -2.50626,0.80782 -5.17572,0.9575 -11.93352,0.66923 -4.78777,-0.20431 -10.07199,-0.56547 -11.7427,-0.8026 l -3.03763,-0.43123 2.82039,1.56897 c 1.55123,0.86291 3.28262,2.53344 3.84761,3.71224 0.71967,1.50156 1.69414,2.2232 3.25483,2.41026 5.18895,0.62208 11.32157,0.39988 15.52245,-0.56245 z m 32.46284,0.6034 c 2.28462,-0.29134 3.38621,-0.82842 3.76118,-1.83373 0.2915,-0.78197 2.157,-2.52675 4.14525,-3.87727 1.98822,-1.35057 3.39683,-2.62383 3.1302,-2.82949 -0.26666,-0.20572 -2.60951,0.2537 -5.20642,1.02099 -4.0104,1.18479 -5.96375,1.34087 -12.96667,1.03598 -4.53471,-0.19754 -9.14871,-0.57128 -10.25329,-0.83065 -1.91023,-0.44864 -1.99501,-0.32918 -1.73577,2.44525 0.26014,2.78392 0.45056,2.96797 4.17803,4.03748 4.16558,1.1952 9.68665,1.50228 14.94749,0.83144 z m -22.75849,-10.61976 c 0,-2.45482 -0.37832,-4.35173 -0.86791,-4.35173 -0.93899,0 -1.20276,5.91226 -0.3411,7.64445 0.9371,1.88385 1.20901,1.14339 1.20901,-3.29272 z m -7.98692,1.62072 c 1.95195,-0.52489 2.69413,-1.20295 2.98392,-2.72598 l 0.38571,-2.02737 -3.98357,0.4742 c -10.64396,1.26696 -14.50805,1.38171 -20.35818,0.60456 -3.40481,-0.45231 -6.44682,-0.70211 -6.76001,-0.55523 -1.25818,0.59031 0.51305,3.08774 2.63025,3.70869 6.26614,1.83776 19.20667,2.10644 25.10188,0.52113 z m 37.18422,-0.32416 c 4.18224,-0.89694 5.51834,-1.85531 5.51834,-3.95815 0,-0.68916 -0.7943,-0.73803 -3.68854,-0.22689 -4.82999,0.85306 -15.32368,1.01643 -22.13121,0.34451 l -5.42434,-0.53533 v 1.99664 c 0,2.22254 0.86796,2.58729 8.21366,3.45194 5.21763,0.61418 11.41715,0.23451 17.51209,-1.0728 z m -33.02749,-7.09318 c 1.06704,-0.82314 1.11687,-6.73936 0.35743,-42.43621 -0.48536,-22.81389 -1.25666,-46.14953 -1.71405,-51.85697 -0.45735,-5.70747 -0.84434,-11.95891 -0.86001,-13.89209 l -0.0279,-3.51484 h -5.92451 c -7.50694,0 -23.25041,-1.1821 -30.28816,-2.27421 -2.97138,-0.46109 -5.70525,-0.66526 -6.07525,-0.45369 -0.36997,0.21165 -0.78912,1.97514 -0.93139,3.91906 -0.47126,6.43944 -5.15293,12.58875 -13.42384,17.63204 -2.91404,1.77686 -5.13393,2.60114 -7.00782,2.6021 l -2.74272,10e-4 0.13597,6.86096 c 0.0748,3.77354 0.55005,8.51798 1.05599,10.54321 0.50597,2.02522 1.56281,6.99624 2.34851,11.0467 2.8224,14.5498 7.53664,29.43119 14.53735,45.88979 5.32116,12.51007 5.34096,12.53665 10.16043,13.64073 3.90911,0.89553 14.86818,2.68075 20.36356,3.31722 5.47147,0.63367 18.76828,-0.0469 20.03682,-1.0252 z m 30.91687,-0.21249 c 9.65741,-1.42559 14.8529,-2.46041 16.08491,-3.20384 0.59336,-0.35805 2.23948,-3.55327 3.65806,-7.10049 6.653,-16.63627 13.40465,-43.39374 14.4662,-57.33123 0.30857,-4.05045 1.03358,-8.08175 1.61126,-8.9584 0.74811,-1.13526 0.81736,-2.48383 0.24058,-4.68648 -0.44531,-1.70089 -0.78166,-4.1644 -0.74742,-5.47443 l 0.0621,-2.38184 h -4.12712 c -8.93603,0 -16.33785,-6.77415 -19.85938,-18.17535 -1.83279,-5.93371 -2.7286,-7.68027 -3.70133,-7.21651 -1.35202,0.64457 -18.16459,2.27368 -28.60562,2.77182 l -9.88682,0.47172 0.58895,11.44751 c 0.3239,6.29614 1.16573,19.28067 1.87069,28.85446 0.70496,9.57382 1.67589,29.44435 2.15762,44.15675 0.64774,19.78197 1.15331,26.88582 1.94087,27.27178 1.79808,0.8812 17.17242,0.59866 24.24621,-0.44547 z M 287.84697,694.66456 c 0.92658,-0.54061 2.16215,-0.99252 2.7457,-1.00423 1.43639,-0.0288 15.16576,-7.23405 21.07022,-11.05774 5.25125,-3.40066 20.82488,-15.19398 20.82764,-15.77197 8.7e-4,-0.1998 -1.72329,-0.71916 -3.83171,-1.15417 -4.2086,-0.86833 -18.05183,-5.83714 -23.45727,-8.41968 l -3.42371,-1.63571 -3.24612,5.11691 c -1.82102,2.87044 -5.55708,7.11502 -8.50984,9.66805 -2.89498,2.5031 -5.26363,4.77082 -5.26363,5.03939 0,1.92279 -10.7158,7.9967 -16.69333,9.46207 -3.06225,0.75068 -6.73974,3.42392 -6.73974,4.89923 0,0.42713 2.71662,0.54284 7.42492,0.31626 l 7.42495,-0.35735 2.09221,2.55664 c 1.84008,2.24853 3.14637,2.85416 6.97603,3.23408 0.50545,0.0502 1.67708,-0.35114 2.60368,-0.89178 z m 74.14037,-6.84005 c 0.006,-1.54097 -0.43318,-3.6499 -0.97886,-4.68647 -0.54567,-1.0366 -1.63019,-4.74681 -2.41006,-8.24492 -0.77983,-3.49814 -1.70032,-6.28491 -2.04546,-6.19285 -0.34516,0.092 -2.43883,0.16734 -4.65258,0.16734 h -4.02505 l 0.55682,3.65433 c 0.86573,5.68228 5.4864,14.77458 8.94678,17.60489 3.49175,2.85603 4.58652,2.30907 4.60841,-2.30234 z m 225.01415,1.30687 c 0.83534,-0.58071 1.51881,-1.44328 1.51881,-1.91681 0,-1.54566 2.05655,-1.92307 9.32982,-1.71227 5.69588,0.16509 7.16012,0.0141 7.16012,-0.73239 0,-1.47059 -3.58681,-3.70586 -7.77614,-4.84609 -2.10165,-0.57199 -5.09125,-1.78728 -6.64353,-2.70061 -3.35983,-1.97683 -3.57275,-2.0026 -4.04206,-0.48897 -0.32586,1.05102 -0.43758,1.03378 -1.08521,-0.16734 -0.39704,-0.73646 -1.00384,-1.48964 -1.34841,-1.67375 -1.08847,-0.58161 -10.12406,-14.20042 -12.54827,-18.91331 -1.27848,-2.48549 -2.5017,-4.5191 -2.71823,-4.5191 -0.21668,0 -2.22042,1.07594 -4.45301,2.39096 -4.04687,2.38368 -19.75315,8.74288 -25.1494,10.18261 l -2.84212,0.75827 4.11123,2.87442 c 2.26117,1.58093 6.27396,4.43608 8.91734,6.34476 2.64338,1.90871 5.97781,4.25321 7.40983,5.21006 3.70713,2.477 17.49107,9.73076 18.49085,9.73076 0.46105,0 1.95695,0.45747 3.32418,1.01662 2.75328,1.12594 5.98635,0.80133 8.3442,-0.83779 z m -75.02419,-3.02419 c 3.64346,-4.34733 5.71587,-9.05282 6.63437,-15.06368 0.50992,-3.33703 0.43678,-3.5144 -1.44555,-3.50573 -4.88895,0.0226 -5.62852,0.56959 -6.17124,4.56462 -0.28343,2.08723 -1.31223,5.71718 -2.28595,8.06654 -2.1417,5.16734 -2.35018,10.12261 -0.42588,10.12261 0.10306,0 1.76545,-1.88297 3.69425,-4.18436 z m -8.14599,-7.83138 c 1.89161,-6.41565 1.81515,-10.51685 -0.21171,-11.35362 -1.77709,-0.73366 -3.28846,-4.12716 -4.03641,-9.0631 -0.27566,-1.82013 -0.67277,-3.44147 -0.88212,-3.60297 -0.29833,-0.23028 -11.04935,1.79204 -19.41305,3.65142 -2.36306,0.52537 1.85908,12.25491 6.25323,17.37205 3.15677,3.67621 5.78733,5.32634 10.59876,6.64852 5.88854,1.61816 6.1778,1.48081 7.69127,-3.6523 z m -129.74679,1.12752 c 7.76111,-4.63441 13.26884,-11.89987 13.42048,-17.70346 l 0.0984,-3.7676 -3.90755,-0.78088 c -2.14914,-0.42948 -6.14423,-0.98366 -8.87795,-1.23151 -5.53107,-0.50147 -5.04413,-0.90264 -6.33006,5.21531 -0.57861,2.75283 -2.37126,4.32727 -4.96841,4.36367 -1.8579,0.0254 -2.00741,1.25768 -0.21699,1.78768 1.61566,0.47827 1.69405,2.00338 0.13969,2.71946 -0.96072,0.4426 -0.97401,1.38131 -0.0767,5.41667 1.42457,6.40693 2.18097,7.1087 6.24876,5.79757 1.70607,-0.54989 3.71775,-1.36748 4.47036,-1.81691 z m -218.32974,0.53068 c 20.47723,-2.8153 40.70394,-16.85195 53.34835,-37.02195 2.3404,-3.73332 3.67461,-5.20098 4.29382,-4.7233 2.02789,1.56431 -10.82978,18.99105 -20.29848,27.51165 -2.36077,2.12439 -7.17378,5.51371 -10.69559,7.53186 -3.52181,2.01814 -5.9102,3.66934 -5.30756,3.66934 3.28237,0 12.92951,-2.55426 21.48585,-5.68879 11.79284,-4.32015 21.43432,-9.35576 27.14991,-14.17992 5.05307,-4.26501 13.02891,-12.84922 13.02891,-14.02269 0,-0.45473 0.54456,-1.24689 1.21013,-1.76033 3.13566,-2.41886 8.11056,-14.22282 10.51032,-24.93777 2.26003,-10.09112 3.05414,-24.39278 2.14032,-38.54658 -0.46068,-7.13548 -1.02001,-13.88443 -1.24299,-14.99765 -0.22289,-1.11322 -0.6253,-3.68103 -0.89407,-5.70626 -1.40157,-10.56197 -4.88842,-29.28202 -7.79393,-41.84357 -0.68137,-2.94579 -1.46222,-6.56109 -1.73522,-8.03397 -0.27287,-1.47291 -1.07375,-5.04614 -1.77942,-7.94057 -0.70567,-2.8944 -1.28304,-5.35853 -1.28304,-5.47584 0,-0.1174 -2.05803,-0.6748 -4.57345,-1.23888 -8.9777,-2.01329 -18.35237,-7.97822 -25.42411,-16.17683 -6.27759,-7.27796 -10.18697,-14.81123 -12.66297,-24.40139 -1.74177,-6.74625 -1.98657,-9.68808 -1.97803,-23.76715 0.006,-13.16449 0.30173,-17.09626 1.62529,-21.75866 2.20381,-7.7629 2.78506,-16.06795 1.1246,-16.06795 -7.41403,0 -23.49593,8.05517 -34.93493,17.49833 -10.61482,8.76275 -17.22305,17.70911 -36.28013,49.11665 -12.70633,20.94102 -27.344678,61.2488 -32.337276,89.04313 -1.537046,8.55686 -3.29004,40.52155 -2.606853,47.53427 0.598204,6.1404 3.166383,16.0839 5.79269,22.42818 4.150415,10.02604 19.160339,31.46923 24.932189,35.61815 3.14388,2.2599 13.70624,18.40661 15.13059,23.13023 0.58296,1.93317 1.40796,3.51484 1.83337,3.51484 2.00222,0 21.31583,-13.52867 26.76175,-18.7459 2.47327,-2.36943 3.37498,-2.84067 4.22264,-2.20697 0.85729,0.64093 0.78471,1.39785 -0.35457,3.69909 -2.05074,4.14226 -16.23495,14.71628 -24.09195,17.95998 -1.96218,0.81008 -1.97493,0.86333 -0.32568,1.3604 2.45821,0.74086 4.32955,0.68269 12.00952,-0.37318 z m 570.55813,-1.82648 c -0.19092,-0.44138 -3.0548,-2.02308 -6.36455,-3.51484 -7.23211,-3.25965 -19.97654,-12.63085 -20.82693,-15.31439 -1.11929,-3.532 0.98174,-3.64838 4.83896,-0.26809 5.17374,4.53409 26.08557,17.22186 28.38487,17.22186 0.40924,0 0.80489,-1.17632 0.87921,-2.61404 0.22071,-4.27215 10.38599,-25.45504 12.51014,-26.06955 1.11504,-0.32258 4.47021,-5.58528 8.99967,-14.11624 3.90668,-7.35802 8.28677,-19.89696 9.95614,-28.5016 1.57411,-8.11358 2.07893,-30.02127 0.96439,-41.85054 -1.61334,-17.12346 -3.48179,-28.14561 -7.54605,-44.51461 -7.51922,-30.28411 -11.4991,-41.15009 -21.2692,-58.06988 -11.48573,-19.89087 -23.16411,-33.71179 -45.13513,-53.41564 -11.30481,-10.13831 -24.8003,-20.74015 -26.40088,-20.74015 -0.60785,0 -1.29558,1.41021 -1.62665,3.33539 -0.45767,2.66145 -0.20396,3.9128 1.25528,6.19286 2.36862,3.70078 6.43036,12.62552 7.73821,17.00299 1.64339,5.50056 2.39643,16.18336 1.57491,22.34204 -2.34043,17.54515 -10.35166,31.45072 -24.2625,42.11395 -10.27747,7.87806 -22.06447,12.78482 -30.71162,12.78482 -2.73191,0 -2.79893,0.0751 -3.73678,4.18436 -1.82151,7.98117 -5.41071,39.67049 -7.14686,63.10011 -1.74223,23.5115 0.47809,48.66722 5.64515,63.95892 3.18146,9.41542 7.2892,17.71577 10.7031,21.62732 1.65938,1.90129 3.53836,4.21007 4.17555,5.13061 2.02658,2.92784 10.87874,10.25473 16.80424,13.90876 6.45498,3.98055 17.41989,8.53174 26.74387,11.10057 7.05333,1.94322 20.3001,4.60055 20.84363,4.18123 0.1962,-0.15126 -2.48366,-1.69252 -5.95518,-3.42488 -11.50888,-5.74314 -20.51616,-13.41703 -30.17608,-25.70882 -4.05876,-5.16464 -5.43174,-8.10306 -3.77664,-8.08288 0.35802,0.006 1.98058,1.88734 3.60571,4.18436 11.45645,16.19293 28.0343,27.68827 47.62085,33.02099 4.52086,1.23089 7.6641,1.5925 13.93763,1.60342 5.91628,0.0113 8.00682,-0.20234 7.75354,-0.78843 z m -367.8173,-12.08525 c -0.0186,-0.46029 -1.28016,-1.44186 -2.80397,-2.18128 -2.89349,-1.40405 -7.96078,-7.32828 -10.46009,-12.229 -0.80259,-1.5738 -2.4375,-6.65371 -3.63304,-11.28874 -1.91331,-7.41774 -2.17484,-10.16275 -2.18335,-22.91418 -0.0155,-22.81171 2.44939,-37.03208 8.3012,-47.89806 1.59062,-2.95355 -5.18326,1.49746 -15.34512,10.08305 -10.1529,8.57797 -12.18352,10.60133 -19.71625,19.64586 -4.92669,5.91551 -5.84662,6.67877 -11.84076,9.82467 -7.38447,3.87558 -8.20038,4.77985 -10.59488,11.74215 -2.07076,6.02108 -5.06903,11.23854 -6.45827,11.23854 -0.37264,0 -1.07297,0.56996 -1.55628,1.26659 -1.25185,1.80444 0.80858,4.6562 7.13134,9.87016 12.59769,10.38853 37.22026,20.67225 55.01133,22.97573 6.89067,0.89217 14.18642,0.8223 14.14814,-0.13546 z m 162.86527,-0.83096 c 11.84061,-1.7476 27.10288,-6.89268 39.3364,-13.26072 7.58132,-3.94635 18.91897,-12.46325 21.29392,-15.99607 l 1.66114,-2.47102 -2.41999,-1.8668 c -3.32903,-2.56804 -4.55498,-4.59378 -6.93906,-11.46588 -2.57018,-7.40848 -3.20859,-8.18097 -9.19028,-11.12061 -6.57856,-3.23301 -9.32755,-5.59061 -15.68564,-13.45253 -5.65819,-6.99647 -6.5911,-7.89463 -19.40935,-18.68633 -9.55574,-8.04498 -21.20345,-14.32343 -16.66917,-8.98513 2.40702,2.83381 7.54527,14.75158 9.31715,21.61036 5.78599,22.39719 6.54267,46.14414 1.93171,60.62512 -1.62678,5.10912 -5.62438,11.53925 -8.60179,13.83604 -3.36858,2.59854 -3.5661,2.55322 5.37496,1.23357 z m -10.15836,-3.90935 c 2.28133,-1.44514 5.96745,-8.77966 7.80101,-15.52215 6.63204,-24.38763 -2.36446,-69.35974 -16.10398,-80.50134 l -3.3705,-2.73321 -5.61883,1.00136 c -3.09034,0.55073 -5.78252,1.12761 -5.98256,1.28194 -0.19992,0.15436 0.49548,2.76755 1.54563,5.80714 5.81366,16.82707 10.76596,46.83716 12.18109,73.81529 0.51616,9.84041 1.02051,13.37583 2.22762,15.61519 1.40567,2.60766 1.78473,2.85131 3.8224,2.45679 1.24412,-0.24099 2.81825,-0.79032 3.49812,-1.22101 z m -146.13239,-2.07769 c 1.52406,-2.81372 1.5154,-2.61136 1.35283,-31.68058 -0.0726,-12.98123 0.0962,-25.4841 0.37528,-27.78414 1.72512,-14.22115 3.23798,-24.26517 4.34693,-28.85985 0.69856,-2.8944 1.27016,-5.67276 1.27016,-6.17414 0,-1.3707 -8.99824,-3.23107 -11.2105,-2.31776 -4.14816,1.71255 -9.77128,11.47319 -12.55233,21.78843 -3.60376,13.36663 -4.15788,43.27717 -1.02334,55.23351 2.63562,10.05314 5.53318,15.69531 10.13815,19.74113 3.44802,3.02938 5.68206,3.04572 7.30282,0.0533 z m 66.91304,-6.57193 c -0.30236,-2.66963 -0.80374,-16.20807 -1.11398,-30.08542 l -0.56409,-25.23154 -3.55906,-0.43958 c -6.7862,-0.83813 -15.46681,-4.64728 -22.39901,-9.8289 -7.68348,-5.74317 -9.35009,-7.51343 -14.65433,-15.56561 l -3.98596,-6.05096 h -3.39112 c -3.32148,0 -3.39686,0.0542 -3.67019,2.63605 -0.15335,1.44982 0.14031,3.92121 0.65318,5.49195 1.91076,5.85368 2.70879,15.65998 1.75791,21.60173 -1.13916,7.11821 -2.73155,11.44776 -6.2216,16.91624 -1.75027,2.74241 -2.81275,5.53403 -3.0136,7.91805 -0.80818,9.59233 -1.82847,33.1594 -1.45573,33.62464 0.23065,0.28784 1.10926,0.23846 1.95254,-0.10978 1.02014,-0.42115 5.43189,-0.18851 13.1827,0.69489 16.7316,1.90721 31.38037,3.08231 39.75552,3.18916 l 7.27672,0.0928 z m 31.12681,4.15676 c 4.29605,-0.37736 9.56851,-0.8418 11.71653,-1.03206 7.46798,-0.66153 21.26936,-3.04016 22.24085,-3.83316 1.08757,-0.88777 0.78853,-3.66963 -2.72955,-25.39079 -1.96565,-12.13627 -2.38849,-13.58787 -5.19606,-17.83759 -5.33618,-8.07718 -6.80334,-13.60427 -6.9529,-26.19302 -0.12914,-10.87585 -0.84813,-16.73741 -2.05276,-16.73741 -0.33716,0 -2.35325,2.77055 -4.48014,6.15679 -8.79115,13.99644 -22.83408,23.46695 -37.31792,25.16709 -2.60501,0.30579 -4.6627,0.85938 -4.57265,1.23021 0.09,0.37084 0.40639,13.15727 0.70297,28.41426 0.29678,15.25703 0.71856,28.41788 0.93769,29.24639 0.38481,1.4549 0.73141,1.50618 10.14566,1.50087 5.36099,-0.003 13.2622,-0.31423 17.55828,-0.69158 z m -86.64967,-64.91364 c 0.2946,-4.6028 0.2651,-8.17654 -0.0661,-7.94166 -0.70523,0.50031 -3.12929,16.56637 -3.01651,19.9926 l 0.0773,2.34324 1.23484,-3.01273 c 0.67912,-1.65702 1.47594,-6.77867 1.77066,-11.38145 z m 111.77893,2.13055 c -0.83888,-3.56527 -1.70272,-6.08531 -1.91961,-5.6001 -0.217,0.48522 0.29211,3.79922 1.1309,7.36446 0.83887,3.56527 1.70271,6.08531 1.91961,5.6001 0.21699,-0.48522 -0.29212,-3.79922 -1.1309,-7.36446 z m -42.05221,-4.08616 c 6.71691,-2.57012 13.73619,-6.633 17.94002,-10.38393 2.8645,-2.5559 10.69946,-12.20871 10.69946,-13.1819 0,-0.24382 -2.44095,0.57721 -5.42431,1.8245 -7.65644,3.20104 -14.83404,4.79044 -25.76223,5.70474 -14.9749,1.2529 -34.26101,-0.72712 -46.49925,-4.77385 -2.27791,-0.75322 -4.3221,-1.23033 -4.54263,-1.06022 -0.22041,0.17017 1.63556,2.58181 4.12466,5.35929 11.30369,12.61359 25.07652,19.43066 38.1817,18.89866 4.19677,-0.17045 7.0872,-0.78194 11.28258,-2.38729 z m 6.33136,-21.46235 c 0.84332,-0.69497 0.47996,-0.77937 -1.88435,-0.43771 -1.61104,0.23281 -9.42204,0.42787 -17.35783,0.43351 -10.28498,0.008 -14.05482,0.21108 -13.12685,0.70959 1.94938,1.04715 31.01089,0.41387 32.36903,-0.70539 z m 4.08241,-4.70569 c 18.281,-0.85794 25.42091,-1.61878 38.22507,-4.0734 12.58421,-2.41246 22.88816,-5.39093 35.78697,-10.34467 12.36198,-4.74758 16.12238,-6.59259 28.39915,-13.93408 12.20822,-7.30048 27.17015,-18.80356 34.95815,-26.87659 9.0706,-9.40255 17.95336,-22.74647 23.62059,-35.48337 1.41057,-3.17019 1.14689,-2.93015 -5.77765,5.25903 -8.59676,10.16683 -23.89458,20.45343 -37.4889,25.20834 -11.49483,4.02057 -16.93662,4.83328 -34.67641,5.17875 -14.50175,0.28239 -17.21789,0.15859 -24.30096,-1.10749 -15.76992,-2.81886 -28.82407,-8.48572 -40.93441,-17.76981 -8.62529,-6.61237 -13.11779,-11.24043 -17.62223,-18.15402 -4.49361,-6.89697 -6.91522,-13.06228 -8.13295,-20.70603 l -0.98382,-6.17552 -17.58451,0.0739 -17.58455,0.0739 -0.60059,4.93275 c -0.88879,7.29995 -3.39313,13.6019 -8.68182,21.84715 -12.06893,18.81587 -36.84597,33.36386 -62.155,36.49463 -10.47446,1.29575 -35.08974,0.5394 -43.29027,-1.33014 -19.40165,-4.42313 -37.41965,-14.8289 -49.87563,-28.80426 -1.91933,-2.15346 -3.01502,-2.98736 -2.63915,-2.00849 1.34295,3.49695 13.35098,22.04537 16.9363,26.1609 17.81383,20.44838 40.54472,34.91773 72.02987,45.85071 9.7312,3.37905 35.49727,10.2733 43.3946,11.61112 2.62538,0.44475 7.11672,1.22641 9.98076,1.73702 4.9099,0.87538 15.69892,2.05469 23.43306,2.56135 7.97115,0.52218 32.22742,0.40414 45.56433,-0.22181 z m -33.56248,-57.87847 c -2.80133,-0.94001 -4.62477,-2.78155 -4.62477,-4.67073 0,-0.57656 0.39055,-1.04826 0.8679,-1.04826 0.47735,0 0.86791,0.55585 0.86791,1.23522 0,3.61584 8.88276,5.07094 13.80877,2.26205 2.4267,-1.38377 2.85264,-1.43389 4.62961,-0.54485 1.93634,0.96876 5.85985,1.41783 10.35225,1.18487 1.27755,-0.0663 3.51979,-1.04588 4.99036,-2.18029 1.98626,-1.53223 2.67045,-1.77633 2.67045,-0.95276 0,0.60898 -1.14161,1.98789 -2.53693,3.06422 -2.27164,1.75237 -3.11356,1.957 -8.05186,1.957 -3.52734,0 -6.19304,-0.36638 -7.39649,-1.0166 -1.711,-0.92451 -2.14144,-0.8944 -4.74953,0.33224 -3.3199,1.5614 -6.92565,1.68726 -10.82767,0.37789 z m -82.17624,-8.97452 c 26.99609,-5.4358 45.97121,-19.38313 54.38817,-39.97707 4.61475,-11.29092 4.77083,-20.83731 0.51457,-31.46743 -6.62832,-16.55435 -19.52461,-28.85839 -37.65837,-35.92893 -22.92619,-8.93916 -44.1952,-9.23908 -66.74599,-0.94125 -21.14848,7.78183 -34.9466,20.97996 -41.04424,39.2595 -7.59885,22.77957 6.31711,48.67238 33.1402,61.66256 17.41055,8.43179 38.65666,11.16782 57.40566,7.39262 z M 296.19502,466.1958 c -1.10861,-0.59564 -3.76451,-2.83624 -5.90207,-4.97912 -14.18039,-14.21591 -12.67139,-34.14908 3.51445,-46.4232 2.91342,-2.20936 7.1464,-4.76967 9.40661,-5.68958 4.8842,-1.98795 5.49926,-3.15577 0.85481,-1.6231 -1.79001,0.59073 -3.84041,1.24848 -4.55638,1.46171 -6.16361,1.83536 -15.46319,7.74969 -20.56602,13.07952 -1.69116,1.76637 -3.26527,3.06465 -3.49803,2.88509 -0.87513,-0.67508 5.1038,-7.68205 9.34978,-10.95742 11.18327,-8.62681 34.44324,-13.63322 50.26987,-10.81992 13.36383,2.37552 27.75923,10.78324 33.42767,19.5237 2.97246,4.58339 4.39852,8.88494 1.6472,4.96862 -1.8492,-2.63224 -2.23445,-1.94181 -0.75937,1.3609 1.91787,4.29416 2.45818,10.78759 1.35431,16.27587 -1.0726,5.33272 -5.61026,13.54693 -8.6595,15.67561 -1.72574,1.20477 -1.92926,1.19774 -7.85303,-0.27147 -5.56984,-1.38156 -7.23239,-1.47935 -19.76547,-1.16261 -15.4693,0.39093 -21.45534,1.48372 -30.08423,5.49199 -5.78402,2.68676 -5.49833,2.64471 -8.18063,1.20352 z m 32.63262,-21.98242 c 2.38218,-1.28713 2.46957,-3.05929 0.22816,-4.62411 -1.15728,-0.8079 -2.4054,-1.05093 -3.9055,-0.76049 -1.82514,0.35337 -2.20471,0.82232 -2.20471,2.72406 0,1.48152 0.53928,2.53954 1.51882,2.97963 2.00594,0.90128 2.12015,0.89293 4.36332,-0.31909 z m 18.60881,-6.35173 c 3.84357,-0.82345 8.06369,-3.41968 9.82194,-6.0425 1.99653,-2.97832 1.64332,-8.70188 -0.70276,-11.3874 -5.75837,-6.59151 -16.33816,-7.62125 -23.4628,-2.28366 -7.0099,5.25172 -5.78264,14.96345 2.29828,18.18704 5.50816,2.19725 7.64855,2.4685 12.04534,1.52652 z m -62.77698,-28.93308 c 2.88216,-2.47723 14.07627,-6.83404 21.80237,-8.48564 8.67266,-1.85393 23.95377,-1.91488 32.76349,-0.13065 5.99185,1.21351 14.70251,4.52906 13.77618,5.24365 -0.25114,0.19358 -1.74627,-0.25539 -3.32273,-0.99783 -6.13548,-2.8896 -14.04343,-4.15879 -25.91204,-4.15879 -9.55466,0 -12.17522,0.24748 -18.35127,1.73219 -6.46662,1.55469 -13.80965,4.22344 -20.47423,7.44116 l -2.35272,1.13593 z m 268.71121,88.22808 c 30.19502,-6.30401 49.64079,-21.6635 56.97261,-45.00055 4.49165,-14.2969 -0.009,-30.86553 -12.1201,-44.63246 -11.08685,-12.60125 -29.30439,-21.28705 -50.79189,-24.21667 -9.33612,-1.27288 -16.91687,-1.05649 -26.13505,0.74605 -33.83396,6.61596 -54.47886,24.58373 -59.47592,51.76328 -2.20291,11.982 4.56662,28.76933 16.56993,41.09058 9.52917,9.7816 27.33139,17.9047 45.90605,20.94683 7.0565,1.15569 21.90522,0.79969 29.07437,-0.69706 z m 2.16973,-30.91336 c -3.84221,-2.16235 -13.92038,-5.76148 -19.34146,-6.90727 -2.79872,-0.59154 -7.18707,-0.76693 -13.45451,-0.53778 -7.89799,0.28877 -10.31115,0.66443 -15.99632,2.49018 -3.68236,1.18252 -7.06988,1.97144 -7.52782,1.7531 -0.45798,-0.21842 -2.41773,-2.22804 -4.35507,-4.46605 -5.05021,-5.83392 -7.14066,-11.79873 -6.96141,-19.86338 0.0795,-3.58145 0.43541,-6.9636 0.79073,-7.51595 0.35528,-0.55232 0.92104,-1.90806 1.25724,-3.01272 0.5815,-1.91086 0.54648,-1.94339 -0.72023,-0.66952 -1.10355,1.1098 -1.33619,1.15244 -1.35907,0.24918 -0.082,-3.23854 7.75888,-12.22288 14.24593,-16.32339 4.12301,-2.60622 9.91721,-5.11503 16.50387,-7.14604 6.44594,-1.98758 20.91509,-2.42206 29.26121,-0.87863 13.77103,2.54668 24.55416,7.78031 31.32236,15.20245 4.73931,5.19726 6.09512,7.85867 2.31519,4.54473 -9.95006,-8.72347 -16.78882,-12.81321 -25.75124,-15.39996 -5.2649,-1.51956 -7.48253,-1.2785 -2.74936,0.29888 7.22274,2.40698 15.84806,8.67279 19.66592,14.28612 4.38608,6.44877 5.76703,10.5908 5.7403,17.21765 -0.0279,6.68052 -1.51015,11.11412 -5.71143,17.07218 -2.62581,3.72384 -11.59335,11.40911 -13.24214,11.34863 -0.49228,-0.0169 -2.26199,-0.80212 -3.93269,-1.74238 z M 534.5179,440.86588 c 1.90269,-1.02805 2.50766,-3.28239 1.2647,-4.7128 -1.15375,-1.32772 -4.98847,-1.62908 -6.98727,-0.5491 -2.36328,1.27689 -2.42562,3.21706 -0.15957,4.96512 2.08892,1.61144 3.33285,1.6742 5.88211,0.29678 z m -14.13221,-5.65083 c 6.74551,-2.51899 10.41486,-8.75163 8.32312,-14.13731 -2.12363,-5.4678 -10.04266,-9.35501 -16.85255,-8.27244 -9.39407,1.4934 -14.26237,8.13865 -11.40327,15.5655 2.6412,6.86087 11.62638,9.94607 19.9327,6.84425 z m 53.18923,-25.78008 c -11.90111,-6.23837 -23.81707,-9.03885 -38.4125,-9.02773 -10.81607,0.008 -15.9975,0.72736 -23.37216,3.24381 -2.33866,0.79801 -4.42587,1.31691 -4.63824,1.1531 -0.76338,-0.58887 8.54436,-3.76535 13.8731,-4.73451 7.14456,-1.29941 22.93097,-1.2809 30.17583,0.0353 7.1161,1.29286 20.63205,6.39299 23.88639,9.01331 3.02012,2.43174 2.66458,2.50618 -1.51242,0.31666 z m -337.04193,78.59712 c 0.81852,1.02164 6.52389,0.93608 7.04207,-0.10554 0.23158,-0.46563 -0.95303,-3.47539 -2.63252,-6.68834 -3.91897,-7.49723 -7.67236,-18.17981 -10.42054,-29.65817 -1.19718,-5.00028 -2.17671,-9.22197 -2.17671,-9.38156 0,-0.15972 -0.87874,-0.3002 -1.95274,-0.31245 -3.23537,-0.037 -5.90539,-2.23634 -13.65489,-11.24822 -1.37242,-1.59597 -3.56307,-5.21128 -4.86815,-8.03397 -1.30505,-2.82269 -3.0389,-5.73473 -3.85297,-6.47119 -0.81411,-0.73645 -1.74835,-2.2428 -2.0761,-3.34747 -0.32776,-1.10467 -1.03557,-3.21359 -1.57292,-4.68647 l -0.97702,-2.67801 -0.64635,3.01275 c -1.00083,4.66489 -0.88575,29.41638 0.16391,35.23752 2.74008,15.19711 10.39322,29.25623 20.48192,37.62599 4.82707,4.00469 6.79542,5.13704 10.67947,6.14358 3.13281,0.81189 4.95122,0.99738 5.31582,0.54231 0.37394,-0.46676 0.74724,-0.45073 1.14782,0.0494 z m 390.85755,-2.27359 c 8.53775,-3.01521 19.35282,-11.01575 26.8198,-19.84019 13.93431,-16.46746 17.94157,-40.0954 10.19545,-60.11529 -0.77347,-1.99907 -1.55657,-4.23651 -1.74019,-4.97209 -0.45167,-1.80923 -2.1103,-3.07346 -2.1103,-1.60851 0,2.3904 -6.33258,17.01981 -10.58356,24.44991 -5.53423,9.67315 -9.25049,14.32537 -14.567,18.23594 l -4.09591,3.01273 -1.93424,8.92417 c -2.80238,12.92956 -6.80927,24.20436 -11.79628,33.19296 -0.64048,1.15439 -0.42774,1.23439 2.20304,0.82851 1.60157,-0.24721 5.02572,-1.19577 7.60919,-2.10814 z M 234.15093,439.39766 c -0.21823,-0.6444 -0.39691,-0.11711 -0.39691,1.17161 0,1.2888 0.17849,1.81603 0.39691,1.17163 0.21824,-0.6444 0.21824,-1.69884 0,-2.34324 z m 402.67705,-2.34191 c 9.48496,-7.93777 17.29618,-24.5544 22.58176,-48.03775 2.17799,-9.67646 2.33947,-11.75612 2.39153,-30.79686 0.031,-11.23084 -0.22258,-22.30384 -0.56278,-24.60673 -1.8949,-12.82528 -8.51887,-33.90796 -15.3252,-48.77668 -6.09844,-13.32235 -6.26496,-13.5322 -13.43119,-16.92753 -13.69811,-6.49009 -17.98376,-8.67036 -29.64159,-15.07986 -12.37871,-6.80584 -17.81026,-10.0524 -26.68768,-15.95182 -2.74471,-1.824 -4.99036,-3.11424 -4.99036,-2.8672 0,1.33364 8.95562,12.04154 18.49314,22.11149 18.91446,19.97042 29.35422,33.33432 37.12415,47.52248 3.981,7.2695 10.41036,22.66666 11.50383,27.54958 3.64399,16.27274 4.177,19.87938 4.63718,31.378 0.89783,22.4337 -3.13041,45.73455 -12.00746,69.45607 -2.17175,5.80339 -2.48504,7.38492 -1.62182,8.18727 1.39247,1.29427 3.038,0.60421 7.53649,-3.16046 z m -409.79554,-0.67084 c -0.25828,-1.19672 -0.84974,-3.81288 -1.31424,-5.81367 -1.75623,-7.56541 -0.60882,-38.51506 2.24793,-60.63391 1.02817,-7.96083 4.89273,-22.97161 8.66158,-33.64335 17.7893,-50.37179 60.4231,-86.10561 124.29575,-104.17935 28.35386,-8.02316 58.32304,-11.90887 109.12965,-14.14942 38.78427,-1.71035 49.94308,-2.28414 58.58269,-3.01239 11.29673,-0.95225 19.09361,-2.04565 19.09361,-2.67767 0,-0.29021 -0.77254,-1.84098 -1.71675,-3.44615 -0.9691,-1.64754 -1.725,-4.39082 -1.73577,-6.29941 -0.0217,-3.8102 -1.06118,-4.98778 -4.40374,-4.98778 -1.26597,0 -3.62882,-0.74004 -5.25076,-1.64457 -6.16931,-3.44049 -13.67435,-5.34239 -34.19309,-8.66515 -22.54843,-3.65142 -32.49497,-4.51571 -56.41293,-4.90185 -16.87735,-0.2726 -24.87768,-0.0971 -36.01405,0.79019 -60.598,4.82729 -115.52232,24.29122 -154.24851,54.66214 -11.09906,8.70442 -15.33396,12.92902 -22.9759,22.92019 -11.25225,14.71128 -18.19,27.46288 -23.29814,42.82189 -3.26906,9.8293 -3.84587,12.14243 -6.46051,25.90808 -3.14609,16.56381 -3.64551,39.57207 -1.26031,58.06374 1.14542,8.88029 8.06198,29.48027 11.84557,35.28053 3.25236,4.9858 8.83751,11.73851 11.80886,14.27742 2.63214,2.24907 4.18703,1.96143 3.61906,-0.66951 z m 10.90178,-16.17908 c 4.39216,-11.20279 9.87642,-18.11102 22.01389,-27.72993 8.4617,-6.70581 14.12914,-10.02266 23.07436,-13.50429 14.05982,-5.47226 24.34604,-6.98504 44.38684,-6.52788 12.06089,0.27514 15.34211,0.58977 21.81752,2.09208 29.75433,6.90301 53.12984,25.61434 60.62789,48.53064 l 2.04965,6.26433 4.33946,-0.40041 c 2.38671,-0.22012 10.65488,-0.40304 18.37375,-0.40623 l 14.03427,-0.006 0.56526,-2.17587 c 2.24606,-8.64569 8.534,-19.51435 15.30732,-26.45856 3.98469,-4.08523 16.02593,-13.21439 21.29941,-16.14832 4.97937,-2.77029 16.06377,-6.96512 22.85044,-8.64759 10.17143,-2.52156 15.5859,-2.97776 31.39484,-2.64519 13.02965,0.27401 16.0557,0.55316 22.66465,2.09005 15.63898,3.63678 26.23312,8.82148 39.0134,19.09295 12.80705,10.29298 20.08417,21.16841 22.85113,34.15029 0.65858,3.08991 1.35801,5.7419 1.55433,5.89333 1.12559,0.86827 4.16229,-5.14894 5.79484,-11.48259 1.63483,-6.34233 1.76245,-7.96294 0.94874,-12.04715 -0.51711,-2.59547 -1.37344,-8.7862 -1.90294,-13.75722 -1.26985,-11.92112 -2.46044,-16.50883 -7.29736,-28.11888 -12.41528,-29.80009 -23.93745,-48.42815 -39.94901,-64.586 -8.17135,-8.246 -25.14502,-19.82941 -35.83775,-24.45691 -2.978,-1.28877 -7.2996,-3.27381 -9.60356,-4.41116 l -4.18901,-2.06792 -6.42893,0.93258 c -10.70673,1.55311 -41.7894,1.88743 -54.80537,0.58951 -23.88204,-2.3815 -51.77288,-9.78457 -67.29344,-17.86166 l -3.71182,-1.93171 -5.40103,1.29642 c -2.97054,0.71306 -10.74643,2.50102 -17.27976,3.97331 -17.56781,3.95888 -37.60892,10.75727 -50.64655,17.18046 -30.54612,15.04901 -56.52627,37.98151 -74.11898,65.42427 -9.87794,15.40854 -19.76079,38.9692 -23.01497,54.86755 -2.22216,10.85659 -1.51385,29.43709 1.44878,38.00118 l 1.04218,3.01272 1.08405,-6.63875 c 0.59625,-3.65132 1.92082,-8.77297 2.94348,-11.38145 z m 38.30884,-42.62955 c 0.93505,-2.20138 13.1484,-8.04837 21.96749,-10.51668 9.616,-2.69136 33.44322,-3.3988 43.58307,-1.29402 6.27148,1.30181 16.7073,5.20013 18.52118,6.91861 1.12872,1.06942 1.08846,1.13873 -0.40949,0.70479 -14.88976,-4.31346 -20.17537,-5.23287 -32.22202,-5.6048 -18.43686,-0.56928 -28.6307,1.15049 -43.69457,7.37165 -4.62157,1.90862 -7.97311,2.95595 -7.74566,2.42045 z m 292.45878,-6.30734 c -12.32156,-4.93157 -20.49425,-6.35284 -36.53061,-6.35284 -13.49229,0 -19.84445,0.82942 -31.51457,4.11489 -7.5838,2.13503 -7.98742,1.3795 -0.96013,-1.79733 8.34453,-3.77237 15.39318,-5.1243 28.62328,-5.49001 18.59338,-0.51391 28.77219,1.25133 41.57737,7.21049 7.22106,3.36048 11.28022,6.04798 8.99384,5.95463 -0.67066,-0.0282 -5.25578,-1.66529 -10.18918,-3.63983 z m 69.72659,-4.25336 c -1.05888,-24.85582 -9.03083,-49.64758 -22.7345,-70.70142 -6.36352,-9.77666 -12.31113,-17.28318 -23.44461,-29.58953 -15.37191,-16.99136 -21.30813,-24.14663 -25.92057,-31.24345 -2.59222,-3.98843 -4.71309,-7.66898 -4.71309,-8.179 0,-0.51001 -1.67924,-2.38582 -3.73163,-4.16844 -2.05241,-1.78265 -4.62284,-4.35354 -5.71208,-5.71309 -1.08924,-1.35955 -2.38771,-2.47192 -2.88548,-2.47192 -0.49778,0 -5.64072,0.73536 -11.4288,1.6341 -10.69729,1.66108 -32.81298,3.69884 -54.78618,5.04809 -10.61819,0.65202 -27.47608,1.86082 -42.96065,3.08048 -20.33471,1.60173 -53.0459,6.1181 -54.94987,7.58683 -0.91332,0.70454 1.72944,4.4299 5.63547,7.94401 13.37715,12.03499 37.77177,21.7001 70.3519,27.87329 19.0494,3.60943 47.79658,4.81857 63.58192,2.67437 4.29609,-0.58359 8.92359,-1.15702 10.28334,-1.27435 7.18511,-0.61991 30.23252,-5.82448 37.56241,-8.48231 2.12329,-0.76992 4.10238,-1.21331 4.39797,-0.9853 1.28075,0.98798 -17.5562,6.74077 -37.85164,11.55988 -1.92517,0.45714 -0.3036,1.26739 8.23051,4.1128 8.7092,2.90377 18.05047,7.53761 25.97934,12.8874 20.73561,13.99077 39.13997,38.38209 52.02102,68.9436 1.78479,4.23459 3.78924,8.63754 4.45431,9.78437 1.65025,2.84552 5.30886,14.6828 6.01339,19.45611 0.31657,2.1448 0.82546,4.50217 1.13083,5.23863 1.03824,2.50389 1.97385,-13.34493 1.47669,-25.01515 z m -402.34612,-3.34177 c 6.07026,-13.86567 14.82158,-28.69705 22.17926,-37.58855 8.52102,-10.29738 11.10967,-13.15108 17.00469,-18.74593 6.83445,-6.48639 24.66141,-20.31233 32.4911,-25.19889 21.79622,-13.60311 51.42169,-23.97586 79.95324,-27.99406 11.05072,-1.5563 10.79446,-1.31087 5.30744,-5.08345 -4.9858,-3.42792 -12.44272,-10.56919 -13.7077,-13.12738 -1.11128,-2.24738 -1.86867,-2.30283 -8.71997,-0.63859 -22.71342,5.5173 -48.88045,16.51837 -67.60642,28.42287 -36.67983,23.31823 -59.54496,56.54339 -70.30669,102.16227 -2.72009,11.53053 -2.5659,11.43055 3.40505,-2.20829 z m -25.22776,-80.27208 c 0.89873,-1.37913 1.88677,-3.58364 2.19565,-4.89886 0.53891,-2.29473 7.81432,-12.59668 14.85955,-21.04105 11.75894,-14.09425 32.06453,-30.89654 49.25818,-40.7597 36.7254,-21.06764 78.83368,-33.90715 125.62359,-38.30471 24.7338,-2.32461 55.16686,-1.90625 78.86764,1.08421 10.66547,1.34572 38.17182,6.21833 41.66445,7.38068 1.13571,0.37795 2.26211,0.53508 2.5031,0.34917 0.24089,-0.18597 -0.3932,-2.08015 -1.40933,-4.20942 -1.01613,-2.12928 -2.15895,-5.07651 -2.53957,-6.54939 -0.84912,-3.28561 -1.87081,-3.70958 -15.5665,-6.45981 -12.58828,-2.52782 -29.17963,-3.21518 -47.10686,-1.95157 -10.47543,0.73837 -12.2681,0.70558 -16.92389,-0.3096 -7.8462,-1.71086 -37.11663,-2.11325 -52.94138,-0.72777 -33.01426,2.89045 -61.88899,11.13328 -92.39131,26.37487 -5.46786,2.73222 -11.71668,6.06541 -13.88625,7.40707 -31.0033,19.17256 -51.98724,38.35091 -64.54008,58.98664 -7.23272,11.88997 -16.55804,34.18748 -17.51544,41.88082 -0.4622,3.71404 -0.17539,3.27799 3.85754,-5.8659 2.39628,-5.43298 5.09219,-11.00654 5.99091,-12.38568 z m 558.32781,13.61243 c 8.47026,-1.26651 11.29565,-2.27374 15.92445,-5.67683 3.96091,-2.91201 8.48166,-9.3519 11.09089,-15.7991 2.07548,-5.12854 3.5667,-22.37094 2.94301,-34.03038 -1.35634,-25.35582 -13.49198,-44.15055 -34.69844,-53.73819 -15.44015,-6.98062 -36.57895,-10.76363 -62.2282,-11.13639 -38.8979,-0.5653 -77.62064,3.5828 -133.22133,14.27099 -18.79556,3.61311 -17.94399,3.27704 -19.82293,7.82295 -1.56926,3.7967 -1.56619,3.87541 0.30049,7.71724 1.03734,2.13477 2.63218,4.24085 3.54407,4.68015 0.91189,0.43933 1.67043,1.2535 1.68561,1.80932 0.0403,1.47641 2.31485,3.55737 3.34927,3.06423 0.48874,-0.2331 1.54898,0.5653 2.3561,1.77407 2.51353,3.7645 5.42134,6.30203 14.0583,12.26803 14.94442,10.32294 49.6944,29.64115 60.05475,33.38564 1.67068,0.60382 5.77147,2.44125 9.11286,4.08317 7.89174,3.87794 32.95857,13.48698 45.13034,17.30014 22.81543,7.14761 42.39599,11.13641 60.80761,12.38726 12.59446,0.85565 12.67629,0.85486 19.61299,-0.1823 z M 550.04212,190.44984 c 1.35338,-0.24805 7.14729,-1.48191 12.87537,-2.74173 18.07291,-3.97491 32.50133,-6.72387 48.17064,-9.17764 24.41788,-3.82377 60.40622,-7.09905 78.00343,-7.09905 h 6.49201 l 3.84096,-3.1801 c 15.39067,-12.74266 20.0783,-23.49334 15.83679,-36.32023 -4.25079,-12.85489 -15.71134,-23.16991 -35.79718,-32.219104 -6.20223,-2.794251 -22.88441,-8.590378 -24.77891,-8.609277 -0.60313,-0.0059 -1.77479,-0.303652 -2.60367,-0.661409 -4.9185,-2.122937 -30.21828,-6.399392 -44.0011,-7.437571 -10.53907,-0.793842 -51.79437,-0.553397 -54.27583,0.316331 -2.07653,0.727811 -6.44526,6.182618 -11.31818,14.131931 -13.35384,21.784359 -18.17502,37.247589 -18.18502,58.325939 -0.006,12.0546 1.32759,19.49568 5.01098,27.96591 2.26729,5.21382 2.53321,5.50149 6.70043,7.24957 2.38672,1.00116 5.02293,1.65874 5.8583,1.46125 1.03662,-0.24494 1.51878,0.006 1.51878,0.78807 0,0.91828 0.41815,0.7991 2.09578,-0.5973 1.15267,-0.95945 3.20306,-1.94745 4.55642,-2.19559 z"
       id="path6161"
       inkscape:connector-curvature="0" />
  </g>
</svg>
