<?xml version="1.0" encoding="UTF-8" standalone="no"?>
<!-- Created with Inkscape (http://www.inkscape.org/) -->

<svg
   xmlns:dc="http://purl.org/dc/elements/1.1/"
   xmlns:cc="http://creativecommons.org/ns#"
   xmlns:rdf="http://www.w3.org/1999/02/22-rdf-syntax-ns#"
   xmlns:svg="http://www.w3.org/2000/svg"
   xmlns="http://www.w3.org/2000/svg"
   xmlns:sodipodi="http://sodipodi.sourceforge.net/DTD/sodipodi-0.dtd"
   xmlns:inkscape="http://www.inkscape.org/namespaces/inkscape"
   width="600"
   height="800"
   viewBox="0 0 158.74999 211.66667"
   version="1.1"
   id="svg8"
   inkscape:version="0.92.4 (unknown)"
   sodipodi:docname="girl.svg">
  <defs
     id="defs2" />
  <sodipodi:namedview
     id="base"
     pagecolor="#ffffff"
     bordercolor="#666666"
     borderopacity="1.0"
     inkscape:pageopacity="0.0"
     inkscape:pageshadow="2"
     inkscape:zoom="1"
     inkscape:cx="114.91278"
     inkscape:cy="387.78767"
     inkscape:document-units="px"
     inkscape:current-layer="layer1"
     showgrid="false"
     units="px"
     inkscape:window-width="1855"
     inkscape:window-height="1056"
     inkscape:window-x="65"
     inkscape:window-y="24"
     inkscape:window-maximized="1" />
  <metadata
     id="metadata5">
    <rdf:RDF>
      <cc:Work
         rdf:about="">
        <dc:format>image/svg+xml</dc:format>
        <dc:type
           rdf:resource="http://purl.org/dc/dcmitype/StillImage" />
        <dc:title></dc:title>
      </cc:Work>
    </rdf:RDF>
  </metadata>
  <g
     inkscape:label="Layer 1"
     inkscape:groupmode="layer"
     id="layer1"
     transform="translate(0,-85.333327)">
    <path
       style="fill:none;stroke-width:1"
       d="m 91.47339,261.94933 c -3.049897,-0.24476 -5.942924,-0.84937 -8.629074,-1.80338 -2.252979,-0.80016 -2.311301,-0.80814 -3.276864,-0.44853 -6.014084,2.2399 -14.663314,2.83384 -20.862697,1.43262 -6.788879,-1.53446 -11.936845,-5.20494 -13.971534,-9.96166 -1.807164,-4.2248 -2.085071,-9.97782 -0.868306,-17.97507 l 0.124508,-0.81834 -2.254467,-1.22358 c -5.045411,-2.7383 -7.081938,-5.29851 -7.494492,-9.42165 -0.204667,-2.04547 0.160463,-4.0038 1.011006,-5.42242 0.618976,-1.03238 0.703153,-1.39129 0.831653,-3.54587 0.123974,-2.07869 0.231527,-2.56593 0.809453,-3.66696 0.976114,-1.85964 1.986694,-2.57654 4.903695,-3.47866 3.840774,-1.1878 4.54937,-1.73391 8.49593,-6.54789 1.553472,-1.8949 3.171805,-3.69844 3.596299,-4.00787 0.424493,-0.30943 0.771343,-0.6152 0.770779,-0.6795 -6.81e-4,-0.0643 -1.105834,-0.58969 -2.456155,-1.16755 -1.350321,-0.57786 -4.069782,-1.92201 -6.043246,-2.987 -1.973465,-1.06499 -3.650494,-1.85478 -3.726727,-1.75509 -2.239514,2.92857 -4.559505,7.47218 -5.248338,10.27868 -0.308264,1.25594 -0.620835,1.9914 -1.000057,2.35305 -1.02494,0.97745 -1.140535,0.65891 -0.734004,-2.02265 0.481978,-3.17927 2.14425,-6.98604 4.488608,-10.27937 l 1.152798,-1.61944 -1.242749,-0.82513 c -0.683512,-0.45383 -2.115676,-1.57695 -3.182588,-2.49586 -1.066909,-0.91889 -2.015115,-1.58441 -2.107125,-1.47892 -0.593917,0.68092 -3.60102,4.76444 -5.995326,8.14139 -5.015124,7.07338 -6.052288,8.40342 -6.25325,8.01909 -0.33925,-0.64882 0.251665,-2.03665 2.142246,-5.03129 3.187551,-5.04902 5.374865,-8.13187 7.992823,-11.26526 l 1.055331,-1.26311 -1.072828,-1.19191 c -1.66251,-1.84705 -2.94727,-3.66209 -4.2271,-5.9718 -0.645251,-1.16449 -1.227333,-2.11732 -1.293516,-2.1174 -0.06618,-9e-5 -1.295007,1.02067 -2.73072,2.26836 -4.050907,3.52038 -9.781284,9.79536 -11.660458,12.76863 -0.658674,1.04218 -1.60862,1.80727 -1.881413,1.5153 -0.256362,-0.27438 0.896807,-2.92542 2.149942,-4.94254 1.534212,-2.46956 7.675317,-9.18938 10.503401,-11.4932 0.947023,-0.77147 1.960283,-1.6131 2.25169,-1.8703 l 0.529832,-0.46762 -0.764242,-2.45502 c -1.165879,-3.74523 -1.522299,-6.27583 -1.531284,-10.87225 -0.01391,-7.11391 1.263584,-11.56064 5.826823,-20.28221 0.891776,-1.70442 2.047699,-3.93665 2.568717,-4.9605 l 0.947304,-1.86155 -0.505205,-1.99634 c -1.407154,-5.56046 -1.58261,-6.61393 -1.617545,-9.71213 -0.02461,-2.18291 0.07827,-3.59862 0.365048,-5.02328 0.717387,-3.5638 2.269247,-7.18833 3.675742,-8.58509 2.078692,-2.06429 5.643751,-1.60984 11.981567,1.52734 4.991124,2.47058 11.870941,5.76486 12.888997,6.17168 1.509236,0.60309 3.089551,0.59432 6.990642,-0.0388 4.370706,-0.70933 10.915344,-0.66148 15.414359,0.11269 l 0.886929,0.15261 1.096891,-1.83481 c 0.60329,-1.00915 1.727912,-2.97692 2.499161,-4.37282 3.250913,-5.883872 5.679123,-7.778838 9.880631,-7.710799 1.440419,0.02332 1.923422,0.142098 3.100934,0.762527 2.322371,1.223653 3.903581,3.168422 5.228691,6.430872 0.40106,0.98741 0.77693,1.84638 0.83527,1.90883 0.0583,0.0624 1.07693,-0.37624 2.26352,-0.97485 3.85627,-1.94542 4.80198,-2.38014 6.55142,-3.01153 2.42443,-0.87502 4.38606,-1.2826 6.99527,-1.45347 2.21077,-0.14477 2.27223,-0.13497 3.12662,0.49874 2.1536,1.59734 3.521,5.00221 3.78696,9.42963 0.0486,0.8093 0.17752,1.55485 0.28646,1.65678 0.10893,0.10193 0.82418,0.30375 1.58943,0.44848 3.9363,0.74447 6.80712,3.48215 7.41958,7.07546 0.72767,4.26931 -1.02315,12.58757 -3.83567,18.22356 -2.8714,5.75396 -5.5007,7.97067 -9.89057,8.33859 -4.88785,0.40965 -9.1009,-2.77454 -11.93839,-9.02294 l -1.05984,-2.33384 -1.68229,-0.0107 c -3.51051,-0.0223 -5.95622,-1.06642 -8.32068,-3.55229 l -1.524834,-1.60313 -1.663655,0.58043 c -7.408014,2.5846 -14.927052,-0.39282 -16.815511,-6.65865 -0.714614,-2.37106 -0.347297,-6.21633 0.945771,-9.90081 0.410658,-1.17014 0.694922,-2.18305 0.6317,-2.25091 -0.195792,-0.21017 -10.516383,-0.36574 -13.514352,-0.20372 -1.561972,0.0844 -3.710319,0.32065 -4.774103,0.52497 -1.063785,0.20431 -2.341762,0.31013 -2.839948,0.23516 -1.757108,-0.26446 -4.303789,-1.31445 -8.263018,-3.40684 -5.296409,-2.79907 -7.396734,-3.855 -9.275522,-4.66323 -3.618151,-1.55649 -6.589012,-1.77028 -8.048103,-0.57916 -2.389555,1.9507 -4.033061,7.28625 -4.061559,13.18563 -0.01561,3.23148 0.390895,5.7391 1.479506,9.12667 0.943193,2.93505 0.901821,3.18596 -1.049883,6.36714 -4.029994,6.5687 -6.166486,11.56822 -7.21702,16.88825 -0.66976,3.39175 -0.671671,9.54934 -0.004,12.92937 0.373097,1.88881 1.447741,5.84192 1.661476,6.1118 0.02484,0.0314 1.108101,-0.52101 2.407246,-1.2275 3.210857,-1.74613 4.810285,-1.7616 3.39207,-0.0328 -0.644722,0.7859 -1.597861,1.49801 -3.766968,2.81435 l -1.037474,0.6296 0.468041,0.98397 c 0.737329,1.55009 2.439017,4.15561 4.145146,6.34677 l 1.56726,2.01282 1.475945,-1.52505 c 0.811771,-0.83878 1.632964,-1.52506 1.824875,-1.52506 0.812965,0 0.176937,1.85482 -1.149732,3.35291 l -0.795145,0.89789 1.186477,1.14603 c 0.652564,0.63031 2.026939,1.78586 3.05417,2.5679 l 1.86769,1.42189 0.626185,-0.83541 c 0.623447,-0.83177 1.457636,-1.12598 1.457636,-0.5141 0,0.17673 -0.142633,0.754 -0.316964,1.28284 l -0.316963,0.96151 0.918774,0.57628 c 2.764746,1.73413 8.73683,4.26979 13.52711,5.74343 17.207794,5.29364 37.83694,4.83846 52.708371,-1.16301 3.02935,-1.22251 7.29608,-3.41344 7.44242,-3.82163 0.0669,-0.18645 -0.23407,-0.934 -0.66871,-1.6612 -0.52712,-0.88195 -0.74497,-1.47493 -0.65424,-1.78087 0.21554,-0.72683 0.57844,-0.55379 1.95029,0.92995 l 1.28389,1.38862 1.00307,-0.72488 c 1.15721,-0.83626 3.04345,-2.46977 4.21976,-3.65437 l 0.81366,-0.81939 -0.79456,-1.06896 c -0.43701,-0.58794 -1.2304,-1.55631 -1.76309,-2.15196 -0.60148,-0.67256 -0.93892,-1.2475 -0.89042,-1.51709 0.1653,-0.91862 0.81313,-0.56328 2.64469,1.45065 l 1.84867,2.03272 0.93085,-1.25998 c 0.51197,-0.693 1.27714,-1.83868 1.70038,-2.54595 0.91316,-1.52603 2.88833,-5.78804 2.88833,-6.23244 0,-0.25998 -2.41266,-2.0844 -4.86068,-3.67557 -0.54131,-0.35184 -0.85493,-1.31495 -0.4282,-1.31495 0.68611,0 3.02164,0.87193 4.38779,1.63811 0.90288,0.50636 1.6888,0.87011 1.74651,0.80834 0.28153,-0.30131 1.14857,-5.22401 1.36159,-7.73058 0.41256,-4.85454 -0.44271,-11.33339 -1.96536,-14.88798 -0.7531,-1.7581 -0.93789,-3.26285 -0.33491,-2.72726 0.56423,0.50119 1.09533,1.82477 1.8238,4.54515 1.20188,4.48831 1.43328,6.32173 1.43121,11.33986 -0.002,4.17187 -0.0554,4.81447 -0.63219,7.56157 l -0.63031,3.00224 0.56373,0.50493 c 3.97384,3.5594 8.70782,8.14037 10.49512,10.15589 1.88391,2.12447 3.75965,5.33453 4.16339,7.12504 0.27705,1.22867 -0.84604,0.66111 -1.8576,-0.93875 -2.16124,-3.41814 -8.17971,-9.88145 -12.74194,-13.68371 l -1.30107,-1.08433 -1.32539,2.73876 c -1.30843,2.70368 -2.54399,4.69939 -3.98264,6.43284 l -0.73725,0.88832 0.78956,0.98217 c 3.14497,3.91213 4.49935,5.75173 5.90353,8.01854 1.54483,2.49388 3.91851,7.30614 3.71254,7.52659 -0.0547,0.0585 -0.32671,0.0454 -0.60448,-0.0292 -0.32899,-0.0884 -1.29876,-1.30031 -2.78205,-3.4768 -2.62166,-3.84686 -6.98316,-10.06157 -7.7083,-10.98358 l -0.49398,-0.6281 -0.98306,0.96003 c -0.54069,0.52802 -1.89239,1.68386 -3.0038,2.56855 -1.1114,0.88469 -2.02073,1.6539 -2.02073,1.70938 0,0.0555 0.33064,0.65528 0.73477,1.33291 1.00337,1.68245 2.85716,5.65279 3.30448,7.07734 0.36828,1.17286 0.72551,4.55933 0.48094,4.55933 -0.0718,0 -0.37003,-0.11681 -0.66281,-0.2596 -0.63605,-0.31016 -0.9286,-0.93413 -1.1377,-2.42652 -0.17099,-1.22038 -1.85235,-4.90988 -3.42481,-7.51525 l -1.00626,-1.66724 -2.93348,1.55033 c -1.61342,0.85269 -3.85804,1.91199 -4.98805,2.35401 -1.13001,0.44201 -2.09922,0.84052 -2.1538,0.88558 -0.22105,0.18248 9.94595,10.81968 10.34141,10.81968 0.71036,0 3.4619,0.95706 4.7492,1.65191 2.49882,1.34878 3.47702,2.99197 3.68155,6.18426 0.11577,1.80709 0.2542,2.3659 0.97031,3.91704 l 0.83525,1.80926 -0.0904,2.86349 c -0.0827,2.62007 -0.14486,2.97282 -0.73059,4.14946 -0.35209,0.70728 -1.29082,1.96986 -2.08609,2.80574 -2.10858,2.21629 -4.62993,3.55514 -8.15123,4.32836 -0.60501,0.13285 -0.62388,0.17733 -0.49668,1.17062 0.98073,7.6581 0.47248,13.6988 -1.50645,17.90462 -0.81707,1.73653 -2.13967,3.48474 -2.63635,3.48474 -0.16625,0 -0.30227,0.15782 -0.30227,0.35072 0,0.41924 -0.0454,0.42508 -0.72559,0.0934 l -0.5277,-0.25733 0.95877,-0.94589 c 1.29025,-1.2729 2.7657,-3.70016 3.37595,-5.55379 0.40709,-1.23654 0.51646,-2.14071 0.58683,-4.85159 0.0696,-2.67951 0.029,-3.33181 -0.20707,-3.33178 -0.16146,2e-5 -1.08,0.16175 -2.04121,0.3594 -2.83453,0.58284 -8.47312,1.45415 -12.34286,1.9073 -2.837922,0.33232 -5.381733,0.42209 -11.960585,0.42209 h -8.356026 l 3.7e-5,7.31493 3.5e-5,7.31492 0.928445,0.42174 c 1.343835,0.61043 4.109394,1.36417 6.512514,1.77495 2.489261,0.4255 8.115164,0.48698 10.572001,0.11552 3.341669,-0.50523 7.861169,-2.02316 9.352499,-3.14114 0.65208,-0.48884 0.81556,-0.44945 0.81556,0.19648 0,0.45808 -0.25668,0.67606 -1.49247,1.26747 -4.72194,2.25974 -10.940214,3.31887 -16.74873,2.85272 z m -22.173443,-1.16979 c 3.151392,-0.29272 5.55445,-0.75368 8.652563,-1.65973 l 2.426521,-0.70965 0.139046,-1.91154 c 0.07647,-1.05135 0.139634,-4.36565 0.140355,-7.36511 l 0.0013,-5.45357 -5.079138,0.11314 c -10.87347,0.24221 -21.225855,-0.78532 -28.877449,-2.86624 -1.434358,-0.39009 -2.663181,-0.64885 -2.73072,-0.57503 -0.06754,0.0738 -0.103577,1.25526 -0.08009,2.62542 0.120875,7.05161 3.31086,12.2604 9.33188,15.23763 4.607352,2.27821 9.962339,3.13253 16.075723,2.56468 z m 33.311623,-18.44362 c 3.78753,-0.47772 9.53975,-1.38395 12.54086,-1.97574 l 1.44358,-0.28466 -0.0367,-1.39525 c -0.0745,-2.82828 -1.26888,-9.18186 -2.70166,-14.3718 -1.13848,-4.12389 -1.5639,-5.47722 -3.74847,-11.9244 -2.36389,-6.97637 -4.375,-13.42631 -4.79338,-15.37312 -0.14717,-0.68481 -0.38593,-1.22751 -0.54005,-1.22751 -0.15193,0 -1.25404,0.2534 -2.44911,0.56311 -1.19508,0.30971 -2.946272,0.68397 -3.891542,0.83169 -0.94527,0.14772 -2.022301,0.31677 -2.393402,0.37566 l -0.674726,0.10707 -0.256425,2.53041 c -0.338332,3.33869 -0.724628,4.88709 -1.816874,7.28265 -0.663395,1.45497 -1.276271,2.37726 -2.287714,3.44265 -2.426612,2.55605 -4.233059,3.22324 -8.707732,3.21609 -2.597159,-0.004 -3.289029,-0.0862 -4.587609,-0.54375 -4.097475,-1.44387 -6.931171,-4.14054 -9.01608,-8.58008 -0.884825,-1.88412 -2.015579,-5.76416 -2.015872,-6.91721 -8.5e-5,-0.33789 -0.123072,-0.72353 -0.273303,-0.85697 -0.245789,-0.21833 -5.675296,-1.45793 -6.336622,-1.44671 -0.149403,0.003 -0.605072,0.60752 -1.012599,1.34442 -8.529586,15.42331 -11.307693,21.87545 -13.451765,31.24165 -0.817241,3.57005 -0.815034,3.5581 -1.310299,7.09731 -0.560844,4.00784 -0.78802,3.59509 2.45018,4.45173 3.449598,0.91255 8.096979,1.77922 12.397468,2.31194 2.580431,0.31965 5.188091,0.40823 12.26962,0.41675 4.946015,0.006 9.062806,-0.064 9.148422,-0.15534 0.08562,-0.0914 0.143957,-0.8805 0.129646,-1.75358 -0.02851,-1.73918 0.237263,-2.55462 0.631688,-1.93814 0.123415,0.19289 0.209035,0.82418 0.190267,1.40287 -0.06629,2.0439 0.0082,2.53321 0.404557,2.65783 0.210266,0.0661 4.068773,0.0855 8.57446,0.0431 6.62111,-0.0623 8.945658,-0.17213 12.121236,-0.57267 z m 16.93444,-10.79525 c 4.35226,-1.29085 7.31899,-4.12844 8.23302,-7.87465 0.4307,-1.76524 0.25554,-3.05381 -0.79772,-5.86842 -0.61473,-1.64273 -0.88464,-2.76619 -0.99165,-4.12756 -0.0809,-1.02878 -0.24095,-2.26644 -0.35576,-2.75036 -0.43657,-1.84019 -2.3208,-3.34878 -4.8872,-3.91291 -0.72091,-0.15847 -1.94613,-0.53411 -2.72271,-0.83477 -0.77658,-0.30065 -1.42414,-0.52525 -1.43902,-0.4991 -0.33329,0.58553 -2.80154,4.02454 -3.88809,5.41726 -0.79919,1.02441 -1.45308,1.95595 -1.45308,2.07011 0,0.11416 0.78188,2.59029 1.7375,5.50252 1.8523,5.64482 2.53636,7.91782 3.2823,10.90644 0.25677,1.02877 0.50725,2.00201 0.55662,2.16275 0.12742,0.41488 0.85383,0.36389 2.72579,-0.19131 z m -75.262781,-1.56158 c 0.465736,-3.32402 3.022316,-11.28262 5.449754,-16.96499 0.428788,-1.00375 0.778117,-1.95068 0.776289,-2.10431 -0.0017,-0.15362 -0.679884,-1.19548 -1.50679,-2.31524 -0.826903,-1.11976 -1.635854,-2.35604 -1.797663,-2.74729 -0.319269,-0.77197 -0.455521,-0.82003 -1.411076,-0.49773 -0.348346,0.1175 -1.567263,0.44538 -2.708704,0.72863 -2.293173,0.56904 -3.507399,1.13323 -4.44327,2.06457 -0.993304,0.9885 -1.268674,1.81591 -1.481437,4.45133 -0.179786,2.22695 -0.277048,2.61247 -0.957121,3.79382 -2.767084,4.80667 -0.542918,10.46516 5.355778,13.6256 1.104058,0.59154 2.133681,1.07552 2.288054,1.07552 0.167339,0 0.34347,-0.44818 0.436186,-1.10991 z m 41.206429,-16.89843 c 5.080124,-1.03114 7.991704,-5.48966 8.678111,-13.28886 l 0.171959,-1.95385 -1.32394,0.14216 c -0.728167,0.0782 -4.088871,0.20862 -7.46823,0.28987 -6.335324,0.1523 -11.017092,-0.0747 -15.671322,-0.75989 -1.305089,-0.19214 -2.417154,-0.30196 -2.471256,-0.24406 -0.174761,0.18705 0.770592,4.05492 1.455999,5.95716 1.36752,3.79533 4.160126,7.10892 7.306247,8.66928 2.593694,1.28638 6.429851,1.77532 9.322432,1.18819 z m 26.369022,-2.56257 c 0.72715,-0.56376 3.97273,-5.23105 3.97273,-5.71296 0,-0.20063 -2.24054,-3.02953 -3.26427,-4.12149 -0.8236,-0.87847 -2.82411,-2.80606 -5.38546,-5.18913 -0.50879,-0.47338 -1.18086,-0.33898 -1.18086,0.23614 0,0.20064 0.93391,3.39172 2.07535,7.09129 1.14144,3.69958 2.07534,6.83159 2.07534,6.96004 0,0.44268 0.42653,1.43303 0.61719,1.43303 0.1051,0 0.59559,-0.31361 1.08998,-0.69692 z m -59.521222,-2.52345 c 0.462992,-0.99361 2.035887,-4.12009 3.49532,-6.94772 1.459437,-2.82763 2.682655,-5.20961 2.718266,-5.29329 0.07538,-0.17716 -2.065326,-0.7675 -2.63689,-0.72718 -0.732947,0.0517 -6.847329,6.25447 -8.152751,8.27059 l -0.561731,0.86754 1.147457,1.81998 c 1.120635,1.77742 2.740808,3.83303 3.012506,3.82212 0.07481,-0.003 0.514832,-0.81841 0.977823,-1.81204 z m 74.853752,-62.51206 c 3.12102,-1.55492 5.93289,-5.79169 7.8932,-11.89304 1.38305,-4.30466 2.02612,-8.19028 1.89418,-11.44535 -0.14562,-3.59291 -1.30254,-5.73795 -3.80625,-7.05715 -2.57537,-1.35696 -5.71957,-1.17197 -8.87016,0.5219 -2.03452,1.09382 -6.06193,4.01864 -6.06504,4.40459 -0.003,0.35876 0.66144,3.34995 0.77443,3.48696 0.0371,0.045 0.42614,-0.045 0.86456,-0.19981 1.1284,-0.39858 2.45191,0.17888 3.5947,1.5684 1.01,1.22806 1.31442,2.19258 1.31612,4.17004 0.002,2.66915 -1.45797,4.54281 -4.2633,5.47019 -1.44864,0.47888 -6.68114,1.08997 -7.6448,0.8928 -0.68048,-0.13922 -0.68533,0.0845 -0.0428,1.97624 1.24597,3.6684 4.22476,6.97872 7.47132,8.30287 1.87894,0.76636 5.13553,0.67239 6.88385,-0.19864 z m -13.17702,-11.79194 c 2.0852,-1.08218 3.35635,-3.25763 3.80969,-6.51993 0.47243,-3.39961 -0.55448,-7.59791 -2.22916,-9.11346 -1.92939,-1.74607 -4.68494,-2.43047 -8.12149,-2.01717 -2.95793,0.35574 -4.0856,0.7761 -5.35253,1.99524 -4.465985,4.29751 -2.851097,13.76618 2.73395,16.03009 1.67099,0.67734 4.94886,0.93021 6.71684,0.51817 0.72091,-0.16801 1.82012,-0.56984 2.4427,-0.89294 z m 5.85964,0.68072 c 2.07064,-0.75513 3.82608,-3.37877 4.00197,-5.98129 0.10967,-1.62272 -0.19667,-2.51214 -1.18523,-3.4411 -0.97145,-0.9129 -2.1186,-1.14021 -3.04871,-0.60411 -0.6288,0.36244 -0.72428,0.55328 -0.86046,1.71984 -0.24516,2.10011 -0.89586,4.02011 -2.07264,6.1157 -0.60333,1.07441 -1.07212,1.97936 -1.04178,2.01101 0.0303,0.0316 0.39927,0.16272 0.8198,0.29127 1.15373,0.3527 2.20984,0.31799 3.38705,-0.11132 z m -22.229014,-4.06555 c 0.986531,-0.32994 1.583818,-0.65443 1.583818,-0.86046 0,-0.18193 -0.975663,-1.41776 -2.16814,-2.7463 -3.15241,-3.51211 -3.792851,-4.77752 -3.758027,-7.42528 0.05326,-4.04947 3.82481,-6.76898 7.519123,-5.42173 0.93476,0.34089 2.14965,1.47584 2.38348,2.22664 0.072,0.23117 0.39166,0.16648 1.33228,-0.2696 l 1.23756,-0.57375 0.004,-1.4307 c 0.008,-3.26282 -1.14109,-8.04214 -2.53125,-10.52349 -1.94793,-3.476927 -4.302809,-4.97188 -7.411158,-4.704835 -2.074869,0.178256 -3.470345,1.028513 -5.632608,3.431925 -4.239269,4.71205 -7.799693,12.09858 -8.431605,17.49238 -0.664972,5.676 1.946887,9.76063 7.141402,11.1683 1.919486,0.52015 6.68263,0.32208 8.73139,-0.3631 z m 0.79968,-5.78563 c 0.173372,-1.88312 0.772085,-3.35391 2.457444,-6.03693 l 1.23901,-1.97244 -0.63694,-0.71707 c -0.88174,-0.99266 -1.7249,-1.41572 -2.82152,-1.41572 -1.173185,0 -2.000075,0.45266 -3.007879,1.64658 -0.788152,0.9337 -1.470502,2.7916 -1.470502,4.00387 0,0.96642 0.591763,2.85642 1.146171,3.66069 0.625219,0.907 2.293413,2.41841 2.669278,2.41841 0.184357,0 0.328296,-0.5377 0.424938,-1.58739 z m 21.880954,-7.42053 c 2.73348,-1.94828 4.19354,-2.73393 5.99192,-3.22422 l 1.20152,-0.32757 0.0708,-1.02676 c 0.17375,-2.51997 -0.82023,-6.94034 -1.92081,-8.54207 -0.8353,-1.21568 -1.8171,-1.72025 -3.34723,-1.72025 -2.93629,0 -8.99627,1.88837 -13.14265,4.09543 -3.55516,1.89236 -3.30261,1.50522 -2.87936,4.41377 0.19611,1.34765 0.35656,2.81435 0.35656,3.25935 v 0.80909 l 1.80227,-0.0173 c 0.99126,-0.009 2.34296,0.11806 3.0038,0.28345 1.72976,0.43292 4.13349,1.71313 5.25645,2.79957 0.53328,0.51593 1.00743,0.94237 1.05367,0.94764 0.0463,0.005 1.19513,-0.7823 2.55307,-1.75016 z m -9.51857,139.94245 c 0,-0.30136 0.11063,-0.46713 0.27308,-0.40918 0.15019,0.0536 0.27307,0.23771 0.27307,0.40918 0,0.17146 -0.12288,0.35558 -0.27307,0.40917 -0.16245,0.0579 -0.27308,-0.10781 -0.27308,-0.40917 z M 78.513677,178.71292 c -2.625891,-0.59227 -4.295866,-2.07363 -4.654617,-4.12891 -0.399987,-2.2915 0.806033,-4.27332 3.127292,-5.13899 1.607501,-0.59948 5.332115,-0.60508 6.772519,-0.0102 1.631536,0.67383 3.015246,2.67939 3.015246,4.3703 0,0.83801 -0.506595,2.17595 -1.095889,2.89429 -1.324492,1.61453 -4.712247,2.56662 -7.164551,2.0135 z m 4.1338,-0.95582 c 1.062066,-0.28364 2.153437,-1.1036 2.77785,-2.08703 0.426717,-0.67206 0.501351,-1.03806 0.431091,-2.11402 -0.106525,-1.63137 -0.696928,-2.56473 -2.085182,-3.29647 -0.887787,-0.46794 -1.366832,-0.54614 -3.345634,-0.54614 -2.138844,0 -2.40473,0.0522 -3.59854,0.70571 -1.783125,0.9762 -2.350503,1.91007 -2.234897,3.6785 0.07157,1.09484 0.207069,1.4789 0.72932,2.06726 1.581482,1.78168 4.357442,2.38499 7.325992,1.59219 z M 50.18491,169.58676 c -0.860889,-0.27804 -1.741548,-1.17848 -2.343761,-2.39639 -0.714892,-1.44579 -0.703919,-4.50732 0.0218,-6.08493 0.746074,-1.62184 1.899392,-2.38115 3.616744,-2.38115 1.641359,0 2.484295,0.5667 3.219453,2.1644 1.124846,2.44459 0.412009,6.62611 -1.374832,8.06481 -0.837984,0.6747 -2.175659,0.94453 -3.139413,0.63326 z m 56.8177,-0.0123 c -2.63014,-0.79248 -3.88186,-5.84556 -2.17757,-8.7906 1.6677,-2.88179 5.22437,-2.87391 6.61292,0.0147 0.99078,2.06108 0.72301,5.49909 -0.57326,7.36053 -0.87777,1.26045 -2.45631,1.83897 -3.86209,1.4154 z"
       id="path3900"
       inkscape:connector-curvature="0" />
    <path
       style="fill:#000000;stroke-width:1"
       d="m 66.655223,263.21013 c -1.418693,-0.46077 -1.940278,-0.91306 -1.940278,-1.68249 0,-0.8314 0.431137,-1.08267 1.075178,-0.62662 0.417686,0.29577 0.398283,0.3261 -0.105039,0.16418 -0.437049,-0.14059 -0.617361,-0.008 -0.617361,0.45401 0,0.81243 2.241486,1.44192 5.134366,1.44192 H 72.2018 l -0.252533,-1.32292 c -0.138895,-0.7276 -0.231927,-2.56095 -0.206742,-4.07412 l 0.04579,-2.75121 -0.802658,0.43638 c -1.192618,0.64839 -3.165471,0.38607 -3.881617,-0.51611 -0.598654,-0.75416 -0.609657,-0.73624 -0.617361,1.00573 -0.0043,0.97548 -0.226886,2.08673 -0.494605,2.46945 -0.267716,0.38272 -0.566801,1.01336 -0.664634,1.40141 -0.17376,0.68925 -0.178819,0.68877 -0.218796,-0.0208 -0.02251,-0.39947 0.192154,-1.03447 0.477026,-1.41111 0.559559,-0.7398 0.665992,-2.31574 0.324609,-4.8064 -0.176855,-1.29029 -0.387227,-1.63899 -1.166238,-1.93303 -0.786701,-0.29694 -1.142143,-0.90034 -2.062956,-3.50206 -1.57141,-4.43994 -2.510261,-8.0405 -2.778005,-10.65382 -0.191985,-1.87392 -0.418398,-2.44957 -1.353344,-3.4409 -1.090161,-1.1559 -1.948681,-3.20839 -1.948681,-4.65877 0,-1.40447 -1.370979,-1.22088 -2.948965,0.3949 -4.439983,4.54633 -7.307657,6.23552 -8.603541,5.06788 -0.340081,-0.30642 -1.173952,-0.60923 -1.85305,-0.67291 -1.049842,-0.0984 -1.234722,-0.24742 -1.234722,-0.99494 0,-0.66282 0.311242,-1.02573 1.264768,-1.47471 1.533391,-0.72201 3.281737,-2.65072 4.296837,-4.7401 l 0.751869,-1.54758 -1.106812,-1.14728 c -0.60875,-0.631 -1.348102,-1.61529 -1.64301,-2.18731 -0.49366,-0.95754 -0.481372,-1.12873 0.15494,-2.15831 0.380122,-0.61505 0.693561,-1.49641 0.696531,-1.95857 0.0068,-1.05728 0.186959,-1.30202 1.992934,-2.70728 0.808041,-0.62876 1.875031,-1.83575 2.37109,-2.6822 0.496055,-0.84646 2.335244,-2.88828 4.087082,-4.53739 1.751838,-1.64911 3.18516,-3.08432 3.18516,-3.18936 0,-0.10504 -0.833437,-0.46382 -1.852083,-0.79729 -5.955782,-1.94969 -12.158829,-6.86615 -15.059491,-11.93598 -0.791249,-1.38296 -1.34777,-1.97831 -1.849282,-1.97831 -0.530518,0 -0.657405,0.15637 -0.487073,0.60024 0.55706,1.45168 1.660846,8.13999 2.184724,13.23816 0.453933,4.41749 0.494436,6.25072 0.198748,8.99583 l -0.371366,3.44772 0.156581,-2.99862 c 0.08612,-1.64923 -0.0089,-4.74486 -0.211233,-6.87916 -0.377536,-3.98316 -1.998673,-14.99202 -2.337848,-15.87589 -0.104291,-0.27178 -0.72603,-0.67118 -1.381639,-0.88756 -1.629262,-0.5377 -4.186541,-3.48421 -5.137623,-5.91959 -0.677277,-1.73426 -0.789259,-2.71622 -0.812712,-7.12669 -0.01496,-2.8134 0.110151,-6.02809 0.278028,-7.14375 0.281527,-1.87092 0.252642,-2.02847 -0.371906,-2.02847 -1.017845,0 -3.61279,1.77368 -5.727911,3.91511 -2.540483,2.57208 -6.756753,11.19121 -8.784173,17.95712 -2.38905,7.97273 -2.95299,11.14846 -3.15023,17.74003 -0.21167,7.07391 0.10758,8.9551 2.2498,13.25705 0.83424,1.67528 1.27206,2.72847 0.97293,2.34042 -0.98846,-1.28234 -2.51081,-4.54853 -3.28856,-7.05556 -1.1402,-3.67542 -1.06184,-11.62739 0.17219,-17.47205 1.78745,-8.46583 3.83966,-14.30546 7.31122,-20.80434 1.76395,-3.30217 2.70018,-4.5901 5.032316,-6.92267 1.613256,-1.61357 3.405917,-3.06127 4.102717,-3.31323 l 1.237534,-0.4475 -0.105985,-6.03538 c -0.175373,-9.98709 0.613092,-15.42057 3.061324,-21.09617 3.353608,-7.77448 10.117339,-14.49676 18.757604,-18.64265 1.659703,-0.79638 4.186378,-1.7656 5.614829,-2.15382 2.905597,-0.78967 10.702854,-1.27536 12.55257,-0.7819 0.812296,0.2167 -0.192821,0.31962 -3.527778,0.36122 -3.728896,0.0465 -5.336296,0.23636 -8.019108,0.94712 -6.379393,1.69008 -11.926263,4.84124 -16.919917,9.61215 -4.995097,4.77229 -7.591418,8.95763 -9.673847,15.59451 -1.419158,4.52298 -1.080544,5.4162 0.42557,1.1226 2.401467,-6.84607 6.903723,-12.72706 13.027211,-17.01658 4.921663,-3.44764 11.825404,-6.18579 18.103321,-7.18011 5.295668,-0.83875 13.591731,-0.52517 18.847725,0.71242 2.130763,0.50172 3.901842,0.91221 3.93573,0.91221 0.156107,0 -0.742033,-2.69368 -1.023306,-3.06908 -0.672109,-0.89702 -5.492599,-1.62625 -9.228963,-1.39614 -2.697872,0.16616 -3.393148,0.12405 -2.884199,-0.17469 0.368833,-0.2165 2.035708,-0.46931 3.704167,-0.56181 2.839099,-0.15741 3.959119,0.0101 7.621115,1.13996 0.672634,0.20752 0.708766,0.05 0.743359,-3.23992 0.02131,-2.02638 0.287218,-4.40738 0.642292,-5.7511 0.573687,-2.17101 3.482925,-8.81944 3.859245,-8.81944 0.0967,0 -0.35271,1.15094 -0.99867,2.55764 -0.645959,1.4067 -1.428315,3.31411 -1.738565,4.23868 -1.415129,4.21724 -1.588463,10.05563 -0.412556,13.89619 0.460784,1.50495 0.747945,1.8855 1.663654,2.20472 0.705997,0.24611 1.253337,0.26415 1.511587,0.0498 0.80306,-0.66648 11.526307,-3.1853 15.779207,-3.70644 10.03605,-1.22977 9.74346,-1.22688 15.99067,-0.15804 2.82687,0.48366 6.11031,2.04431 7.74936,3.68336 0.73526,0.73526 1.83244,2.38278 2.43818,3.66115 l 1.10135,2.32431 -0.0127,6.17361 c -0.0115,5.57921 -0.0858,6.32646 -0.77265,7.76111 -0.85881,1.79396 -1.74435,2.89922 -2.75706,3.44117 -3.29472,1.76313 -11.76644,0.11934 -19.57182,-3.79759 -2.74536,-1.37768 -3.55331,-1.65973 -3.3525,-1.17033 2.87966,7.0183 3.81408,11.73539 3.64914,18.42138 l -0.12525,5.07657 2.25138,2.15537 c 6.67183,6.38732 10.87149,13.76056 13.28382,23.32204 1.83856,7.28727 2.46204,22.03484 1.09622,25.92917 -0.31186,0.8892 -0.46801,1.12197 -0.355,0.52917 1.33353,-6.99462 1.11544,-13.41878 -0.78941,-23.2528 -2.06442,-10.65787 -5.19474,-16.92429 -12.44711,-24.91721 -1.4005,-1.54351 -2.69932,-2.80638 -2.88627,-2.80638 -0.71444,0 -0.72347,1.13727 -0.022,2.76793 2.26915,5.27478 1.41942,11.88935 -2.09784,16.33025 -1.21369,1.53241 -4.27775,3.47105 -5.49432,3.47629 -0.92061,0.004 -1.02247,0.30614 -1.48746,4.41303 -0.82954,7.32673 -1.12378,14.47625 -0.75556,18.35923 0.4179,4.40703 0.41455,5.17622 -0.0138,3.16021 -0.86101,-4.05241 -0.76029,-12.56357 0.26093,-22.04861 l 0.2089,-1.94028 -1.770967,2.49136 c -3.13947,4.41654 -8.32426,8.40136 -13.285839,10.21094 l -2.664044,0.97163 1.507973,0.95634 c 2.428007,1.53979 4.09963,3.16857 5.93685,5.78467 0.94674,1.34811 2.27281,2.82584 2.94683,3.28385 1.39162,0.94563 1.94865,1.8094 1.94865,3.02171 0,0.46074 0.23308,1.14586 0.51795,1.52249 0.80914,1.06977 0.63588,2.13898 -0.56897,3.51123 -1.05441,1.20091 -1.08797,1.32819 -0.67755,2.56991 0.67079,2.0295 2.22246,4.07032 3.58657,4.71718 2.449467,1.16156 2.766887,2.76286 0.54766,2.76286 -0.66143,0 -1.40022,0.23812 -1.64177,0.52917 -0.91159,1.09839 -2.895,0.38336 -5.87135,-2.11667 -0.92398,-0.77611 -2.13582,-1.89783 -2.69296,-2.4927 -0.775767,-0.8283 -1.244867,-1.04756 -2.003113,-0.93628 -0.878713,0.12897 -1.009752,0.31956 -1.164657,1.69387 -0.096,0.8517 -0.472115,1.96813 -0.835815,2.48095 -1.37039,1.9323 -1.86261,3.18427 -1.879046,4.77938 -0.04097,3.97697 -2.789827,14.23155 -3.910249,14.58716 -1.067068,0.33868 -1.437072,5.26458 -0.516407,6.87512 0.27729,0.48507 0.509792,1.30878 0.516664,1.83047 0.01118,0.84826 -0.145979,0.97227 -1.486803,1.17322 -0.824618,0.12358 -2.134305,0.15999 -2.910417,0.0809 -1.219379,-0.12424 -1.14748,-0.15248 0.529167,-0.20789 3.594167,-0.11878 4.227731,-0.72659 2.998611,-2.87671 -0.27729,-0.48507 -0.509792,-1.63601 -0.516664,-2.55764 -0.01348,-1.80745 -0.388818,-2.15004 -0.96623,-0.88194 -0.27933,0.61345 -0.632756,0.78275 -1.555934,0.74533 -0.656978,-0.0266 -1.479165,-0.16531 -1.827082,-0.30817 -0.813992,-0.33424 -0.816818,-0.32945 -1.095671,1.85589 -0.247304,1.93808 0.01538,2.27983 0.997493,1.29772 0.304903,-0.3049 0.554366,-0.38087 0.554366,-0.16883 0,0.21205 -0.38178,0.5595 -0.848402,0.7721 -0.724144,0.32994 -0.850354,0.63884 -0.861745,2.1091 l -0.01333,1.72255 2.184661,-0.0155 c 1.201565,-0.009 2.819661,-0.24425 3.595773,-0.52385 1.703024,-0.61354 1.686514,-0.61183 1.397663,-0.14446 -0.127314,0.206 -0.652621,0.54835 -1.167349,0.76079 -1.19337,0.49252 -10.471242,0.62694 -11.871981,0.172 z m 4.384897,-8.34008 c 0.277386,-0.17554 0.539785,-0.56068 0.58311,-0.85586 0.06403,-0.43625 -0.26149,-0.51029 -1.739064,-0.39561 -1.702022,0.1321 -1.724261,0.12391 -0.349056,-0.12853 0.807826,-0.1483 1.709138,-0.46911 2.002917,-0.71293 0.452515,-0.37555 0.556927,-0.29168 0.683228,0.54883 0.128792,0.85707 0.156281,0.8187 0.201944,-0.28187 0.04968,-1.19728 -0.0056,-1.26587 -0.917282,-1.13899 -0.927844,0.12913 -0.934674,0.11948 -0.156647,-0.22124 l 0.813488,-0.35625 -0.159579,-9.26449 c -0.103907,-6.03248 -0.06492,-7.91071 0.111767,-5.38392 0.149242,2.1343 0.291546,6.38086 0.31623,9.4368 l 0.04488,5.55625 h 2.136839 c 1.175261,0 2.840937,-0.17729 3.701499,-0.39398 1.543643,-0.3887 1.57401,-0.42543 2.260346,-2.73403 1.356734,-4.56359 2.59811,-11.84121 2.535361,-14.86365 -0.01813,-0.87313 0.13437,-2.32797 0.338879,-3.23298 0.300714,-1.33072 0.270541,-1.80308 -0.157734,-2.46944 -0.309111,-0.48096 -0.778165,-2.95344 -1.12673,-5.93925 -0.40864,-3.50039 -0.863667,-5.75433 -1.441334,-7.13951 -0.635952,-1.52494 -0.876194,-2.85561 -0.973998,-5.39479 -0.0714,-1.8538 -0.218271,-3.45899 -0.326369,-3.56709 -0.108098,-0.1081 -0.597101,0.59392 -1.086672,1.56004 -1.228855,2.42503 -3.41697,4.48048 -5.344033,5.02002 l -1.574387,0.4408 -0.07906,5.86318 -0.07907,5.86318 -0.105801,-5.89771 -0.105802,-5.89771 -1.35333,-0.36442 c -1.846597,-0.49724 -4.290233,-2.73725 -5.342911,-4.8977 -0.67606,-1.3875 -1.058527,-1.79173 -1.705328,-1.80236 -0.803289,-0.0132 -0.822656,0.0476 -0.529166,1.66199 0.506243,2.78463 0.301618,6.0927 -0.496436,8.02569 -0.514142,1.24532 -0.789281,2.91075 -0.935867,5.66486 l -0.207627,3.90097 3.08895,0.42211 c 6.085364,0.83156 7.109764,0.88816 7.669389,0.42371 0.430266,-0.35709 0.53484,-0.35613 0.53484,0.005 0,0.43653 3.287599,0.35635 7.584722,-0.18496 1.104304,-0.13911 1.213947,-0.11134 0.504285,0.12774 -0.498754,0.16801 -2.522816,0.50344 -4.497917,0.74539 l -3.59109,0.43989 -0.06797,2.16518 -0.06797,2.16517 -0.12404,-2.15825 -0.12404,-2.15825 -3.637114,-0.40927 c -2.000413,-0.22509 -4.175147,-0.56357 -4.832742,-0.75216 -1.922847,-0.55147 -2.327744,-0.43825 -2.558479,0.71543 -0.122297,0.61148 -0.435091,1.05833 -0.740833,1.05833 -0.574492,0 -0.504709,1.11201 0.225284,3.59007 0.210143,0.71337 0.288957,1.65312 0.17514,2.08835 -0.113813,0.43524 -0.06297,1.43908 0.112977,2.23077 0.175952,0.79168 0.570396,2.7888 0.87654,4.43804 0.306144,1.64923 1.119671,4.77602 1.807838,6.94842 l 1.251207,3.94982 2.000021,0.40268 c 4.044961,0.8144 4.652067,1.04738 2.264604,0.86904 -2.257823,-0.16866 -2.944385,0.25552 -1.411111,0.87182 0.565394,0.22726 0.623817,0.32548 0.203084,0.34141 -0.508251,0.0193 -0.483638,0.14454 0.176389,0.89793 0.802731,0.9163 2.722446,1.20283 3.740841,0.55835 z m 9.979082,-23.50394 c -0.797804,-0.55881 -2.020902,-2.56148 -1.737477,-2.84491 0.08521,-0.0852 0.362074,0.3452 0.615262,0.95645 0.253189,0.61126 0.949244,1.4095 1.54679,1.77388 0.597545,0.36439 0.923332,0.66311 0.72397,0.66384 -0.199365,7e-4 -0.716209,-0.24645 -1.148545,-0.54926 z m -19.785006,-0.33519 c 0.510935,-0.27761 1.262324,-1.02531 1.66975,-1.66157 0.40743,-0.63626 0.743455,-0.9697 0.746721,-0.74098 0.0086,0.59884 -2.279932,2.93816 -2.857934,2.92141 -0.268128,-0.008 -0.06947,-0.24125 0.441463,-0.51886 z m 2.478116,-3.70034 c 0,-0.48507 0.08007,-0.68351 0.177937,-0.44098 0.09786,0.24254 0.09786,0.63941 0,0.88195 -0.09786,0.24253 -0.177937,0.0441 -0.177937,-0.44097 z m 15.169444,0 c 0,-0.48507 0.08007,-0.68351 0.177938,-0.44098 0.09786,0.24254 0.09786,0.63941 0,0.88195 -0.09786,0.24253 -0.177938,0.0441 -0.177938,-0.44097 z M 77.2356,254.3546 c 0.430929,-0.46498 0.865597,-1.15933 0.96593,-1.543 0.170801,-0.65315 0.0078,-0.695 -2.559861,-0.65702 l -2.74228,0.0406 v 1.15188 c 0,1.33561 0.628725,1.82674 2.358436,1.84227 0.816423,0.007 1.442156,-0.25675 1.977775,-0.83469 z m -2.378294,-0.79933 c 0.242535,-0.0979 0.63941,-0.0979 0.881945,0 0.242534,0.0979 0.0441,0.17794 -0.440973,0.17794 -0.485069,0 -0.683507,-0.0801 -0.440972,-0.17794 z m 1.758008,-0.16292 c 0.239304,-0.24109 0.52396,-0.34948 0.632577,-0.24086 0.108616,0.10861 -0.08718,0.30587 -0.435092,0.43835 -0.502779,0.19145 -0.543299,0.15093 -0.197485,-0.19749 z M 48.820242,233.16467 c 0.998298,-0.67181 2.684071,-2.05082 3.746165,-3.06449 l 1.931081,-1.84303 -2.56419,-1.23927 c -1.410303,-0.68159 -2.655895,-1.29106 -2.767983,-1.35436 -0.112084,-0.0633 -0.403934,0.32557 -0.648546,0.86417 -0.922691,2.0316 -3.051997,4.40882 -4.703908,5.25156 -0.921631,0.47018 -1.675694,1.01095 -1.675694,1.20171 0,0.19076 0.618017,0.34684 1.373367,0.34684 0.895336,0 1.444047,0.18419 1.57643,0.52916 0.335827,0.87515 1.810396,0.60171 3.733278,-0.69229 z m 10.449899,-0.80701 c -0.135001,-0.72761 -0.334218,-2.03729 -0.442704,-2.91042 -0.108487,-0.87312 -0.476483,-1.905 -0.817771,-2.29305 -1.917256,-2.17999 -2.644158,-5.91764 -2.362969,-12.15008 0.10994,-2.43676 0.436005,-5.30339 0.724591,-6.37028 0.288583,-1.06689 0.458809,-2.0057 0.378273,-2.08623 -0.24766,-0.24766 -4.015387,3.9201 -5.275322,5.83543 -0.654639,0.99517 -1.829453,2.31566 -2.610693,2.93441 -1.000573,0.79247 -1.537184,1.56109 -1.815398,2.60032 -0.21723,0.81142 -0.644829,1.90051 -0.950221,2.42019 -0.528045,0.89857 -0.508519,1.00616 0.398402,2.19519 1.661478,2.17831 6.143558,4.7993 9.134588,5.34164 1.172002,0.21251 1.322917,0.35742 1.322917,1.27028 0,1.0682 0.784701,3.25157 1.461851,4.06749 0.73352,0.88383 1.107616,0.50955 0.854456,-0.85489 z m 26.472399,-2.11401 c 0.119129,-0.62913 0.129554,-1.3707 0.02318,-1.64793 -0.141848,-0.36965 0.435762,-0.6957 2.166098,-1.22272 2.566965,-0.78184 5.216115,-2.29942 7.062785,-4.04596 1.77632,-1.68 1.92529,-2.12867 1.15261,-3.47139 -0.36972,-0.64247 -0.78,-1.68592 -0.91173,-2.31878 -0.14967,-0.71904 -0.69177,-1.49559 -1.44524,-2.07029 -0.66315,-0.50581 -2.06067,-2.13976 -3.10561,-3.63099 -1.826198,-2.60617 -5.198094,-6.02446 -5.942702,-6.02446 -0.229856,0 -0.237938,0.1577 -0.02258,0.44097 0.51296,0.67477 1.415175,3.37842 1.912998,5.73264 0.246171,1.16417 0.455781,4.33917 0.465793,7.05556 0.01753,4.75728 -0.01968,5.01672 -1.011992,7.05555 -0.566611,1.16417 -1.130293,2.19604 -1.252626,2.29306 -0.264389,0.20967 -1.074042,3.67934 -1.055878,4.52483 0.02057,0.95735 1.713696,-1.34342 1.964909,-2.67009 z m 11.919363,2.5262 c 0.15679,-0.4086 0.5399,-0.51405 1.4312,-0.39393 2.256367,0.30407 1.841937,-0.71494 -0.75859,-1.86528 -1.39114,-0.61537 -1.68971,-0.96744 -2.68743,-3.16904 -0.61733,-1.36223 -1.23443,-2.4776 -1.37133,-2.47862 -0.13691,-0.001 -0.8266,0.39018 -1.53266,0.86932 -0.70606,0.47914 -1.82436,1.06666 -2.48511,1.30559 -0.66075,0.23893 -1.201371,0.54308 -1.201371,0.67588 0,0.46887 4.460681,4.40695 5.661731,4.99842 1.53389,0.75538 2.66729,0.77758 2.94356,0.0577 z m -12.309458,-7.02677 c 0.619961,-1.23992 0.703527,-2.09588 0.688823,-7.05556 -0.01746,-5.88938 -0.477629,-8.63105 -1.92479,-11.46772 -0.873641,-1.71247 -1.396556,-2.08808 -2.588486,-1.8593 -0.868215,0.16665 -0.975074,0.31578 -0.799151,1.11525 0.857497,3.89682 1.649211,9.56875 1.977644,14.16802 0.214132,2.99864 0.474073,5.73892 0.577649,6.08951 0.301371,1.02011 1.302893,0.54063 2.068311,-0.9902 z m -25.18985,-7.2361 c 0.115584,-4.55737 0.404622,-9.3017 0.642306,-10.54295 0.35331,-1.84506 0.347151,-2.31071 -0.03376,-2.55223 -2.415695,-1.53169 -4.233154,3.11906 -4.291884,10.98266 -0.01813,2.42535 0.164479,5.28687 0.405765,6.35893 0.555713,2.46911 1.646199,4.31183 2.459503,4.15611 0.547575,-0.10484 0.628781,-0.93891 0.81807,-8.40252 z m 1.653226,-7.0514 c -0.0054,-1.58918 -0.0553,-1.74877 -0.275876,-0.88195 -0.381254,1.49831 -0.381254,4.89463 0,3.70417 0.155346,-0.48507 0.279488,-1.75507 0.275876,-2.82222 z m 18.966547,0.51313 c -0.134941,-0.89987 -0.331943,-1.54954 -0.437776,-1.44371 -0.105834,0.10583 -0.08201,0.92868 0.05293,1.82855 0.134941,0.89988 0.331943,1.54954 0.437776,1.44371 0.105834,-0.10583 0.08201,-0.92868 -0.05293,-1.82855 z m -6.718812,-0.81603 c 1.770144,-1.09224 4.402808,-4.09774 4.408403,-5.03271 7.06e-4,-0.12118 -0.625613,0.0899 -1.391864,0.46897 -2.605482,1.28909 -8.088227,1.43717 -11.081117,0.29927 -1.647144,-0.62624 -1.724744,-0.43354 -0.512205,1.27187 2.339559,3.29054 6.015366,4.57309 8.576783,2.9926 z m -0.617361,-4.54252 c -0.921632,-0.0727 -2.429757,-0.0727 -3.351389,0 -0.921632,0.0727 -0.167569,0.13213 1.675695,0.13213 1.843263,0 2.597326,-0.0595 1.675694,-0.13213 z m 8.025695,-1.83554 c 8.672713,-2.0938 15.776963,-7.75947 19.73887,-15.74184 1.73568,-3.49699 2.05972,-5.30042 0.46276,-2.57541 -1.30846,2.23272 -3.809737,4.41256 -6.556327,5.71378 -2.2012,1.04284 -2.61202,1.11637 -6.23697,1.11637 -3.636102,0 -4.031093,-0.0713 -6.270212,-1.13193 -4.400335,-2.08434 -7.468648,-6.01776 -8.414791,-10.78735 l -0.404975,-2.0415 -3.034834,0.10122 -3.034831,0.10123 -0.246003,1.72568 c -1.037526,7.2782 -7.848547,12.58019 -15.575555,12.12467 -4.461436,-0.26301 -6.571396,-1.23041 -9.805762,-4.49587 l -2.68974,-2.7156 0.847524,1.9164 c 4.144254,9.37089 13.013242,15.3751 25.698623,17.3977 3.011562,0.48018 12.369391,0.0536 15.522223,-0.70755 z m -7.584723,-12.15491 c 0,-0.0763 0.24637,-0.23319 0.54749,-0.34874 0.313944,-0.12047 0.455549,-0.0613 0.331957,0.13864 -0.207172,0.33522 -0.879447,0.49582 -0.879447,0.2101 z m -15.76839,-2.59914 c 3.97402,-1.85967 6.487269,-5.19824 7.321705,-9.72606 0.658117,-3.5711 -0.855751,-8.01814 -3.694825,-10.85366 -6.196087,-6.18833 -16.494722,-4.42606 -20.391456,3.48933 -1.048642,2.13009 -1.157312,2.64967 -1.157312,5.53325 0,2.70135 0.140529,3.48213 0.92963,5.16504 3.134208,6.68432 10.470419,9.44404 16.992258,6.3921 z m -10.583799,-6.71996 c -1.251413,-1.3503 -1.871183,-3.06004 -1.862286,-5.13742 0.01083,-2.53188 1.023242,-4.55422 2.965072,-5.92295 0.88143,-0.62129 1.540383,-1.19183 1.464342,-1.26788 -0.277872,-0.27787 -2.532849,1.08359 -3.865615,2.33389 -1.124797,1.0552 -1.263276,1.11763 -0.777015,0.35029 1.284771,-2.02743 4.470355,-3.4777 7.613802,-3.46625 2.71985,0.01 6.075454,1.97526 7.211325,4.22362 0.729745,1.44447 0.510445,5.94324 -0.361135,7.40833 -0.537281,0.90316 -0.916217,1.18736 -1.411111,1.05833 -0.372117,-0.097 -2.105329,-0.17638 -3.851579,-0.17638 -2.556683,0 -3.474709,0.14978 -4.713979,0.76912 l -1.538975,0.76911 z m 6.508541,-4.56499 c 0.192885,-0.5793 -0.912452,-0.99283 -1.38655,-0.51874 -0.202883,0.20289 -0.256787,0.55026 -0.119782,0.77194 0.311696,0.50433 1.309976,0.33653 1.506332,-0.2532 z m 3.890152,-1.3431 c 1.174679,-0.82278 1.094419,-3.03605 -0.145468,-4.01134 -0.511235,-0.40214 -1.138767,-0.73116 -1.394513,-0.73116 -0.932819,0 -2.193812,0.80429 -2.575955,1.643 -0.550775,1.20882 -0.494598,1.65878 0.339481,2.71915 0.851669,1.08272 2.532052,1.25196 3.776455,0.38035 z m -7.748761,-7.80571 c 0.25466,-0.10191 0.558931,-0.0894 0.676159,0.0278 0.117224,0.11722 -0.09114,0.2006 -0.463021,0.18528 -0.410969,-0.0169 -0.494559,-0.10052 -0.213138,-0.21313 z m 42.054183,21.19636 c 7.09487,-2.10695 11.099397,-9.37566 8.847097,-16.05858 -1.440227,-4.27338 -4.151517,-6.95525 -8.531057,-8.4385 -3.00611,-1.0181 -5.793499,-0.81716 -8.912725,0.6425 -2.907245,1.36046 -4.948569,3.41121 -6.344331,6.37363 -0.951195,2.01884 -1.105532,2.74041 -1.105532,5.16863 0,2.42823 0.154337,3.1498 1.105532,5.16864 2.782016,5.90464 9.039158,8.89634 14.941016,7.14368 z m -0.84819,-7.16667 c -2.319545,-1.52918 -4.249853,-1.65205 -8.243926,-0.52474 -0.69662,0.19662 -0.907923,-0.0239 -1.717357,-1.79189 -0.805378,-1.75918 -0.892031,-2.28982 -0.679987,-4.16404 0.381784,-3.37453 1.444827,-4.86833 4.426423,-6.22006 3.601593,-1.6328 9.374887,-0.1246 10.976147,2.86739 0.25161,0.47014 -0.0863,0.27721 -0.9021,-0.51513 -1.31391,-1.27605 -3.62702,-2.59652 -3.96187,-2.26167 -0.0993,0.0993 0.27079,0.41527 0.8224,0.70218 4.00823,2.08485 4.96164,8.48011 1.74393,11.69783 -1.05957,1.05956 -1.16196,1.0683 -2.46366,0.21013 z m -2.51068,-5.67481 c 0,-0.29105 -0.357188,-0.5799 -0.79375,-0.6419 -0.610902,-0.0868 -0.79375,0.0611 -0.79375,0.6419 0,0.58079 0.182848,0.72866 0.79375,0.64189 0.436562,-0.062 0.79375,-0.35085 0.79375,-0.64189 z m -1.954022,-1.12486 c 1.514965,-1.62612 0.410732,-4.51959 -1.724805,-4.51959 -1.597988,0 -2.644073,1.07757 -2.598737,2.67695 0.06764,2.38617 2.751525,3.53001 4.323542,1.84264 z m -47.611256,12.12276 c 0,-0.16004 -0.376968,-1.39932 -0.837703,-2.75394 -0.460738,-1.35462 -1.041784,-3.60493 -1.291219,-5.00068 -0.270828,-1.51544 -0.627059,-2.53773 -0.884315,-2.53773 -0.917332,0 -2.379589,-2.48466 -4.256098,-7.23194 -0.446617,-1.12987 -0.772746,3.83749 -0.451648,6.87916 0.392529,3.71834 1.135744,5.90664 2.791277,8.21856 0.991309,1.38435 1.780029,2.10025 2.563428,2.32675 1.47193,0.42559 2.366278,0.46331 2.366278,0.0998 z m 65.010635,-0.55301 c 2.27631,-0.98499 4.76579,-4.02672 6.09434,-7.44628 0.86845,-2.2353 0.92102,-8.39779 0.0903,-10.58334 l -0.53637,-1.41111 -0.61457,2.11063 c -0.8791,3.0191 -2.41423,6.17815 -3.62834,7.46652 -0.78474,0.83275 -1.10353,1.58272 -1.27461,2.99862 -0.20268,1.67747 -1.10194,5.01786 -1.81414,6.73882 -0.31232,0.75469 0.15066,0.78938 1.68341,0.12614 z m -65.257181,-16.1522 c 1.714733,-3.85562 5.712873,-7.21471 9.850508,-8.27605 2.81516,-0.72211 6.743647,-0.4833 9.567803,0.58162 3.98055,1.50097 8.137482,6.34169 8.887876,10.34987 0.240242,1.28324 0.312268,1.34623 1.310827,1.14652 0.581138,-0.11623 2.038636,-0.21132 3.238881,-0.21132 h 2.182266 l 0.455658,-1.77788 c 1.213256,-4.73388 5.906156,-9.11551 10.895785,-10.1731 8.3757,-1.77529 16.367507,3.18832 18.093817,11.23783 0.36752,1.71364 0.81445,2.24171 1.1261,1.33051 0.083,-0.24253 0.0824,-0.0471 -0.001,0.4344 -0.0837,0.48145 -0.1796,1.03707 -0.21315,1.23472 -0.16162,0.95231 1.11534,0.18281 2.07201,-1.24861 2.28929,-3.42526 3.68791,-9.86945 3.68791,-16.99186 0,-5.22496 -0.77184,-9.73872 -2.57668,-15.06868 l -1.12749,-3.32961 -3.83362,-2.57073 c -3.937837,-2.64061 -6.774677,-4.80813 -7.532247,-5.75508 -0.33859,-0.42324 -0.43213,-0.43476 -0.44097,-0.0543 -0.006,0.26559 1.57978,2.75202 3.52433,5.52541 3.883337,5.53856 6.236207,10.12357 7.416677,14.45281 1.13176,4.15061 1.3489,11.94783 0.47952,17.21867 l -0.65118,3.948 -0.44152,-4.55581 c -0.33301,-3.43621 -0.75212,-5.48794 -1.7054,-8.34882 -3.13375,-9.4046 -7.316737,-15.39254 -13.040397,-18.66729 -1.646429,-0.94199 -2.196794,-1.09098 -3.279579,-0.88785 -0.715623,0.13425 -3.053475,0.23364 -5.195231,0.22087 -4.716678,-0.0281 -9.338014,-1.0875 -13.308605,-3.05081 l -2.655415,-1.313 -3.261801,0.93564 c -9.583431,2.74899 -17.053885,9.10713 -21.645305,18.42245 -1.457618,2.9573 -3.206895,8.33226 -3.7768,11.60492 -0.414457,2.37997 -0.287782,6.82815 0.266089,9.34387 0.246567,1.11992 0.2936,1.00513 0.505859,-1.23473 0.13407,-1.41475 0.614504,-3.32498 1.124885,-4.47258 z m 65.891061,2.6793 c 0.0169,-0.41097 0.10052,-0.49456 0.21313,-0.21314 0.10191,0.25466 0.0894,0.55893 -0.0278,0.67616 -0.11722,0.11722 -0.2006,-0.0911 -0.18528,-0.46302 z M 44.959389,164.32169 c 0,-0.0965 1.065322,-0.67393 2.367386,-1.28324 2.019163,-0.94488 2.784546,-1.11053 5.203472,-1.12614 1.950558,-0.0126 3.365991,0.18555 4.533216,0.63457 2.20605,0.84864 1.96801,1.04904 -0.415981,0.35019 -2.82501,-0.82813 -7.090333,-0.53816 -9.65962,0.65669 -1.11566,0.51883 -2.028473,0.86441 -2.028473,0.76793 z m 48.695424,-1.46033 c -2.98253,-1.40822 -6.788256,-1.49599 -10.814587,-0.24941 -0.364528,0.11286 -0.186531,-0.0827 0.395552,-0.43462 0.851849,-0.51498 1.815448,-0.63981 4.938889,-0.63981 3.557616,0 4.034686,0.0812 5.732636,0.97608 1.01865,0.53685 1.85209,1.05278 1.85209,1.14653 0,0.21152 0.17919,0.27953 -2.10458,-0.79877 z m -57.294308,8.46525 c 0.05112,-8.06271 0.615668,-12.11571 2.466315,-17.70618 4.036999,-12.19502 13.069934,-19.79562 26.814731,-22.56276 3.284181,-0.66118 5.635685,-0.88759 18.751861,-1.80549 6.038541,-0.42259 6.567671,-0.53809 6.240961,-1.36227 -0.12467,-0.31451 -0.31332,-1.08777 -0.41921,-1.71836 -0.10589,-0.63059 -0.3702,-1.1472 -0.58735,-1.14801 -0.21715,-8.1e-4 -1.137561,-0.37834 -2.045364,-0.83894 -4.720047,-2.3949 -17.493993,-3.25403 -24.914423,-1.67566 -8.706245,1.85188 -16.911606,6.2058 -22.166312,11.76188 -2.969585,3.1399 -5.893347,8.43413 -7.173171,12.9889 -2.409293,8.57441 -2.398007,19.81094 0.02642,26.29076 0.561657,1.50116 2.528291,4.74547 2.875403,4.74349 0.04729,-2.6e-4 0.105858,-3.13558 0.130154,-6.96736 z m 69.974735,-6.96687 c 0.007,-5.76985 -1.6761,-13.13168 -4.09148,-17.8982 -0.51726,-1.02075 -2.433747,-4.05257 -4.258867,-6.73739 -1.82512,-2.68481 -3.76537,-5.80418 -4.31166,-6.93193 -0.54629,-1.12776 -1.37838,-2.4658 -1.84909,-2.97344 -0.81875,-0.88299 -0.93889,-0.90722 -2.773144,-0.55936 -1.054523,0.19998 -5.493092,0.69063 -9.86349,1.09032 -8.673257,0.79321 -15.39294,1.80454 -15.995809,2.40741 -0.61794,0.61794 3.410659,4.25933 6.156561,5.56483 4.254585,2.02277 9.655652,3.27638 14.063906,3.2643 1.669168,-0.005 4.969126,-0.49344 8.113886,-1.202 0.48507,-0.10929 0.0882,0.10331 -0.88194,0.47246 l -1.76389,0.67118 1.41111,0.60859 c 4.32718,1.86624 8.36329,6.21767 11.086137,11.95224 1.6451,3.46474 3.81333,9.92506 4.12852,12.30109 0.33752,2.54439 0.82527,1.35033 0.82925,-2.0301 z m -65.96713,-8.29028 c 1.920222,-3.7994 3.3941,-5.86898 6.446097,-9.05142 4.629347,-4.82721 9.247769,-7.54491 15.376507,-9.04828 l 3.251422,-0.79756 -1.097777,-1.04651 c -0.603779,-0.57558 -1.36271,-1.49441 -1.686514,-2.04185 -0.705196,-1.19224 -1.259219,-1.14119 -5.137584,0.47338 -2.857881,1.18974 -6.430956,3.45339 -9.322654,5.9062 -4.310913,3.65661 -8.167635,10.46628 -9.970357,17.60426 -1.325668,5.24906 -1.334121,6.84112 -0.01655,3.11706 0.549177,-1.55222 1.520011,-3.8541 2.157413,-5.11528 z m 88.32719,-9.15237 c 3.07621,-0.71377 4.3716,-3.30287 4.68728,-9.36846 0.22951,-4.41015 -0.35297,-7.71087 -1.82581,-10.34606 -0.47634,-0.85226 -0.76267,-1.73056 -0.63628,-1.95176 0.12639,-0.2212 0.10213,-0.28673 -0.0539,-0.14563 -0.15604,0.14111 -0.84894,-0.23971 -1.53977,-0.84627 -4.84553,-4.25444 -14.65961,-4.94814 -29.04176,-2.0528 -4.912847,0.98903 -8.879147,2.10859 -9.194557,2.59533 -1.43184,2.20963 2.9423,7.33533 10.669927,12.5032 3.90132,2.60902 3.79089,2.54391 8.11009,4.78125 7.57274,3.92265 14.77465,5.77096 18.8248,4.8312 z M 67.448973,261.29482 c 0.63059,-0.0782 1.662465,-0.0782 2.293055,0 0.630591,0.0783 0.114653,0.14229 -1.146527,0.14229 -1.261181,0 -1.777119,-0.064 -1.146528,-0.14229 z m -0.581946,-2.46278 c 0.256875,-0.42774 0.542978,-0.70177 0.635787,-0.60896 0.09281,0.0928 -0.117359,0.44277 -0.467043,0.7777 -0.607462,0.58183 -0.61498,0.57432 -0.168744,-0.16874 z m 10.042292,-0.85383 c -0.79006,-1.97456 -0.532419,-2.05282 0.367679,-0.11169 0.399595,0.86176 0.61134,1.56683 0.470546,1.56683 -0.140794,0 -0.517994,-0.65481 -0.838225,-1.45514 z m -7.784652,-0.30875 -1.058333,-0.2693 0.970139,-0.0417 c 1.2007,-0.0516 1.299115,-0.74729 0.105724,-0.74729 -0.475428,0 -1.036899,0.27781 -1.247715,0.61736 -0.350429,0.56441 -0.374372,0.55685 -0.279178,-0.0882 0.07922,-0.53684 0.41976,-0.73174 1.424104,-0.81505 1.209604,-0.10033 1.319981,-0.034 1.319981,0.79375 0,0.49679 -0.03969,0.88446 -0.08819,0.86151 -0.04851,-0.023 -0.564444,-0.16293 -1.146528,-0.31105 z m 5.1562,-0.61736 c -0.03358,-0.65125 0.133241,-0.78512 0.929217,-0.74571 0.798646,0.0396 0.833663,0.0746 0.198078,0.19809 -0.424632,0.0825 -0.842779,0.41809 -0.929217,0.7457 -0.111347,0.42205 -0.169083,0.36431 -0.198078,-0.19808 z m 0.929217,0.38373 c 0.242535,-0.0979 0.63941,-0.0979 0.881944,0 0.242535,0.0979 0.0441,0.17793 -0.440972,0.17793 -0.485069,0 -0.683507,-0.0801 -0.440972,-0.17793 z M 21.323277,231.22545 c -0.48507,-0.16322 -0.63202,-0.31259 -0.32656,-0.33193 0.30545,-0.0193 1.69452,-1.14092 3.0868,-2.49239 1.392287,-1.35148 2.530835,-2.34367 2.530109,-2.20487 -0.0038,0.73138 -1.544214,2.59762 -3.009749,3.64643 l -1.6657,1.19205 1.32921,0.11242 c 3.096232,0.26187 7.504469,-3.06984 9.717448,-7.34436 0.552478,-1.06716 1.012144,-1.80375 1.021475,-1.63688 0.0093,0.16686 -0.47697,1.23012 -1.080671,2.36278 -0.988935,1.85543 -2.787047,3.9368 -4.723194,5.46723 -0.677379,0.53544 -0.663289,0.54894 0.352778,0.33814 2.063789,-0.42817 5.474434,-2.27525 7.295007,-3.9507 1.03293,-0.95058 1.511483,-1.26105 1.086679,-0.70499 -1.109472,1.45229 -3.195278,3.0445 -5.206686,3.97456 -2.801479,1.29538 -8.618416,2.17433 -10.406946,1.57251 z m 94.011443,-0.38122 c -4.14551,-0.54236 -7.92924,-2.555 -10.07326,-5.35816 -1.09445,-1.43091 -1.062,-1.41448 0.6436,0.32592 1.97165,2.01189 4.14574,3.25773 7.26986,4.16594 2.27724,0.66201 2.95072,0.50879 1.36589,-0.31076 -1.38402,-0.7157 -4.29615,-3.95363 -5.30071,-5.89373 -0.44374,-0.85698 -0.60249,-1.25961 -0.35278,-0.89475 3.95962,5.78574 6.96815,8.00098 10.81584,7.96395 1.62868,-0.0157 1.63062,-0.0172 0.8035,-0.61736 -1.98423,-1.43986 -3.93251,-3.38199 -3.92217,-3.90977 0.0101,-0.51574 0.0538,-0.51798 0.44098,-0.0226 0.56152,0.71837 4.44038,3.86007 4.765,3.85943 0.13798,-2.7e-4 0.53626,-0.97164 0.88508,-2.1586 0.34883,-1.18696 0.70771,-2.08463 0.79752,-1.99482 0.0898,0.0898 -0.0765,0.84302 -0.36964,1.67379 -0.29311,0.83079 -0.53293,1.86891 -0.53293,2.30696 0,1.24982 -2.24296,1.51783 -7.23578,0.86461 z m -95.154333,-2.03628 c -0.33468,-0.94231 -1.02816,-2.33489 -1.54108,-3.09464 -0.69611,-1.03109 -0.75251,-1.22008 -0.22244,-0.74533 0.78344,0.70167 2.67219,4.65275 2.48813,5.20494 -0.0639,0.19157 -0.38993,-0.42266 -0.72461,-1.36497 z m 103.448443,-3.46782 c 0,-0.18928 0.24688,-0.6523 0.54863,-1.02893 0.5173,-0.6457 0.52465,-0.63444 0.1286,0.19715 -0.51428,1.07987 -0.67723,1.28 -0.67723,0.83178 z m -85.337981,-2.0453 c 0.407557,-0.69076 0.808781,-1.25592 0.891614,-1.25592 0.250662,0 -0.894454,2.05562 -1.276728,2.29188 -0.195742,0.12097 -0.02244,-0.34521 0.385114,-1.03596 z m 87.465451,-2.13787 c 0,-0.19402 0.15389,-0.5909 0.34198,-0.88194 0.18808,-0.29104 0.34197,-0.37042 0.34197,-0.17639 0,0.19403 -0.15389,0.5909 -0.34197,0.88195 -0.18809,0.29104 -0.34198,0.37041 -0.34198,0.17638 z m -24.17608,-2.99861 c -0.13394,-0.60983 -0.16999,-1.18232 -0.0801,-1.27219 0.0899,-0.0899 0.26484,0.3437 0.3888,0.96351 0.29409,1.47047 0.009,1.75547 -0.30868,0.30868 z M 40.428978,217.4528 c 0,-0.48507 0.08007,-0.68351 0.177938,-0.44097 0.09786,0.24253 0.09786,0.6394 0,0.88194 -0.09786,0.24253 -0.177938,0.0441 -0.177938,-0.44097 z m 76.144302,-98.66161 c 0,-0.19778 0.34054,-0.66201 0.75677,-1.03163 1.11781,-0.99266 2.12425,-3.50931 2.12425,-5.31182 0,-2.17425 -1.47698,-5.05012 -3.51489,-6.84396 -2.1979,-1.93467 -6.5741,-4.00896 -10.47863,-4.96681 -3.92182,-0.96209 -13.050097,-1.18581 -14.064457,-0.34469 -0.51466,0.42676 -0.56381,0.41747 -0.37631,-0.0711 0.75263,-1.96133 9.614517,-1.96682 16.366617,-0.0101 10.07017,2.91823 15.02857,9.35326 11.91745,15.46655 -0.87355,1.7165 -2.7308,3.83412 -2.7308,3.11363 z"
       id="path3951"
       inkscape:connector-curvature="0" />
  </g>
</svg>
