<?xml version="1.0" encoding="UTF-8" standalone="no"?>
<!-- Created with Inkscape (http://www.inkscape.org/) -->

<svg
   xmlns:dc="http://purl.org/dc/elements/1.1/"
   xmlns:cc="http://creativecommons.org/ns#"
   xmlns:rdf="http://www.w3.org/1999/02/22-rdf-syntax-ns#"
   xmlns:svg="http://www.w3.org/2000/svg"
   xmlns="http://www.w3.org/2000/svg"
   xmlns:sodipodi="http://sodipodi.sourceforge.net/DTD/sodipodi-0.dtd"
   xmlns:inkscape="http://www.inkscape.org/namespaces/inkscape"
   id="svg3039"
   version="1.1"
   inkscape:version="0.48.4 r9939"
   width="954"
   height="640"
   sodipodi:docname="heima.svg">
  <metadata
     id="metadata3045">
    <rdf:RDF>
      <cc:Work
         rdf:about="">
        <dc:format>image/svg+xml</dc:format>
        <dc:type
           rdf:resource="http://purl.org/dc/dcmitype/StillImage" />
        <dc:title></dc:title>
      </cc:Work>
    </rdf:RDF>
  </metadata>
  <defs
     id="defs3043" />
  <sodipodi:namedview
     pagecolor="#ffffff"
     bordercolor="#666666"
     borderopacity="1"
     objecttolerance="10"
     gridtolerance="10"
     guidetolerance="10"
     inkscape:pageopacity="0"
     inkscape:pageshadow="2"
     inkscape:window-width="1855"
     inkscape:window-height="1056"
     id="namedview3041"
     showgrid="false"
     inkscape:zoom="1.1320755"
     inkscape:cx="357.30833"
     inkscape:cy="320"
     inkscape:window-x="65"
     inkscape:window-y="24"
     inkscape:window-maximized="1"
     inkscape:current-layer="text3095" />
  <flowRoot
     xml:space="preserve"
     id="flowRoot3087"
     style="fill:black;stroke:none;stroke-opacity:1;stroke-width:1px;stroke-linejoin:miter;stroke-linecap:butt;fill-opacity:1;font-family:Sans;font-style:normal;font-weight:normal;font-size:40px;line-height:125%;letter-spacing:0px;word-spacing:0px"><flowRegion
       id="flowRegion3089"><rect
         id="rect3091"
         width="609.5"
         height="418.70001"
         x="97.166664"
         y="94.099998" /></flowRegion><flowPara
       id="flowPara3093"></flowPara></flowRoot>  <g
     transform="scale(1.0130435,0.98712445)"
     style="font-size:98.60952759px;font-style:normal;font-weight:normal;line-height:125%;letter-spacing:0px;word-spacing:0px;fill:#000000;fill-opacity:1;stroke:none;font-family:Sans"
     id="text3095">
    <path
       d="m 231.75538,163.02425 68.94963,0 0,35.0526 -30.81548,0 0,7.70387 31.58587,0 0,6.93349 -31.58587,0 0,8.08906 38.90454,0 0,6.93348 -84.74256,0 0,-6.93348 38.51935,0 0,-8.08906 -31.58587,0 0,-6.93349 31.58587,0 0,-7.70387 -30.81548,0 0,-35.0526 m 7.70387,28.50432 23.11161,0 0,-21.95603 -23.11161,0 0,21.95603 m 12.32619,-18.48929 c 2.31112,3.852 4.10869,8.08912 5.39271,12.71138 l -6.93349,2.31116 c -1.28401,-4.87906 -3.20997,-9.11618 -5.7779,-12.71138 l 7.31868,-2.31116 m 18.10409,-3.46674 0,21.95603 23.11161,0 0,-21.95603 -23.11161,0 m 11.17061,3.08155 6.93348,2.69635 c -2.05443,5.13597 -4.36559,9.50149 -6.93348,13.09658 l -6.54829,-3.46674 c 2.8247,-4.10867 5.00746,-8.2174 6.54829,-12.32619 m -47.76399,56.23824 6.93348,4.23713 c -3.85195,6.67669 -7.83228,12.06939 -11.94099,16.17813 l -6.54829,-5.77791 c 4.87911,-4.62232 8.73104,-9.50143 11.5558,-14.63735 m 65.48289,0 c 3.85185,4.10874 7.70378,8.73106 11.55581,13.86697 l -6.1631,6.54829 c -3.33843,-5.39272 -7.31876,-10.65702 -11.941,-15.79294 l 6.54829,-4.62232 m -43.52686,0.77039 c 2.56792,4.62233 4.75068,9.75823 6.54829,15.40774 l -8.08906,3.46674 c -1.54081,-5.9063 -3.46678,-11.04221 -5.77791,-15.40774 l 7.31868,-3.46674 m 22.72641,0 c 3.08149,4.62233 5.64944,9.62984 7.70387,15.02254 l -7.70387,3.46675 c -2.05442,-5.64951 -4.49398,-10.65702 -7.31867,-15.02255 l 7.31867,-3.46674"
       style=""
       id="path3110" />
    <path
       d="m 332.29087,162.63906 60.86057,0 -4.23713,40.06012 16.94852,0 c -1.02728,21.31405 -2.69645,34.15382 -5.00752,38.51934 -2.31124,4.62232 -6.29157,6.93348 -11.941,6.93349 -2.82482,-1e-5 -6.29156,-0.12841 -10.40022,-0.3852 l -1.54077,-8.08906 c 5.13584,0.25679 9.11617,0.38519 11.94099,0.38519 2.31109,0 3.98026,-1.54077 5.00752,-4.62232 1.2839,-3.33833 2.18268,-11.81258 2.69635,-25.42277 l -56.62344,0 3.08155,-34.66741 8.08906,0.77039 -2.31116,26.57835 32.35625,0 3.08155,-32.74145 -52.00112,0 0,-7.31867 m -6.16309,60.09018 59.31979,0 0,7.31867 -59.31979,0 0,-7.31867"
       style=""
       id="path3112" />
    <path
       d="m 450.54527,161.09828 3.46674,6.54829 c -3.85197,1.02725 -7.9607,1.92604 -12.32619,2.69635 l 0,16.17813 14.25216,0 0,6.93348 -14.25216,0 0,2.69636 c 4.36549,4.62236 8.08903,9.11628 11.17061,13.48177 l -5.00752,6.93348 c -2.05439,-3.85191 -4.10876,-7.31864 -6.16309,-10.40022 l 0,42.75647 -6.93348,0 0,-36.59338 c -3.08157,7.70389 -6.54831,13.99538 -10.40023,18.87448 l -5.7779,-5.7779 c 7.70386,-8.98782 12.83977,-19.64483 15.40774,-31.97106 l -13.48177,0 0,-6.93348 14.25216,0 0,-14.63735 c -3.85196,0.77045 -7.70389,1.41244 -11.55581,1.92597 l -2.69635,-7.31868 c 10.7854,-1.2839 20.80042,-3.08147 30.04509,-5.39271 m 9.62983,2.31116 42.75648,0 0,29.6599 -42.75648,0 0,-29.6599 m 7.31868,22.72642 28.11912,0 0,-15.79294 -28.11912,0 0,15.79294 m -7.70387,33.89702 18.10409,0 0,-11.5558 -20.03006,0 0,-6.93348 47.76399,0 0,6.93348 -20.03006,0 0,11.5558 17.33371,0 0,6.93348 -17.33371,0 0,11.941 21.95603,0 0,6.93348 -52.38631,0 0,-6.93348 22.72641,0 0,-11.941 -18.10409,0 0,-6.93348"
       style=""
       id="path3114" />
    <path
       d="m 566.10331,159.9427 c 1.54072,2.31124 2.82469,5.00759 3.85193,8.08906 l 34.28222,0 0,6.93349 -70.10521,0 0,30.04509 c -2e-5,16.43494 -3.33836,31.07227 -10.01503,43.91205 l -7.31868,-4.62232 c 3.59514,-7.44707 6.03469,-14.12375 7.31868,-20.03006 1.54076,-6.16307 2.31115,-13.48174 2.31116,-21.95603 l 0,-34.28222 35.05261,0 c -0.77044,-2.05429 -1.79762,-3.98025 -3.08155,-5.7779 l 7.70387,-2.31116 m -23.4968,22.34122 54.31228,0 0,6.93348 c -6.41997,5.64955 -13.73864,10.52867 -21.95603,14.63736 0.77032,0.51362 1.41231,1.15561 1.92597,1.92596 l 26.19315,0 0,6.54829 c -2.05445,5.64953 -4.49401,11.04223 -7.31868,16.17813 l -8.08906,-2.31116 c 2.56788,-4.62231 4.62224,-9.11622 6.1631,-13.48177 l -20.80045,0 0,25.80796 c -6e-5,3.85193 -0.77045,6.54828 -2.31116,8.08906 -1.28404,1.54077 -3.85199,2.31115 -7.70387,2.31116 -3.85198,-1e-5 -7.44712,-0.3852 -10.78542,-1.15558 l -1.54077,-8.08906 c 3.5951,1.02718 7.31863,1.54077 11.17061,1.54077 2.31111,0 3.46669,-1.54077 3.46674,-4.62232 l 0,-23.88199 -26.96354,0 0,-6.93349 28.50431,0 c -3.85198,-2.82471 -8.0891,-5.64946 -12.71138,-8.47425 l 5.39271,-3.85194 c 2.8247,1.79762 5.64945,3.46679 8.47426,5.00752 5.90623,-2.56791 11.42733,-5.52106 16.56331,-8.85945 l -41.98608,0 0,-7.31868"
       style=""
       id="path3116" />
    <path
       d="m 631.201,162.63906 58.16422,0 0,23.88199 -58.16422,0 0,-23.88199 m 7.70387,16.56331 42.75648,0 0,-9.24464 -42.75648,0 0,9.24464 m 55.46786,13.86697 0,36.59338 -7.70387,0 0,-29.2747 -52.7715,0 0,29.65989 -7.70387,0 0,-36.97857 68.17924,0 m -38.90454,11.941 7.70387,0 0,14.63735 c -5e-5,6.6767 -2.9532,12.58299 -8.85945,17.7189 -5.90633,5.13591 -16.30655,9.24463 -31.20067,12.32619 l -5.39271,-6.93348 c 14.38054,-2.82476 24.13876,-6.29149 29.27471,-10.40023 5.39266,-4.10872 8.08902,-9.24462 8.08906,-15.40774 0.25675,-0.25677 0.38515,-4.2371 0.38519,-11.94099 m 17.7189,20.80044 c 10.01496,5.13593 19.90158,11.17062 29.6599,18.1041 l -6.1631,6.16309 C 688.20956,243.40128 678.19454,236.853 666.6388,230.43311 l 6.54829,-4.62233"
       style=""
       id="path3118" />
    <path
       d="m 288.37882,306.3636 35.82299,0 0,-22.34122 8.47426,0 0,22.34122 37.74895,0 0,7.70387 -36.20818,0 c 6.93342,24.39561 20.41518,40.95891 40.44531,49.68996 l -4.23713,8.47425 c -18.23256,-8.47425 -31.58592,-23.88198 -40.06012,-46.22321 -5.64954,18.7461 -19.64489,34.15382 -41.98608,46.22321 l -4.23713,-7.31867 c 24.90915,-14.12375 38.13411,-31.07225 39.67493,-50.84554 l -35.4378,0 0,-7.70387"
       style=""
       id="path3120" />
    <path
       d="m 469.41974,300.5857 0,51.61592 -7.70387,0 0,-6.54829 -12.71138,0 0,26.57835 -7.70387,0 0,-26.57835 -13.09658,0 0,6.54829 -7.70387,0 0,-51.61592 20.80045,0 0,-16.94851 7.70387,0 0,16.94851 20.41525,0 m -41.2157,18.87448 13.09658,0 0,-11.5558 -13.09658,0 0,11.5558 m 20.80045,-11.5558 0,11.5558 12.71138,0 0,-11.5558 -12.71138,0 m -20.80045,30.43028 13.09658,0 0,-11.55581 -13.09658,0 0,11.55581 m 20.80045,-11.55581 0,11.55581 12.71138,0 0,-11.55581 -12.71138,0 m -64.32731,-31.58586 12.71138,0 c -1.54079,-3.08148 -3.20996,-6.03462 -5.00751,-8.85945 l 7.31867,-3.46674 c 2.31114,3.85201 4.23711,7.96074 5.77791,12.32619 l 11.17061,0 0,7.31868 c -3.08159,7.44712 -6.41993,13.99541 -10.01503,19.64486 4.36549,2.82479 8.08902,5.77794 11.17061,8.85945 l -5.00752,6.54829 c -2.56799,-2.82472 -5.13594,-5.52107 -7.70387,-8.08906 l 0,43.14167 -7.31867,0 0,-38.13416 c -3.85195,4.62235 -7.57549,8.08909 -11.17061,10.40023 l -4.62232,-6.93348 c 10.7854,-7.44705 19.77324,-19.25963 26.96354,-35.4378 l -24.26719,0 0,-7.31868"
       style=""
       id="path3122" />
    <path
       d="m 482.13113,288.6447 29.65989,0 0,7.31868 -10.78541,0 0,22.34122 10.01503,0 0,7.31867 -10.01503,0 0,22.72642 c 4.1087,-1.79755 7.96063,-3.59512 11.5558,-5.39271 l 1.15558,6.93348 c -8.98787,4.87913 -19.00289,8.98786 -30.04509,12.32619 l -1.54077,-7.70387 c 3.85192,-1.02717 7.70385,-2.18275 11.5558,-3.46674 l 0,-25.42277 -10.78542,0 0,-7.31867 10.78542,0 0,-22.34122 -11.5558,0 0,-7.31868 m 45.45283,-5.00751 7.31867,0 0,28.88951 c -6e-5,24.6524 -5.77795,44.68244 -17.3337,60.09018 l -6.1631,-5.00752 c 10.78537,-14.89413 16.17808,-33.255 16.17813,-55.08266 l 0,-28.88951 m -10.01503,16.56332 6.93348,1.54077 c -1.02723,13.35342 -3.08159,25.4228 -6.1631,36.20819 l -6.93348,-2.31117 c 2.82472,-10.52858 4.87908,-22.34117 6.1631,-35.43779 m 20.80044,-11.55581 31.58587,0 0,7.31868 -12.32619,0 0,28.88951 11.17061,0 0,7.31867 -11.17061,0 0,28.88951 13.48177,0 0,7.31868 -34.28222,0 0,-7.31868 13.86696,0 0,-28.88951 -11.17061,0 0,-7.31867 11.17061,0 0,-28.88951 -12.32619,0 0,-7.31868"
       style=""
       id="path3124" />
  </g>
  <flowRoot
     xml:space="preserve"
     id="flowRoot3101"
     style="fill:black;stroke:none;stroke-opacity:1;stroke-width:1px;stroke-linejoin:miter;stroke-linecap:butt;fill-opacity:1;font-family:Sans;font-style:normal;font-weight:normal;font-size:40px;line-height:125%;letter-spacing:0px;word-spacing:0px"><flowRegion
       id="flowRegion3103"><rect
         id="rect3105"
         width="147.51666"
         height="126.31667"
         x="540.59998"
         y="385.60001" /></flowRegion><flowPara
       id="flowPara3107"></flowPara></flowRoot></svg>
