<?xml version="1.0" encoding="UTF-8" standalone="no"?>
<!-- Created with Inkscape (http://www.inkscape.org/) -->

<svg
   xmlns:dc="http://purl.org/dc/elements/1.1/"
   xmlns:cc="http://creativecommons.org/ns#"
   xmlns:rdf="http://www.w3.org/1999/02/22-rdf-syntax-ns#"
   xmlns:svg="http://www.w3.org/2000/svg"
   xmlns="http://www.w3.org/2000/svg"
   xmlns:sodipodi="http://sodipodi.sourceforge.net/DTD/sodipodi-0.dtd"
   xmlns:inkscape="http://www.inkscape.org/namespaces/inkscape"
   width="500"
   height="1052.3622"
   id="svg2"
   version="1.1"
   inkscape:version="0.48.4 r9939"
   sodipodi:docname="新建文档 1">
  <defs
     id="defs4" />
  <sodipodi:namedview
     id="base"
     pagecolor="#ffffff"
     bordercolor="#666666"
     borderopacity="1.0"
     inkscape:pageopacity="0.0"
     inkscape:pageshadow="2"
     inkscape:zoom="1.2578125"
     inkscape:cx="326.43309"
     inkscape:cy="825.58144"
     inkscape:document-units="px"
     inkscape:current-layer="layer1"
     showgrid="false"
     inkscape:window-width="1855"
     inkscape:window-height="1056"
     inkscape:window-x="65"
     inkscape:window-y="24"
     inkscape:window-maximized="1" />
  <metadata
     id="metadata7">
    <rdf:RDF>
      <cc:Work
         rdf:about="">
        <dc:format>image/svg+xml</dc:format>
        <dc:type
           rdf:resource="http://purl.org/dc/dcmitype/StillImage" />
        <dc:title></dc:title>
      </cc:Work>
    </rdf:RDF>
  </metadata>
  <g
     inkscape:label="Layer 1"
     inkscape:groupmode="layer"
     id="layer1">
    <flowRoot
       xml:space="preserve"
       id="flowRoot2985"
       style="fill:black;stroke:none;stroke-opacity:1;stroke-width:1px;stroke-linejoin:miter;stroke-linecap:butt;fill-opacity:1;font-family:Sans;font-style:normal;font-weight:normal;font-size:40px;line-height:125%;letter-spacing:0px;word-spacing:0px"><flowRegion
         id="flowRegion2987"><rect
           id="rect2989"
           width="257.59006"
           height="147.87578"
           x="39.751553"
           y="41.08268" /></flowRegion><flowPara
         id="flowPara2991"></flowPara></flowRoot>    <flowRoot
       xml:space="preserve"
       id="flowRoot2997"
       style="fill:black;stroke:none;stroke-opacity:1;stroke-width:1px;stroke-linejoin:miter;stroke-linecap:butt;fill-opacity:1;font-family:Sans;font-style:normal;font-weight:normal;font-size:40px;line-height:125%;letter-spacing:0px;word-spacing:0px"><flowRegion
         id="flowRegion2999"><rect
           id="rect3001"
           width="133.56522"
           height="84.273293"
           x="104.14907"
           y="45.057835" /></flowRegion><flowPara
         id="flowPara3003"></flowPara></flowRoot>    <path
       style="fill:#000000"
       d="m 277.99841,530.041 c -9.88367,-0.74109 -19.25898,-2.57176 -27.96387,-5.46035 -7.30113,-2.42278 -7.49014,-2.44695 -10.61919,-1.35808 -19.48959,6.78209 -47.51878,8.58043 -67.60886,4.33775 -22.00043,-4.64611 -38.68322,-15.75977 -45.27696,-30.16238 -5.85639,-12.79206 -6.75699,-30.21134 -2.81388,-54.42579 l 0.40349,-2.47782 -7.30595,-3.70478 c -16.35045,-8.29119 -22.950138,-16.0431 -24.287088,-28.52735 -0.66325,-6.19337 0.52001,-12.12289 3.27633,-16.41824 2.00589,-3.1259 2.27868,-4.21262 2.6951,-10.73635 0.40176,-6.29398 0.7503,-7.76926 2.623158,-11.10302 3.16325,-5.63071 6.4382,-7.80137 15.8912,-10.53284 12.44663,-3.59648 14.74295,-5.25005 27.5324,-19.82601 5.03426,-5.73748 10.27873,-11.19834 11.65437,-12.13523 1.37564,-0.9369 2.49966,-1.86274 2.49783,-2.05742 -0.002,-0.19469 -3.58363,-1.78552 -7.95956,-3.53519 -4.37593,-1.74966 -13.18877,-5.81954 -19.58409,-9.04416 -6.39532,-3.22463 -11.83,-5.61599 -12.07704,-5.31415 -7.2575,8.86726 -14.77579,22.62463 -17.00807,31.12227 -0.99898,3.80281 -2.01191,6.02966 -3.240838,7.12468 -3.32148,2.95956 -3.69608,1.99509 -2.37866,-6.12429 1.56193,-9.62633 6.948778,-21.15265 14.546038,-31.12435 l 3.73583,-4.90342 -4.02732,-2.49837 c -2.21503,-1.3741 -6.85619,-4.77478 -10.31368,-7.55706 -3.457488,-2.78229 -6.530298,-4.79737 -6.828468,-4.47797 -1.92468,2.06174 -11.66968,14.426 -19.4288,24.6509 -16.2523,21.41711 -19.61339,25.44429 -20.26464,24.28057 -1.0994,-1.9645 0.81556,-6.16663 6.94228,-15.23396 10.32977,-15.28768 17.4181,-24.62208 25.902,-34.10949 l 3.41997,-3.8245 -3.47667,-3.60894 c -5.38762,-5.59259 -9.55109,-11.08824 -13.69858,-18.0817 -2.09104,-3.52589 -3.97737,-6.41092 -4.19185,-6.41118 -0.21447,-2.5e-4 -4.19666,3.09046 -8.84932,6.86827 -13.1276,10.65918 -31.69779,29.65886 -37.78755,38.66148 -2.13454,3.15554 -5.21299,5.47211 -6.09701,4.58808 -0.83078,-0.83078 2.90624,-8.85773 6.96722,-14.96527 4.97186,-7.47744 24.87307,-27.82403 34.03792,-34.79967 3.06898,-2.33588 6.35261,-4.88421 7.29696,-5.66295 l 1.717,-1.41589 -2.47664,-7.43344 c -3.77822,-11.33998 -4.93325,-19.00226 -4.96237,-32.91949 -0.0451,-21.53984 4.09484,-35.00388 18.88274,-61.41146 2.88994,-5.16073 6.63589,-11.91958 8.32433,-15.01965 l 3.06989,-5.6365 -1.6372,-6.04461 c -4.5601,-16.83621 -5.12869,-20.02597 -5.24191,-29.406845 -0.0798,-6.60953 0.25364,-10.89609 1.183,-15.20972 2.32481,-10.79067 7.35385,-21.76519 11.91182,-25.99436 6.736328,-6.25037 18.289458,-4.87436 38.828148,4.62455 16.17453,7.48053 38.46965,17.45512 41.76883,18.6869 4.89091,1.82608 10.01217,1.79954 22.65427,-0.11742 14.16396,-2.14772 35.37289,-2.00286 49.95266,0.3412 l 2.87423,0.4621 3.55465,-5.55555 c 1.95506,-3.05555 5.59957,-9.01364 8.09892,-13.24021 10.5351,-17.81548 18.4041,-23.55315 32.01974,-23.34713 4.66791,0.0706 6.23316,0.43025 10.04907,2.30881 7.526,3.70504 12.65016,9.59349 16.94439,19.47171 1.29969,2.98973 2.51776,5.59057 2.70684,5.77964 0.18907,0.18907 3.48995,-1.1392 7.33529,-2.95171 12.49685,-5.89043 15.56155,-7.20669 21.23088,-9.11845 7.85677,-2.64941 14.21371,-3.8835 22.66929,-4.40086 7.16436,-0.43836 7.36352,-0.40867 10.13232,1.5101 6.97905,4.83649 11.41034,15.14593 12.27221,28.55146 0.15754,2.45044 0.57529,4.70786 0.92832,5.0165 0.35302,0.30863 2.67089,0.91969 5.1508,1.35792 12.75619,2.25414 22.05955,10.54341 24.0443,21.423415 2.35814,12.92684 -3.31565,38.11326 -12.43009,55.17818 -9.30521,17.42211 -17.82586,24.134 -32.05193,25.24799 -15.83984,1.24035 -29.4929,-8.40088 -38.68824,-27.32008 l -3.43456,-7.06652 -5.45174,-0.0324 c -11.37636,-0.0675 -19.30207,-3.22896 -26.96447,-10.75579 l -4.94145,-4.85403 -5.39134,1.75747 c -24.00683,7.82575 -48.37346,-1.18941 -54.49331,-20.1614 -2.31582,-7.17921 -1.12547,-18.822105 3.06492,-29.978175 1.3308,-3.54299 2.252,-6.60992 2.04712,-6.8154 -0.63449,-0.63636 -34.07999,-1.10741 -43.79538,-0.61683 -5.06182,0.2556 -12.02387,0.97088 -15.47123,1.58951 -3.44737,0.61863 -7.58885,0.93904 -9.2033,0.71203 -5.69419,-0.80068 -13.94711,-3.97988 -26.77761,-10.31532 -17.16385,-8.47517 -23.97029,-11.67237 -30.05879,-14.11957 -11.72519,-4.71282 -21.35273,-5.36013 -26.081148,-1.7536 -7.74373,5.90643 -13.06977,22.06167 -13.16212,39.92407 -0.0506,9.784435 1.26676,17.377125 4.79457,27.634175 3.05657,8.88689 2.9225,9.6466 -3.40231,19.27874 -13.05983,19.88902 -19.98346,35.0268 -23.38788,51.13505 -2.17047,10.26971 -2.17666,28.91395 -0.013,39.14818 1.20907,5.71901 4.69163,17.68845 5.38427,18.5056 0.0805,0.095 3.59098,-1.57755 7.80106,-3.71671 10.40529,-5.28699 15.58849,-5.33382 10.99254,-0.0993 -2.08933,2.37961 -5.17812,4.53574 -12.20745,8.52144 l -3.3621,1.90634 1.51676,2.9793 c 2.38943,4.69346 7.90402,12.58255 13.43299,19.21706 l 5.07896,6.09451 4.78303,-4.61763 c 2.63067,-2.53969 5.291878,-4.61763 5.913798,-4.61763 2.63454,0 0.57339,5.61611 -3.725888,10.1521 l -2.5768,2.71867 3.84497,3.46998 c 2.114738,1.90848 6.568618,5.40734 9.897518,7.77524 l 6.05254,4.30527 2.02925,-2.52952 c 2.02038,-2.51846 4.7237,-3.40929 4.7237,-1.55661 0,0.5351 -0.46222,2.28301 -1.02717,3.88423 l -1.02717,2.91131 2.97744,1.74489 c 8.95959,5.25068 28.31307,12.92829 43.83673,17.39023 55.76456,16.02834 122.61656,14.65012 170.80977,-3.52139 9.81706,-3.70157 23.64408,-10.33539 24.11834,-11.57133 0.21664,-0.56455 -0.75854,-2.82799 -2.16706,-5.02988 -1.70823,-2.67038 -2.4142,-4.46584 -2.12018,-5.39219 0.69849,-2.20074 1.87454,-1.67679 6.32022,2.81576 l 4.16066,4.20453 3.25061,-2.19481 c 3.7501,-2.53208 9.86276,-7.47811 13.67479,-11.06489 l 2.63677,-2.48098 -2.57488,-3.23666 c -1.41619,-1.78018 -3.98729,-4.71228 -5.71356,-6.5158 -1.94919,-2.03642 -3.04274,-3.77725 -2.88554,-4.59352 0.53566,-2.78145 2.63504,-1.70553 8.57052,4.39233 l 5.99088,6.15477 3.01659,-3.81504 c 1.65912,-2.09827 4.13876,-5.56721 5.51032,-7.70874 2.95925,-4.62058 9.36011,-17.52531 9.36011,-18.87089 0,-0.78718 -7.8186,-6.31122 -15.75181,-11.12906 -1.75418,-1.06532 -2.77054,-3.98147 -1.38764,-3.98147 2.22345,0 9.7921,2.64008 14.21934,4.95997 2.92589,1.53316 5.4728,2.63456 5.65982,2.44754 0.91235,-0.91235 3.72211,-15.81751 4.41245,-23.40704 1.33697,-14.69882 -1.43468,-34.31579 -6.36907,-45.07855 -2.44054,-5.32323 -3.03936,-9.87941 -1.08532,-8.25769 1.82846,1.51749 3.5496,5.52511 5.91031,13.762 3.89489,13.58991 4.64477,19.14123 4.63807,34.33539 -0.006,12.63178 -0.17968,14.57747 -2.04871,22.89526 l -2.04263,9.09031 1.82686,1.52888 c 12.87785,10.77734 28.21905,24.6478 34.01109,30.75048 6.10511,6.43257 12.18373,16.15213 13.49211,21.57354 0.89782,3.72023 -2.74171,2.00174 -6.01986,-2.8424 -7.0038,-10.3496 -26.50762,-29.91952 -41.29224,-41.43219 l -4.2163,-3.28319 -4.29518,8.29256 c -4.24014,8.18632 -8.24419,14.22903 -12.90634,19.47765 l -2.38918,2.68971 2.55871,2.97386 c 10.19178,11.84532 14.58084,17.41535 19.1313,24.2789 5.00628,7.55109 12.69855,22.12188 12.03105,22.78938 -0.17723,0.17723 -1.05874,0.1374 -1.9589,-0.0885 -1.06615,-0.26759 -4.20881,-3.93714 -9.01567,-10.52723 -8.49592,-11.6477 -22.63004,-30.46491 -24.97996,-33.25661 l -1.60082,-1.90179 -3.18576,2.90683 c -1.75217,1.59875 -6.13258,5.09849 -9.73426,7.77717 -3.60168,2.67869 -6.5485,5.00777 -6.5485,5.17574 0,0.16797 1.0715,1.9841 2.38113,4.03585 3.25158,5.09419 9.25908,17.11578 10.70869,21.42912 1.19348,3.55123 2.35111,13.80495 1.55857,13.80495 -0.23257,0 -1.19915,-0.35371 -2.14796,-0.78601 -2.0612,-0.93915 -3.00925,-2.82842 -3.68688,-7.34717 -0.55411,-3.69511 -6.00283,-14.86636 -11.09864,-22.75502 l -3.26094,-5.04816 -9.50641,4.69419 c -5.22853,2.5818 -12.50258,5.7892 -16.16455,7.12755 -3.66197,1.33835 -6.80285,2.54499 -6.97973,2.68141 -0.71634,0.55254 32.2314,32.76035 33.51297,32.76035 2.30203,0 11.21884,2.89785 15.39054,5.00173 8.09779,4.08391 11.26782,9.05924 11.93061,18.72501 0.37519,5.4716 0.82379,7.16358 3.14443,11.8602 l 2.7068,5.47814 -0.29309,8.67024 c -0.26818,7.93318 -0.46945,9.00124 -2.36762,12.56394 -1.14099,2.14153 -4.18311,5.96444 -6.76026,8.49535 -6.8332,6.71057 -15.00404,10.76443 -26.41535,13.10561 -1.96066,0.40226 -2.02181,0.53692 -1.60958,3.54446 3.17821,23.18754 1.53114,41.47789 -4.88188,54.21246 -2.64787,5.25796 -6.93394,10.55127 -8.54353,10.55127 -0.53875,0 -0.97954,0.47787 -0.97954,1.06192 0,1.26939 -0.14714,1.28708 -2.35142,0.28275 l -1.71009,-0.77917 3.10707,-2.86399 c 4.18126,-3.85415 8.96267,-11.20354 10.94029,-16.81605 1.31926,-3.74407 1.67367,-6.48174 1.90172,-14.68988 0.2254,-8.11314 0.094,-10.08821 -0.67104,-10.08812 -0.52323,8e-5 -3.49992,0.48976 -6.61488,1.0882 -9.18575,1.76476 -27.45847,4.40296 -39.99896,5.77502 -9.19674,1.00623 -17.44036,1.27804 -38.76016,1.27804 l -27.07906,0 1.2e-4,22.14848 1.1e-4,22.14847 3.00877,1.27697 c 4.35491,1.84829 13.31714,4.13049 21.10483,5.37426 8.06684,1.28836 26.29847,1.4745 34.26023,0.34979 10.82922,-1.52978 25.47535,-6.12582 30.30824,-9.51091 2.11315,-1.48011 2.64298,-1.36085 2.64298,0.59493 0,1.38698 -0.83184,2.04702 -4.8366,3.8377 -15.30219,6.84215 -35.45349,10.04903 -54.2769,8.63762 z m -71.85653,-3.54194 c 10.21258,-0.88632 18.00007,-2.28202 28.03999,-5.02541 l 7.86352,-2.14869 0.45061,-5.78787 c 0.24782,-3.18333 0.4525,-13.21853 0.45484,-22.30043 l 0.004,-16.51257 -16.45974,0.34257 c -35.23719,0.73337 -68.78573,-2.37785 -93.58192,-8.67856 -4.64826,-1.18112 -8.63046,-1.96461 -8.84933,-1.74109 -0.21886,0.22353 -0.33566,3.80075 -0.25954,7.94936 0.39171,21.35121 10.72936,37.12264 30.24143,46.13724 14.93084,6.89807 32.28452,9.48482 52.09591,7.76545 z m 107.95156,-55.84447 c 12.27409,-1.44648 30.91504,-4.1904 40.64061,-5.98225 l 4.67817,-0.8619 -0.11912,-4.22462 c -0.24146,-8.56357 -4.11199,-27.80125 -8.75514,-43.51563 -3.68941,-12.4865 -5.06806,-16.58418 -12.14752,-36.10525 -7.66056,-21.12339 -14.17787,-40.65284 -15.53369,-46.54746 -0.47693,-2.07352 -1.25068,-3.71671 -1.75011,-3.71671 -0.49238,0 -4.06392,0.76725 -7.93674,1.70501 -3.87284,0.93776 -9.54785,2.07096 -12.61115,2.51824 -3.0633,0.44727 -6.55359,0.95911 -7.75619,1.13741 l -2.18656,0.32419 -0.83099,7.66171 c -1.09641,10.10904 -2.34827,14.79737 -5.88786,22.05074 -2.14984,4.40545 -4.13596,7.19799 -7.4137,10.42384 -7.86382,7.73934 -13.7179,9.75948 -28.21878,9.73782 -8.4165,-0.0126 -10.65861,-0.26087 -14.86687,-1.6464 -13.27851,-4.37182 -22.46155,-12.53691 -29.21802,-25.97917 -2.86742,-5.70482 -6.5318,-17.45298 -6.53275,-20.94424 -2.8e-4,-1.02309 -0.39884,-2.19075 -0.88569,-2.5948 -0.79651,-0.66105 -18.39169,-4.41438 -20.53482,-4.38039 -0.48416,0.008 -1.96083,1.83948 -3.28148,4.07069 -27.64147,46.69944 -36.64436,66.23553 -43.59256,94.59496 -2.6484,10.80956 -2.64125,10.77339 -4.24624,21.48958 -1.8175,12.13513 -2.5537,10.88538 7.9402,13.47914 11.17897,2.76309 26.23954,5.38723 40.17594,7.00023 8.3623,0.96785 16.81283,1.23603 39.76164,1.26185 16.02834,0.0181 29.36945,-0.19362 29.6469,-0.47034 0.27745,-0.27671 0.46652,-2.66603 0.42014,-5.3096 -0.0924,-5.26595 0.76889,-7.73498 2.04708,-5.86839 0.39995,0.58406 0.67742,2.49551 0.6166,4.24768 -0.21484,6.18862 0.0265,7.67019 1.31103,8.04753 0.6814,0.20016 13.18549,0.25889 27.78688,0.1305 21.45675,-0.18867 28.98982,-0.5212 39.28079,-1.73397 z m 54.87871,-32.68639 c 14.10418,-3.90847 23.71833,-12.50026 26.68039,-23.84323 1.39574,-5.34488 0.8281,-9.24647 -2.58515,-17.76868 -1.99213,-4.97394 -2.86682,-8.37562 -3.21358,-12.49765 -0.26205,-3.11496 -0.78085,-6.86241 -1.1529,-8.32766 -1.41477,-5.5718 -7.52089,-10.1396 -15.83772,-11.84768 -2.33622,-0.47981 -6.30674,-1.61721 -8.82337,-2.52755 -2.51664,-0.91034 -4.61517,-1.59038 -4.66339,-1.51121 -1.08008,1.7729 -9.07882,12.1857 -12.59994,16.40265 -2.58992,3.10173 -4.70895,5.92231 -4.70895,6.26796 0,0.34565 2.53378,7.843 5.63063,16.66078 6.00268,17.09167 8.21948,23.97396 10.63681,33.02305 0.83212,3.11496 1.64384,6.06179 1.80383,6.5485 0.41292,1.25618 2.76698,1.10179 8.83334,-0.57928 z m -243.90089,-4.72821 c 1.5093,-10.06464 9.7943,-34.16207 17.66079,-51.36742 1.38956,-3.03919 2.52161,-5.90637 2.51569,-6.37151 -0.006,-0.46514 -2.20327,-3.61973 -4.88299,-7.0102 -2.67971,-3.39047 -5.30124,-7.13373 -5.82561,-8.31837 -1.03464,-2.33741 -1.47619,-2.48293 -4.57282,-1.50704 -1.12887,0.35575 -5.07896,1.34852 -8.77798,2.20615 -7.43139,1.72297 -11.36628,3.43126 -14.39911,6.25121 -3.21896,2.99301 -4.11134,5.4983 -4.80083,13.47796 -0.58263,6.74286 -0.89782,7.91014 -3.101698,11.4871 -8.96718,14.55386 -1.75941,31.68691 17.356238,41.25624 3.57787,1.79109 6.91453,3.25652 7.4148,3.25652 0.54228,0 1.11307,-1.35703 1.41352,-3.36064 z m 133.53593,-51.16587 c 16.46294,-3.12213 25.89837,-16.62187 28.12278,-40.23667 l 0.55726,-5.91593 -4.29044,0.43042 c -2.35974,0.23674 -13.25062,0.63169 -24.20197,0.87768 -20.53062,0.46116 -35.70262,-0.22621 -50.78539,-2.30084 -4.22934,-0.58175 -7.83317,-0.91427 -8.00849,-0.73895 -0.56634,0.56634 2.49722,12.27768 4.71839,18.03736 4.43167,11.4917 13.48155,21.52473 23.67705,26.24927 8.40527,3.89495 20.83694,5.37538 30.21081,3.59766 z m 85.45296,-7.75907 c 2.35643,-1.707 12.87425,-15.83886 12.87425,-17.29801 0,-0.60744 -7.26082,-9.17295 -10.57839,-12.47921 -2.66898,-2.65988 -9.15196,-8.49632 -17.45241,-15.71191 -1.64882,-1.43332 -3.82677,-1.02639 -3.82677,0.71499 0,0.60751 3.02647,10.26962 6.72549,21.47136 3.69901,11.20174 6.72548,20.68501 6.72548,21.07392 0,1.3404 1.38223,4.33902 2.0001,4.33902 0.34059,0 1.9301,-0.94958 3.53225,-2.11016 z m -192.88789,-7.64062 c 1.5004,-3.00853 6.59761,-12.47503 11.32714,-21.03665 4.72953,-8.56163 8.69356,-15.77391 8.80897,-16.02729 0.24429,-0.5364 -6.69302,-2.32387 -8.54526,-2.20178 -2.37523,0.15657 -22.18985,18.93757 -26.42027,25.04207 l -1.82038,2.62681 3.71851,5.5106 c 3.6316,5.38178 8.88202,11.60582 9.7625,11.57282 0.24244,-0.009 1.6684,-2.47805 3.16879,-5.48658 z M 393.7476,177.39741 c 10.11419,-4.70807 19.22648,-17.53635 25.57917,-36.01031 4.48199,-13.03387 6.56594,-24.79892 6.1384,-34.65478 -0.47191,-10.878785 -4.22109,-17.373645 -12.33475,-21.367985 -8.34592,-4.10869 -18.53519,-3.54855 -28.74517,1.58023 -6.59316,3.31192 -19.64461,12.16782 -19.65468,13.336425 -0.009,1.08628 2.14348,10.14314 2.50966,10.55799 0.12017,0.13615 1.38095,-0.1361 2.80173,-0.605 3.65676,-1.20683 7.94581,0.54163 11.64918,4.74887 3.27307,3.7184 4.25958,6.63883 4.2651,12.62628 0.007,8.08176 -4.72478,13.75491 -13.81588,16.56287 -4.69456,1.45 -21.65129,3.30028 -24.7742,2.7033 -2.20519,-0.42155 -2.2209,0.25594 -0.13872,5.98372 4.03778,11.10736 13.69099,21.13051 24.21197,25.13986 6.08902,2.3204 16.64251,2.03587 22.30819,-0.60147 z M 351.04542,141.6932 c 6.75743,-3.27667 10.87678,-9.86359 12.34591,-19.74134 1.53096,-10.2935 -1.79688,-23.005325 -7.22394,-27.594185 -6.2525,-5.28683 -15.18229,-7.35911 -26.31898,-6.10769 -9.58563,1.07713 -13.24002,2.34991 -17.34571,6.04127 -14.47273,13.012245 -9.23943,41.681925 8.85978,48.536685 5.41512,2.05089 16.03758,2.81655 21.76697,1.56897 2.33623,-0.50872 5.89841,-1.72539 7.91597,-2.70371 z m 18.98907,2.06113 c 6.71027,-2.28642 12.39904,-10.23043 12.96903,-18.11044 0.3554,-4.91337 -0.63735,-7.60637 -3.84092,-10.41914 -3.14813,-2.7641 -6.86567,-3.45236 -9.87982,-1.82913 -2.03774,1.0974 -2.34716,1.67523 -2.78848,5.20739 -0.79448,6.35883 -2.90316,12.17228 -6.71671,18.51743 -1.95518,3.25313 -3.47439,5.99318 -3.37602,6.08901 0.0984,0.0958 1.29388,0.4927 2.65667,0.88195 3.73884,1.06791 7.16134,0.96281 10.97625,-0.33707 z m -72.0366,-12.30988 c 3.19701,-0.99899 5.13261,-1.98151 5.13261,-2.60534 0,-0.55084 -3.16179,-4.29276 -7.0262,-8.31538 -10.21588,-10.63413 -12.29133,-14.4656 -12.17848,-22.482625 0.1726,-12.26117 12.3949,-20.49543 24.36689,-16.41616 3.02924,1.03217 6.96629,4.46861 7.72406,6.74194 0.23331,0.69994 1.26924,0.50407 4.31746,-0.81634 l 4.01049,-1.73723 0.0121,-4.33193 c 0.0275,-9.87933 -3.69787,-24.35038 -8.2029,-31.86351 -6.31257,-10.52762 -13.94393,-15.05411 -24.01703,-14.24554 -6.72394,0.53973 -11.2462,3.11418 -18.25335,10.39134 -13.73802,14.26738 -25.27613,36.63266 -27.32394,52.96429 -2.15495,17.186045 6.30919,29.553695 23.14283,33.815895 6.2204,1.57496 21.65612,0.97522 28.29545,-1.09941 z m 2.59149,-17.51799 c 0.56184,-5.70181 2.50206,-10.15515 7.96374,-18.278915 l 4.01518,-5.97225 -2.0641,-2.17117 c -2.8574,-3.00563 -5.5898,-4.28661 -9.14357,-4.28661 -3.80189,0 -6.48156,1.37058 -9.7475,4.9856 -2.55413,2.82711 -4.76539,8.45254 -4.76539,12.123105 0,2.92618 1.9177,8.64881 3.71434,11.08404 2.02612,2.74625 7.43217,7.32256 8.65022,7.32256 0.59744,0 1.06389,-1.62806 1.37708,-4.80636 z m 70.90866,-22.468245 c 8.85828,-5.8991 13.58984,-8.27793 19.41778,-9.76247 l 3.8937,-0.99183 0.22942,-3.10887 c 0.56305,-7.63008 -2.65811,-21.01429 -6.22469,-25.86408 -2.70694,-3.68088 -5.8886,-5.20866 -10.84723,-5.20866 -9.51551,0 -29.15384,5.71771 -42.59082,12.40033 -11.52107,5.72978 -10.70264,4.5576 -9.33103,13.36425 0.63552,4.08045 1.1555,8.52142 1.1555,9.8688 l 0,2.44979 5.84055,-0.0522 c 3.21231,-0.0288 7.59272,0.35746 9.73426,0.85824 5.60558,1.31081 13.39521,5.18711 17.03436,8.47668 1.72816,1.56215 3.26473,2.85334 3.41461,2.86931 0.14987,0.016 3.87299,-2.36868 8.27359,-5.29922 z m -30.8464,423.724435 c 0,-0.91246 0.35851,-1.41438 0.88494,-1.2389 0.48671,0.16224 0.88493,0.71974 0.88493,1.2389 0,0.51916 -0.39822,1.07667 -0.88493,1.23891 -0.52643,0.17547 -0.88494,-0.32644 -0.88494,-1.23891 z M 236.00042,278.01384 c -8.50961,-1.79333 -13.92143,-6.27866 -15.08402,-12.50171 -1.29622,-6.93834 2.61208,-12.93898 10.13449,-15.56009 5.20935,-1.81514 17.27955,-1.83211 21.94741,-0.0309 5.28724,2.04027 9.77138,8.11278 9.77138,13.23262 0,2.53736 -1.6417,6.58842 -3.5514,8.76345 -4.29223,4.88858 -15.27078,7.77133 -23.21786,6.09656 z m 13.39623,-2.8941 c 3.44179,-0.85882 6.97855,-3.34152 9.00206,-6.31919 1.38284,-2.0349 1.62471,-3.14309 1.39702,-6.40097 -0.34521,-4.9395 -2.25851,-7.76559 -6.75736,-9.98117 -2.87702,-1.41686 -4.42944,-1.65364 -10.84206,-1.65364 -6.93126,0 -7.7929,0.15788 -11.66163,2.13678 -5.7785,2.95578 -7.61718,5.78339 -7.24254,11.13793 0.23195,3.31501 0.67104,4.4779 2.36348,6.25937 5.12504,5.39462 14.12098,7.22136 23.74103,4.82089 z M 144.19659,250.38121 c -2.78984,-0.84189 -5.64376,-3.56827 -7.59533,-7.25591 -2.31671,-4.37764 -2.28115,-13.64751 0.0707,-18.42426 2.41777,-4.91067 6.15528,-7.20974 11.72063,-7.20974 5.31908,0 8.05075,1.71587 10.43314,6.55345 3.64524,7.40185 1.33518,20.06287 -4.45536,24.41901 -2.71562,2.04292 -7.05056,2.85993 -10.17376,1.91745 z m 184.12669,-0.0373 c -8.52337,-2.39947 -12.57978,-17.69944 -7.05673,-26.61658 5.40443,-8.72564 16.93037,-8.70176 21.43019,0.0444 3.21076,6.24063 2.34303,16.65041 -1.85775,22.28655 -2.84452,3.81648 -7.96004,5.56813 -12.51571,4.28564 z"
       id="path3037"
       inkscape:connector-curvature="0" />
  </g>
</svg>
