<?xml version="1.0" encoding="UTF-8" standalone="no"?>
<!-- Created with Inkscape (http://www.inkscape.org/) -->

<svg
   xmlns:dc="http://purl.org/dc/elements/1.1/"
   xmlns:cc="http://creativecommons.org/ns#"
   xmlns:rdf="http://www.w3.org/1999/02/22-rdf-syntax-ns#"
   xmlns:svg="http://www.w3.org/2000/svg"
   xmlns="http://www.w3.org/2000/svg"
   xmlns:sodipodi="http://sodipodi.sourceforge.net/DTD/sodipodi-0.dtd"
   xmlns:inkscape="http://www.inkscape.org/namespaces/inkscape"
   width="210mm"
   height="297mm"
   viewBox="0 0 210 297"
   version="1.1"
   id="svg8"
   inkscape:version="0.92.4 (unknown)"
   sodipodi:docname="hmcxy.svg">
  <defs
     id="defs2">
    <pattern
       patternUnits="userSpaceOnUse"
       width="76.914062"
       height="38.398437"
       patternTransform="matrix(0.26458333,0,0,0.26458333,19.58079,53.765168)"
       id="pattern3729">
      <flowRoot
         transform="translate(-106.86328,-121.77837)"
         style="font-style:normal;font-weight:normal;font-size:40px;line-height:1.25;font-family:sans-serif;letter-spacing:0px;word-spacing:0px;fill:#000000;fill-opacity:1;stroke:none"
         id="flowRoot3713"
         xml:space="preserve"><flowRegion
           id="flowRegion3715"><rect
             y="118.23397"
             x="104.28571"
             height="144.28572"
             width="305.71429"
             id="rect3717" /></flowRegion><flowPara
           id="flowPara3719">哈哈</flowPara></flowRoot>    </pattern>
    <pattern
       y="0"
       x="0"
       height="6"
       width="6"
       patternUnits="userSpaceOnUse"
       id="EMFhbasepattern" />
  </defs>
  <sodipodi:namedview
     id="base"
     pagecolor="#ffffff"
     bordercolor="#666666"
     borderopacity="1.0"
     inkscape:pageopacity="0.0"
     inkscape:pageshadow="2"
     inkscape:zoom="1"
     inkscape:cx="551.26893"
     inkscape:cy="1031.0061"
     inkscape:document-units="mm"
     inkscape:current-layer="layer1"
     showgrid="false"
     inkscape:window-width="1855"
     inkscape:window-height="1056"
     inkscape:window-x="65"
     inkscape:window-y="24"
     inkscape:window-maximized="1" />
  <metadata
     id="metadata5">
    <rdf:RDF>
      <cc:Work
         rdf:about="">
        <dc:format>image/svg+xml</dc:format>
        <dc:type
           rdf:resource="http://purl.org/dc/dcmitype/StillImage" />
        <dc:title></dc:title>
      </cc:Work>
    </rdf:RDF>
  </metadata>
  <g
     inkscape:label="Layer 1"
     inkscape:groupmode="layer"
     id="layer1">
    <flowRoot
       xml:space="preserve"
       id="flowRoot3721"
       style="fill:black;fill-opacity:1;stroke:none;font-family:sans-serif;font-style:normal;font-weight:normal;font-size:40px;line-height:1.25;letter-spacing:0px;word-spacing:0px"><flowRegion
         id="flowRegion3723"><rect
           id="rect3725"
           width="148.57143"
           height="151.42857"
           x="78.571426"
           y="101.09111" /></flowRegion><flowPara
         id="flowPara3727" /></flowRoot>    <path
       id="path8168"
       d="m 145.99246,36.440102 c -0.27735,-1.63125 -2.13349,-2.963438 -3.13623,-3.724689"
       style="fill:none;stroke:#060202;stroke-width:0.20007765px;stroke-linecap:square;stroke-linejoin:miter;stroke-miterlimit:4;stroke-dasharray:none;stroke-opacity:1"
       inkscape:connector-curvature="0" />
    <path
       id="path8170"
       d="M 20.159231,46.118857 C 20.265907,40.518231 19.45518,42.992293 17.556373,39.050104"
       style="fill:none;stroke:#060202;stroke-width:0.20007765px;stroke-linecap:square;stroke-linejoin:miter;stroke-miterlimit:4;stroke-dasharray:none;stroke-opacity:1"
       inkscape:connector-curvature="0" />
    <path
       id="path8172"
       d="m 127.45244,73.442316 c 5.58973,-13.2947 5.09903,-18.079705 5.09903,-33.821275 m 26.32727,-0.13595 c -2.92288,-1.549688 -9.15267,-0.435001 -13.09963,-0.435001 -2.66686,0 -11.47817,-0.761251 -13.22764,0.570937 l -0.87472,-1.930312"
       style="fill:none;stroke:#060202;stroke-width:0.20007765px;stroke-linecap:square;stroke-linejoin:miter;stroke-miterlimit:4;stroke-dasharray:none;stroke-opacity:1"
       inkscape:connector-curvature="0" />
    <path
       id="path8174"
       d="m 27.221082,47.206358 c 0.704053,-1.114688 3.221571,-5.655002 3.456255,-6.769692 m 1.728126,0.13595 -1.728126,-0.13595 -0.213349,-0.679686"
       style="fill:none;stroke:#060202;stroke-width:0.20007765px;stroke-linecap:square;stroke-linejoin:miter;stroke-miterlimit:4;stroke-dasharray:none;stroke-opacity:1"
       inkscape:connector-curvature="0" />
    <path
       id="path8176"
       d="m 190.85976,45.54792 0.74671,-2.338126 m -16.12917,2.909063 c 0.64003,-0.570937 0.96006,-1.84875 0.96006,-2.909063 m 16.15052,-8.428129 -0.98141,0.13595 m -15.16911,0.679686 c 0,2.664376 0.17061,4.893753 0,7.612504 h 15.16911 v -8.292193 c -3.05088,0 -13.14229,-0.87 -15.16911,0.679689 l -0.85339,-2.066252"
       style="fill:none;stroke:#060202;stroke-width:0.20007765px;stroke-linecap:square;stroke-linejoin:miter;stroke-miterlimit:4;stroke-dasharray:none;stroke-opacity:1"
       inkscape:connector-curvature="0" />
    <path
       id="path8178"
       d="m 116.08093,48.456984 c 0.38403,-0.625315 0.64005,-1.11469 0.64005,-1.930315 m -13.2063,3.180941 c 0.4267,-1.359378 0.8534,-1.549688 0.8534,-3.180941 m 13.01428,-10.222503 c -0.46936,-0.217487 -0.23468,-0.244693 -0.66138,0.13595 m -12.3529,0 v 10.086566 h 12.3529 V 36.440116 c -0.72539,-0.842812 -11.39284,-0.706876 -12.3529,0 l -0.74673,-1.522501"
       style="fill:none;stroke:#060202;stroke-width:0.20007765px;stroke-linecap:square;stroke-linejoin:miter;stroke-miterlimit:4;stroke-dasharray:none;stroke-opacity:1"
       inkscape:connector-curvature="0" />
    <path
       id="path8180"
       d="m 173.30113,63.790754 c 1.49344,-1.277825 0.87473,-11.337204 0.87473,-14.083144 m 20.48151,-0.706876 -0.87473,0.13595 m -0.53338,13.675324 c 1.17341,-3.751881 0.53338,-9.379698 0.53338,-13.675324 -1.36544,-0.543753 -18.71072,-0.163129 -19.60678,0.570937 l -0.76805,-1.658451"
       style="fill:none;stroke:#060202;stroke-width:0.20007765px;stroke-linecap:square;stroke-linejoin:miter;stroke-miterlimit:4;stroke-dasharray:none;stroke-opacity:1"
       inkscape:connector-curvature="0" />
    <path
       id="path8182"
       d="m 87.790857,66.672606 c 2.645531,-3.643111 4.587003,-12.750932 7.04052,-14.62687 m -0.21335,21.532503 c 1.066747,-3.398445 0.597378,-6.824069 0.661383,-10.766258 0.02133,-2.229364 0.704048,-9.29812 -0.448033,-10.766245 l 0.106675,-1.114687 m 5.099038,5.682189 c 0,-2.093439 -0.810722,-2.691564 -1.941474,-4.159688 -1.621454,-1.386565 -1.024077,-1.522501 -3.157564,-1.522501 l 0.106676,-3.452816 m 0.341356,-0.951564 -0.341358,0.951564 C 93.295261,45.248858 89.83901,47.315104 87.790857,46.118857 m 13.761013,0.679687 c -1.49344,-1.114688 -4.074969,-0.271873 -6.165786,-0.271873 V 36.71198 m -6.613821,1.114687 c 1.450775,-0.05439 5.65375,-1.739999 6.613821,-1.114687 0.938732,-1.440937 3.92562,-1.903125 5.205706,-0.951561"
       style="fill:none;stroke:#060202;stroke-width:0.20007765px;stroke-linecap:square;stroke-linejoin:miter;stroke-miterlimit:4;stroke-dasharray:none;stroke-opacity:1"
       inkscape:connector-curvature="0" />
    <path
       id="path8184"
       d="m 168.7568,73.741368 c 3.28557,-0.815617 9.4727,-3.452803 11.60619,-7.068762 1.81347,-3.099366 2.92288,-7.231864 3.24288,-11.174056 0.2347,-3.07219 0.064,-1.468127 1.83482,-2.338126"
       style="fill:none;stroke:#060202;stroke-width:0.20007765px;stroke-linecap:square;stroke-linejoin:miter;stroke-miterlimit:4;stroke-dasharray:none;stroke-opacity:1"
       inkscape:connector-curvature="0" />
    <path
       id="path8186"
       d="M 73.048441,61.588542 C 69.869543,59.685436 52.716286,62.97511 49.217362,60.881668"
       style="fill:none;stroke:#060202;stroke-width:0.20007765px;stroke-linecap:square;stroke-linejoin:miter;stroke-miterlimit:4;stroke-dasharray:none;stroke-opacity:1"
       inkscape:connector-curvature="0" />
    <path
       id="path8188"
       d="m 24.724899,61.153541 c -0.9174,1.141874 -14.145038,0.897208 -15.4037963,0.136031 m 30.4662353,0.842823 c -2.645528,-1.576876 -4.352321,-0.407822 -7.488549,-0.407822 -1.514778,0 -6.677824,0.570951 -7.57389,-0.570924 V 55.77052 c 3.477589,0 9.49403,-1.005938 11.904874,0.407814 m -2.048151,-5.24719 0.640048,-1.794376 m -23.191033,6.225939 c 1.813466,1.060315 9.984731,0.407813 12.694262,0.407813 v -6.633752 m -11.158151,2.365314 0.853397,-2.365314 m 10.304754,0 V 36.712059 m -10.304754,0 V 49.136754 H 24.724899 35.22167 c 0.640046,-1.359378 -0.405363,-10.467195 0.234682,-12.560631 m 0.21335,-0.13595 -0.21335,0.13595 c -0.83206,-0.951564 -9.771382,-0.625315 -10.731453,0.135922 -1.301429,-1.005938 -9.003327,-0.978751 -10.304754,0 l -0.426698,-0.679686"
       style="fill:none;stroke:#060202;stroke-width:0.20007765px;stroke-linecap:square;stroke-linejoin:miter;stroke-miterlimit:4;stroke-dasharray:none;stroke-opacity:1"
       inkscape:connector-curvature="0" />
    <path
       id="path8190"
       d="m 195.61743,71.376054 c -1.68544,-3.588753 -7.63789,-6.008424 -10.60344,-7.313428"
       style="fill:none;stroke:#060202;stroke-width:0.20007765px;stroke-linecap:square;stroke-linejoin:miter;stroke-miterlimit:4;stroke-dasharray:none;stroke-opacity:1"
       inkscape:connector-curvature="0" />
    <path
       id="path8192"
       d="m 11.817287,71.919799 c 2.240165,-1.08749 3.029555,-4.730628 3.029555,-7.72125"
       style="fill:none;stroke:#060202;stroke-width:0.20007765px;stroke-linecap:square;stroke-linejoin:miter;stroke-miterlimit:4;stroke-dasharray:none;stroke-opacity:1"
       inkscape:connector-curvature="0" />
    <path
       id="path8194"
       d="m 37.291154,71.919799 c 0.04267,-3.044981 -1.600117,-5.872502 -3.797612,-7.585301"
       style="fill:none;stroke:#060202;stroke-width:0.20007765px;stroke-linecap:square;stroke-linejoin:miter;stroke-miterlimit:4;stroke-dasharray:none;stroke-opacity:1"
       inkscape:connector-curvature="0" />
    <path
       id="path8196"
       d="m 21.353987,71.783876 c 0.512037,-3.398445 -0.896066,-4.540319 -2.048151,-7.313455"
       style="fill:none;stroke:#060202;stroke-width:0.20007765px;stroke-linecap:square;stroke-linejoin:miter;stroke-miterlimit:4;stroke-dasharray:none;stroke-opacity:1"
       inkscape:connector-curvature="0" />
    <path
       id="path8198"
       d="M 28.842536,71.512004 C 29.546587,69.173869 27.754454,66.29199 26.453027,64.606371"
       style="fill:none;stroke:#060202;stroke-width:0.20007765px;stroke-linecap:square;stroke-linejoin:miter;stroke-miterlimit:4;stroke-dasharray:none;stroke-opacity:1"
       inkscape:connector-curvature="0" />
    <path
       id="path8200"
       d="m 71.747017,71.647926 -5.312392,-2.610007 m 4.565668,4.404397 0.746724,-1.79439 c 1.32276,-0.02721 2.005476,-0.489359 2.816203,-1.794362 1.173422,-3.697497 2.176163,-12.31595 2.176163,-16.69314 M 56.257879,52.725425 c 0.277353,0.05439 -0.02133,0.407812 0.533373,-0.271872 m 12.907612,0 c -1.237426,1.06031 -11.627518,1.005936 -12.907612,0 0.04267,-1.903128 0.533372,-5.355942 0.810727,-7.313444 0.14935,-1.196249 0.234684,-2.419688 0.384028,-3.58875 0.341358,-2.963441 0,-1.223439 1.728124,-2.066251 m 17.793309,13.376256 -0.768057,0.299063 c -1.109417,-1.005939 -5.803093,0.842812 -7.040519,-0.706874 l 1.834803,-17.264074 m 1.08808,0 h -1.08808 C 68.994811,34.129163 54.679096,36.276976 52.140243,34.781665"
       style="fill:none;stroke:#060202;stroke-width:0.20007765px;stroke-linecap:square;stroke-linejoin:miter;stroke-miterlimit:4;stroke-dasharray:none;stroke-opacity:1"
       inkscape:connector-curvature="0" />
    <path
       id="path8202"
       d="m 99.717068,70.69636 c 1.194752,0.706873 9.728712,0.951566 10.731452,-0.271791 m 9.85672,0.951567 c -2.11215,-1.54967 -8.29927,1.033131 -9.85672,-0.951567 v -8.564046 c 1.30143,-0.652515 7.08319,-0.435001 8.02192,0.136031 m -15.83049,-0.7069 c 1.62145,0.978773 5.67508,0.435001 7.80857,0.435001 v -8.292179 m 8.87531,-0.13595 c -1.08807,-0.815625 -7.53121,-0.924377 -8.87531,0.13595 -2.38951,-1.875938 -6.18712,0.489375 -8.6833,-0.978749"
       style="fill:none;stroke:#060202;stroke-width:0.20007765px;stroke-linecap:square;stroke-linejoin:miter;stroke-miterlimit:4;stroke-dasharray:none;stroke-opacity:1"
       inkscape:connector-curvature="0" />
    <path
       id="path8204"
       d="m 145.33108,72.762622 0.10668,-1.250618 M 156.83059,54.9548 c -0.61872,-0.734063 -9.02466,-0.734063 -9.64338,0 -1.34409,1.604063 1.42944,15.170636 -1.74945,16.557204 l -3.98963,-1.087517 m -6.82717,-16.312499 c 0.70405,0.434998 11.3715,0.869999 12.24623,0.706873 0,-1.984687 0.14935,-2.202187 -0.128,-4.023751 m -3.98963,-3.180939 3.98963,3.180939 c 0.87473,-0.652499 6.37913,-5.682191 6.50714,-6.33469 m 2.92288,0.54375 c -1.79213,-0.951564 -1.25876,-0.598127 -2.92288,-0.54375 -1.7708,-2.283752 -13.44099,0.625312 -16.36387,-1.11469 m 17.55862,16.14937 c 0.68272,-0.92436 2.02681,-3.425612 2.38951,-4.5403 0.64005,-0.435001 1.51478,-0.108743 2.15483,0.271872"
       style="fill:none;stroke:#060202;stroke-width:0.20007765px;stroke-linecap:square;stroke-linejoin:miter;stroke-miterlimit:4;stroke-dasharray:none;stroke-opacity:1"
       inkscape:connector-curvature="0" />
  </g>
</svg>
