<?xml version="1.0" encoding="UTF-8" standalone="no"?>
<!-- Created with Inkscape (http://www.inkscape.org/) -->

<svg
   xmlns:dc="http://purl.org/dc/elements/1.1/"
   xmlns:cc="http://creativecommons.org/ns#"
   xmlns:rdf="http://www.w3.org/1999/02/22-rdf-syntax-ns#"
   xmlns:svg="http://www.w3.org/2000/svg"
   xmlns="http://www.w3.org/2000/svg"
   xmlns:sodipodi="http://sodipodi.sourceforge.net/DTD/sodipodi-0.dtd"
   xmlns:inkscape="http://www.inkscape.org/namespaces/inkscape"
   width="600"
   height="800"
   viewBox="0 0 158.74999 211.66667"
   version="1.1"
   id="svg8"
   inkscape:version="0.92.4 (unknown)"
   sodipodi:docname="ketty2.svg">
  <defs
     id="defs2" />
  <sodipodi:namedview
     id="base"
     pagecolor="#ffffff"
     bordercolor="#666666"
     borderopacity="1.0"
     inkscape:pageopacity="0.0"
     inkscape:pageshadow="2"
     inkscape:zoom="1"
     inkscape:cx="116.91278"
     inkscape:cy="467.78767"
     inkscape:document-units="px"
     inkscape:current-layer="layer1"
     showgrid="false"
     units="px"
     inkscape:window-width="1855"
     inkscape:window-height="1056"
     inkscape:window-x="65"
     inkscape:window-y="24"
     inkscape:window-maximized="1" />
  <metadata
     id="metadata5">
    <rdf:RDF>
      <cc:Work
         rdf:about="">
        <dc:format>image/svg+xml</dc:format>
        <dc:type
           rdf:resource="http://purl.org/dc/dcmitype/StillImage" />
        <dc:title></dc:title>
      </cc:Work>
    </rdf:RDF>
  </metadata>
  <g
     inkscape:label="Layer 1"
     inkscape:groupmode="layer"
     id="layer1"
     transform="translate(0,-85.333327)">
    <path
       style="fill:none;stroke-width:1"
       d="m 91.47339,261.94933 c -3.049897,-0.24476 -5.942924,-0.84937 -8.629074,-1.80338 -2.252979,-0.80016 -2.311301,-0.80814 -3.276864,-0.44853 -6.014084,2.2399 -14.663314,2.83384 -20.862697,1.43262 -6.788879,-1.53446 -11.936845,-5.20494 -13.971534,-9.96166 -1.807164,-4.2248 -2.085071,-9.97782 -0.868306,-17.97507 l 0.124508,-0.81834 -2.254467,-1.22358 c -5.045411,-2.7383 -7.081938,-5.29851 -7.494492,-9.42165 -0.204667,-2.04547 0.160463,-4.0038 1.011006,-5.42242 0.618976,-1.03238 0.703153,-1.39129 0.831653,-3.54587 0.123974,-2.07869 0.231527,-2.56593 0.809453,-3.66696 0.976114,-1.85964 1.986694,-2.57654 4.903695,-3.47866 3.840774,-1.1878 4.54937,-1.73391 8.49593,-6.54789 1.553472,-1.8949 3.171805,-3.69844 3.596299,-4.00787 0.424493,-0.30943 0.771343,-0.6152 0.770779,-0.6795 -6.81e-4,-0.0643 -1.105834,-0.58969 -2.456155,-1.16755 -1.350321,-0.57786 -4.069782,-1.92201 -6.043246,-2.987 -1.973465,-1.06499 -3.650494,-1.85478 -3.726727,-1.75509 -2.239514,2.92857 -4.559505,7.47218 -5.248338,10.27868 -0.308264,1.25594 -0.620835,1.9914 -1.000057,2.35305 -1.02494,0.97745 -1.140535,0.65891 -0.734004,-2.02265 0.481978,-3.17927 2.14425,-6.98604 4.488608,-10.27937 l 1.152798,-1.61944 -1.242749,-0.82513 c -0.683512,-0.45383 -2.115676,-1.57695 -3.182588,-2.49586 -1.066909,-0.91889 -2.015115,-1.58441 -2.107125,-1.47892 -0.593917,0.68092 -3.60102,4.76444 -5.995326,8.14139 -5.015124,7.07338 -6.052288,8.40342 -6.25325,8.01909 -0.33925,-0.64882 0.251665,-2.03665 2.142246,-5.03129 3.187551,-5.04902 5.374865,-8.13187 7.992823,-11.26526 l 1.055331,-1.26311 -1.072828,-1.19191 c -1.66251,-1.84705 -2.94727,-3.66209 -4.2271,-5.9718 -0.645251,-1.16449 -1.227333,-2.11732 -1.293516,-2.1174 -0.06618,-9e-5 -1.295007,1.02067 -2.73072,2.26836 -4.050907,3.52038 -9.781284,9.79536 -11.660458,12.76863 -0.658674,1.04218 -1.60862,1.80727 -1.881413,1.5153 -0.256362,-0.27438 0.896807,-2.92542 2.149942,-4.94254 1.534212,-2.46956 7.675317,-9.18938 10.503401,-11.4932 0.947023,-0.77147 1.960283,-1.6131 2.25169,-1.8703 l 0.529832,-0.46762 -0.764242,-2.45502 c -1.165879,-3.74523 -1.522299,-6.27583 -1.531284,-10.87225 -0.01391,-7.11391 1.263584,-11.56064 5.826823,-20.28221 0.891776,-1.70442 2.047699,-3.93665 2.568717,-4.9605 l 0.947304,-1.86155 -0.505205,-1.99634 c -1.407154,-5.56046 -1.58261,-6.61393 -1.617545,-9.71213 -0.02461,-2.18291 0.07827,-3.59862 0.365048,-5.02328 0.717387,-3.5638 2.269247,-7.18833 3.675742,-8.58509 2.078692,-2.06429 5.643751,-1.60984 11.981567,1.52734 4.991124,2.47058 11.870941,5.76486 12.888997,6.17168 1.509236,0.60309 3.089551,0.59432 6.990642,-0.0388 4.370706,-0.70933 10.915344,-0.66148 15.414359,0.11269 l 0.886929,0.15261 1.096891,-1.83481 c 0.60329,-1.00915 1.727912,-2.97692 2.499161,-4.37282 3.250913,-5.883872 5.679123,-7.778838 9.880631,-7.710799 1.440419,0.02332 1.923422,0.142098 3.100934,0.762527 2.322371,1.223653 3.903581,3.168422 5.228691,6.430872 0.40106,0.98741 0.77693,1.84638 0.83527,1.90883 0.0583,0.0624 1.07693,-0.37624 2.26352,-0.97485 3.85627,-1.94542 4.80198,-2.38014 6.55142,-3.01153 2.42443,-0.87502 4.38606,-1.2826 6.99527,-1.45347 2.21077,-0.14477 2.27223,-0.13497 3.12662,0.49874 2.1536,1.59734 3.521,5.00221 3.78696,9.42963 0.0486,0.8093 0.17752,1.55485 0.28646,1.65678 0.10893,0.10193 0.82418,0.30375 1.58943,0.44848 3.9363,0.74447 6.80712,3.48215 7.41958,7.07546 0.72767,4.26931 -1.02315,12.58757 -3.83567,18.22356 -2.8714,5.75396 -5.5007,7.97067 -9.89057,8.33859 -4.88785,0.40965 -9.1009,-2.77454 -11.93839,-9.02294 l -1.05984,-2.33384 -1.68229,-0.0107 c -3.51051,-0.0223 -5.95622,-1.06642 -8.32068,-3.55229 l -1.524834,-1.60313 -1.663655,0.58043 c -7.408014,2.5846 -14.927052,-0.39282 -16.815511,-6.65865 -0.714614,-2.37106 -0.347297,-6.21633 0.945771,-9.90081 0.410658,-1.17014 0.694922,-2.18305 0.6317,-2.25091 -0.195792,-0.21017 -10.516383,-0.36574 -13.514352,-0.20372 -1.561972,0.0844 -3.710319,0.32065 -4.774103,0.52497 -1.063785,0.20431 -2.341762,0.31013 -2.839948,0.23516 -1.757108,-0.26446 -4.303789,-1.31445 -8.263018,-3.40684 -5.296409,-2.79907 -7.396734,-3.855 -9.275522,-4.66323 -3.618151,-1.55649 -6.589012,-1.77028 -8.048103,-0.57916 -2.389555,1.9507 -4.033061,7.28625 -4.061559,13.18563 -0.01561,3.23148 0.390895,5.7391 1.479506,9.12667 0.943193,2.93505 0.901821,3.18596 -1.049883,6.36714 -4.029994,6.5687 -6.166486,11.56822 -7.21702,16.88825 -0.66976,3.39175 -0.671671,9.54934 -0.004,12.92937 0.373097,1.88881 1.447741,5.84192 1.661476,6.1118 0.02484,0.0314 1.108101,-0.52101 2.407246,-1.2275 3.210857,-1.74613 4.810285,-1.7616 3.39207,-0.0328 -0.644722,0.7859 -1.597861,1.49801 -3.766968,2.81435 l -1.037474,0.6296 0.468041,0.98397 c 0.737329,1.55009 2.439017,4.15561 4.145146,6.34677 l 1.56726,2.01282 1.475945,-1.52505 c 0.811771,-0.83878 1.632964,-1.52506 1.824875,-1.52506 0.812965,0 0.176937,1.85482 -1.149732,3.35291 l -0.795145,0.89789 1.186477,1.14603 c 0.652564,0.63031 2.026939,1.78586 3.05417,2.5679 l 1.86769,1.42189 0.626185,-0.83541 c 0.623447,-0.83177 1.457636,-1.12598 1.457636,-0.5141 0,0.17673 -0.142633,0.754 -0.316964,1.28284 l -0.316963,0.96151 0.918774,0.57628 c 2.764746,1.73413 8.73683,4.26979 13.52711,5.74343 17.207794,5.29364 37.83694,4.83846 52.708371,-1.16301 3.02935,-1.22251 7.29608,-3.41344 7.44242,-3.82163 0.0669,-0.18645 -0.23407,-0.934 -0.66871,-1.6612 -0.52712,-0.88195 -0.74497,-1.47493 -0.65424,-1.78087 0.21554,-0.72683 0.57844,-0.55379 1.95029,0.92995 l 1.28389,1.38862 1.00307,-0.72488 c 1.15721,-0.83626 3.04345,-2.46977 4.21976,-3.65437 l 0.81366,-0.81939 -0.79456,-1.06896 c -0.43701,-0.58794 -1.2304,-1.55631 -1.76309,-2.15196 -0.60148,-0.67256 -0.93892,-1.2475 -0.89042,-1.51709 0.1653,-0.91862 0.81313,-0.56328 2.64469,1.45065 l 1.84867,2.03272 0.93085,-1.25998 c 0.51197,-0.693 1.27714,-1.83868 1.70038,-2.54595 0.91316,-1.52603 2.88833,-5.78804 2.88833,-6.23244 0,-0.25998 -2.41266,-2.0844 -4.86068,-3.67557 -0.54131,-0.35184 -0.85493,-1.31495 -0.4282,-1.31495 0.68611,0 3.02164,0.87193 4.38779,1.63811 0.90288,0.50636 1.6888,0.87011 1.74651,0.80834 0.28153,-0.30131 1.14857,-5.22401 1.36159,-7.73058 0.41256,-4.85454 -0.44271,-11.33339 -1.96536,-14.88798 -0.7531,-1.7581 -0.93789,-3.26285 -0.33491,-2.72726 0.56423,0.50119 1.09533,1.82477 1.8238,4.54515 1.20188,4.48831 1.43328,6.32173 1.43121,11.33986 -0.002,4.17187 -0.0554,4.81447 -0.63219,7.56157 l -0.63031,3.00224 0.56373,0.50493 c 3.97384,3.5594 8.70782,8.14037 10.49512,10.15589 1.88391,2.12447 3.75965,5.33453 4.16339,7.12504 0.27705,1.22867 -0.84604,0.66111 -1.8576,-0.93875 -2.16124,-3.41814 -8.17971,-9.88145 -12.74194,-13.68371 l -1.30107,-1.08433 -1.32539,2.73876 c -1.30843,2.70368 -2.54399,4.69939 -3.98264,6.43284 l -0.73725,0.88832 0.78956,0.98217 c 3.14497,3.91213 4.49935,5.75173 5.90353,8.01854 1.54483,2.49388 3.91851,7.30614 3.71254,7.52659 -0.0547,0.0585 -0.32671,0.0454 -0.60448,-0.0292 -0.32899,-0.0884 -1.29876,-1.30031 -2.78205,-3.4768 -2.62166,-3.84686 -6.98316,-10.06157 -7.7083,-10.98358 l -0.49398,-0.6281 -0.98306,0.96003 c -0.54069,0.52802 -1.89239,1.68386 -3.0038,2.56855 -1.1114,0.88469 -2.02073,1.6539 -2.02073,1.70938 0,0.0555 0.33064,0.65528 0.73477,1.33291 1.00337,1.68245 2.85716,5.65279 3.30448,7.07734 0.36828,1.17286 0.72551,4.55933 0.48094,4.55933 -0.0718,0 -0.37003,-0.11681 -0.66281,-0.2596 -0.63605,-0.31016 -0.9286,-0.93413 -1.1377,-2.42652 -0.17099,-1.22038 -1.85235,-4.90988 -3.42481,-7.51525 l -1.00626,-1.66724 -2.93348,1.55033 c -1.61342,0.85269 -3.85804,1.91199 -4.98805,2.35401 -1.13001,0.44201 -2.09922,0.84052 -2.1538,0.88558 -0.22105,0.18248 9.94595,10.81968 10.34141,10.81968 0.71036,0 3.4619,0.95706 4.7492,1.65191 2.49882,1.34878 3.47702,2.99197 3.68155,6.18426 0.11577,1.80709 0.2542,2.3659 0.97031,3.91704 l 0.83525,1.80926 -0.0904,2.86349 c -0.0827,2.62007 -0.14486,2.97282 -0.73059,4.14946 -0.35209,0.70728 -1.29082,1.96986 -2.08609,2.80574 -2.10858,2.21629 -4.62993,3.55514 -8.15123,4.32836 -0.60501,0.13285 -0.62388,0.17733 -0.49668,1.17062 0.98073,7.6581 0.47248,13.6988 -1.50645,17.90462 -0.81707,1.73653 -2.13967,3.48474 -2.63635,3.48474 -0.16625,0 -0.30227,0.15782 -0.30227,0.35072 0,0.41924 -0.0454,0.42508 -0.72559,0.0934 l -0.5277,-0.25733 0.95877,-0.94589 c 1.29025,-1.2729 2.7657,-3.70016 3.37595,-5.55379 0.40709,-1.23654 0.51646,-2.14071 0.58683,-4.85159 0.0696,-2.67951 0.029,-3.33181 -0.20707,-3.33178 -0.16146,2e-5 -1.08,0.16175 -2.04121,0.3594 -2.83453,0.58284 -8.47312,1.45415 -12.34286,1.9073 -2.837922,0.33232 -5.381733,0.42209 -11.960585,0.42209 h -8.356026 l 3.7e-5,7.31493 3.5e-5,7.31492 0.928445,0.42174 c 1.343835,0.61043 4.109394,1.36417 6.512514,1.77495 2.489261,0.4255 8.115164,0.48698 10.572001,0.11552 3.341669,-0.50523 7.861169,-2.02316 9.352499,-3.14114 0.65208,-0.48884 0.81556,-0.44945 0.81556,0.19648 0,0.45808 -0.25668,0.67606 -1.49247,1.26747 -4.72194,2.25974 -10.940214,3.31887 -16.74873,2.85272 z m -22.173443,-1.16979 c 3.151392,-0.29272 5.55445,-0.75368 8.652563,-1.65973 l 2.426521,-0.70965 0.139046,-1.91154 c 0.07647,-1.05135 0.139634,-4.36565 0.140355,-7.36511 l 0.0013,-5.45357 -5.079138,0.11314 c -10.87347,0.24221 -21.225855,-0.78532 -28.877449,-2.86624 -1.434358,-0.39009 -2.663181,-0.64885 -2.73072,-0.57503 -0.06754,0.0738 -0.103577,1.25526 -0.08009,2.62542 0.120875,7.05161 3.31086,12.2604 9.33188,15.23763 4.607352,2.27821 9.962339,3.13253 16.075723,2.56468 z m 33.311623,-18.44362 c 3.78753,-0.47772 9.53975,-1.38395 12.54086,-1.97574 l 1.44358,-0.28466 -0.0367,-1.39525 c -0.0745,-2.82828 -1.26888,-9.18186 -2.70166,-14.3718 -1.13848,-4.12389 -1.5639,-5.47722 -3.74847,-11.9244 -2.36389,-6.97637 -4.375,-13.42631 -4.79338,-15.37312 -0.14717,-0.68481 -0.38593,-1.22751 -0.54005,-1.22751 -0.15193,0 -1.25404,0.2534 -2.44911,0.56311 -1.19508,0.30971 -2.946272,0.68397 -3.891542,0.83169 -0.94527,0.14772 -2.022301,0.31677 -2.393402,0.37566 l -0.674726,0.10707 -0.256425,2.53041 c -0.338332,3.33869 -0.724628,4.88709 -1.816874,7.28265 -0.663395,1.45497 -1.276271,2.37726 -2.287714,3.44265 -2.426612,2.55605 -4.233059,3.22324 -8.707732,3.21609 -2.597159,-0.004 -3.289029,-0.0862 -4.587609,-0.54375 -4.097475,-1.44387 -6.931171,-4.14054 -9.01608,-8.58008 -0.884825,-1.88412 -2.015579,-5.76416 -2.015872,-6.91721 -8.5e-5,-0.33789 -0.123072,-0.72353 -0.273303,-0.85697 -0.245789,-0.21833 -5.675296,-1.45793 -6.336622,-1.44671 -0.149403,0.003 -0.605072,0.60752 -1.012599,1.34442 -8.529586,15.42331 -11.307693,21.87545 -13.451765,31.24165 -0.817241,3.57005 -0.815034,3.5581 -1.310299,7.09731 -0.560844,4.00784 -0.78802,3.59509 2.45018,4.45173 3.449598,0.91255 8.096979,1.77922 12.397468,2.31194 2.580431,0.31965 5.188091,0.40823 12.26962,0.41675 4.946015,0.006 9.062806,-0.064 9.148422,-0.15534 0.08562,-0.0914 0.143957,-0.8805 0.129646,-1.75358 -0.02851,-1.73918 0.237263,-2.55462 0.631688,-1.93814 0.123415,0.19289 0.209035,0.82418 0.190267,1.40287 -0.06629,2.0439 0.0082,2.53321 0.404557,2.65783 0.210266,0.0661 4.068773,0.0855 8.57446,0.0431 6.62111,-0.0623 8.945658,-0.17213 12.121236,-0.57267 z m 16.93444,-10.79525 c 4.35226,-1.29085 7.31899,-4.12844 8.23302,-7.87465 0.4307,-1.76524 0.25554,-3.05381 -0.79772,-5.86842 -0.61473,-1.64273 -0.88464,-2.76619 -0.99165,-4.12756 -0.0809,-1.02878 -0.24095,-2.26644 -0.35576,-2.75036 -0.43657,-1.84019 -2.3208,-3.34878 -4.8872,-3.91291 -0.72091,-0.15847 -1.94613,-0.53411 -2.72271,-0.83477 -0.77658,-0.30065 -1.42414,-0.52525 -1.43902,-0.4991 -0.33329,0.58553 -2.80154,4.02454 -3.88809,5.41726 -0.79919,1.02441 -1.45308,1.95595 -1.45308,2.07011 0,0.11416 0.78188,2.59029 1.7375,5.50252 1.8523,5.64482 2.53636,7.91782 3.2823,10.90644 0.25677,1.02877 0.50725,2.00201 0.55662,2.16275 0.12742,0.41488 0.85383,0.36389 2.72579,-0.19131 z m -75.262781,-1.56158 c 0.465736,-3.32402 3.022316,-11.28262 5.449754,-16.96499 0.428788,-1.00375 0.778117,-1.95068 0.776289,-2.10431 -0.0017,-0.15362 -0.679884,-1.19548 -1.50679,-2.31524 -0.826903,-1.11976 -1.635854,-2.35604 -1.797663,-2.74729 -0.319269,-0.77197 -0.455521,-0.82003 -1.411076,-0.49773 -0.348346,0.1175 -1.567263,0.44538 -2.708704,0.72863 -2.293173,0.56904 -3.507399,1.13323 -4.44327,2.06457 -0.993304,0.9885 -1.268674,1.81591 -1.481437,4.45133 -0.179786,2.22695 -0.277048,2.61247 -0.957121,3.79382 -2.767084,4.80667 -0.542918,10.46516 5.355778,13.6256 1.104058,0.59154 2.133681,1.07552 2.288054,1.07552 0.167339,0 0.34347,-0.44818 0.436186,-1.10991 z m 41.206429,-16.89843 c 5.080124,-1.03114 7.991704,-5.48966 8.678111,-13.28886 l 0.171959,-1.95385 -1.32394,0.14216 c -0.728167,0.0782 -4.088871,0.20862 -7.46823,0.28987 -6.335324,0.1523 -11.017092,-0.0747 -15.671322,-0.75989 -1.305089,-0.19214 -2.417154,-0.30196 -2.471256,-0.24406 -0.174761,0.18705 0.770592,4.05492 1.455999,5.95716 1.36752,3.79533 4.160126,7.10892 7.306247,8.66928 2.593694,1.28638 6.429851,1.77532 9.322432,1.18819 z m 26.369022,-2.56257 c 0.72715,-0.56376 3.97273,-5.23105 3.97273,-5.71296 0,-0.20063 -2.24054,-3.02953 -3.26427,-4.12149 -0.8236,-0.87847 -2.82411,-2.80606 -5.38546,-5.18913 -0.50879,-0.47338 -1.18086,-0.33898 -1.18086,0.23614 0,0.20064 0.93391,3.39172 2.07535,7.09129 1.14144,3.69958 2.07534,6.83159 2.07534,6.96004 0,0.44268 0.42653,1.43303 0.61719,1.43303 0.1051,0 0.59559,-0.31361 1.08998,-0.69692 z m -59.521222,-2.52345 c 0.462992,-0.99361 2.035887,-4.12009 3.49532,-6.94772 1.459437,-2.82763 2.682655,-5.20961 2.718266,-5.29329 0.07538,-0.17716 -2.065326,-0.7675 -2.63689,-0.72718 -0.732947,0.0517 -6.847329,6.25447 -8.152751,8.27059 l -0.561731,0.86754 1.147457,1.81998 c 1.120635,1.77742 2.740808,3.83303 3.012506,3.82212 0.07481,-0.003 0.514832,-0.81841 0.977823,-1.81204 z m 74.853752,-62.51206 c 3.12102,-1.55492 5.93289,-5.79169 7.8932,-11.89304 1.38305,-4.30466 2.02612,-8.19028 1.89418,-11.44535 -0.14562,-3.59291 -1.30254,-5.73795 -3.80625,-7.05715 -2.57537,-1.35696 -5.71957,-1.17197 -8.87016,0.5219 -2.03452,1.09382 -6.06193,4.01864 -6.06504,4.40459 -0.003,0.35876 0.66144,3.34995 0.77443,3.48696 0.0371,0.045 0.42614,-0.045 0.86456,-0.19981 1.1284,-0.39858 2.45191,0.17888 3.5947,1.5684 1.01,1.22806 1.31442,2.19258 1.31612,4.17004 0.002,2.66915 -1.45797,4.54281 -4.2633,5.47019 -1.44864,0.47888 -6.68114,1.08997 -7.6448,0.8928 -0.68048,-0.13922 -0.68533,0.0845 -0.0428,1.97624 1.24597,3.6684 4.22476,6.97872 7.47132,8.30287 1.87894,0.76636 5.13553,0.67239 6.88385,-0.19864 z m -13.17702,-11.79194 c 2.0852,-1.08218 3.35635,-3.25763 3.80969,-6.51993 0.47243,-3.39961 -0.55448,-7.59791 -2.22916,-9.11346 -1.92939,-1.74607 -4.68494,-2.43047 -8.12149,-2.01717 -2.95793,0.35574 -4.0856,0.7761 -5.35253,1.99524 -4.465985,4.29751 -2.851097,13.76618 2.73395,16.03009 1.67099,0.67734 4.94886,0.93021 6.71684,0.51817 0.72091,-0.16801 1.82012,-0.56984 2.4427,-0.89294 z m 5.85964,0.68072 c 2.07064,-0.75513 3.82608,-3.37877 4.00197,-5.98129 0.10967,-1.62272 -0.19667,-2.51214 -1.18523,-3.4411 -0.97145,-0.9129 -2.1186,-1.14021 -3.04871,-0.60411 -0.6288,0.36244 -0.72428,0.55328 -0.86046,1.71984 -0.24516,2.10011 -0.89586,4.02011 -2.07264,6.1157 -0.60333,1.07441 -1.07212,1.97936 -1.04178,2.01101 0.0303,0.0316 0.39927,0.16272 0.8198,0.29127 1.15373,0.3527 2.20984,0.31799 3.38705,-0.11132 z m -22.229014,-4.06555 c 0.986531,-0.32994 1.583818,-0.65443 1.583818,-0.86046 0,-0.18193 -0.975663,-1.41776 -2.16814,-2.7463 -3.15241,-3.51211 -3.792851,-4.77752 -3.758027,-7.42528 0.05326,-4.04947 3.82481,-6.76898 7.519123,-5.42173 0.93476,0.34089 2.14965,1.47584 2.38348,2.22664 0.072,0.23117 0.39166,0.16648 1.33228,-0.2696 l 1.23756,-0.57375 0.004,-1.4307 c 0.008,-3.26282 -1.14109,-8.04214 -2.53125,-10.52349 -1.94793,-3.476927 -4.302809,-4.97188 -7.411158,-4.704835 -2.074869,0.178256 -3.470345,1.028513 -5.632608,3.431925 -4.239269,4.71205 -7.799693,12.09858 -8.431605,17.49238 -0.664972,5.676 1.946887,9.76063 7.141402,11.1683 1.919486,0.52015 6.68263,0.32208 8.73139,-0.3631 z m 0.79968,-5.78563 c 0.173372,-1.88312 0.772085,-3.35391 2.457444,-6.03693 l 1.23901,-1.97244 -0.63694,-0.71707 c -0.88174,-0.99266 -1.7249,-1.41572 -2.82152,-1.41572 -1.173185,0 -2.000075,0.45266 -3.007879,1.64658 -0.788152,0.9337 -1.470502,2.7916 -1.470502,4.00387 0,0.96642 0.591763,2.85642 1.146171,3.66069 0.625219,0.907 2.293413,2.41841 2.669278,2.41841 0.184357,0 0.328296,-0.5377 0.424938,-1.58739 z m 21.880954,-7.42053 c 2.73348,-1.94828 4.19354,-2.73393 5.99192,-3.22422 l 1.20152,-0.32757 0.0708,-1.02676 c 0.17375,-2.51997 -0.82023,-6.94034 -1.92081,-8.54207 -0.8353,-1.21568 -1.8171,-1.72025 -3.34723,-1.72025 -2.93629,0 -8.99627,1.88837 -13.14265,4.09543 -3.55516,1.89236 -3.30261,1.50522 -2.87936,4.41377 0.19611,1.34765 0.35656,2.81435 0.35656,3.25935 v 0.80909 l 1.80227,-0.0173 c 0.99126,-0.009 2.34296,0.11806 3.0038,0.28345 1.72976,0.43292 4.13349,1.71313 5.25645,2.79957 0.53328,0.51593 1.00743,0.94237 1.05367,0.94764 0.0463,0.005 1.19513,-0.7823 2.55307,-1.75016 z m -9.51857,139.94245 c 0,-0.30136 0.11063,-0.46713 0.27308,-0.40918 0.15019,0.0536 0.27307,0.23771 0.27307,0.40918 0,0.17146 -0.12288,0.35558 -0.27307,0.40917 -0.16245,0.0579 -0.27308,-0.10781 -0.27308,-0.40917 z M 78.513677,178.71292 c -2.625891,-0.59227 -4.295866,-2.07363 -4.654617,-4.12891 -0.399987,-2.2915 0.806033,-4.27332 3.127292,-5.13899 1.607501,-0.59948 5.332115,-0.60508 6.772519,-0.0102 1.631536,0.67383 3.015246,2.67939 3.015246,4.3703 0,0.83801 -0.506595,2.17595 -1.095889,2.89429 -1.324492,1.61453 -4.712247,2.56662 -7.164551,2.0135 z m 4.1338,-0.95582 c 1.062066,-0.28364 2.153437,-1.1036 2.77785,-2.08703 0.426717,-0.67206 0.501351,-1.03806 0.431091,-2.11402 -0.106525,-1.63137 -0.696928,-2.56473 -2.085182,-3.29647 -0.887787,-0.46794 -1.366832,-0.54614 -3.345634,-0.54614 -2.138844,0 -2.40473,0.0522 -3.59854,0.70571 -1.783125,0.9762 -2.350503,1.91007 -2.234897,3.6785 0.07157,1.09484 0.207069,1.4789 0.72932,2.06726 1.581482,1.78168 4.357442,2.38499 7.325992,1.59219 z M 50.18491,169.58676 c -0.860889,-0.27804 -1.741548,-1.17848 -2.343761,-2.39639 -0.714892,-1.44579 -0.703919,-4.50732 0.0218,-6.08493 0.746074,-1.62184 1.899392,-2.38115 3.616744,-2.38115 1.641359,0 2.484295,0.5667 3.219453,2.1644 1.124846,2.44459 0.412009,6.62611 -1.374832,8.06481 -0.837984,0.6747 -2.175659,0.94453 -3.139413,0.63326 z m 56.8177,-0.0123 c -2.63014,-0.79248 -3.88186,-5.84556 -2.17757,-8.7906 1.6677,-2.88179 5.22437,-2.87391 6.61292,0.0147 0.99078,2.06108 0.72301,5.49909 -0.57326,7.36053 -0.87777,1.26045 -2.45631,1.83897 -3.86209,1.4154 z"
       id="path3900"
       inkscape:connector-curvature="0" />
  </g>
</svg>
