<?xml version="1.0" encoding="UTF-8" standalone="no"?>
<!-- Created with Inkscape (http://www.inkscape.org/) -->

<svg
   xmlns:dc="http://purl.org/dc/elements/1.1/"
   xmlns:cc="http://creativecommons.org/ns#"
   xmlns:rdf="http://www.w3.org/1999/02/22-rdf-syntax-ns#"
   xmlns:svg="http://www.w3.org/2000/svg"
   xmlns="http://www.w3.org/2000/svg"
   xmlns:sodipodi="http://sodipodi.sourceforge.net/DTD/sodipodi-0.dtd"
   xmlns:inkscape="http://www.inkscape.org/namespaces/inkscape"
   id="svg3039"
   version="1.1"
   inkscape:version="0.48.4 r9939"
   width="954"
   height="640"
   sodipodi:docname="demo1.svg">
  <metadata
     id="metadata3045">
    <rdf:RDF>
      <cc:Work
         rdf:about="">
        <dc:format>image/svg+xml</dc:format>
        <dc:type
           rdf:resource="http://purl.org/dc/dcmitype/StillImage" />
        <dc:title></dc:title>
      </cc:Work>
    </rdf:RDF>
  </metadata>
  <defs
     id="defs3043" />
  <sodipodi:namedview
     pagecolor="#ffffff"
     bordercolor="#666666"
     borderopacity="1"
     objecttolerance="10"
     gridtolerance="10"
     guidetolerance="10"
     inkscape:pageopacity="0"
     inkscape:pageshadow="2"
     inkscape:window-width="1855"
     inkscape:window-height="1056"
     id="namedview3041"
     showgrid="false"
     inkscape:zoom="1.1320755"
     inkscape:cx="320.65"
     inkscape:cy="320"
     inkscape:window-x="65"
     inkscape:window-y="24"
     inkscape:window-maximized="1"
     inkscape:current-layer="svg3039" />
  <flowRoot
     xml:space="preserve"
     id="flowRoot3087"
     style="fill:black;stroke:none;stroke-opacity:1;stroke-width:1px;stroke-linejoin:miter;stroke-linecap:butt;fill-opacity:1;font-family:Sans;font-style:normal;font-weight:normal;font-size:40px;line-height:125%;letter-spacing:0px;word-spacing:0px"><flowRegion
       id="flowRegion3089"><rect
         id="rect3091"
         width="609.5"
         height="418.70001"
         x="97.166664"
         y="94.099998" /></flowRegion><flowPara
       id="flowPara3093"></flowPara></flowRoot>  <g
     transform="scale(1.0130435,0.98712445)"
     style="font-size:98.60952758999999901px;font-style:normal;font-weight:normal;line-height:125%;letter-spacing:0px;word-spacing:0px;fill:#000000;fill-opacity:1;stroke:#000000;font-family:Sans;stroke-opacity:1;stroke-width:2.99999999;stroke-miterlimit:4;stroke-dasharray:none"
     id="text3095">
    <flowRoot
       xml:space="preserve"
       id="flowRoot3164"
       style="fill:black;stroke:#000000;stroke-opacity:1;stroke-width:3;stroke-linejoin:miter;stroke-linecap:butt;fill-opacity:1;font-family:Sans;font-style:normal;font-weight:normal;font-size:40px;line-height:125%;letter-spacing:0px;word-spacing:0px;stroke-miterlimit:4;stroke-dasharray:none"><flowRegion
         id="flowRegion3166"><rect
           id="rect3168"
           width="186.38333"
           height="90.98333"
           x="22.966667"
           y="26.083334"
           style="stroke:#000000;stroke-opacity:1;stroke-width:3;stroke-miterlimit:4;stroke-dasharray:none" /></flowRegion><flowPara
         id="flowPara3170"></flowPara></flowRoot>    <g
       transform="scale(0.98712444,1.0130435)"
       style="font-size:40px;line-height:125%;fill:#000000;font-family:Sans;opacity:1;fill-opacity:1;stroke:#000000;stroke-opacity:1;stroke-width:2.99999999;stroke-miterlimit:4;stroke-dasharray:none"
       id="text3210">
      <path
         d="m 112.07083,65.34375 1.40625,2.8125 c -1.87502,0.416695 -3.90626,0.833361 -6.09375,1.25 l 0,5.625 9.84375,0 C 116.91456,71.802108 116.75831,68.208362 116.75833,64.25 l 3.4375,0 c -3e-5,4.062528 0.10414,7.656275 0.3125,10.78125 l 11.09375,0 0,3.125 -10.9375,0 c 0.41664,3.333349 1.04164,6.562512 1.875,9.6875 1.4583,-2.083322 2.81247,-4.479153 4.0625,-7.1875 l 2.96875,1.5625 c -1.77087,3.854177 -3.69795,7.031257 -5.78125,9.53125 1.4583,3.437502 2.60414,5.15625 3.4375,5.15625 0.31247,0 0.67705,-0.260417 1.09375,-0.78125 0.41663,-0.624999 0.72913,-1.458331 0.9375,-2.5 l 2.65625,1.09375 c -0.93754,3.749998 -2.55212,5.625 -4.84375,5.625 -1.87503,0 -3.75003,-2.031252 -5.625,-6.09375 -2.60419,2.291667 -5.52085,4.218748 -8.75,5.78125 l -1.5625,-2.8125 c 3.74998,-1.874999 6.71873,-3.95833 8.90625,-6.25 -1.25002,-3.645824 -2.08336,-7.916653 -2.5,-12.8125 l -10.15625,0 0,6.25 c 2.29165,-0.52082 4.37498,-1.093737 6.25,-1.71875 l 0.625,3.125 c -2.18752,0.729177 -4.47918,1.40626 -6.875,2.03125 l 0,7.96875 c -1e-5,1.770832 -0.26043,2.968748 -0.78125,3.59375 -0.52084,0.625 -1.56251,0.9375 -3.125,0.9375 -1.87501,0 -3.645838,-0.20834 -5.312499,-0.625 l -0.78125,-3.4375 c 1.874995,0.520833 3.749989,0.78125 5.624999,0.78125 0.72916,0 1.09374,-0.677083 1.09375,-2.03125 l 0,-6.40625 c -2.50001,0.625007 -5.104171,1.197924 -7.812499,1.71875 l -0.625,-3.4375 c 3.020829,-0.520823 5.833329,-1.041656 8.437499,-1.5625 l 0,-7.1875 -8.437499,0 0,-3.125 8.437499,0 0,-5.15625 -5.781249,0.9375 -1.25,-3.125 c 5.416659,-0.520804 10.416649,-1.302053 14.999999,-2.34375 m 12.65625,-0.3125 c 2.0833,2.083363 3.74997,4.322944 5,6.71875 l -2.8125,1.5625 c -1.14586,-2.291641 -2.81253,-4.427055 -5,-6.40625 l 2.8125,-1.875"
         id="path3278"
         style="fill:#000000;fill-opacity:1;stroke:#000000;stroke-opacity:1;stroke-width:2.99999999;stroke-miterlimit:4;stroke-dasharray:none" />
      <path
         d="m 166.91458,64.25 1.5625,2.96875 c -7.91669,1.145862 -17.65627,1.822944 -29.21875,2.03125 l -0.9375,-2.96875 c 9.58332,3e-5 19.11456,-0.677052 28.59375,-2.03125 m -22.1875,5.3125 c 0.93749,1.250026 1.82291,2.656275 2.65625,4.21875 l 4.84375,0 -1.5625,-2.5 2.65625,-1.875 c 0.93748,1.250026 1.8229,2.708358 2.65625,4.375 l 4.6875,0 c 1.14581,-1.874975 2.03122,-3.749973 2.65625,-5.625 l 3.125,1.09375 c -0.62503,1.666692 -1.30211,3.177108 -2.03125,4.53125 l 5,0 0,6.25 -3.125,0 0,-3.4375 -25.625,0 0,3.59375 -3.125,0 0,-6.40625 5.9375,0 -1.40625,-2.34375 2.65625,-1.875 m -7.5,12.34375 8.75,0 c 0.62499,-1.35415 1.14582,-2.760399 1.5625,-4.21875 l 3.28125,0.78125 c -0.41668,1.14585 -0.88543,2.291683 -1.40625,3.4375 l 20.78125,0 0,2.8125 -22.03125,0 -1.40625,2.65625 19.84375,0 0,2.5 c -1.87503,2.395838 -4.27086,4.322919 -7.1875,5.78125 3.33331,0.9375 7.18747,1.458333 11.5625,1.5625 l -0.9375,3.125 c -6.0417,-0.20834 -11.14586,-1.145836 -15.3125,-2.8125 -3.85418,1.249998 -8.33334,2.187497 -13.4375,2.8125 l -1.40625,-3.125 c 4.06249,-0.416667 7.65624,-0.989583 10.78125,-1.71875 l -2.8125,-1.71875 c -0.52085,-0.416663 -1.09376,-0.885413 -1.71875,-1.40625 -0.52084,-0.520828 -1.09376,-1.145828 -1.71875,-1.875 -1.87501,2.395837 -4.01042,4.427085 -6.40625,6.09375 l -2.34375,-2.1875 c 3.4375,-2.395829 6.35416,-5.624992 8.75,-9.6875 l -7.1875,0 0,-2.8125 m 10.625,7.96875 c 1.97915,1.770838 4.37498,3.22917 7.1875,4.375 3.43748,-1.14583 5.98956,-2.604162 7.65625,-4.375 l -14.84375,0"
         id="path3280"
         style="fill:#000000;fill-opacity:1;stroke:#000000;stroke-opacity:1;stroke-width:2.99999999;stroke-miterlimit:4;stroke-dasharray:none" />
      <path
         d="m 186.75833,64.71875 3.125,0 0,35.15625 -3.125,0 0,-8.59375 c -2.91668,2.083337 -6.14584,3.906252 -9.6875,5.46875 l -1.25,-3.4375 c 3.95833,-1.770828 7.60416,-3.69791 10.9375,-5.78125 l 0,-10.625 -10.46875,0 0,-3.125 10.46875,0 0,-9.0625 m 9.21875,0 3.125,0 0,11.71875 c 3.54164,-1.770811 6.87497,-3.802059 10,-6.09375 l 2.03125,2.8125 c -3.64587,2.604188 -7.65628,4.843769 -12.03125,6.71875 l 0,15.15625 c -2e-5,0.416668 0.20831,0.729168 0.625,0.9375 0.52081,0.208334 1.77081,0.3125 3.75,0.3125 1.97914,0 3.17705,-0.104166 3.59375,-0.3125 0.41663,-0.312499 0.72913,-0.833332 0.9375,-1.5625 0.2083,-0.729164 0.36455,-2.552078 0.46875,-5.46875 l 3.28125,0.9375 c -0.1042,3.333337 -0.36462,5.520835 -0.78125,6.5625 -0.4167,1.041666 -1.0417,1.770832 -1.875,2.1875 -0.7292,0.416664 -2.6042,0.624998 -5.625,0.625 -3.22919,-2e-6 -5.31252,-0.260419 -6.25,-0.78125 -0.83335,-0.416668 -1.25002,-1.197917 -1.25,-2.34375 l 0,-31.40625"
         id="path3282"
         style="fill:#000000;fill-opacity:1;stroke:#000000;stroke-opacity:1;stroke-width:2.99999999;stroke-miterlimit:4;stroke-dasharray:none" />
      <path
         d="m 234.10208,64.25 c 0.83331,1.250031 1.45831,2.604197 1.875,4.0625 l 15.46875,0 0,2.96875 -35.625,0 0,-2.96875 16.25,0 c -0.31252,-1.145804 -0.72918,-2.135386 -1.25,-2.96875 L 234.10208,64.25 m -13.59375,10 25.46875,0 0,12.03125 -10.78125,0 0,10 c -2e-5,1.562499 -0.26044,2.604165 -0.78125,3.125 -0.52085,0.625 -1.45835,0.9375 -2.8125,0.9375 -1.87501,0 -3.59376,-0.15625 -5.15625,-0.46875 l -0.625,-3.125 c 1.77082,0.416666 3.54165,0.624999 5.3125,0.625 0.62498,-10e-7 0.93748,-0.625 0.9375,-1.875 l 0,-9.21875 -11.5625,0 0,-12.03125 m 3.125,9.0625 19.21875,0 0,-6.09375 -19.21875,0 0,6.09375 m 1.5625,4.375 2.8125,1.5625 c -2.39584,3.750004 -5.88542,6.927084 -10.46875,9.53125 l -1.875,-2.5 c 4.16666,-2.604164 7.34374,-5.468744 9.53125,-8.59375 m 16.09375,0 c 3.12497,2.39584 6.24997,5.208337 9.375,8.4375 l -2.5,2.65625 c -2.70836,-3.124999 -5.88544,-6.249996 -9.53125,-9.375 l 2.65625,-1.71875"
         id="path3284"
         style="fill:#000000;fill-opacity:1;stroke:#000000;stroke-opacity:1;stroke-width:2.99999999;stroke-miterlimit:4;stroke-dasharray:none" />
      <path
         d="m 258.78958,66.28125 29.375,0 0,2.96875 -13.28125,0 c -2e-5,5.416689 -0.0521,8.437519 -0.15625,9.0625 l 15.625,0 0,2.96875 -15.3125,0 c 2.91664,7.395841 8.43747,12.708336 16.5625,15.9375 l -2.1875,3.28125 c -7.60419,-3.645833 -12.81252,-8.541662 -15.625,-14.6875 -1.87502,6.562504 -7.23959,11.458333 -16.09375,14.6875 l -1.875,-3.125 c 5.10416,-1.770832 8.85416,-3.95833 11.25,-6.5625 2.39582,-2.604158 3.80207,-5.781238 4.21875,-9.53125 l -14.6875,0 0,-2.96875 15,0 c 0.10415,-1.354147 0.15623,-4.374977 0.15625,-9.0625 l -12.96875,0 0,-2.96875"
         id="path3286"
         style="fill:#000000;fill-opacity:1;stroke:#000000;stroke-opacity:1;stroke-width:2.99999999;stroke-miterlimit:4;stroke-dasharray:none" />
      <path
         d="m 313.94583,64.09375 c 0.72915,1.145865 1.30206,2.395864 1.71875,3.75 l 15,0 0,7.1875 -3.125,0 0,-4.375 -27.8125,0 0,4.375 -3.125,0 0,-7.1875 15.625,0 c -0.52085,-1.041637 -1.04168,-1.979136 -1.5625,-2.8125 l 3.28125,-0.9375 m -17.8125,15.15625 10.625,0 c 1.14582,-2.291647 2.1354,-4.531228 2.96875,-6.71875 l 3.4375,0.3125 c -0.83335,2.291688 -1.71877,4.427103 -2.65625,6.40625 l 20.46875,0 0,3.125 -7.65625,0 c -0.83336,3.854177 -2.39586,7.031257 -4.6875,9.53125 3.95831,1.770836 7.76039,3.593751 11.40625,5.46875 l -2.1875,3.125 c -3.02086,-1.979168 -6.97919,-4.0625 -11.875,-6.25 -4.27085,3.020833 -10.10418,5.104164 -17.5,6.25 l -1.5625,-3.125 c 6.56249,-0.9375 11.71874,-2.499998 15.46875,-4.6875 -3.33335,-1.354161 -6.92709,-2.76041 -10.78125,-4.21875 l 3.59375,-6.09375 -9.0625,0 0,-3.125 m 12.8125,3.125 c -0.93751,1.770846 -1.9271,3.333344 -2.96875,4.6875 3.22915,1.145842 6.35415,2.343757 9.375,3.59375 2.18748,-2.083325 3.69789,-4.843739 4.53125,-8.28125 l -10.9375,0"
         id="path3288"
         style="fill:#000000;fill-opacity:1;stroke:#000000;stroke-opacity:1;stroke-width:2.99999999;stroke-miterlimit:4;stroke-dasharray:none" />
      <path
         d="m 343.63333,63.9375 c 1.56249,1.666698 2.76041,3.489613 3.59375,5.46875 l -2.8125,1.71875 c -0.83334,-1.979139 -1.97917,-3.802054 -3.4375,-5.46875 l 2.65625,-1.71875 m 6.71875,1.875 19.21875,0 0,30.3125 c -3e-5,2.916664 -1.19795,4.375 -3.59375,4.375 -0.83336,0 -1.82295,-0.0521 -2.96875,-0.15625 l -0.625,-3.28125 c 1.24997,0.208333 2.23955,0.312499 2.96875,0.3125 0.72914,-10e-7 1.09372,-0.729167 1.09375,-2.1875 l 0,-26.5625 -16.09375,0 0,-2.8125 m -12.65625,5.625 3.125,0 0,28.90625 -3.125,0 0,-28.90625"
         id="path3290"
         style="fill:#000000;fill-opacity:1;stroke:#000000;stroke-opacity:1;stroke-width:2.99999999;stroke-miterlimit:4;stroke-dasharray:none" />
    </g>
  </g>
  <flowRoot
     xml:space="preserve"
     id="flowRoot3101"
     style="fill:black;stroke:none;stroke-opacity:1;stroke-width:1px;stroke-linejoin:miter;stroke-linecap:butt;fill-opacity:1;font-family:Sans;font-style:normal;font-weight:normal;font-size:40px;line-height:125%;letter-spacing:0px;word-spacing:0px"><flowRegion
       id="flowRegion3103"><rect
         id="rect3105"
         width="147.51666"
         height="126.31667"
         x="540.59998"
         y="385.60001" /></flowRegion><flowPara
       id="flowPara3107"></flowPara></flowRoot></svg>
